<?xml version="1.0" encoding="utf-8"?>
<!-- Generator: Adobe Illustrator 16.0.0, SVG Export Plug-In . SVG Version: 6.00 Build 0)  -->
<!DOCTYPE svg PUBLIC "-//W3C//DTD SVG 1.1//EN" "http://www.w3.org/Graphics/SVG/1.1/DTD/svg11.dtd">
<svg version="1.1" id="Layer_1" xmlns="http://www.w3.org/2000/svg" xmlns:xlink="http://www.w3.org/1999/xlink" x="0px" y="0px"
	 width="466.521px" height="86.873px" viewBox="0 0 466.521 86.873" enable-background="new 0 0 466.521 86.873"
	 xml:space="preserve">
<g>
	<g>
		<path fill-rule="evenodd" clip-rule="evenodd" fill="none" d="M0.48,86.873c0-28.798,0-57.596,0-86.393
			c155.347,0,310.694,0,466.042,0c0,28.797,0,57.595,0,86.393C311.174,86.873,155.827,86.873,0.48,86.873z M181.438,44.638
			c0,10.794-0.008,21.589,0.004,32.383c0.004,3.715,0.323,4.056,3.898,4.058c21.749,0.01,43.498,0.011,65.247-0.001
			c3.373-0.002,3.758-0.378,3.76-3.705c0.013-21.829,0.013-43.658,0-65.487c-0.002-3.313-0.4-3.702-3.769-3.704
			c-21.749-0.013-43.498-0.012-65.247-0.001c-3.507,0.002-3.881,0.372-3.886,3.834C181.429,22.889,181.44,33.763,181.438,44.638z
			 M131.191,81.084c10.875,0,21.749,0.007,32.624-0.004c3.851-0.003,4.14-0.281,4.142-4.049c0.008-21.589,0.008-43.178,0-64.767
			c-0.001-3.786-0.303-4.085-4.113-4.086c-21.749-0.008-43.498-0.008-65.247,0.001c-3.679,0.001-4.026,0.337-4.027,3.937
			c-0.011,21.669-0.01,43.338,0,65.007c0.001,3.633,0.33,3.953,3.999,3.957C109.443,81.092,120.317,81.084,131.191,81.084z
			 M7.689,44.643c0,10.794-0.008,21.589,0.004,32.383c0.004,3.708,0.327,4.05,3.906,4.052c21.749,0.01,43.498,0.011,65.247-0.001
			c3.371-0.002,3.75-0.376,3.752-3.71c0.013-21.829,0.013-43.658,0-65.487c-0.002-3.31-0.399-3.696-3.772-3.698
			C55.077,8.169,33.328,8.169,11.579,8.18c-3.5,0.002-3.877,0.375-3.882,3.84C7.68,22.894,7.69,33.769,7.689,44.643z
			 M395.277,29.897c1.237,1.213,1.623,2.714,2.181,4.098c4.126,10.238,8.204,20.495,12.335,30.731
			c0.458,1.134,0.577,2.857,2.093,2.929c1.739,0.083,1.842-1.768,2.321-2.948c5.647-13.937,11.249-27.892,16.859-41.844
			c0.298-0.741,0.589-1.488,0.822-2.251c0.244-0.798,0.003-1.369-0.838-1.707c-2.695-1.081-5.51,0.156-6.588,2.875
			c-3.599,9.071-7.212,18.135-10.845,27.192c-0.311,0.774-0.414,1.748-1.53,2.129c-0.91-0.597-1.13-1.651-1.507-2.582
			c-3.634-8.97-7.29-17.932-10.849-26.932c-0.783-1.98-1.947-2.829-4.111-2.906c-2.609-0.093-4.137,0.81-5.103,3.293
			c-3.479,8.945-7.093,17.838-10.692,26.736c-0.359,0.888-0.417,2.094-1.706,2.348c-0.882-0.644-1.063-1.632-1.413-2.504
			c-3.491-8.683-6.96-17.375-10.439-26.063c-0.268-0.668-0.513-1.351-0.849-1.984c-0.834-1.572-4.757-2.652-6.436-1.547
			c-1.81,1.191-0.203,2.627,0.247,3.768c5.458,13.84,11.008,27.644,16.538,41.456c0.327,0.816,0.615,1.661,1.053,2.417
			c0.91,1.57,1.888,1.541,2.815-0.056c0.318-0.549,0.531-1.163,0.771-1.755c4.366-10.745,8.722-21.493,13.105-32.23
			C393.889,31.636,394.013,30.513,395.277,29.897z M278.558,31.894c1.403,0.831,2.362,2.092,3.385,3.271
			c8.904,10.265,17.798,20.54,26.708,30.8c0.468,0.539,0.991,1.081,1.597,1.438c1.69,0.997,3.565,1.009,5.33,0.386
			c1.404-0.496,1.134-1.965,1.163-3.136c0.043-1.759,0.016-3.519,0.016-5.279c-0.002-12.478,0.011-24.956-0.021-37.434
			c-0.007-2.676-0.619-3.192-3.302-3.197c-2.71-0.004-3.295,0.51-3.355,3.154c-0.053,2.318-0.019,4.639-0.021,6.958
			c-0.005,7.999-0.003,15.997-0.025,23.996c-0.002,0.776,0.137,1.731-0.712,2.153c-0.835,0.415-1.289-0.37-1.749-0.896
			c-5.47-6.26-10.939-12.521-16.394-18.793c-4.301-4.946-8.597-9.897-12.863-14.874c-1.581-1.844-3.625-2.058-5.689-1.453
			c-1.958,0.574-1.411,2.479-1.418,3.912c-0.043,9.198-0.024,18.397-0.022,27.595c0.001,4.879,0.042,9.759-0.001,14.637
			c-0.019,2.14,0.946,3.013,3.059,3.009c3.021-0.006,3.62-0.489,3.627-3.619c0.023-9.758,0-19.517,0.03-29.275
			C277.9,34.18,277.576,33.01,278.558,31.894z M326.87,43.437c0.002,0,0.005,0,0.008,0c0,7.196,0.015,14.392-0.01,21.587
			c-0.007,1.877,0.563,3.095,2.704,3.088c7.835-0.023,15.67-0.007,23.505-0.024c0.991-0.002,1.89-0.219,2.338-1.307
			c1.245-3.023-0.154-5.302-3.356-5.324c-4.957-0.036-9.915-0.062-14.872-0.005c-2.247,0.025-3.199-0.958-3.146-3.18
			c0.067-2.796-0.021-5.597,0.023-8.394c0.045-2.828,0.526-3.299,3.436-3.325c4.477-0.04,8.955-0.06,13.432-0.006
			c2.137,0.026,3.333-0.686,3.27-3.033c-0.067-2.513-0.61-3.151-3.346-3.179c-4.397-0.043-8.794,0.009-13.192-0.036
			c-3-0.03-3.546-0.567-3.597-3.476c-0.048-2.717,0.052-5.438-0.03-8.154c-0.071-2.36,0.974-3.308,3.31-3.27
			c4.636,0.075,9.274,0.033,13.911,0.004c3.251-0.02,3.874-0.596,3.875-3.421c0-2.726-0.549-3.233-3.741-3.243
			c-6.956-0.021-13.912-0.023-20.868,0.001c-3.206,0.012-3.633,0.43-3.646,3.587C326.852,29.365,326.87,36.401,326.87,43.437z
			 M460.819,28.833c0.632-1.16,0.398-2.302,0.402-3.399c0.012-3.813-0.416-4.425-4.032-5.822c-3.436-1.328-6.968-1.728-10.601-0.973
			c-5.343,1.109-9.26,3.848-10.656,9.413c-1.439,5.738,0.667,10.15,5.14,13.688c3.15,2.491,6.788,4.224,10.055,6.531
			c1.247,0.88,2.461,1.781,3.417,2.987c3.425,4.316,1.945,9.142-3.363,10.67c-3.941,1.135-7.42-0.326-10.649-2.405
			c-1.576-1.015-2.951-2.345-4.613-3.692c0,2.527-0.05,4.817,0.02,7.103c0.038,1.226,0.866,2.002,1.89,2.596
			c4.062,2.355,8.407,3.471,13.107,2.99c5.807-0.593,10.199-4.059,11.701-9.196c1.573-5.377-0.301-11.46-4.528-14.999
			c-2.348-1.966-5.023-3.406-7.591-5.026c-1.893-1.194-3.844-2.332-5.574-3.735c-2.016-1.635-3.283-3.785-2.565-6.529
			c0.58-2.214,3.119-3.841,5.979-4.062c3.817-0.294,7.288,0.644,10.433,2.831C459.365,28.203,459.834,28.823,460.819,28.833z"/>
		<path fill-rule="evenodd" clip-rule="evenodd" d="M181.439,44.638c0.001-10.875-0.01-21.749,0.007-32.624
			c0.005-3.462,0.379-3.832,3.886-3.834c21.749-0.011,43.498-0.011,65.247,0.001c3.368,0.002,3.767,0.391,3.769,3.704
			c0.013,21.829,0.013,43.658,0,65.487c-0.002,3.327-0.387,3.703-3.76,3.705c-21.749,0.012-43.498,0.012-65.247,0.001
			c-3.575-0.002-3.894-0.342-3.898-4.058C181.431,66.227,181.438,55.432,181.439,44.638z M223.388,73.454
			c5.248-0.253,10.955-1.252,16.311-3.84c1.064-0.515,2.014-1.13,2.077-2.399c0.095-1.912,0.11-3.832,0.051-5.745
			c-0.039-1.276-0.785-1.684-1.961-1.154c-0.581,0.263-1.136,0.584-1.699,0.886c-6.516,3.495-13.394,5.262-20.782,3.912
			c-7.629-1.394-13.225-5.52-15.895-12.98c-4.282-11.964,2.629-24.133,15.211-27.063c6.811-1.585,13.165,0.146,19.404,2.604
			c4.967,1.957,4.84,2.021,4.89-3.514c0.022-2.499-0.984-3.802-3.29-4.552c-3.96-1.289-7.938-2.41-12.089-2.934
			c-17.229-2.175-32.873,9.247-33.915,25.971c-0.612,9.822,2.583,18.19,10.37,24.577C208.12,72.183,215.292,73.261,223.388,73.454z"
			/>
		<path fill-rule="evenodd" clip-rule="evenodd" d="M131.191,81.084c-10.874,0-21.749,0.008-32.623-0.005
			c-3.669-0.004-3.998-0.324-3.999-3.957c-0.01-21.669-0.01-43.338,0-65.007c0.001-3.6,0.349-3.935,4.027-3.937
			c21.749-0.009,43.498-0.009,65.247-0.001c3.81,0.001,4.111,0.301,4.113,4.086c0.008,21.589,0.008,43.178,0,64.767
			c-0.002,3.768-0.292,4.046-4.142,4.049C152.94,81.091,142.066,81.084,131.191,81.084z M139.888,42.958
			c0.944-0.628,1.514-1.045,2.119-1.403c2.713-1.609,4.257-4.019,4.918-7.058c1.898-8.723-3.721-16.163-12.845-17.236
			c-5.664-0.666-11.331-0.443-16.999-0.461c-2.839-0.009-3.334,0.512-3.338,3.411c-0.021,16.303-0.021,32.607,0.001,48.911
			c0.004,2.839,0.515,3.326,3.411,3.343c5.674,0.034,11.349,0.043,17.022-0.013c2.982-0.03,5.898-0.611,8.638-1.79
			c5.233-2.252,8.641-6.06,9.161-11.886c0.496-5.542-1.634-9.95-6.29-13.132C144.019,44.504,142.053,44.062,139.888,42.958z"/>
		<path fill-rule="evenodd" clip-rule="evenodd" d="M7.689,44.643c0-10.875-0.01-21.749,0.007-32.623
			c0.005-3.464,0.382-3.838,3.882-3.84c21.749-0.011,43.498-0.011,65.247,0.001c3.374,0.002,3.77,0.388,3.772,3.698
			c0.013,21.829,0.013,43.658,0,65.487c-0.002,3.334-0.382,3.708-3.752,3.71c-21.749,0.012-43.498,0.012-65.247,0.001
			c-3.579-0.001-3.901-0.344-3.906-4.052C7.681,66.232,7.689,55.438,7.689,44.643z M52.447,42.977
			c0.381-0.772,1.184-0.853,1.749-1.266c2.446-1.79,4.511-3.891,5.139-6.979c1.839-9.037-3.74-16.437-12.962-17.446
			c-5.585-0.611-11.176-0.45-16.77-0.524c-2.384-0.032-3.252,1.025-3.246,3.337c0.042,16.315,0.01,32.631,0.031,48.946
			c0.004,2.956,0.497,3.407,3.581,3.423c5.518,0.029,11.037,0.044,16.555-0.008c4.002-0.038,7.746-1.14,11.178-3.185
			c4.98-2.967,6.971-7.459,6.554-13.147c-0.427-5.823-3.712-9.491-8.816-11.818C54.453,43.86,53.25,43.869,52.447,42.977z"/>
		<path fill-rule="evenodd" clip-rule="evenodd" d="M395.277,29.897c-1.264,0.616-1.388,1.739-1.765,2.662
			c-4.383,10.737-8.739,21.486-13.105,32.23c-0.241,0.592-0.453,1.206-0.771,1.755c-0.927,1.596-1.905,1.625-2.815,0.056
			c-0.438-0.755-0.726-1.601-1.053-2.417c-5.53-13.812-11.08-27.616-16.538-41.456c-0.449-1.141-2.057-2.577-0.247-3.768
			c1.679-1.105,5.602-0.025,6.436,1.547c0.336,0.633,0.582,1.316,0.849,1.984c3.479,8.688,6.948,17.379,10.439,26.063
			c0.351,0.872,0.531,1.86,1.413,2.504c1.288-0.253,1.347-1.46,1.706-2.348c3.6-8.898,7.213-17.791,10.692-26.736
			c0.966-2.483,2.493-3.386,5.103-3.293c2.164,0.077,3.328,0.926,4.111,2.906c3.559,9,7.214,17.961,10.849,26.932
			c0.377,0.931,0.597,1.985,1.507,2.582c1.116-0.381,1.219-1.355,1.53-2.129c3.633-9.057,7.247-18.121,10.845-27.192
			c1.079-2.718,3.894-3.956,6.588-2.875c0.841,0.338,1.083,0.909,0.838,1.707c-0.233,0.763-0.524,1.51-0.822,2.251
			c-5.61,13.952-11.212,27.907-16.859,41.844c-0.479,1.181-0.582,3.031-2.321,2.948c-1.516-0.072-1.636-1.795-2.093-2.929
			c-4.131-10.236-8.209-20.494-12.335-30.731C396.9,32.611,396.514,31.11,395.277,29.897z"/>
		<path fill-rule="evenodd" clip-rule="evenodd" d="M278.558,31.894c-0.982,1.116-0.658,2.286-0.662,3.355
			c-0.03,9.758-0.007,19.517-0.03,29.275c-0.008,3.13-0.606,3.613-3.627,3.619c-2.112,0.004-3.077-0.869-3.059-3.009
			c0.043-4.878,0.002-9.758,0.001-14.637c-0.002-9.198-0.021-18.397,0.022-27.595c0.007-1.433-0.54-3.338,1.418-3.912
			c2.065-0.605,4.108-0.391,5.689,1.453c4.267,4.976,8.562,9.927,12.863,14.874c5.455,6.273,10.924,12.533,16.394,18.793
			c0.46,0.526,0.914,1.311,1.749,0.896c0.849-0.422,0.71-1.377,0.712-2.153c0.022-7.999,0.02-15.997,0.025-23.996
			c0.002-2.32-0.032-4.64,0.021-6.958c0.061-2.644,0.645-3.159,3.355-3.154c2.684,0.004,3.295,0.521,3.302,3.197
			c0.032,12.478,0.02,24.956,0.021,37.434c0,1.76,0.027,3.52-0.016,5.279c-0.029,1.171,0.241,2.64-1.163,3.136
			c-1.764,0.623-3.64,0.61-5.33-0.386c-0.605-0.357-1.129-0.899-1.597-1.438c-8.91-10.26-17.804-20.535-26.708-30.8
			C280.92,33.986,279.961,32.725,278.558,31.894z"/>
		<path fill-rule="evenodd" clip-rule="evenodd" d="M326.87,43.437c0-7.036-0.018-14.072,0.009-21.107
			c0.012-3.157,0.44-3.576,3.646-3.587c6.956-0.024,13.912-0.022,20.868-0.001c3.192,0.009,3.741,0.517,3.741,3.243
			c-0.001,2.825-0.623,3.401-3.875,3.421c-4.637,0.029-9.275,0.07-13.911-0.004c-2.336-0.038-3.381,0.91-3.31,3.27
			c0.082,2.716-0.018,5.437,0.03,8.154c0.051,2.908,0.598,3.445,3.597,3.476c4.397,0.044,8.795-0.008,13.192,0.036
			c2.736,0.028,3.279,0.666,3.346,3.179c0.063,2.348-1.133,3.059-3.27,3.033c-4.477-0.054-8.955-0.034-13.432,0.006
			c-2.91,0.026-3.391,0.497-3.436,3.325c-0.044,2.797,0.044,5.598-0.023,8.394c-0.053,2.222,0.899,3.205,3.146,3.18
			c4.957-0.056,9.915-0.03,14.872,0.005c3.202,0.022,4.601,2.301,3.356,5.324c-0.448,1.088-1.347,1.305-2.338,1.307
			c-7.835,0.018-15.67,0.001-23.505,0.024c-2.141,0.007-2.711-1.211-2.704-3.088c0.025-7.196,0.01-14.392,0.01-21.587
			C326.875,43.437,326.873,43.437,326.87,43.437z"/>
		<path fill-rule="evenodd" clip-rule="evenodd" d="M460.819,28.833c-0.984-0.01-1.454-0.63-2.028-1.029
			c-3.145-2.187-6.616-3.125-10.433-2.831c-2.86,0.221-5.399,1.848-5.979,4.062c-0.718,2.745,0.549,4.894,2.565,6.529
			c1.73,1.403,3.682,2.541,5.574,3.735c2.568,1.62,5.243,3.06,7.591,5.026c4.227,3.539,6.101,9.622,4.528,14.999
			c-1.502,5.137-5.894,8.603-11.701,9.196c-4.701,0.481-9.045-0.635-13.107-2.99c-1.024-0.594-1.852-1.37-1.89-2.596
			c-0.07-2.286-0.02-4.576-0.02-7.103c1.663,1.347,3.037,2.677,4.613,3.692c3.229,2.079,6.708,3.54,10.649,2.405
			c5.308-1.528,6.788-6.354,3.363-10.67c-0.957-1.206-2.17-2.107-3.417-2.987c-3.267-2.307-6.905-4.04-10.055-6.531
			c-4.473-3.538-6.58-7.95-5.14-13.688c1.396-5.565,5.313-8.304,10.656-9.413c3.632-0.754,7.165-0.354,10.601,0.973
			c3.616,1.397,4.044,2.009,4.032,5.822C461.217,26.531,461.451,27.673,460.819,28.833z"/>
		<path fill-rule="evenodd" clip-rule="evenodd" fill="none" d="M223.388,73.454c-8.097-0.193-15.269-1.271-21.317-6.231
			c-7.787-6.387-10.982-14.755-10.37-24.577c1.042-16.725,16.685-28.146,33.915-25.971c4.151,0.524,8.129,1.645,12.089,2.934
			c2.305,0.75,3.312,2.053,3.29,4.552c-0.049,5.535,0.078,5.471-4.89,3.514c-6.239-2.458-12.593-4.189-19.404-2.604
			C204.119,28,197.208,40.169,201.49,52.133c2.67,7.46,8.266,11.586,15.895,12.98c7.389,1.35,14.267-0.417,20.782-3.912
			c0.563-0.302,1.118-0.624,1.699-0.886c1.176-0.53,1.922-0.123,1.961,1.154c0.059,1.913,0.043,3.833-0.051,5.745
			c-0.063,1.269-1.013,1.885-2.077,2.399C234.343,72.202,228.636,73.201,223.388,73.454z"/>
		<path fill-rule="evenodd" clip-rule="evenodd" fill="none" d="M139.888,42.958c2.165,1.104,4.13,1.546,5.799,2.687
			c4.655,3.182,6.785,7.59,6.29,13.132c-0.521,5.826-3.928,9.633-9.161,11.886c-2.74,1.179-5.656,1.76-8.638,1.79
			c-5.674,0.056-11.349,0.047-17.022,0.013c-2.896-0.018-3.407-0.504-3.411-3.343c-0.023-16.304-0.022-32.607-0.001-48.911
			c0.004-2.899,0.5-3.42,3.338-3.411c5.668,0.018,11.335-0.205,16.999,0.461c9.125,1.073,14.743,8.513,12.845,17.236
			c-0.661,3.039-2.205,5.449-4.918,7.058C141.402,41.913,140.832,42.33,139.888,42.958z M122.45,56.3c-0.004,0-0.008,0-0.012,0
			c0,1.994-0.015,3.987,0.005,5.98c0.014,1.367,0.575,2.375,2.075,2.405c3.902,0.079,7.829,0.423,11.699-0.207
			c4.231-0.688,7.027-3.875,7.169-7.796c0.127-3.511-2.591-6.708-6.563-7.818c-3.991-1.115-8.061-0.88-12.124-0.8
			c-1.437,0.028-2.215,0.826-2.24,2.256C122.424,52.313,122.45,54.307,122.45,56.3z M127.749,24.528
			c-0.958,0-1.916-0.011-2.874,0.002c-1.533,0.022-2.414,0.774-2.423,2.341c-0.023,3.673-0.023,7.346-0.001,11.019
			c0.008,1.258,0.539,2.215,1.921,2.304c3.447,0.223,6.885,0.249,10.072-1.394c2.747-1.417,4.289-4.276,4.003-7.318
			c-0.307-3.277-2.078-5.434-5.242-6.415C131.421,24.516,129.59,24.47,127.749,24.528z"/>
		<path fill-rule="evenodd" clip-rule="evenodd" fill="none" d="M52.447,42.977c0.803,0.892,2.006,0.883,2.993,1.333
			c5.104,2.328,8.39,5.996,8.816,11.818c0.417,5.688-1.573,10.18-6.554,13.147c-3.433,2.045-7.176,3.146-11.178,3.185
			c-5.518,0.053-11.037,0.038-16.555,0.008c-3.084-0.016-3.577-0.467-3.581-3.423c-0.021-16.315,0.01-32.631-0.031-48.946
			c-0.006-2.312,0.862-3.369,3.246-3.337c5.594,0.074,11.185-0.087,16.77,0.524c9.222,1.009,14.801,8.41,12.962,17.446
			c-0.628,3.087-2.693,5.188-5.139,6.979C53.631,42.124,52.829,42.205,52.447,42.977z M34.587,56.466
			c0,1.998,0.019,3.997-0.006,5.995c-0.024,1.892,0.869,2.763,2.768,2.78c3.519,0.033,7.025,0.005,10.523-0.494
			c4.362-0.623,7.493-3.611,7.73-7.535c0.254-4.195-2.374-7.401-6.949-8.408c-3.775-0.831-7.608-0.878-11.453-0.779
			c-1.797,0.046-2.622,0.926-2.612,2.686C34.6,52.629,34.592,54.547,34.587,56.466z M34.592,32.219c0.007,0,0.014,0,0.021,0
			c0,1.917-0.028,3.833,0.01,5.749c0.022,1.145,0.488,2.109,1.757,2.191c3.508,0.228,7.036,0.476,10.339-1.168
			c2.842-1.415,4.359-4.31,4.064-7.756c-0.265-3.087-2.046-5.157-5.254-6.085c-2.73-0.79-5.531-0.669-8.327-0.638
			c-1.796,0.02-2.624,0.916-2.613,2.677C34.6,28.866,34.592,30.542,34.592,32.219z"/>
		<path fill-rule="evenodd" clip-rule="evenodd" d="M122.45,56.3c0-1.993-0.026-3.987,0.009-5.979
			c0.025-1.43,0.803-2.228,2.24-2.256c4.063-0.08,8.132-0.315,12.124,0.8c3.972,1.11,6.69,4.308,6.563,7.818
			c-0.142,3.921-2.938,7.109-7.169,7.796c-3.87,0.629-7.797,0.285-11.699,0.207c-1.5-0.03-2.061-1.038-2.075-2.405
			c-0.021-1.993-0.005-3.986-0.005-5.98C122.442,56.3,122.446,56.3,122.45,56.3z"/>
		<path fill-rule="evenodd" clip-rule="evenodd" d="M127.749,24.528c1.841-0.059,3.672-0.013,5.456,0.54
			c3.164,0.981,4.935,3.138,5.242,6.415c0.286,3.042-1.256,5.902-4.003,7.318c-3.187,1.643-6.625,1.617-10.072,1.394
			c-1.382-0.089-1.914-1.046-1.921-2.304c-0.022-3.673-0.022-7.346,0.001-11.019c0.01-1.567,0.891-2.319,2.423-2.341
			C125.833,24.517,126.791,24.528,127.749,24.528z"/>
		<path fill-rule="evenodd" clip-rule="evenodd" d="M34.589,56.466c0.003-1.918,0.011-3.836,0-5.755
			c-0.01-1.76,0.814-2.64,2.612-2.686c3.845-0.1,7.678-0.052,11.453,0.779c4.575,1.007,7.203,4.213,6.949,8.408
			c-0.238,3.924-3.369,6.913-7.73,7.535c-3.499,0.499-7.004,0.526-10.523,0.494c-1.899-0.018-2.792-0.889-2.768-2.78
			C34.606,60.462,34.587,58.464,34.589,56.466z"/>
		<path fill-rule="evenodd" clip-rule="evenodd" d="M34.592,32.219c0-1.677,0.008-3.354-0.002-5.03
			c-0.011-1.761,0.817-2.657,2.613-2.677c2.796-0.031,5.596-0.152,8.327,0.638c3.208,0.928,4.99,2.998,5.254,6.085
			c0.295,3.446-1.222,6.341-4.064,7.756c-3.303,1.644-6.831,1.396-10.339,1.168c-1.269-0.083-1.734-1.047-1.757-2.191
			c-0.038-1.916-0.01-3.833-0.01-5.749C34.606,32.219,34.599,32.219,34.592,32.219z"/>
	</g>
</g>
</svg>
