<?xml version="1.0" encoding="utf-8"?>
<!-- Generator: Adobe Illustrator 16.0.0, SVG Export Plug-In . SVG Version: 6.00 Build 0)  -->
<!DOCTYPE svg PUBLIC "-//W3C//DTD SVG 1.1//EN" "http://www.w3.org/Graphics/SVG/1.1/DTD/svg11.dtd">
<svg version="1.1" id="Layer_1" xmlns="http://www.w3.org/2000/svg" xmlns:xlink="http://www.w3.org/1999/xlink" x="0px" y="0px"
	 width="264px" height="99px" viewBox="0 0 264 99" enable-background="new 0 0 264 99" xml:space="preserve">
<g>
	<g>
		<path fill-rule="evenodd" clip-rule="evenodd" d="M1,100C1,67,1,34,1,1c213.334,0,426.667,0,640,0c0,33,0,66,0,99
			C427.667,100,214.334,100,1,100z M199.003,54.025l-0.065-0.083c-0.551,0.358-1.065,0.794-1.656,1.063
			c-5.186,2.356-7.007,5.664-6.042,11.041c0.753,4.188,3.688,6.551,9.189,6.628c3.921,0.055,7.851-0.582,13.184-1.028
			c4.976,1.545,5.228,1.55,9.293-0.464c-0.148-2.074,0.398-4.771-0.643-6.525c-1.511-2.545-1.399-5.017-1.467-7.624
			c-0.057-2.157,0.068-4.327-0.115-6.472c-0.274-3.178-1.565-6.053-4.827-6.883c-7.91-2.012-15.662-1.507-23.473,2.367
			C194.479,49.177,195.276,52.747,199.003,54.025z M58.327,68.062c-0.452,0.373-0.793,0.76-1.22,0.992
			c-3.252,1.778-3.452,4.736-2.735,7.783c0.734,3.118,3.403,3.748,6.178,4.021c6.122,0.602,12.243,0.871,18.347-0.125
			c6.171-1.006,8.644-4.178,8.152-10.34c-0.295-3.712-1.68-5.476-5.313-6.117c-2.93-0.517-5.924-0.676-8.89-0.98
			c-1.348-0.138-2.698-0.244-4.048-0.364c2.945-1.187,5.874-1.529,8.766-2.069c5.713-1.068,7.473-3.395,7.313-9.271
			c-0.043-1.586-0.306-3.349,0.262-4.73c1.018-2.473,0.828-4.75,0.244-7.217c-7.86,1.28-15.542,2.374-23.152,3.833
			c-4.133,0.792-6.366,3.57-6.237,7.837c0.09,3.018,1.112,6.007,1.717,9.009c0.206-0.033,0.41-0.066,0.615-0.099
			C58.327,62.697,58.327,65.17,58.327,68.062z M28.831,43.291c-2.548-0.322-4.504-0.796-6.457-0.777
			c-8.337,0.081-12.648,2.201-13.947,9.592c-0.623,3.542-0.464,7.317-0.062,10.92c0.692,6.191,4.81,9.688,11.176,9.705
			c3.448,0.01,6.896-0.484,10.99-0.802c2.564,1.726,5.64,0.415,9.241-0.621c0.003-12.64,0.079-25.151-0.04-37.85
			c-3.775,0-6.841,0-10.184,0C29.313,36.678,29.101,39.596,28.831,43.291z M179.171,72.153c4.658,0.966,5.568,0.905,10.356-1.231
			c0-12.344,0-24.729,0-37.342c-3.545-0.581-6.732-0.892-10.044,0.214c-0.209,3.103-0.405,6.021-0.634,9.417
			c-2.397-0.267-4.325-0.644-6.256-0.666c-8.821-0.105-13.093,2.57-14.206,9.83c-0.522,3.405-0.407,6.985-0.051,10.431
			c0.646,6.253,4.696,9.847,10.984,9.926C172.601,72.772,175.886,72.36,179.171,72.153z M156.861,57.702
			c0-0.83,0.028-1.662-0.004-2.492c-0.288-7.327-3.863-11.417-11.168-12.172c-3.416-0.353-6.945-0.27-10.356,0.152
			c-6.019,0.743-9.586,4.563-10.079,10.52c-0.23,2.803-0.236,5.666,0.055,8.46c0.489,4.719,3.169,8.032,7.629,9.546
			c4.813,1.634,9.84,1.643,14.735,0.432c5.887-1.456,8.909-5.445,9.179-11.454C156.896,59.698,156.858,58.699,156.861,57.702z
			 M224.497,80.306c11.08,1.725,14.185-0.05,17.93-9.879c2.779-7.294,5.555-14.59,8.306-21.896c0.575-1.526,1.038-3.095,1.682-5.033
			c-3.835,0-7.234,0-10.704,0c-1.557,4.132-3.037,8.063-4.911,13.035c-2.101-5.23-3.733-9.288-5.19-12.915
			c-4.155,0-7.544,0-11.256,0c3.085,9.993,7.841,18.917,10.431,28.941c-2.557,0.534-4.418,0.924-6.289,1.314
			C224.497,76.112,224.497,78.074,224.497,80.306z M106.226,52.332c0,4.126,0.021,7.936-0.007,11.745
			c-0.018,2.45,0.43,5.034,2.571,6.168c2.412,1.277,5.265,1.889,8,2.343c2.047,0.34,4.385,0.602,5.941-1.55c0-2.099,0-4.186,0-6.125
			c-2.057-0.74-3.725-1.341-5.593-2.013c0-3.688,0-7.094,0-10.65c2.029-0.402,3.757-0.745,5.545-1.101c0-2.642,0-5.031,0-7.475
			c-2.017-0.371-3.607-0.664-5.407-0.995c-0.342-2.522-0.661-4.872-1.018-7.503c-2.914,0.679-5.284,1.23-7.56,1.76
			c-0.889,2.14-1.645,3.958-2.371,5.706c-1.748,0.448-3.3,0.847-4.801,1.231c0,2.587,0,4.879,0,7.355
			C102.954,51.564,104.208,51.858,106.226,52.332z M51.859,71.872c1.633-3.879,1.837-23.206,0.353-28.249c-3.151,0-6.346,0-9.483,0
			c-0.911,7.503-0.618,24.571,0.508,28.249C46.09,71.872,49.028,71.872,51.859,71.872z M88.543,43.407c0,9.756,0,18.951,0,28.234
			c3.661,0.554,6.895,1.122,9.967-0.373c1.239-6.502,0.874-24.378-0.581-27.861C95.024,43.407,92.061,43.407,88.543,43.407z
			 M42.696,33.451c0,2.626,0,4.811,0,7.338c3.587-0.156,6.82,0.781,10.009-0.74c0-2.187,0-4.229,0-6.598
			C49.246,33.451,46.188,33.451,42.696,33.451z M98.773,33.211c-3.894,0.16-7.119-0.791-10.139,0.663c0,2.317,0,4.385,0,6.587
			c3.514,0,6.689,0,10.139,0C98.773,37.996,98.773,35.948,98.773,33.211z"/>
		<path fill-rule="evenodd" clip-rule="evenodd" fill="#FFFFFF" d="M58.327,68.062c0-2.892,0-5.364,0-7.837
			c-0.205,0.032-0.409,0.065-0.615,0.099c-0.605-3.002-1.627-5.991-1.717-9.009c-0.129-4.267,2.104-7.045,6.237-7.837
			c7.611-1.459,15.292-2.553,23.152-3.833c0.584,2.467,0.773,4.744-0.244,7.217c-0.568,1.382-0.306,3.145-0.262,4.73
			c0.16,5.876-1.6,8.202-7.313,9.271c-2.892,0.54-5.821,0.883-8.766,2.069c1.35,0.12,2.7,0.227,4.048,0.364
			c2.966,0.305,5.96,0.464,8.89,0.98c3.633,0.642,5.017,2.405,5.313,6.117c0.492,6.162-1.981,9.334-8.152,10.34
			c-6.104,0.996-12.225,0.727-18.347,0.125c-2.775-0.273-5.444-0.903-6.178-4.021c-0.717-3.047-0.518-6.005,2.735-7.783
			C57.533,68.821,57.875,68.435,58.327,68.062z M76.053,71.978c-4.966-2.558-7.8-2.383-10.918,0.477
			C68.254,76.393,72.982,76.316,76.053,71.978z M66.161,52.846c2.835,3.989,4.109,4.125,7.932,1.035
			c0.483-2.046-0.624-3.166-2.41-3.649C69.345,49.599,67.435,50.235,66.161,52.846z"/>
		<path fill-rule="evenodd" clip-rule="evenodd" fill="#FFFFFF" d="M28.831,43.291c0.27-3.695,0.482-6.613,0.717-9.833
			c3.343,0,6.409,0,10.184,0c0.119,12.698,0.043,25.21,0.04,37.85c-3.601,1.036-6.677,2.347-9.241,0.621
			c-4.094,0.317-7.542,0.812-10.99,0.802c-6.366-0.018-10.483-3.514-11.176-9.705c-0.403-3.603-0.561-7.378,0.062-10.92
			c1.299-7.391,5.61-9.511,13.947-9.592C24.327,42.495,26.283,42.969,28.831,43.291z M18.812,57.518
			c-0.095,4.075,1.83,6.646,4.949,6.616c3.023-0.029,5.367-2.856,5.386-6.494c0.017-3.613-1.941-5.838-5.182-5.886
			C20.584,51.703,18.904,53.583,18.812,57.518z"/>
		<path fill-rule="evenodd" clip-rule="evenodd" fill="#FFFFFF" d="M179.171,72.153c-3.285,0.207-6.57,0.619-9.852,0.578
			c-6.288-0.079-10.339-3.673-10.984-9.926c-0.356-3.445-0.471-7.025,0.051-10.431c1.113-7.26,5.385-9.936,14.206-9.83
			c1.931,0.022,3.858,0.399,6.256,0.666c0.229-3.396,0.425-6.314,0.634-9.417c3.312-1.105,6.5-0.795,10.044-0.214
			c0,12.612,0,24.998,0,37.342C184.739,73.059,183.829,73.119,179.171,72.153z M179.145,57.431c-0.078-3.617-2.087-5.736-5.388-5.68
			c-3.464,0.06-5.098,2.199-4.942,6.47c0.139,3.778,2.135,6.066,5.154,5.908C176.948,63.973,179.221,61.03,179.145,57.431z"/>
		<path fill-rule="evenodd" clip-rule="evenodd" fill="#FFFFFF" d="M199.003,54.025c-3.728-1.278-4.524-4.849-6.621-7.98
			c7.812-3.874,15.563-4.379,23.473-2.367c3.262,0.83,4.553,3.705,4.827,6.883c0.184,2.145,0.058,4.314,0.115,6.472
			c0.067,2.607-0.044,5.079,1.467,7.624c1.041,1.754,0.495,4.451,0.643,6.525c-4.065,2.014-4.317,2.009-9.293,0.464
			c-5.333,0.446-9.263,1.083-13.184,1.028c-5.501-0.077-8.437-2.44-9.189-6.628c-0.966-5.377,0.855-8.685,6.042-11.041
			c0.591-0.269,1.105-0.704,1.656-1.063c3.586,0.129,7.23,0.788,10.59-1.1C205.723,50.739,202.205,51.059,199.003,54.025z
			 M209.841,60.515c-2.055-1.134-4.178-0.89-6.153,0.06c-0.854,0.41-1.393,1.479-2.151,2.338
			C206.473,65.665,208.904,64.869,209.841,60.515z"/>
		<path fill-rule="evenodd" clip-rule="evenodd" fill="#FFFFFF" d="M156.86,57.702c-0.002,0.997,0.036,1.996-0.008,2.991
			c-0.27,6.009-3.292,9.998-9.179,11.454c-4.895,1.211-9.922,1.202-14.735-0.432c-4.459-1.514-7.14-4.827-7.629-9.546
			c-0.291-2.794-0.285-5.657-0.055-8.46c0.493-5.957,4.06-9.776,10.079-10.52c3.411-0.422,6.94-0.505,10.356-0.152
			c7.305,0.755,10.88,4.845,11.168,12.172C156.89,56.04,156.861,56.872,156.86,57.702z M146.259,58.427
			c0.188-3.992-1.722-6.499-5.046-6.62c-3.231-0.118-5.228,2.012-5.392,5.751c-0.175,3.961,1.786,6.546,5.032,6.636
			C144.097,64.282,146.083,62.163,146.259,58.427z"/>
		<path fill-rule="evenodd" clip-rule="evenodd" fill="#FFFFFF" d="M224.497,80.306c0-2.231,0-4.193,0-6.432
			c1.871-0.391,3.732-0.78,6.289-1.314c-2.59-10.024-7.346-18.948-10.431-28.941c3.711,0,7.101,0,11.256,0
			c1.458,3.627,3.09,7.685,5.19,12.915c1.874-4.973,3.354-8.903,4.911-13.035c3.469,0,6.868,0,10.704,0
			c-0.645,1.938-1.107,3.507-1.682,5.033c-2.751,7.306-5.527,14.602-8.306,21.896C238.682,80.256,235.577,82.03,224.497,80.306z"/>
		<path fill-rule="evenodd" clip-rule="evenodd" fill="#FFFFFF" d="M106.226,52.332c-2.018-0.474-3.272-0.768-4.7-1.103
			c0-2.477,0-4.769,0-7.355c1.501-0.385,3.053-0.783,4.801-1.231c0.726-1.748,1.482-3.566,2.371-5.706
			c2.276-0.529,4.646-1.081,7.56-1.76c0.357,2.631,0.675,4.98,1.018,7.503c1.8,0.331,3.391,0.624,5.407,0.995
			c0,2.443,0,4.833,0,7.475c-1.789,0.355-3.516,0.698-5.545,1.101c0,3.557,0,6.962,0,10.65c1.868,0.672,3.537,1.272,5.593,2.013
			c0,1.939,0,4.026,0,6.125c-1.556,2.151-3.894,1.89-5.941,1.55c-2.735-0.454-5.587-1.065-8-2.343
			c-2.141-1.134-2.589-3.718-2.571-6.168C106.247,60.268,106.226,56.458,106.226,52.332z"/>
		<path fill-rule="evenodd" clip-rule="evenodd" fill="#FFFFFF" d="M51.859,71.872c-2.831,0-5.769,0-8.623,0
			c-1.126-3.678-1.419-20.746-0.508-28.249c3.138,0,6.332,0,9.483,0C53.696,48.666,53.492,67.993,51.859,71.872z"/>
		<path fill-rule="evenodd" clip-rule="evenodd" fill="#FFFFFF" d="M88.543,43.407c3.518,0,6.48,0,9.387,0
			c1.454,3.483,1.82,21.359,0.581,27.861c-3.073,1.495-6.306,0.927-9.967,0.373C88.543,62.358,88.543,53.163,88.543,43.407z"/>
		<path fill-rule="evenodd" clip-rule="evenodd" fill="#FFFFFF" d="M42.696,33.451c3.492,0,6.55,0,10.009,0c0,2.368,0,4.411,0,6.598
			c-3.188,1.521-6.422,0.584-10.009,0.74C42.696,38.262,42.696,36.077,42.696,33.451z"/>
		<path fill-rule="evenodd" clip-rule="evenodd" fill="#FFFFFF" d="M98.773,33.211c0,2.737,0,4.785,0,7.25c-3.45,0-6.625,0-10.139,0
			c0-2.202,0-4.27,0-6.587C91.654,32.42,94.879,33.371,98.773,33.211z"/>
		<path fill-rule="evenodd" clip-rule="evenodd" d="M76.053,71.978c-3.07,4.339-7.799,4.415-10.918,0.477
			C68.253,69.595,71.087,69.42,76.053,71.978z"/>
		<path fill-rule="evenodd" clip-rule="evenodd" d="M66.161,52.846c1.274-2.61,3.184-3.247,5.522-2.614
			c1.786,0.483,2.893,1.604,2.41,3.649C70.271,56.971,68.997,56.835,66.161,52.846z"/>
		<path fill-rule="evenodd" clip-rule="evenodd" d="M18.812,57.518c0.092-3.935,1.772-5.814,5.153-5.764
			c3.24,0.048,5.199,2.272,5.182,5.886c-0.019,3.638-2.362,6.465-5.386,6.494C20.641,64.164,18.717,61.593,18.812,57.518z"/>
		<path fill-rule="evenodd" clip-rule="evenodd" d="M179.145,57.431c0.077,3.6-2.196,6.542-5.176,6.698
			c-3.019,0.158-5.015-2.13-5.154-5.908c-0.156-4.271,1.478-6.41,4.942-6.47C177.058,51.694,179.067,53.813,179.145,57.431z"/>
		<path fill-rule="evenodd" clip-rule="evenodd" d="M209.841,60.515c-0.938,4.354-3.369,5.15-8.304,2.397
			c0.758-0.858,1.296-1.928,2.151-2.338C205.664,59.625,207.786,59.381,209.841,60.515z"/>
		<path fill-rule="evenodd" clip-rule="evenodd" d="M199.003,54.025c3.201-2.967,6.72-3.286,10.524-1.183
			c-3.36,1.888-7.004,1.229-10.59,1.1L199.003,54.025z"/>
		<path fill-rule="evenodd" clip-rule="evenodd" d="M146.259,58.427c-0.177,3.736-2.163,5.855-5.406,5.767
			c-3.246-0.09-5.207-2.675-5.032-6.636c0.164-3.739,2.161-5.869,5.392-5.751C144.537,51.928,146.447,54.435,146.259,58.427z"/>
	</g>
</g>
</svg>
