<?xml version="1.0" encoding="utf-8"?>
<!-- Generator: Adobe Illustrator 16.0.0, SVG Export Plug-In . SVG Version: 6.00 Build 0)  -->
<!DOCTYPE svg PUBLIC "-//W3C//DTD SVG 1.1//EN" "http://www.w3.org/Graphics/SVG/1.1/DTD/svg11.dtd">
<svg version="1.1" id="Layer_1" xmlns="http://www.w3.org/2000/svg" xmlns:xlink="http://www.w3.org/1999/xlink" x="0px" y="0px"
	 width="171.84px" height="28.869px" viewBox="0 0 171.84 28.869" enable-background="new 0 0 171.84 28.869" xml:space="preserve">
<g>
	<g>
		<path fill-rule="evenodd" clip-rule="evenodd" fill="none" d="M172.081,10.32c0,7.76,0,15.521,0,23.28
			c-57.28,0-114.561,0-171.84,0c0-11.12,0-22.24,0-33.36c57.28,0,114.56,0,171.84,0c0,2.4,0,4.8,0,7.2
			c-2.986-0.063-5.971-0.142-8.958-0.162c-0.271-0.001-0.761,0.36-0.776,0.579c-0.056,0.811,0.044,1.632,0.086,2.45
			c0.623-0.078,1.246-0.156,1.868-0.235c0.039-0.005,0.077-0.021,0.114-0.036c1.333-0.524,1.577-0.358,1.626,1.082
			c0.099,2.859-0.329,5.643-1.092,8.393c-0.797,2.871-0.77,2.839,2.273,2.832c1.002-0.002,1.415-0.456,1.435-1.33
			c0.029-1.234,0.004-2.473-0.064-3.707c-0.111-1.989-0.381-3.975-0.39-5.963c-0.007-1.801,0.341-1.908,2.021-1.247
			C170.786,10.316,171.458,10.253,172.081,10.32z M50.866,13.045c0.107-0.006,0.215-0.012,0.322-0.018
			c0.299,0.685,0.627,1.359,0.893,2.057c0.752,1.976,1.472,3.965,2.218,5.943c0.471,1.249,1.3,1.632,2.777,1.271
			c1.076-0.262,0.6-1.134,0.638-1.781c0.047-0.797,0.013-1.598,0.056-2.396c0.161-2.99,0.378-5.978,0.496-8.969
			c0.076-1.92,0.014-1.922-1.916-1.913c-1.542,0.007-1.569,0.063-1.068,1.576c0.639,1.93,0.964,3.889,0.4,5.941
			c-0.81-1.735-1.509-3.497-2.147-5.281c-0.794-2.224-0.862-2.294-3.255-2.236c-1.22,0.03-1.435,0.285-1.113,1.452
			c0.553,2,0.415,3.948-0.347,5.864c-0.472,1.187-1.071,2.339-1.385,3.566c-0.248,0.966-0.318,2.05-0.157,3.031
			c0.184,1.124,1.731,1.636,3.201,1.129c1.141-0.394,0.47-1.289,0.319-1.932C50.22,17.893,50.213,15.466,50.866,13.045z
			 M84.892,14.689c-0.111,0.038-0.223,0.075-0.335,0.113c-0.664-1.738-1.359-3.464-1.985-5.215
			c-0.854-2.391-0.901-2.423-3.411-2.358c-0.982,0.026-1.332,0.423-1.032,1.35c0.727,2.251,0.387,4.405-0.52,6.531
			c-0.516,1.209-1.058,2.424-1.408,3.686c-0.668,2.408,0.213,3.552,2.565,3.523c1.311-0.016,1.504-0.229,1.153-1.499
			c-0.653-2.359-0.681-4.729-0.229-7.117c0.043-0.231,0.192-0.442,0.397-0.894c0.415,0.955,0.756,1.667,1.039,2.403
			c0.786,2.048,1.53,4.111,2.325,6.155c0.356,0.917,1.379,1.253,2.643,0.934c0.933-0.236,0.602-0.963,0.6-1.568
			c-0.001-0.678-0.006-1.358,0.035-2.035c0.188-3.107,0.428-6.212,0.577-9.322c0.101-2.111-0.001-2.164-2.087-2.136
			c-1.354,0.018-1.442,0.145-0.966,1.482C84.947,10.667,85.171,12.653,84.892,14.689z M118.77,13.019
			c0.26,0.574,0.55,1.136,0.774,1.723c0.756,1.976,1.487,3.962,2.232,5.942c0.623,1.656,1.048,1.932,2.777,1.598
			c0.296-0.058,0.715-0.525,0.733-0.823c0.234-3.986,0.441-7.976,0.583-11.967c0.083-2.326-0.09-2.41-2.417-2.263
			c-0.803,0.05-0.952,0.394-0.755,1.084c0.284,0.996,0.657,1.985,0.779,3.003c0.135,1.127,0.031,2.283,0.031,3.426
			c-0.125,0.015-0.249,0.031-0.373,0.046c-0.67-1.784-1.352-3.564-2.008-5.353c-0.813-2.215-0.826-2.234-3.17-2.196
			c-1.289,0.021-1.527,0.286-1.167,1.502c0.569,1.923,0.407,3.792-0.299,5.634c-0.5,1.304-1.142,2.569-1.496,3.91
			c-0.244,0.925-0.259,1.977-0.096,2.924c0.18,1.042,1.959,1.601,3.242,1.063c0.987-0.415,0.417-1.232,0.27-1.872
			C117.842,17.953,117.806,15.524,118.77,13.019z M146.325,11.555c-0.132-0.026-0.264-0.051-0.396-0.077
			c-0.301-0.646-0.635-1.279-0.896-1.941c-0.998-2.522-0.409-2.294-3.525-2.291c-1.168,0.001-1.387,0.299-0.956,1.365
			c0.714,1.763,0.717,3.492-0.065,5.229c-0.558,1.237-1.115,2.476-1.633,3.73c-0.521,1.263-0.642,2.563-0.058,3.84
			c0.379,0.831,2.246,1.338,3.211,0.841c0.919-0.473,0.325-1.233,0.268-1.908c-0.153-1.821-0.302-3.646-0.333-5.471
			c-0.011-0.657,0.317-1.319,0.577-2.307c0.643,1.231,1.072,2.127,1.568,2.984c0.583,1.009,0.996,1.01,1.603,0.021
			c0.525-0.857,1.004-1.742,1.503-2.615c0.327,0.426,0.436,0.771,0.407,1.104c-0.195,2.216-0.436,4.428-0.622,6.645
			c-0.04,0.474,0.009,1.352,0.144,1.378c0.841,0.161,1.747,0.267,2.567,0.091c0.278-0.06,0.512-0.984,0.525-1.52
			c0.102-4.07,0.109-8.144,0.229-12.213c0.031-1.052-0.477-1.367-1.278-1.145c-0.489,0.136-0.975,0.642-1.252,1.107
			C147.31,9.41,146.845,10.499,146.325,11.555z M6.756,15.481c2.562,0.002,2.952,0.463,2.425,2.985
			c-0.18,0.857-0.505,1.685-0.677,2.543c-0.069,0.345,0.07,1.051,0.159,1.059c1.094,0.091,2.198,0.114,3.295,0.059
			c0.127-0.006,0.335-0.591,0.316-0.897c-0.046-0.752-0.305-1.499-0.296-2.245c0.037-3.112,0.143-6.223,0.22-9.334
			c0.056-2.234-0.336-2.587-2.561-2.415C8.745,7.304,8.526,7.71,8.839,8.508c0.233,0.594,0.476,1.189,0.647,1.802
			c0.432,1.543,0.17,1.88-1.391,1.891c-0.44,0.003-0.888-0.044-1.317,0.024c-0.97,0.154-1.336-0.306-1.302-1.196
			c0.016-0.434,0.031-0.884,0.156-1.294c0.805-2.64,0.785-2.654-1.999-2.506C2.768,7.275,2.387,7.688,2.681,8.443
			c1.043,2.678,0.197,5.077-0.907,7.488c-0.495,1.082-0.972,2.211-1.195,3.37c-0.409,2.121,0.382,2.979,2.482,2.979
			c0.32,0,0.64-0.004,0.959,0c0.768,0.01,1.02-0.394,0.8-1.079c-0.206-0.644-0.509-1.256-0.724-1.898
			C3.231,16.724,4.104,15.479,6.756,15.481z M127.293,15.313c0.146,1.521,0.197,2.921,0.43,4.291
			c0.313,1.831,1.396,2.677,3.242,2.713c0.798,0.015,1.597-0.004,2.395,0.004c1.325,0.013,2.346-0.555,2.92-1.729
			c1.773-3.628,2.042-7.423,0.98-11.289c-0.399-1.451-1.34-2.025-2.871-2.057c-1.077-0.022-2.155-0.008-3.233-0.004
			c-1.991,0.007-2.872,0.62-3.235,2.611C127.587,11.687,127.485,13.565,127.293,15.313z M108.117,16.759
			c2.362,0,2.479,0.127,2.063,2.538c-0.114,0.663-0.401,1.296-0.519,1.959c-0.052,0.292,0.103,0.891,0.19,0.896
			c1.021,0.059,2.114,0.236,3.043-0.065c0.436-0.142,0.759-1.24,0.789-1.919c0.108-2.521-0.812-4.834-1.588-7.19
			c-0.502-1.52-0.71-3.15-0.916-4.748c-0.09-0.694-0.243-1.021-0.975-0.997c-0.998,0.032-1.998,0.038-2.995-0.002
			c-0.813-0.032-1.063,0.291-1.162,1.108c-0.176,1.445-0.432,2.905-0.88,4.285c-0.75,2.307-1.796,4.521-2.496,6.841
			c-0.672,2.228,0.009,2.891,2.312,2.836c1.041-0.024,1.366-0.43,1.185-1.397c-0.095-0.509-0.146-1.027-0.221-1.54
			C105.616,17.09,105.891,16.76,108.117,16.759z M157.583,7.241c-0.4,0-0.806,0.045-1.198-0.009
			c-1.149-0.157-1.409,0.377-1.42,1.444c-0.011,1.017-0.205,2.071-0.533,3.036c-0.55,1.621-1.34,3.159-1.896,4.778
			c-0.475,1.384-0.853,2.816-1.102,4.257c-0.173,1.003,0.471,1.552,1.498,1.568c0.359,0.005,0.72-0.053,1.077-0.028
			c0.928,0.065,1.195-0.386,1.087-1.245c-0.128-1.027-0.266-2.063-0.26-3.094c0.002-0.385,0.381-1.085,0.617-1.098
			c1.172-0.063,2.354,0.057,3.533,0.112c-0.022,1.052,0.127,2.145-0.102,3.149c-0.511,2.241-0.588,2.224,1.76,2.208
			c0.16,0,0.32-0.001,0.479-0.001c0.809,0.002,1.281-0.412,1.382-1.198c0.076-0.589,0.215-1.22,0.085-1.776
			c-0.506-2.166-1.11-4.308-1.673-6.461c-0.321-1.229-0.809-2.445-0.907-3.692c-0.152-1.941-0.039-1.95-1.95-1.95
			C157.902,7.241,157.742,7.241,157.583,7.241z M65.886,13.49c0.17,0.598,0.306,1.038,0.419,1.484
			c0.225,0.886,0.56,1.767,0.625,2.665c0.094,1.311-0.979,2.322-2.322,2.392c-1.359,0.07-2.131-0.395-2.109-1.534
			c0.053-2.771,0.436-5.505,1.812-7.975c0.792-1.421,1.531-1.612,3.087-0.991c0.482,0.192,0.938,0.454,1.427,0.618
			c0.225,0.076,0.714,0.035,0.725-0.024c0.152-0.768,0.346-1.558,0.277-2.32c-0.02-0.224-0.822-0.516-1.277-0.538
			c-1.436-0.07-2.877-0.029-4.317-0.026c-2.062,0.005-3.059,0.628-3.575,2.65c-0.911,3.565-0.921,7.199-0.356,10.824
			c0.167,1.077,0.871,1.639,2.032,1.613c1.679-0.038,3.359-0.033,5.038,0c0.912,0.018,1.551-0.418,1.649-1.243
			c0.258-2.176,0.422-4.366,0.532-6.554c0.038-0.752-0.446-1.302-1.282-1.275C67.525,13.281,66.784,13.398,65.886,13.49z
			 M14.161,14.69c-0.093,0-0.186,0-0.279,0c0,1.955-0.017,3.91,0.006,5.865c0.015,1.278,0.474,1.743,1.733,1.759
			c1.797,0.023,3.596,0.05,5.391-0.023c0.484-0.02,1.292-0.318,1.365-0.626c0.201-0.855,0.11-1.783,0.061-2.679
			c-0.003-0.05-0.709-0.166-1.035-0.071c-0.646,0.188-1.249,0.52-1.881,0.762c-0.87,0.333-1.886,0.489-2.382-0.384
			c-0.381-0.671-0.466-1.664-0.316-2.443c0.181-0.942,0.936-1.501,2.016-1.541c2.004-0.073,2.149-0.231,2.002-2.249
			c-0.023-0.323-0.462-0.804-0.785-0.877c-0.647-0.147-1.38,0.057-2.016-0.114c-0.46-0.124-1.048-0.552-1.168-0.964
			c-0.139-0.477,0.026-1.199,0.337-1.596c0.207-0.263,0.938-0.278,1.372-0.165c0.843,0.22,1.629,0.65,2.465,0.908
			c0.374,0.115,1.146,0.102,1.166,0.017c0.188-0.83,0.311-1.688,0.311-2.538c0-0.163-0.617-0.458-0.954-0.466
			c-1.917-0.045-3.834-0.045-5.751-0.013c-1.229,0.021-1.638,0.455-1.651,1.694C14.146,10.859,14.161,12.774,14.161,14.69z
			 M96.297,22.319c1.74,0.154,3.511-0.244,4.776-1.929c2.07-2.756,1.413-5.91-1.624-7.786c-0.915-0.565-1.89-1.046-2.746-1.688
			c-0.292-0.219-0.516-0.896-0.389-1.208c0.13-0.322,0.748-0.663,1.114-0.625c0.733,0.075,1.477,0.327,2.152,0.642
			c1.884,0.878,2.176,0.689,2.245-1.379c0.027-0.829-0.341-1.077-1.037-1.094c-0.799-0.02-1.599-0.013-2.398-0.01
			c-2.537,0.009-4.041,1.157-4.597,3.503c-0.473,1.998,0.46,3.714,2.625,4.83c0.779,0.401,1.579,0.77,2.33,1.22
			c0.757,0.454,1.385,1.066,0.955,2.055c-0.421,0.967-1.279,1.173-2.211,0.925c-0.959-0.255-1.886-0.632-2.831-0.941
			c-0.902-0.296-1.346,0.027-1.426,0.991c-0.194,2.345-0.07,2.496,2.343,2.496C95.739,22.319,95.899,22.319,96.297,22.319z
			 M35.35,22.319c1.658,0.146,3.42-0.164,4.716-1.759c2.172-2.674,1.574-6.014-1.422-7.901c-0.877-0.552-1.848-0.972-2.662-1.599
			c-0.352-0.271-0.685-1.034-0.541-1.356c0.154-0.345,0.923-0.664,1.349-0.585c0.881,0.163,1.701,0.634,2.571,0.898
			c0.383,0.116,1.149,0.144,1.188,0.027C40.78,9.35,40.935,8.6,40.921,7.872c-0.003-0.214-0.623-0.559-0.986-0.596
			c-0.87-0.09-1.755-0.045-2.634-0.033c-2.278,0.031-3.849,1.242-4.373,3.356c-0.483,1.949,0.352,3.723,2.29,4.798
			c0.836,0.464,1.716,0.851,2.549,1.32c0.82,0.461,1.472,1.115,1.045,2.133c-0.429,1.022-1.354,1.178-2.325,0.904
			c-0.918-0.258-1.804-0.627-2.714-0.917c-0.564-0.18-1.127-0.249-1.351,0.511c-0.631,2.135-0.015,2.971,2.187,2.971
			C34.77,22.319,34.93,22.319,35.35,22.319z M27.428,22.318c0.879,0,1.759-0.004,2.639,0.001c0.809,0.005,1.29-0.401,1.387-1.187
			c0.063-0.509,0.03-1.031,0.019-1.547c-0.018-0.821-0.429-1.064-1.182-0.767c-0.631,0.249-1.253,0.527-1.897,0.738
			c-1.155,0.376-1.821,0-1.904-1.203c-0.054-0.778,0.063-1.604,0.278-2.357c0.725-2.532,1.514-5.046,2.31-7.557
			c0.268-0.845,0.026-1.22-0.861-1.2c-0.719,0.016-1.439,0.004-2.159,0.005c-0.977,0-1.476,0.509-1.532,1.463
			c-0.242,4.146-0.468,8.294-0.722,12.44c-0.051,0.83,0.298,1.185,1.104,1.174C25.749,22.31,26.588,22.318,27.428,22.318z
			 M43.947,22.319c1.818,0.001,1.793-0.033,1.69-1.802c-0.093-1.586-0.152-3.191-0.012-4.769c0.176-1.984,0.544-3.953,0.876-5.921
			c0.424-2.51,0.418-2.725-2.489-2.533c-0.825,0.054-1.153,0.417-1.083,1.208c0.031,0.358,0.032,0.72,0.085,1.075
			c0.56,3.715,0.423,7.395-0.473,11.052C42.157,22.194,42.298,22.318,43.947,22.319z M72.854,22.319
			c1.806,0.001,1.868-0.167,1.717-1.91c-0.137-1.58-0.169-3.193-0.013-4.769c0.224-2.262,0.667-4.5,1.006-6.751
			c0.201-1.34-0.064-1.634-1.444-1.646c-0.279-0.002-0.56,0.002-0.838,0.024c-1.405,0.114-1.601,0.341-1.402,1.71
			c0.568,3.913,0.523,7.798-0.397,11.663C71.092,22.272,71.161,22.319,72.854,22.319z"/>
		<path fill-rule="evenodd" clip-rule="evenodd" d="M172.081,10.32c-0.622-0.066-1.295-0.003-1.856-0.225
			c-1.68-0.661-2.028-0.554-2.021,1.247c0.008,1.988,0.278,3.974,0.39,5.963c0.069,1.233,0.093,2.472,0.064,3.707
			c-0.021,0.874-0.433,1.328-1.435,1.33c-3.042,0.007-3.07,0.039-2.273-2.832c0.763-2.75,1.191-5.534,1.092-8.393
			c-0.05-1.439-0.293-1.605-1.626-1.082c-0.037,0.015-0.075,0.031-0.114,0.036c-0.623,0.08-1.245,0.157-1.868,0.235
			c-0.042-0.817-0.142-1.639-0.086-2.45c0.015-0.219,0.506-0.58,0.776-0.579c2.986,0.02,5.972,0.099,8.958,0.162
			C172.081,8.4,172.081,9.36,172.081,10.32z"/>
		<path fill-rule="evenodd" clip-rule="evenodd" d="M50.866,13.045c-0.653,2.421-0.646,4.847-0.068,7.305
			c0.151,0.643,0.822,1.538-0.319,1.932c-1.47,0.507-3.017-0.005-3.201-1.129c-0.161-0.981-0.09-2.064,0.157-3.031
			c0.314-1.227,0.914-2.379,1.385-3.566c0.762-1.916,0.9-3.864,0.347-5.864c-0.322-1.167-0.107-1.422,1.113-1.452
			c2.393-0.058,2.46,0.012,3.255,2.236c0.638,1.784,1.337,3.546,2.147,5.281c0.564-2.052,0.239-4.012-0.4-5.941
			c-0.501-1.513-0.474-1.568,1.068-1.576c1.929-0.009,1.991-0.007,1.916,1.913c-0.117,2.992-0.335,5.979-0.496,8.969
			c-0.043,0.797-0.008,1.599-0.056,2.396c-0.038,0.647,0.438,1.519-0.638,1.781c-1.478,0.36-2.307-0.023-2.777-1.271
			c-0.746-1.979-1.465-3.967-2.218-5.943c-0.265-0.698-0.593-1.372-0.893-2.057C51.081,13.034,50.974,13.04,50.866,13.045z"/>
		<path fill-rule="evenodd" clip-rule="evenodd" d="M84.892,14.689c0.28-2.036,0.055-4.022-0.638-5.966
			c-0.477-1.338-0.388-1.464,0.966-1.482c2.085-0.028,2.188,0.025,2.087,2.136c-0.149,3.109-0.389,6.214-0.577,9.322
			c-0.041,0.677-0.036,1.356-0.035,2.035c0.001,0.604,0.333,1.332-0.6,1.568c-1.264,0.32-2.287-0.017-2.643-0.934
			c-0.795-2.044-1.54-4.107-2.325-6.155c-0.282-0.736-0.624-1.448-1.039-2.403c-0.205,0.451-0.354,0.662-0.397,0.894
			c-0.452,2.388-0.424,4.758,0.229,7.117c0.351,1.27,0.157,1.483-1.153,1.499c-2.352,0.029-3.233-1.115-2.565-3.523
			c0.35-1.262,0.892-2.476,1.408-3.686c0.907-2.126,1.247-4.28,0.52-6.531c-0.3-0.927,0.049-1.324,1.032-1.35
			c2.509-0.065,2.556-0.033,3.411,2.358c0.626,1.751,1.321,3.478,1.985,5.215C84.668,14.765,84.78,14.727,84.892,14.689z"/>
		<path fill-rule="evenodd" clip-rule="evenodd" d="M118.77,13.019c-0.963,2.505-0.928,4.934-0.36,7.383
			c0.148,0.64,0.718,1.457-0.27,1.872c-1.283,0.539-3.063-0.021-3.242-1.063c-0.164-0.947-0.148-2,0.096-2.924
			c0.354-1.341,0.996-2.606,1.496-3.91c0.707-1.843,0.869-3.711,0.299-5.634c-0.36-1.216-0.123-1.481,1.167-1.502
			c2.344-0.039,2.357-0.02,3.17,2.196c0.656,1.789,1.338,3.569,2.008,5.353c0.125-0.016,0.249-0.031,0.373-0.046
			c0-1.144,0.104-2.299-0.031-3.426c-0.123-1.018-0.495-2.007-0.779-3.003c-0.197-0.691-0.048-1.034,0.755-1.084
			c2.327-0.146,2.499-0.063,2.417,2.263c-0.141,3.991-0.348,7.98-0.583,11.967c-0.018,0.298-0.437,0.765-0.733,0.823
			c-1.729,0.334-2.154,0.059-2.777-1.598c-0.745-1.98-1.476-3.966-2.232-5.942C119.319,14.155,119.029,13.593,118.77,13.019z"/>
		<path fill-rule="evenodd" clip-rule="evenodd" d="M146.325,11.555c0.52-1.056,0.985-2.145,1.585-3.153
			c0.277-0.465,0.763-0.971,1.252-1.107c0.801-0.223,1.309,0.093,1.278,1.145c-0.119,4.07-0.127,8.143-0.229,12.213
			c-0.014,0.536-0.247,1.46-0.525,1.52c-0.82,0.176-1.726,0.07-2.567-0.091c-0.135-0.026-0.184-0.904-0.144-1.378
			c0.186-2.216,0.426-4.428,0.622-6.645c0.029-0.333-0.08-0.678-0.407-1.104c-0.499,0.873-0.978,1.758-1.503,2.615
			c-0.606,0.989-1.019,0.988-1.603-0.021c-0.496-0.857-0.925-1.752-1.568-2.984c-0.259,0.988-0.588,1.65-0.577,2.307
			c0.032,1.825,0.181,3.65,0.333,5.471c0.057,0.674,0.651,1.435-0.268,1.908c-0.965,0.498-2.832-0.01-3.211-0.841
			c-0.584-1.277-0.463-2.577,0.058-3.84c0.518-1.254,1.075-2.493,1.633-3.73c0.782-1.737,0.779-3.467,0.065-5.229
			c-0.432-1.066-0.213-1.364,0.956-1.365c3.117-0.003,2.527-0.231,3.525,2.291c0.262,0.662,0.596,1.295,0.896,1.941
			C146.061,11.503,146.192,11.529,146.325,11.555z"/>
		<path fill-rule="evenodd" clip-rule="evenodd" d="M6.756,15.481c-2.652-0.002-3.525,1.243-2.659,3.821
			c0.215,0.642,0.519,1.254,0.724,1.898c0.219,0.686-0.033,1.089-0.8,1.079c-0.32-0.004-0.64,0-0.959,0
			c-2.101,0-2.892-0.858-2.482-2.979c0.223-1.158,0.7-2.288,1.195-3.37c1.104-2.411,1.95-4.81,0.907-7.488
			C2.387,7.688,2.768,7.275,3.634,7.229c2.784-0.147,2.804-0.133,1.999,2.506c-0.125,0.41-0.14,0.86-0.156,1.294
			c-0.034,0.89,0.332,1.35,1.302,1.196c0.43-0.068,0.877-0.021,1.317-0.024c1.561-0.011,1.823-0.348,1.391-1.891
			C9.315,9.697,9.073,9.102,8.839,8.508C8.526,7.71,8.745,7.304,9.637,7.235c2.225-0.172,2.617,0.181,2.561,2.415
			c-0.078,3.111-0.183,6.222-0.22,9.334c-0.009,0.747,0.25,1.493,0.296,2.245c0.019,0.306-0.189,0.891-0.316,0.897
			c-1.097,0.055-2.201,0.032-3.295-0.059c-0.089-0.007-0.228-0.714-0.159-1.059c0.172-0.858,0.498-1.686,0.677-2.543
			C9.708,15.944,9.318,15.483,6.756,15.481z"/>
		<path fill-rule="evenodd" clip-rule="evenodd" d="M127.293,15.313c0.192-1.748,0.294-3.626,0.629-5.461
			c0.363-1.991,1.244-2.604,3.235-2.611c1.078-0.004,2.156-0.018,3.233,0.004c1.53,0.032,2.472,0.605,2.871,2.057
			c1.062,3.866,0.793,7.661-0.98,11.289c-0.574,1.174-1.595,1.742-2.92,1.729c-0.798-0.008-1.597,0.011-2.395-0.004
			c-1.846-0.036-2.93-0.882-3.242-2.713C127.49,18.234,127.438,16.833,127.293,15.313z M129.722,16.861
			c0.087,1.556,0.413,2.418,1.156,2.764c0.917,0.426,2.577,0.28,3.087-0.579c0.581-0.978,1.063-2.178,1.077-3.288
			c0.02-1.608-0.343-3.24-0.702-4.826c-0.142-0.626-0.77-1.662-1.076-1.626c-0.678,0.077-1.381,0.625-1.903,1.151
			c-0.393,0.396-0.621,1.033-0.745,1.602C130.269,13.648,130.013,15.259,129.722,16.861z"/>
		<path fill-rule="evenodd" clip-rule="evenodd" d="M108.117,16.759c-2.226,0-2.501,0.331-2.169,2.606
			c0.075,0.513,0.126,1.031,0.221,1.54c0.181,0.967-0.145,1.373-1.185,1.397c-2.303,0.055-2.984-0.608-2.312-2.836
			c0.699-2.32,1.746-4.534,2.496-6.841c0.448-1.38,0.704-2.84,0.88-4.285c0.099-0.817,0.348-1.14,1.162-1.108
			c0.997,0.04,1.998,0.034,2.995,0.002c0.732-0.023,0.885,0.303,0.975,0.997c0.206,1.598,0.414,3.228,0.916,4.748
			c0.777,2.355,1.697,4.668,1.588,7.19c-0.029,0.679-0.353,1.777-0.789,1.919c-0.929,0.301-2.022,0.124-3.043,0.065
			c-0.087-0.005-0.243-0.604-0.19-0.896c0.118-0.663,0.405-1.296,0.519-1.959C110.596,16.887,110.479,16.759,108.117,16.759z
			 M108.097,10.236c-0.278,0.883-0.583,1.712-0.769,2.568c-0.038,0.172,0.394,0.645,0.584,0.631c0.571-0.042,1.382-0.077,1.639-0.44
			C110.019,12.333,109.214,10.821,108.097,10.236z"/>
		<path fill-rule="evenodd" clip-rule="evenodd" d="M157.583,7.241c0.16,0,0.319,0,0.479,0c1.911,0,1.797,0.009,1.95,1.95
			c0.098,1.247,0.586,2.464,0.907,3.692c0.563,2.153,1.167,4.295,1.673,6.461c0.13,0.556-0.01,1.188-0.085,1.776
			c-0.101,0.786-0.573,1.2-1.382,1.198c-0.16,0-0.32,0.001-0.479,0.001c-2.348,0.016-2.271,0.034-1.76-2.208
			c0.229-1.005,0.08-2.097,0.102-3.149c-1.179-0.055-2.361-0.174-3.533-0.112c-0.236,0.013-0.615,0.713-0.617,1.098
			c-0.006,1.031,0.132,2.066,0.26,3.094c0.108,0.858-0.159,1.31-1.087,1.245c-0.357-0.025-0.718,0.034-1.077,0.028
			c-1.027-0.016-1.67-0.564-1.498-1.568c0.249-1.44,0.627-2.873,1.102-4.257c0.556-1.619,1.346-3.158,1.896-4.778
			c0.328-0.965,0.521-2.02,0.533-3.036c0.012-1.067,0.271-1.601,1.42-1.444C156.777,7.286,157.183,7.241,157.583,7.241z
			 M156.979,10.123c-0.33,1.172-0.608,2.164-0.887,3.155c0.127,0.112,0.254,0.225,0.381,0.337c0.663-0.176,1.553-0.15,1.934-0.578
			C158.939,12.44,158.207,10.923,156.979,10.123z"/>
		<path fill-rule="evenodd" clip-rule="evenodd" d="M65.886,13.49c0.898-0.092,1.64-0.209,2.384-0.234
			c0.836-0.027,1.32,0.523,1.282,1.275c-0.11,2.188-0.274,4.378-0.532,6.554c-0.098,0.825-0.738,1.26-1.649,1.243
			c-1.679-0.032-3.359-0.037-5.038,0c-1.161,0.026-1.864-0.536-2.032-1.613c-0.565-3.625-0.554-7.258,0.356-10.824
			c0.517-2.022,1.514-2.646,3.575-2.65c1.44-0.003,2.881-0.044,4.317,0.026c0.455,0.022,1.257,0.314,1.277,0.538
			c0.068,0.762-0.125,1.552-0.277,2.32c-0.011,0.059-0.5,0.1-0.725,0.024c-0.49-0.164-0.945-0.426-1.427-0.618
			c-1.556-0.621-2.295-0.43-3.087,0.991c-1.376,2.47-1.759,5.204-1.812,7.975c-0.021,1.14,0.75,1.604,2.109,1.534
			c1.343-0.069,2.416-1.081,2.322-2.392c-0.064-0.898-0.4-1.779-0.625-2.665C66.192,14.528,66.056,14.088,65.886,13.49z"/>
		<path fill-rule="evenodd" clip-rule="evenodd" d="M14.161,14.69c0-1.916-0.015-3.831,0.005-5.746
			c0.013-1.239,0.423-1.673,1.651-1.694c1.917-0.032,3.834-0.032,5.751,0.013c0.337,0.008,0.954,0.303,0.954,0.466
			c0,0.85-0.122,1.708-0.311,2.538c-0.02,0.085-0.792,0.098-1.166-0.017c-0.836-0.258-1.622-0.688-2.465-0.908
			c-0.434-0.113-1.165-0.098-1.372,0.165c-0.312,0.397-0.477,1.119-0.337,1.596c0.121,0.412,0.708,0.84,1.168,0.964
			c0.636,0.171,1.369-0.033,2.016,0.114c0.323,0.073,0.761,0.554,0.785,0.877c0.147,2.018,0.002,2.176-2.002,2.249
			c-1.08,0.04-1.834,0.599-2.016,1.541c-0.15,0.779-0.065,1.772,0.316,2.443c0.496,0.873,1.512,0.717,2.382,0.384
			c0.632-0.242,1.235-0.574,1.881-0.762c0.326-0.095,1.032,0.021,1.035,0.071c0.05,0.896,0.14,1.824-0.061,2.679
			c-0.073,0.309-0.881,0.606-1.365,0.626c-1.794,0.074-3.594,0.046-5.391,0.023c-1.259-0.017-1.718-0.481-1.733-1.759
			c-0.023-1.955-0.006-3.91-0.006-5.865C13.975,14.689,14.068,14.689,14.161,14.69z"/>
		<path fill-rule="evenodd" clip-rule="evenodd" d="M96.297,22.319c-0.397,0-0.558,0-0.717,0c-2.414,0-2.537-0.15-2.343-2.496
			c0.08-0.964,0.524-1.287,1.426-0.991c0.945,0.31,1.872,0.686,2.831,0.941c0.932,0.248,1.791,0.042,2.211-0.925
			c0.43-0.988-0.198-1.601-0.955-2.055c-0.751-0.45-1.551-0.818-2.33-1.22c-2.166-1.116-3.099-2.833-2.625-4.83
			c0.556-2.347,2.06-3.494,4.597-3.503c0.799-0.003,1.599-0.01,2.398,0.01c0.695,0.017,1.064,0.265,1.037,1.094
			c-0.069,2.069-0.36,2.257-2.245,1.379c-0.676-0.314-1.419-0.566-2.152-0.642c-0.366-0.038-0.984,0.304-1.114,0.625
			c-0.126,0.313,0.097,0.99,0.389,1.208c0.856,0.642,1.831,1.123,2.746,1.688c3.036,1.876,3.694,5.03,1.624,7.786
			C99.808,22.075,98.037,22.473,96.297,22.319z"/>
		<path fill-rule="evenodd" clip-rule="evenodd" d="M35.35,22.319c-0.42,0-0.58,0-0.74,0c-2.202,0-2.818-0.836-2.187-2.971
			c0.224-0.76,0.787-0.691,1.351-0.511c0.91,0.29,1.796,0.659,2.714,0.917c0.971,0.274,1.896,0.119,2.325-0.904
			c0.426-1.018-0.225-1.671-1.045-2.133c-0.833-0.469-1.713-0.856-2.549-1.32c-1.938-1.076-2.772-2.85-2.29-4.798
			c0.524-2.114,2.095-3.325,4.373-3.356c0.879-0.012,1.765-0.057,2.634,0.033c0.363,0.037,0.982,0.382,0.986,0.596
			c0.013,0.728-0.142,1.478-0.374,2.172c-0.039,0.117-0.805,0.089-1.188-0.027c-0.87-0.264-1.689-0.736-2.571-0.898
			c-0.425-0.078-1.194,0.241-1.349,0.585c-0.144,0.322,0.189,1.085,0.541,1.356c0.814,0.627,1.785,1.046,2.662,1.599
			c2.996,1.887,3.594,5.228,1.422,7.901C38.77,22.155,37.007,22.465,35.35,22.319z"/>
		<path fill-rule="evenodd" clip-rule="evenodd" d="M27.428,22.318c-0.84,0-1.679-0.009-2.519,0.002
			c-0.806,0.01-1.155-0.345-1.104-1.174c0.253-4.146,0.48-8.293,0.722-12.44c0.056-0.954,0.555-1.463,1.532-1.463
			c0.72,0,1.44,0.011,2.159-0.005c0.887-0.02,1.129,0.355,0.861,1.2c-0.796,2.511-1.585,5.024-2.31,7.557
			c-0.216,0.754-0.332,1.58-0.278,2.357c0.083,1.204,0.749,1.58,1.904,1.203c0.644-0.21,1.266-0.489,1.897-0.738
			c0.753-0.297,1.164-0.054,1.182,0.767c0.012,0.516,0.044,1.039-0.019,1.547c-0.097,0.786-0.578,1.192-1.387,1.187
			C29.187,22.314,28.308,22.318,27.428,22.318z"/>
		<path fill-rule="evenodd" clip-rule="evenodd" d="M43.947,22.319c-1.649-0.001-1.79-0.125-1.407-1.688
			c0.896-3.657,1.033-7.337,0.473-11.052c-0.053-0.355-0.054-0.717-0.085-1.075c-0.07-0.792,0.258-1.154,1.083-1.208
			c2.907-0.192,2.913,0.022,2.489,2.533c-0.332,1.968-0.7,3.937-0.876,5.921c-0.14,1.578-0.081,3.183,0.012,4.769
			C45.74,22.287,45.765,22.321,43.947,22.319z"/>
		<path fill-rule="evenodd" clip-rule="evenodd" d="M72.854,22.319c-1.693,0-1.762-0.047-1.373-1.68
			c0.921-3.864,0.965-7.75,0.397-11.663c-0.199-1.369-0.003-1.596,1.402-1.71c0.278-0.022,0.559-0.027,0.838-0.024
			c1.38,0.013,1.646,0.307,1.444,1.646c-0.338,2.251-0.782,4.49-1.006,6.751c-0.156,1.576-0.124,3.189,0.013,4.769
			C74.722,22.153,74.66,22.32,72.854,22.319z"/>
		<path fill-rule="evenodd" clip-rule="evenodd" fill="none" d="M129.722,16.861c0.292-1.602,0.547-3.212,0.894-4.802
			c0.124-0.569,0.352-1.207,0.745-1.602c0.522-0.526,1.226-1.074,1.903-1.151c0.306-0.035,0.934,1,1.076,1.626
			c0.359,1.585,0.721,3.217,0.702,4.826c-0.014,1.11-0.496,2.311-1.077,3.288c-0.51,0.859-2.169,1.005-3.087,0.579
			C130.134,19.279,129.809,18.417,129.722,16.861z"/>
		<path fill-rule="evenodd" clip-rule="evenodd" fill="none" d="M108.097,10.236c1.117,0.585,1.921,2.098,1.454,2.759
			c-0.257,0.363-1.068,0.399-1.639,0.44c-0.19,0.014-0.622-0.459-0.584-0.631C107.514,11.948,107.819,11.119,108.097,10.236z"/>
		<path fill-rule="evenodd" clip-rule="evenodd" fill="none" d="M156.979,10.123c1.228,0.8,1.96,2.317,1.428,2.914
			c-0.381,0.428-1.271,0.402-1.934,0.578c-0.127-0.112-0.254-0.225-0.381-0.337C156.371,12.287,156.649,11.295,156.979,10.123z"/>
	</g>
</g>
</svg>
