<?xml version="1.0" encoding="utf-8"?>
<!-- Generator: Adobe Illustrator 16.0.0, SVG Export Plug-In . SVG Version: 6.00 Build 0)  -->
<!DOCTYPE svg PUBLIC "-//W3C//DTD SVG 1.1//EN" "http://www.w3.org/Graphics/SVG/1.1/DTD/svg11.dtd">
<svg version="1.1" id="Layer_1" xmlns="http://www.w3.org/2000/svg" xmlns:xlink="http://www.w3.org/1999/xlink" x="0px" y="0px"
	 width="1812px" height="270px" viewBox="0 0 1812 270" enable-background="new 0 0 1812 270" xml:space="preserve">
<g>
	<g>
		<path fill-rule="evenodd" clip-rule="evenodd" fill="#FEFDFD" fill-opacity="0.0" d="M1730,271.2c-19,0-38,0-57,0c0-44.283,0-88.565,0-133.023
			c14.464,0,28.582,0,42.799,0c0-20.743,0-41.312,0-62.055c-14.984,0-29.77,0-44.799,0c0-1.472-0.175-2.801,0.034-4.067
			c0.546-3.316,1.682-6.814,4.419-8.537c2.919-1.836,6.115-4.028,10.099-3.373c0.835,0.138,1.775-0.501,2.688-0.663
			c0.949-0.169,2.195-0.618,2.84-0.206c2.459,1.572,5.101,0.618,7.632,0.931c2.695,0.333,5.349-0.315,8.153,0.828
			c2.671,1.09,5.901,0.806,8.982,1.136c0.065-0.703,0.146-1.175,0.146-1.646c0.007-15.332,0.006-30.664,0.006-45.997
			c0-0.666,0.012-1.333-0.002-1.999c-0.029-1.347-0.81-2.2-2.051-2.294c-2.854-0.215-5.437-1.483-8.181-1.969
			c-4.691-0.829-9.471-1.014-14.181-1.951c-3.046-0.606-6.317,0.016-9.475-0.151c-3.038-0.161-6.063-0.94-9.087-0.896
			c-5.699,0.084-11.37-0.021-17.115,0.687c-5.712,0.703-11.507,0.926-17.132,2.278c-5.108,1.229-10.234,2.491-14.933,4.974
			c-3.628,1.917-6.905,4.341-10.271,6.683c-6.421,4.469-10.845,10.438-14.482,17.026c-2.528,4.58-4.093,9.6-5.354,14.803
			c-1.396,5.752-2.348,11.472-2.723,17.331c-0.104,1.63-0.016,3.271-0.016,5.25c-7.813,0-15.39,0-22.85,0c0,21.47,0,42.587,0,63.854
			c7.714,0.197,15.299-0.177,22.85,0.217c0,44.505,0,88.668,0,132.831c-10.333,0-20.667,0-31,0c0-27.611,0-55.223,0-82.819
			c-16.187-0.7-79.775-0.426-84,0.348c0,27.49,0,54.981,0,82.472c-19,0-38,0-57,0c0-1.834-0.572-3.934,0.129-5.44
			c1.174-2.521,1.086-5.201,1.791-7.753c0.703-2.542,1.491-5.134,1.891-7.679c0.318-2.037,0.927-4.014,1.206-6.053
			c0.256-1.872,0.661-3.724,0.98-5.588c0.347-2.025,0.268-4.245,1.109-6.034c0.955-2.032,0.236-4.307,1.144-6.018
			c1.051-1.981,0.641-3.613,0.527-5.633c-5.119,0-9.9,0-14.857,0c0.379-2.891,0.121-5.863,1.247-8.156
			c1.182-2.405,0.722-4.926,1.702-7.307c0.939-2.278,0.655-5.032,1.174-7.521c0.451-2.164,0.628-4.435,1.264-6.479
			c1.217-3.907,1.953-7.962,2.483-11.899c0.616-4.574,2.408-8.958,2.21-13.642c1.938-2.035,0.74-4.844,1.838-7.244
			c1.076-2.355,0.416-5.459,1.284-7.969c0.782-2.26,0.811-4.595,1.496-6.857c1.18-3.892,1.688-7.995,2.36-12.028
			c0.446-2.677-0.043-5.823,1.231-7.956c1.22-2.042,0.165-4.063,1.331-6.012c1.055-1.762,1.011-4.255,1.308-6.391
			c0.284-2.054,0.938-4.053,1.072-6.069c0.286-4.307,2.343-8.294,2.079-12.664c2.161-1.775-0.143-4.89,2-6.671
			c-0.268-2.446,0.437-4.746,0.971-7.092c0.623-2.741,0.977-5.524,1.833-8.238c0.706-2.239,1.215-4.689,1.079-7.003
			c-0.123-2.076,1.049-3.662,1.164-5.589c0.123-2.041,0.519-4.084,0.987-6.08c0.332-1.409,1.354-2.014,2.917-1.968
			c3.497,0.103,6.998,0.015,10.498,0.04c1.61,0.012,2.63-1,2.464-2.324c-0.259-2.067,1.321-3.739,1.009-5.583
			c-0.383-2.255,1.131-4.022,1.055-6.097c-0.072-1.958,0.693-3.751,0.926-5.599c0.595-4.737,2.169-9.33,2.098-14.157
			c2.023-1.831,0.635-4.514,1.753-6.788c1.169-2.376,0.81-5.504,1.124-8.358c-31.684,0-63.132,0-94.878,0
			c-0.339,1.716-0.595,3.409-1.018,5.06c-0.549,2.147-0.642,4.442-1.279,6.479c-1.222,3.906-1.395,7.993-2.614,11.894
			c-0.798,2.55-0.629,5.386-1.126,8.051c-0.426,2.281-1.347,4.472-1.755,6.754c-0.612,3.424-0.969,6.895-1.489,10.76
			c5.428,0,10.341,0,15.282,0c0,2.012,0.525,3.91-0.098,5.287c-1.934,4.268-1.814,8.914-2.725,13.336
			c-0.855,4.154-2.43,8.266-2.178,12.634c-2.05,1.809-0.57,4.534-1.841,6.761c-1.099,1.926-0.771,4.643-1.184,6.99
			c-0.187,1.055-0.801,2.041-0.936,3.095c-0.167,1.312,0.364,2.832-0.113,3.964c-1.669,3.954-1.96,8.228-2.745,12.321
			c-0.8,4.174-1.425,8.502-2.401,12.582c-1.46,6.104-2.19,12.329-3.596,18.436c-0.944,4.109-1.454,8.48-2.397,12.578
			c-1.408,6.107-2.436,12.291-3.627,18.421c-0.811,4.17-1.421,8.498-2.383,12.586c-1.321,5.615-1.598,11.481-3.777,16.894
			c0.347,5.185-2.279,9.881-2.092,15.155c-5.487,0-10.606,0-15.934,0c-1.007,5.874-1.699,11.687-3.111,17.318
			c-0.603,2.4-0.3,4.854-1.017,7.064c-0.933,2.876-1.354,5.791-1.862,8.723c-0.24,1.378-0.695,2.717-0.972,4.091
			c-0.278,1.379-0.101,2.694-0.782,4.186c-1.013,2.218-0.877,4.962-1.23,7.481c0,0.333,0,0.667,0,1c-16.333,0-32.667,0-49,0
			c0-0.333,0-0.667,0-1c0-1.5-0.488-3.23,0.092-4.457c1.78-3.772,1.798-7.93,2.673-11.848c0.674-3.018,1.183-6.252,1.576-9.419
			c0.384-3.096,1.184-6.186,1.855-9.234c0.456-2.065,0.144-4.32,0.937-6.066c1.25-2.751,0.711-5.285,0.76-8.122
			c-6.148,0-11.934,0-17.775,0c-0.048-0.646-0.176-1.137-0.102-1.596c0.377-2.335,0.209-5.031,1.369-6.895
			c1.413-2.271-0.775-5.075,1.612-6.86c-0.416-2.309,0.578-4.4,0.986-6.585c0.408-2.181,0.714-4.382,1.009-6.581
			c0.338-2.527,1.585-4.934,1.008-7.582c1.969-4.893,1.699-10.253,3.127-15.214c0.692-2.404,0.311-4.853,1.028-7.063
			c0.933-2.875,1.337-5.793,1.858-8.721c0.548-3.079,1.625-6.159,1.821-9.181c0.325-4.979,2.605-9.615,2.165-14.654
			c1.554-2.325,1.055-5.159,1.891-7.704c0.831-2.531,0.227-5.591,1.264-7.979c1.035-2.384,0.298-4.796,1.152-7.023
			c0.965-2.52,1.204-5.193,1.633-7.805c0.484-2.951,1.023-5.859,1.833-8.745c0.636-2.269,0.88-4.652,1.216-6.997
			c0.385-2.687-0.03-5.788,1.207-7.97c1.294-2.281,0.209-4.454,1.082-6.578c0.879-2.136,1.535-4.495,1.645-6.788
			c0.206-4.299,1.526-8.284,2.322-12.114c6.819,0,13.26,0,19.612,0c0.149,3.336-0.282,6.622,0.579,9.523
			c0.988,3.323,0.37,6.518,0.474,9.747c0.065,2.02,0.642,3.708,1.481,5.387c7.129,0,14.244,0,21.392,0
			c0.843-4.122,1.445-8.229,2.447-12.128c1.049-4.084,1.441-8.286,2.661-12.344c1.174-3.903,0.999-8.219,2.231-12.095
			c1.289-4.053,1.805-8.252,2.66-12.336c0.834-3.983,1.768-8.02,2.3-12.11c0.547-4.193,2.318-8.222,1.823-12.672
			c-54.681,0-109.234,0-163.61,0c-4.815,24.673-9.59,49.129-14.388,73.709c8.229,0,16.013,0,23.524,0
			c4.015-8.389,7.939-16.589,11.867-24.795c6.178,0,12.294,0,18.808,0c-0.182,1.681-0.251,3.264-0.544,4.805
			c-0.438,2.298-1.442,4.559-1.477,6.846c-0.072,4.68-2.355,8.972-2.086,13.664c-2.185,1.781-0.396,4.343-1.281,6.467
			c-0.887,2.131-1.608,4.51-1.627,6.786c-0.038,4.688-1.504,9.131-2.335,13.619c-0.817,4.413-1.258,8.967-2.658,13.328
			c-0.864,2.69-0.361,5.813-1.187,8.524c-1.525,5.013-1.707,10.251-3.025,15.247c-0.632,2.398-0.199,4.968-1.029,7.056
			c-1.532,3.852-1.361,7.983-2.741,11.851c-0.942,2.644-0.123,5.993-1.292,8.457c-1.302,2.743-0.293,5.603-1.658,8.334
			c-1.144,2.29-0.18,5.637-1.335,7.914c-1.386,2.733,0.268,5.882-1.831,8.254c-0.806,5.287-1.353,10.607-2.939,15.769
			c-0.692,2.251-0.685,4.71-1.072,7.063c-0.383,2.317-0.863,4.62-1.325,7.062c-6.256,0-12.374,0-18.899,0
			c-0.265,2.145,0.141,4.658-0.922,6.064c-1.486,1.969,0.01,4.172-1.438,5.976c-1.444,1.799,0.771,4.612-1.403,6.396
			c0.335,2.138-0.743,4.082-0.904,6.091c-0.345,4.298-2.332,8.294-2.096,12.659c-1.672,1.621-0.36,3.886-1.102,5.537
			c-0.922,2.053-0.86,4.053-0.898,6.129c-0.333,0.333-0.667,0.667-1,1c-16,0-32,0-48,0c0-0.333,0-0.667,0-1
			c0.333-1.695,0.754-3.38,0.98-5.09c0.402-3.02,0.259-6.182,1.114-9.055c1.495-5.021,1.944-10.19,2.916-15.281
			c0.263-1.375,0.743-2.712,0.965-4.091c0.225-1.398-0.456-3.001,1.024-4.082c-0.479-3.824,2.222-7.504,0.535-11.561
			c-5.138,0-10.258,0-15.347,0c0-1.961-0.422-3.876,0.083-5.504c1.258-4.059,1.65-8.276,2.669-12.374
			c0.651-2.616,0.291-5.523,1.146-8.041c2.035-5.993,2.362-12.302,3.724-18.412c0.987-4.436,2.654-8.906,2.189-13.628
			c2.04-2.008,0.522-4.859,1.832-7.263c1.14-2.089,0.41-5.126,1.289-7.447c0.85-2.244,0.058-4.871,1.077-6.507
			c1.204-1.932-0.079-4.005,1.213-5.528c1.479-1.746-0.023-3.997,1.424-5.973c0.929-1.268,0.374-3.597,1.034-5.51
			c0.866-2.511,0.396-5.479,1.243-8.002c0.854-2.546,1.14-5.2,1.718-7.747c1.217-5.354,1.701-10.874,3.109-16.232
			c0.684-2.603,0.009-5.782,1.246-7.964c1.471-2.59-0.396-5.622,1.814-7.776c0.184-6.382,2.849-12.342,3.1-18.751
			c0.107-2.719,1.311-5.396,2.046-8.206c4.986,0,9.773,0,14.688,0c3.346-16.271,6.738-32.383,9.403-48.754
			c-26.381,0-52.281,0-78.176,0c-0.023,5.359-2.096,10.208-2.125,15.343c-1.951,1.74-0.284,4.128-1.072,6.055
			c-1.813,4.433-1.69,9.251-2.824,13.822c-0.652,2.628-0.744,5.421-1.244,8.033c-0.551,2.886-1.323,5.773-1.813,8.71
			c-0.513,3.086-1.136,6.146-1.904,9.193c-0.7,2.769-0.103,6-1.25,8.485c-1.267,2.74-0.662,5.56-1.627,8.32
			c-1.44,4.119-1.372,8.743-2.266,13.087c-0.487,2.363-0.599,4.798-1.145,7.047c-0.375,1.547-0.262,3.259-0.896,4.586
			c-0.821,1.72-0.839,3.38-0.905,5.135c-0.081,2.178-0.768,2.918-2.907,2.946c-4.166,0.054-8.333,0.016-12.499,0.016
			c-6.793,0-13.587,0-20.584,0c0-1.928-0.447-3.729,0.08-5.177c1.996-5.481,1.813-11.44,3.92-16.87
			c-0.438-4.719,2.065-9.007,2-13.67c1.638-1.75,0.5-4.082,1.238-5.987c1.485-3.83,2.025-7.94,2.555-11.882
			c0.613-4.575,1.463-9.167,2.438-13.592c1.347-6.112,2.356-12.301,3.619-18.423c0.855-4.155,1.511-8.455,2.382-12.59
			c0.886-4.204,1.119-8.544,2.931-12.711c-26.295,0-52.078,0-78.285,0c-1.332,8.202-3.437,16.218-4.98,24.381
			c-1.533,8.105-3.68,16.095-5.076,24.521c3.116,0,5.757-0.036,8.396,0.011c2.601,0.046,5.224-0.2,7.777,0.135
			c0,2.029,0.524,3.933-0.101,5.315c-1.716,3.794-2.039,7.942-2.646,11.843c-0.706,4.541-2.348,8.962-2.248,13.631
			c-1.493,2.016-0.333,4.584-1.133,6.53c-1.577,3.837-2.029,7.945-2.623,11.848c-0.691,4.548-2.355,8.963-2.244,13.634
			c-2.134,2.058-0.645,4.878-1.56,7.346c-1.402,3.779-1.745,7.965-2.419,11.998c-0.447,2.677,0.051,5.831-1.229,7.957
			c-1.277,2.122-0.144,4.337-1.594,6.433c-1.065,1.538-0.146,4.265-1.092,6.493c-0.841,1.979-0.69,4.361-1.128,6.535
			c-0.532,2.651-0.664,5.404-1.305,7.974c-1.023,4.104-1.619,8.283-2.617,12.386c-0.637,2.621-0.288,5.523-1.144,8.041
			c-2.035,5.994-1.916,12.39-3.851,18.392c-0.721,2.236-0.686,4.71-1.074,7.063c-0.41,2.479-0.916,4.943-1.385,7.438
			c-4.557,0-9.051-0.03-13.544,0.013c-2.195,0.021-2.995,0.685-3.023,2.807c-0.04,2.911-1.709,5.605-1.036,8.584
			c-2.047,3.829-1.979,8.202-2.819,12.294c-0.853,4.154-2.414,8.267-2.181,12.633c-2.11,1.497-0.563,3.922-1.479,5.896
			c-0.894,1.924-0.404,4.49-0.521,6.774c-0.333,0.333-0.667,0.667-1,1c-7,0-14,0-21,0c0-0.333,0-0.667,0-1
			c0.333-1.195,0.778-2.372,0.977-3.59c0.41-2.515,0.303-5.181,1.1-7.554c2.011-5.99,2.563-12.266,3.763-18.393
			c0.815-4.167,2.337-8.279,2.161-12.635c2-2.018,0.66-4.845,1.829-7.252c1.123-2.311,0.452-5.433,1.285-7.962
			c0.745-2.261,1.027-4.612,1.433-6.856c0.571-3.167,2.287-6.349,1.218-9.598c-9.024,0-17.808,0-26.459,0
			c-3.946,8.414-7.808,16.646-11.573,24.676c-13.331,0-26.446,0-39.492,0c-0.124-0.306-0.226-0.445-0.234-0.592
			c-0.313-5.177,1.637-10.015,2.457-15.015c0.317-1.933-0.333-4.285,0.676-5.631c1.625-2.165,0.291-4.643,1.693-6.878
			c1.156-1.844,0.782-4.625,1.189-6.974c0.211-1.216,0.751-2.376,0.949-3.593c0.209-1.278-0.056-2.669,0.313-3.881
			c1.28-4.217,1.858-8.573,2.658-12.876c0.533-2.875,0.691-3.379,3.525-3.389c8.497-0.027,16.994-0.01,25.491-0.01
			c4.956,0,9.913,0,15.259,0c0.283-2.289,0.076-4.515,0.874-6.288c1.92-4.271,1.425-8.967,2.786-13.331
			c0.447-1.431,0.7-3.034,1.049-4.563c0.602-2.634,0.687-5.38,1.091-8.063c0.328-2.175,0.4-4.524,1.33-6.435
			c0.96-1.976-0.197-4.233,0.786-5.642c1.382-1.979,0.457-3.699,0.987-5.679c-14.446,0-28.421,0.001-42.396-0.008
			c-0.14,0-0.297-0.101-0.414-0.193c-0.123-0.098-0.208-0.243-0.468-0.562c0.359-1.207,0.892-2.525,1.129-3.895
			c0.436-2.511-0.014-5.498,1.222-7.457c1.336-2.12-0.398-4.719,1.74-6.318c-0.322-2.296,0.656-4.378,1.054-6.558
			c0.397-2.183,0.29-4.55,1.122-6.535c0.854-2.039,0.378-4.19,1.08-6.055c1.448-3.848,1.917-7.922,2.626-11.86
			c0.754-4.186,1.556-8.344,2.498-12.436c14.208,0,28.322,0,42.35,0c0.788,8.292,1.563,16.453,2.345,24.667
			c7.779,0,15.347,0,22.765,0c0.779-3.268,1.907-6.276,2.13-9.351c0.3-4.15,2.49-7.891,2.254-12.096
			c1.894-1.699,0.358-4.244,1.69-6.331c1.092-1.711,0.426-4.457,1.259-6.441c0.94-2.239,0.772-4.596,1.527-6.856
			c1.182-3.543,1.616-7.336,2.368-11.023c0.813-3.979,1.974-7.904,2.585-11.897c0.491-3.203,2.211-6.359,1.134-9.795
			c-50.981,0-101.79,0-152.599,0c-0.167,0-0.333-0.003-0.5,0c-2.944,0.067-3.315,0.469-3.639,3.254
			c-0.329,2.838-0.527,5.736-1.287,8.468c-1.136,4.083-1.669,8.274-2.641,12.383c-0.621,2.626-0.065,5.72-1.247,7.968
			c-1.075,2.047-0.737,4.062-1.176,6.001c-0.786,3.476-1.934,7.032-1.564,10.927c3.036,0,5.842-0.011,8.648,0.003
			c2.771,0.014,5.548-0.063,8.285,0.056c0,1.945,0.569,3.815-0.117,4.868c-1.496,2.299-0.619,4.919-1.721,7.319
			c-1.079,2.353-0.252,5.583-1.342,7.925c-0.898,1.93-0.442,3.773-1.03,5.577c-0.874,2.683-1.578,5.41-1.819,8.256
			c-0.215,2.531,0.009,5.47-1.221,7.442c-1.318,2.113-0.146,4.334-1.571,6.434c-1.202,1.771-0.699,4.633-1.218,6.953
			c-0.563,2.513-1.26,4.98-0.961,7.592c-2.049,1.412-0.098,3.905-1.394,5.405c-1.513,1.751,0.037,4.003-1.44,5.972
			c-0.936,1.246-0.793,3.676-0.98,5.479c-0.479,4.606-2.588,8.935-2.186,13.646c-1.733,2.093-0.817,4.841-1.847,7.235
			c-1.03,2.395-0.296,5.546-1.319,7.945c-0.817,1.919-0.313,3.844-1.058,5.562c-1.081,2.499-1.17,5.184-1.726,7.772
			c-0.567,2.644-0.026,5.766-1.253,7.96c-1.27,2.271-0.21,4.65-1.629,6.889c-1.163,1.834-0.645,4.662-1.223,6.962
			c-0.591,2.352-1.229,4.648-0.946,7.097c-2.037,1.812-0.6,4.52-1.827,6.763c-1.142,2.086-0.287,5.223-1.326,7.416
			c-1.069,2.26-0.433,4.637-1.552,6.875c-1.012,2.026-0.95,4.605-1.283,6.951c-0.383,2.688,0.002,5.763-1.216,7.969
			c-1.075,1.947-0.307,3.779-1.102,5.571c-1.543,3.477-1.125,6.839,1.479,9.815c0.603,0.689,0.928,1.614,1.438,2.394
			c3.469,5.295,6.454,10.906,10.389,15.897c0,0.333,0,0.667,0,1c-13,0-26,0-39,0c0-0.333,0-0.667,0-1
			c0.333-1.362,0.924-2.724,0.932-4.088c0.007-1.514,0.731-2.736,1.008-4.098c0.54-2.652,0.338-5.506,1.17-8.036
			c0.838-2.547,0.793-5.208,1.76-7.757c0.937-2.466,0.151-5.664,1.298-7.952c1.368-2.732-0.243-5.876,1.833-8.254
			c0.264-6.043,2.831-11.697,3-17.756c2.021-2.393-0.021-5.778,2-8.171c-0.719-2.685,2.039-5.145,0.635-7.889
			c-7.459,0-14.791,0.031-22.122-0.022c-1.812-0.013-3.072,0.301-3.565,2.376c-0.422,1.78-1.193,3.503-1.992,5.163
			c-2.806,5.836-5.689,11.635-8.473,17.303c-10.78,0-21.564,0-32.729,0c0.532-3.355,0.644-6.607,1.655-9.549
			c0.686-1.995-0.288-4.305,0.727-5.642c1.643-2.164-0.264-4.989,1.864-6.774c-0.726-2.668,0.808-5.031,1.081-7.576
			c0.287-2.667,0.791-5.332,1.224-7.988c0.451-2.766,1.449-5.438,1.719-8.274c0.239-2.532,0.322-5.164,1.118-7.536
			c0.963-2.869,1.354-5.79,1.872-8.72c0.545-3.081,1.152-6.145,1.911-9.192c0.69-2.772,0.08-6.019,1.252-8.481
			c1.306-2.745,0.288-5.605,1.656-8.339c1.146-2.288,0.444-5.435,1.276-7.966c0.836-2.546,1.152-5.198,1.722-7.744
			c1.197-5.36,1.64-10.882,3.097-16.238c0.747-2.749,0.073-6.022,1.25-8.479c1.314-2.746-0.265-5.881,1.822-8.256
			c0.641-5.485,1.952-10.862,2.823-16.285c0.952-5.925,2.274-11.742,3.373-17.771c5.57,0,11.023,0,16.742,0
			c3.038-16.308,6.054-32.493,9.092-48.8c-32.811,0-65.378,0-97.915,0c-0.392,2.724-0.087,5.634-1.283,7.657
			c-1.515,2.564,0.43,5.629-1.832,7.771c0.467,4.883-2.021,9.339-2.05,14.17c-0.008,1.363-0.662,2.715-0.938,4.088
			c-0.309,1.535,0.703,3.353-0.994,4.59c-0.345,3.46-0.688,6.92-1.054,10.59c5.217,0,10.004,0,15.225,0
			c-0.649,2.342,0.685,4.686-1.188,6.658c0.611,2.812-0.747,5.378-1.037,8.081c-0.25,2.342-0.643,4.699-1.284,6.961
			c-1.157,4.078-1.692,8.276-2.629,12.396c-0.599,2.635-0.275,5.53-1.14,8.043c-1.897,5.511-2.606,11.29-3.663,16.919
			c-0.841,4.48-2.329,8.957-2.247,13.624c-1.66,1.737-0.641,4.024-1.228,5.989c-0.808,2.706-1.563,5.417-1.803,8.264
			c-0.212,2.531-0.253,5.204-1.133,7.523c-1.463,3.854-2.087,7.935-2.612,11.851c-0.614,4.576-1.466,9.17-2.453,13.59
			c-1.364,6.111-2.385,12.299-3.606,18.425c-0.83,4.162-1.391,8.516-2.389,12.583c-1.498,6.102-2.146,12.338-3.587,18.441
			c-0.968,4.098-2.37,8.269-2.189,12.625c-1.661,1.967-0.163,4.703-1.231,6.463c-1.35,2.22-0.097,4.72-1.629,6.893
			c-0.705,1-0.498,3.056,1.069,4.446c1.231,1.093,1.877,2.844,2.792,4.297c3.331,5.286,6.666,10.571,9.999,15.856
			c0,0.333,0,0.667,0,1c-14,0-28,0-42,0c0.667-0.696,1.497-1.3,1.957-2.112c0.521-0.923,0.852-2.011,1.016-3.065
			c0.416-2.682,0.305-5.514,1.137-8.044c0.838-2.546,0.336-5.381,1.891-7.706c-0.366-4.547,1.693-8.721,2.036-13.166
			c0.094-1.214,0.693-2.38,0.946-3.592c0.255-1.225,0.239-2.416,0.687-3.707c0.904-2.608,0.859-5.544,1.251-8.708
			c-5.736,0-11.314,0-16.92,0c0-1.013-0.203-1.758,0.032-2.319c1.65-3.937,0.895-8.446,2.968-12.269
			c0.021-5.76,1.836-11.196,2.961-16.763c1.059-5.237,2.126-10.502,2.896-15.767c0.87-5.954,3.003-11.67,3.144-17.733
			c1.527-2.007,0.389-4.535,1.143-6.529c1.022-2.704,1.059-5.529,1.843-8.229c0.828-2.849,1.156-5.81,1.937-8.687
			c0.703-2.595,0.034-5.767,1.263-7.96c1.449-2.588-0.364-5.611,1.815-7.773c1-5.918,1.721-11.904,3.141-17.72
			c0.548-2.242,0.229-4.605,0.997-6.564c1.063-2.708,0.902-5.567,1.849-8.229c0.998-2.806,1.486-5.819,1.847-8.686
			c0.576-4.583,2.624-8.928,2.167-13.648c1.82-2.068,0.764-4.843,1.841-7.241c1.063-2.367,0.269-5.569,1.334-7.935
			c0.867-1.924,0.5-3.763,1.026-5.577c1.656-5.709,1.063-8.256-2.669-12.231c-0.685-0.729-1.544-1.326-2.097-2.138
			c-5.123-7.526-11.029-14.446-16.626-21.605c-1.151-1.474-2.197-3.028-3.03-4.184c-29.241,0-57.872,0-86.391,0
			c-2.232,2.232-4.384,4.324-6.47,6.479c-9.202,9.513-18.361,19.067-27.601,28.544c-1.563,1.604-1.591,3.691-2.274,5.568
			c-0.269,0.735,0.312,2.002-0.104,2.423c-1.923,1.942-0.478,4.582-1.762,6.832c-1.171,2.05-0.574,5.031-1.261,7.459
			c-0.575,2.033-0.442,4.215-1.082,6.05c-0.948,2.717-1.031,5.534-1.814,8.234c-0.826,2.848-1.175,5.807-1.944,8.685
			c-0.694,2.599-0.027,5.773-1.262,7.959c-1.463,2.59-0.484,5.254-1.582,7.872c-1.213,2.895-1.536,6.374-2.09,9.597
			c-0.589,3.422-1.441,6.779-1.992,10.17c-0.481,2.967-1.184,5.905-1.563,8.897c-0.376,2.965-1.05,5.94-1.8,8.776
			c-0.539,2.04-0.397,4.096-1.001,6.053c-0.883,2.861-1.78,5.734-1.762,8.758c0.015,2.428-0.844,4.731-1.281,7.027
			c-0.518,2.715-0.953,5.53-1.737,8.229c-0.828,2.852-1.485,5.809-1.857,8.688c-0.552,4.258-1.404,8.511-2.365,12.599
			c-1.436,6.105-2.342,12.303-3.658,18.418c-1.188,5.51-2.075,11.09-3.457,16.572c-5.958,0-11.785-0.021-17.613,0.012
			c-1.941,0.011-2.914,0.733-3.036,2.313c-0.296,3.795-1.429,7.451-1.915,11.182c-0.617,4.734-2.19,9.326-2.104,14.155
			c-1.604,2.135-0.274,4.89-1.311,6.943c-0.673,1.332-0.448,2.498-0.706,3.723c-0.255,1.211-0.771,2.376-0.948,3.594
			c-0.165,1.143,0.095,2.347-0.07,3.489c-0.176,1.218-0.631,2.395-0.965,3.59c0,0.333,0,0.667,0,1c-49.333,0-98.667,0-148,0
			c0.131-2.391-0.548-4.895,1-7.085c-0.384-4.71,2.082-9.002,2-13.667c1.658-1.737,0.637-4.025,1.227-5.988
			c0.812-2.704,1.558-5.417,1.802-8.262c0.217-2.531-0.011-5.472,1.22-7.442c1.32-2.113,0.146-4.334,1.572-6.434
			c1.202-1.771,0.798-4.609,1.197-6.959c0.234-1.378,0.688-2.718,0.972-4.09c0.317-1.531-0.739-3.362,1.01-4.581
			c-0.723-3.521,2.327-6.831,0.605-10.359c-8.14,0-16.256,0-24.252,0c-3.866,8.418-7.66,16.682-11.356,24.731
			c-11.205,0-21.987,0-32.99,0c10.458-56.959,20.884-113.747,31.379-170.91c5.039,0,10.284,0,15.321,0
			c0.464-3.548,0.171-7.063,1.496-9.793c1.268-2.611-0.465-5.627,1.796-7.768c-0.057-3.852,1.194-7.469,1.987-11.17
			c0.329-1.535-0.376-3.106,0.819-4.693c0.984-1.307-0.636-3.604,1.152-4.989c0.355-3.459,0.711-6.918,1.074-10.44
			c-32.18,0-63.958,0-95.699,0c-0.455,3.09-0.553,6.181-1.438,9.027c-0.744,2.39-0.296,4.903-1.014,7.076
			c-1.6,4.844-1.525,9.936-2.739,14.827c-0.371,1.492-1.103,2.94-1.166,4.548c-0.067,1.73-0.097,3.36-0.809,5.151
			c-0.954,2.4-0.718,5.273-1.029,8.296c5.266,0,10.511,0,16.119,0c-0.816,3.424-2.042,6.43-2.14,9.473
			c-0.15,4.683-1.378,9.184-2.341,13.614c-1.329,6.112-2.225,12.314-3.696,18.404c-1.138,4.71-1.861,9.526-2.888,14.274
			c-0.455,2.104-1.039,4.313-1.219,6.54c-0.218,2.703,0.103,5.844-1.185,7.955c-1.245,2.041-0.551,4.023-1.301,5.994
			c-1.432,3.762-1.785,7.946-2.464,11.977c-0.451,2.674-0.156,5.602-1.143,8.03c-1.627,4.002-1.46,8.296-2.777,12.335
			c-0.875,2.685-0.296,5.849-1.201,8.516c-1.873,5.518-1.766,11.449-3.901,16.871c0.461,4.72-2.036,9.008-2,13.666
			c-1.575,1.771-0.467,4.112-1.234,5.987c-1.03,2.518-1.158,5.188-1.715,7.776c-0.568,2.644-0.025,5.766-1.252,7.961
			c-1.269,2.27-0.215,4.649-1.63,6.887c-1.162,1.837-0.783,4.624-1.19,6.973c-0.211,1.216-0.75,2.376-0.95,3.593
			c-0.21,1.278,0.308,3.04-0.374,3.804c-1.604,1.797,0.575,4.437-1.655,5.86c0.31,2.146,1.801,3.612,2.989,5.263
			c0.728,1.013,1.387,2.081,2.004,3.166c2.694,4.738,6.059,9.07,8.484,13.977c0.243,0.49,1.003,0.725,1.523,1.078
			c0,0.333,0,0.667,0,1c-18,0-36,0-54,0c0.022-2.569,0.427-5.067,0.835-7.611c0.678-4.22,1.439-8.494,2.38-12.592
			c1.402-6.107,2.505-12.267,3.929-18.353c0.477-2.036,0.199-4.296,1.103-6.001c1.053-1.986,0.631-3.618,0.541-5.637
			c-5.121,0-9.903,0-14.789,0c0-1.174-0.394-2.44,0.072-3.094c1.578-2.217,0.405-5.069,1.928-7.221
			c-0.293-4.696,2.189-8.986,2-13.667c1.992-2.02,0.669-4.845,1.831-7.251c1.117-2.316,0.447-5.436,1.285-7.963
			c0.75-2.262,0.822-4.595,1.491-6.858c1.153-3.9,1.694-7.99,2.372-12.021c0.449-2.675,0.067-5.696,1.213-7.983
			c0.969-1.935,0.429-3.767,1.066-5.57c1.41-3.994,1.766-8.252,2.694-12.374c0.594-2.636,0.125-5.659,1.232-7.984
			c0.921-1.935,0.442-3.773,1.029-5.58c0.87-2.681,1.599-5.404,1.822-8.258c0.198-2.53,0.003-5.456,1.226-7.441
			c1.301-2.113,0.141-4.333,1.562-6.435c1.2-1.775,0.686-4.639,1.222-6.953c0.583-2.514,1.233-4.985,0.957-7.594
			c2.161-1.774,0.401-4.541,1.83-6.777c1.168-1.828,0.52-4.719,1.256-6.946c0.785-2.371,0.377-4.871,1.031-7.078
			c1.523-5.142,2.115-10.437,3.284-15.757c0.622,0,1.271,0,1.92,0c3.666,0,7.332,0.045,10.997-0.02
			c1.755-0.03,2.555-0.902,2.673-2.678c0.087-1.311-0.387-2.992,0.261-3.854c0.962-1.281,0.52-2.498,0.767-3.724
			c0.245-1.213,0.748-2.377,0.959-3.593c0.407-2.349,0.688-4.719,1.021-7.08c0.333-2.36,0.29-4.857,1.078-7.055
			c1.668-4.648,1.196-9.662,2.854-14.306c0.717-2.007,0.699-4.277,1.036-6.571c-31.673,0-63.118,0-94.582,0
			c-0.453,0.944-1.117,1.876-1.333,2.901c-0.236,1.116,0.338,2.522-0.135,3.446c-1.342,2.617-1.068,5.527-1.899,8.217
			c-0.875,2.834-1.509,5.804-1.869,8.682C46.615,28.828,44.82,32.858,45,37.215c-1.617,1.979-0.183,4.702-1.214,6.471
			c-1.371,2.353-0.379,4.344-0.723,6.672c5.205,0,9.991,0,14.751,0c0,1.96,0.459,3.903-0.091,5.496
			c-1.341,3.878-1.982,7.955-2.512,11.891c-0.616,4.573-2.404,8.957-2.211,13.639c-2.056,1.807-0.542,4.521-1.823,6.771
			c-1.169,2.052-0.579,5.028-1.259,7.459c-0.569,2.033-0.379,4.266-1.069,6.048c-1.74,4.496-1.745,9.249-2.745,13.835
			c-0.871,3.995-2.293,7.948-2.104,12.145c-2.161,1.775-0.401,4.542-1.83,6.778c-1.168,1.828-0.518,4.72-1.257,6.946
			c-0.787,2.371-0.305,4.926-1.053,7.063c-1.413,4.034-1.871,8.246-2.679,12.338c-0.822,4.166-1.423,8.5-2.4,12.579
			c-1.461,6.103-2.177,12.329-3.601,18.432c-0.958,4.105-1.602,8.408-2.366,12.592c-1.013,5.546-2.505,11.019-3.082,16.828
			c-5.169,0-10.289,0-15.341,0c-1.718,4.752-2.535,9.607-3.171,14.321c-0.66,4.892-2.641,9.601-2.22,14.638
			c-1.565,2.322-1.015,5.164-1.894,7.706c-0.867,2.506-0.857,5.313-1.286,7.98c-0.026,0.159-0.535,0.24-0.82,0.358
			c0-88.667,0-177.333,0-266c604,0,1208,0,1812,0c0,2.667,0,5.333,0,8c-28.27,0-56.539,0-84.865,0
			c-0.061,0.776-0.13,1.251-0.13,1.726c-0.006,15.655-0.005,31.31-0.005,46.964c0,0.666-0.096,1.35,0.02,1.995
			c0.248,1.383,0.933,2.365,2.544,2.321c1.165-0.031,2.332-0.006,3.497-0.006c26.313,0,52.627,0,78.939,0c0,68.5,0,137,0,205.5
			c0,1.5,0,3,0,4.5c-0.333,0-0.667,0-1,0c0-65.609,0-131.22,0-196.813c-15.841-0.707-77.829-0.431-82,0.349
			C1730,140.224,1730,205.712,1730,271.2z M340,50.331c0,0.761,0.271,1.646-0.044,1.989c-1.929,2.095,0.013,5.183-1.956,7.209
			c0.35,4.704-2.187,8.986-2,13.666c-1.578,1.99-0.332,4.574-1.218,6.485c-0.602,1.298-0.567,2.448-0.804,3.678
			c-0.234,1.215-0.946,2.399-0.925,3.588c0.082,4.687-2.326,8.975-2.053,13.667c-2.169,1.785-0.403,4.344-1.278,6.468
			c-0.88,2.136-1.612,4.51-1.63,6.785c-0.036,4.689-1.502,9.132-2.335,13.62c-0.818,4.413-1.258,8.967-2.659,13.328
			c-0.864,2.69-0.361,5.813-1.186,8.524c-1.524,5.014-1.712,10.25-3.024,15.248c-0.629,2.398-0.86,4.709-0.889,7.113
			c-2.225,1.421-0.331,3.928-1.618,5.865c-1.123,1.689-1.335,4.234-1.28,6.385c0.056,2.18-0.722,4.065-1.099,6.087
			c-0.347,1.858-0.723,3.714-0.99,5.585c-0.384,2.687,0.018,5.775-1.208,7.972c-1.265,2.269,0.306,4.987-1.805,6.777
			c0.719,2.666-0.971,5-1.037,7.582c-0.072,2.788-0.641,3.212-3.593,3.239c-3.665,0.033-7.331-0.023-10.996,0.019
			c-2.552,0.028-2.999,0.458-3.364,2.993c-0.071,0.489,0.163,1.085-0.039,1.483c-1.949,3.864-1.723,8.233-2.886,12.291
			c-0.784,2.732-0.256,5.875-1.2,8.518c-1.496,4.186-1.694,8.581-2.822,12.81c-0.92,3.447-1.276,7.045-1.91,10.735
			c35.801,0,71.576,0,107.565,0c0.327-0.44,1.152-1.046,1.225-1.732c0.553-5.181,2.25-10.173,2.861-15.268
			c0.552-4.597,2.285-8.977,2.194-13.644c1.69-1.72,0.219-4.275,1.357-5.911c1.407-2.021-0.202-4.257,0.983-6.112
			c1.271-1.989,0.429-4.033,0.675-6.238c-8.188,0-15.973,0-23.875,0c-0.249-2.563,0.006-4.79,0.732-7.186
			c0.869-2.865,0.324-6.167,1.231-9.011c1.548-4.85,1.807-9.886,2.905-14.782c0.271-1.209,0.784-2.374,0.956-3.592
			c0.184-1.299-0.273-2.785,0.19-3.93c1.804-4.451,1.61-9.269,2.792-13.829c0.677-2.612,1.514-5.276,1.052-8.069
			c2.031-3.653,1.499-7.928,2.883-11.794c0.945-2.642,0.122-5.994,1.294-8.456c1.305-2.744-0.252-5.875,1.823-8.252
			c0.64-5.483,1.471-10.917,2.927-16.271c0.748-2.749,0.078-6.017,1.249-8.479c1.306-2.743-0.252-5.874,1.824-8.252
			c-0.729-2.355,0.982-4.316,1.057-6.581c0.072-2.203,0.556-4.4,0.967-6.58c0.198-1.054,0.802-2.041,0.937-3.095
			c0.167-1.312-0.38-2.847,0.115-3.96c1.892-4.256,1.42-8.967,2.864-13.306c0.69-2.075,0.728-4.368,1.062-6.563
			s0.652-4.391,1.005-6.582c0.227-1.41,0.902-2.373,2.505-2.37c5.451,0.009,10.903,0.003,16.143,0.003
			c1.748,8.44,0.946,16.76,2.728,24.912c7.059,0,14.175,0,21.685,0c4.945-24.534,9.891-49.065,14.861-73.727
			c-54.356,0-108.578,0-162.592,0c-1.703,4.647-2.28,9.349-3.136,13.921c-0.812,4.333-1.479,8.813-2.429,13.077
			c-1.252,5.618-1.69,11.453-3.771,16.888c0.405,4.712-2.075,9.002-2,13.666c-2.014,1.836-0.719,4.507-1.735,6.784
			c-1.226,2.747-0.977,6.152-1.38,9.383c7.91,0,15.359,0,23.221,0c3.938-8.284,7.915-16.651,11.776-24.773
			C327.53,50.331,333.646,50.331,340,50.331z"/>
		<path fill-rule="evenodd" clip-rule="evenodd" fill="#FE0101" d="M929,270.2c0.117-2.284-0.372-4.851,0.521-6.774
			c0.916-1.974-0.632-4.398,1.479-5.896c-0.233-4.366,1.328-8.479,2.181-12.633c0.84-4.092,0.772-8.465,2.819-12.294
			c-0.673-2.979,0.996-5.673,1.036-8.584c0.028-2.122,0.828-2.785,3.023-2.807c4.493-0.043,8.987-0.013,13.544-0.013
			c0.469-2.494,0.975-4.958,1.385-7.438c0.389-2.353,0.354-4.826,1.074-7.063c1.935-6.002,1.815-12.397,3.851-18.392
			c0.855-2.518,0.507-5.42,1.144-8.041c0.998-4.103,1.594-8.282,2.617-12.386c0.641-2.569,0.772-5.322,1.305-7.974
			c0.438-2.174,0.287-4.556,1.128-6.535c0.946-2.229,0.026-4.955,1.092-6.493c1.45-2.096,0.316-4.311,1.594-6.433
			c1.28-2.126,0.782-5.28,1.229-7.957c0.674-4.033,1.017-8.219,2.419-11.998c0.915-2.468-0.574-5.288,1.56-7.346
			c-0.111-4.671,1.553-9.086,2.244-13.634c0.594-3.902,1.046-8.011,2.623-11.848c0.8-1.946-0.36-4.515,1.133-6.53
			c-0.1-4.669,1.542-9.09,2.248-13.631c0.606-3.9,0.93-8.049,2.646-11.843c0.625-1.383,0.101-3.286,0.101-5.315
			c-2.554-0.335-5.177-0.089-7.777-0.135c-2.64-0.047-5.28-0.011-8.396-0.011c1.396-8.426,3.543-16.415,5.076-24.521
			c1.544-8.163,3.648-16.179,4.98-24.381c26.207,0,51.99,0,78.285,0c-1.812,4.167-2.045,8.507-2.931,12.711
			c-0.871,4.135-1.526,8.435-2.382,12.59c-1.263,6.122-2.272,12.311-3.619,18.423c-0.975,4.425-1.824,9.017-2.438,13.592
			c-0.529,3.941-1.069,8.052-2.555,11.882c-0.738,1.905,0.399,4.237-1.238,5.987c0.065,4.663-2.438,8.951-2,13.67
			c-2.106,5.43-1.924,11.389-3.92,16.87c-0.527,1.447-0.08,3.249-0.08,5.177c6.997,0,13.791,0,20.584,0
			c4.166,0,8.333,0.038,12.499-0.016c2.14-0.028,2.826-0.769,2.907-2.946c0.066-1.755,0.084-3.415,0.905-5.135
			c0.634-1.327,0.521-3.039,0.896-4.586c0.546-2.249,0.657-4.684,1.145-7.047c0.894-4.344,0.825-8.968,2.266-13.087
			c0.965-2.761,0.36-5.58,1.627-8.32c1.147-2.485,0.55-5.717,1.25-8.485c0.769-3.047,1.392-6.107,1.904-9.193
			c0.489-2.937,1.262-5.824,1.813-8.71c0.5-2.612,0.592-5.405,1.244-8.033c1.134-4.571,1.012-9.39,2.824-13.822
			c0.788-1.927-0.879-4.314,1.072-6.055c0.029-5.135,2.102-9.983,2.125-15.343c25.895,0,51.795,0,78.176,0
			c-2.665,16.371-6.058,32.482-9.403,48.754c-4.914,0-9.701,0-14.688,0c-0.735,2.811-1.938,5.487-2.046,8.206
			c-0.251,6.409-2.916,12.369-3.1,18.751c-2.211,2.154-0.344,5.187-1.814,7.776c-1.237,2.182-0.563,5.361-1.246,7.964
			c-1.408,5.358-1.893,10.878-3.109,16.232c-0.578,2.547-0.863,5.201-1.718,7.747c-0.847,2.522-0.377,5.491-1.243,8.002
			c-0.66,1.913-0.105,4.242-1.034,5.51c-1.447,1.976,0.056,4.227-1.424,5.973c-1.292,1.523-0.009,3.597-1.213,5.528
			c-1.02,1.636-0.228,4.263-1.077,6.507c-0.879,2.321-0.149,5.358-1.289,7.447c-1.31,2.403,0.208,5.255-1.832,7.263
			c0.465,4.722-1.202,9.192-2.189,13.628c-1.361,6.11-1.688,12.419-3.724,18.412c-0.855,2.518-0.495,5.425-1.146,8.041
			c-1.019,4.098-1.411,8.315-2.669,12.374c-0.505,1.628-0.083,3.543-0.083,5.504c5.089,0,10.209,0,15.347,0
			c1.687,4.057-1.014,7.736-0.535,11.561c-1.48,1.081-0.8,2.684-1.024,4.082c-0.222,1.379-0.702,2.716-0.965,4.091
			c-0.972,5.091-1.421,10.26-2.916,15.281c-0.855,2.873-0.712,6.035-1.114,9.055c-0.227,1.71-0.647,3.395-0.98,5.09c-27,0-54,0-81,0
			c0.354-2.521,0.278-5.202,1.155-7.524c1.516-4.013,1.518-8.296,2.788-12.335c0.657-2.094,0.916-4.365,1.003-6.57
			c0.089-2.259,1.744-4.232,1.054-6.583c2.273-5.908,2.615-12.248,3.834-18.375c0.829-4.162,1.396-8.512,2.389-12.583
			c1.487-6.103,2.162-12.335,3.589-18.44c0.959-4.102,2.369-8.269,2.188-12.626c1.65-1.97,0.186-4.683,1.223-6.471
			c1.359-2.345,0.4-4.338,0.64-6.315c-11.148,0-21.934,0-32.807,0c-0.71,2.863-1.46,5.559-2.031,8.291
			c-0.454,2.17-0.691,4.386-1.024,6.58c-0.333,2.195-0.295,4.54-1.1,6.546c-0.891,2.219-0.237,4.64-1.03,6.571
			c-1.577,3.841-1.033,8.105-2.87,11.811c0.763,2.989-0.462,5.903-1.233,8.516c-0.86,2.912-0.34,5.925-1.619,8.806
			c-1.055,2.375-0.114,5.71-1.33,7.92c-1.423,2.585,0.339,5.603-1.817,7.771c-0.329,6.196-2.232,12.132-3.025,18.253
			c-0.158,1.219-0.748,2.377-0.945,3.594c-0.208,1.28,0.027,2.654-0.303,3.888c-0.903,3.38-1.873,6.729-1.727,10.278
			c-0.667,0-1.333,0-2,0c-0.604-1.937-2.205-0.945-3.277-0.948C977.481,270.185,953.241,270.2,929,270.2z"/>
		<path fill-rule="evenodd" clip-rule="evenodd" fill="#FE0101" d="M411,270.2c0.333-1.195,0.789-2.372,0.965-3.59
			c0.165-1.143-0.095-2.347,0.07-3.489c0.176-1.218,0.692-2.383,0.948-3.594c0.258-1.225,0.033-2.391,0.706-3.723
			c1.037-2.054-0.293-4.809,1.311-6.943c-0.085-4.829,1.488-9.421,2.104-14.155c0.485-3.73,1.619-7.387,1.915-11.182
			c0.123-1.579,1.095-2.302,3.036-2.313c5.828-0.032,11.655-0.012,17.613-0.012c1.382-5.482,2.27-11.063,3.457-16.572
			c1.316-6.115,2.223-12.313,3.658-18.418c0.961-4.088,1.813-8.341,2.365-12.599c0.372-2.879,1.029-5.836,1.857-8.688
			c0.784-2.698,1.22-5.514,1.737-8.229c0.438-2.296,1.296-4.6,1.281-7.027c-0.019-3.023,0.879-5.896,1.762-8.758
			c0.604-1.957,0.462-4.013,1.001-6.053c0.75-2.836,1.424-5.812,1.8-8.776c0.38-2.992,1.082-5.931,1.563-8.897
			c0.551-3.391,1.403-6.748,1.992-10.17c0.554-3.223,0.877-6.702,2.09-9.597c1.098-2.618,0.119-5.282,1.582-7.872
			c1.234-2.186,0.567-5.36,1.262-7.959c0.77-2.878,1.118-5.837,1.944-8.685c0.783-2.7,0.866-5.518,1.814-8.234
			c0.64-1.835,0.507-4.017,1.082-6.05c0.687-2.428,0.09-5.409,1.261-7.459c1.284-2.25-0.161-4.89,1.762-6.832
			c0.416-0.421-0.164-1.688,0.104-2.423c0.684-1.877,0.711-3.964,2.274-5.568c9.239-9.477,18.398-19.031,27.601-28.544
			c2.086-2.155,4.237-4.247,6.47-6.479c28.519,0,57.149,0,86.391,0c0.833,1.155,1.879,2.71,3.03,4.184
			c5.597,7.159,11.503,14.079,16.626,21.605c0.553,0.812,1.412,1.409,2.097,2.138c3.732,3.976,4.325,6.522,2.669,12.231
			c-0.526,1.814-0.159,3.653-1.026,5.577c-1.065,2.365-0.271,5.567-1.334,7.935c-1.077,2.398-0.021,5.173-1.841,7.241
			c0.457,4.721-1.591,9.065-2.167,13.648c-0.36,2.866-0.849,5.88-1.847,8.686c-0.946,2.662-0.786,5.521-1.849,8.229
			c-0.769,1.959-0.449,4.322-0.997,6.564c-1.42,5.815-2.141,11.802-3.141,17.72c-2.18,2.162-0.366,5.186-1.815,7.773
			c-1.229,2.193-0.56,5.365-1.263,7.96c-0.78,2.877-1.108,5.838-1.937,8.687c-0.784,2.7-0.82,5.525-1.843,8.229
			c-0.754,1.994,0.385,4.522-1.143,6.529c-0.141,6.063-2.273,11.779-3.144,17.733c-0.77,5.265-1.837,10.529-2.896,15.767
			c-1.125,5.566-2.939,11.003-2.961,16.763c-2.073,3.822-1.317,8.332-2.968,12.269c-0.235,0.562-0.032,1.307-0.032,2.319
			c5.605,0,11.184,0,16.92,0c-0.392,3.164-0.347,6.1-1.251,8.708c-0.447,1.291-0.432,2.482-0.687,3.707
			c-0.253,1.212-0.853,2.378-0.946,3.592c-0.343,4.445-2.402,8.619-2.036,13.166c-1.555,2.325-1.053,5.16-1.891,7.706
			c-0.832,2.53-0.721,5.362-1.137,8.044c-0.164,1.055-0.495,2.143-1.016,3.065c-0.46,0.813-1.29,1.416-1.957,2.112c-6,0-12,0-18,0
			c-0.345-1.941-1.864-0.948-2.774-0.952c-17.075-0.065-34.15-0.048-51.226-0.048c0.018-2.242,0.653-4.463,0.811-6.597
			c0.344-4.647,1.595-9.119,2.429-13.608c0.758-4.077,1.789-8.24,2.576-12.332c0.804-4.172,2.361-8.276,2.185-12.632
			c2.004-2.017,0.653-4.844,1.829-7.252c1.126-2.307,0.446-5.436,1.287-7.96c0.753-2.262,1.009-4.611,1.435-6.858
			c0.662-3.49,2.387-7.019,1.131-10.761c-9.482,0-18.809,0-28.135,0c-1.666,0-3.334,0.051-4.998-0.016
			c-1.385-0.056-2.595,0.91-2.435,1.824c0.424,2.42-1.058,4.347-1.163,6.602c-0.126,2.703,0.139,5.86-1.162,7.953
			c-1.323,2.128-0.166,4.341-1.592,6.435c-1.058,1.554-0.178,4.269-1.095,6.491c-0.821,1.993-0.653,4.373-1.133,6.534
			c-0.558,2.51-0.408,5.276-1.168,7.522c-1.317,3.896-1.267,8.004-2.692,11.86c-0.916,2.479-0.389,5.475-1.218,8.007
			c-0.834,2.546-0.714,5.222-1.776,7.752c-0.893,2.127-0.782,4.674-1.115,7.035C461,270.2,436,270.2,411,270.2z M510.734,143.2
			c11.09,0,21.413,0.013,31.736-0.009c2.657-0.005,2.482-0.124,3.57-2.818c1.662-4.118,1.901-8.543,2.787-12.796
			c0.864-4.148,1.457-8.474,2.39-12.573c1.313-5.776,2.312-11.634,3.615-17.412c0.929-4.12,1.439-8.479,2.39-12.569
			c1.302-5.61,2.345-11.303,3.582-16.919c1.134-5.144,2.281-10.354,3-15.758c-11.788,0-23.564,0-35.461,0
			c-2.25,4.099-2.165,8.953-3.166,13.482c-0.912,4.128-1.399,8.504-2.405,12.563c-1.51,6.096-2.133,12.328-3.598,18.422
			c-0.984,4.094-1.639,8.388-2.366,12.584c-0.824,4.753-1.822,9.528-2.905,14.253c-0.467,2.034-0.192,4.518-1.127,5.966
			c-1.438,2.227-0.26,4.433-1.106,6.575C510.875,138.202,511.038,140.593,510.734,143.2z"/>
		<path fill-rule="evenodd" clip-rule="evenodd" fill="#0166CB" d="M1591,271.2c0-44.163,0-88.326,0-132.831
			c-7.551-0.394-15.136-0.02-22.85-0.217c0-21.267,0-42.384,0-63.854c7.46,0,15.036,0,22.85,0c0-1.979-0.089-3.62,0.016-5.25
			c0.375-5.859,1.327-11.579,2.723-17.331c1.261-5.203,2.825-10.223,5.354-14.803c3.638-6.588,8.062-12.558,14.482-17.026
			c3.365-2.342,6.643-4.766,10.271-6.683c4.698-2.482,9.824-3.745,14.933-4.974c5.625-1.353,11.42-1.575,17.132-2.278
			c5.745-0.708,11.416-0.603,17.115-0.687c3.023-0.045,6.049,0.734,9.087,0.896c3.157,0.167,6.429-0.455,9.475,0.151
			c4.71,0.938,9.489,1.122,14.181,1.951c2.744,0.485,5.327,1.754,8.181,1.969c1.241,0.094,2.021,0.947,2.051,2.294
			c0.014,0.666,0.002,1.333,0.002,1.999c0,15.333,0.001,30.665-0.006,45.997c0,0.471-0.081,0.942-0.146,1.646
			c-3.081-0.33-6.312-0.046-8.982-1.136c-2.805-1.144-5.458-0.495-8.153-0.828c-2.531-0.313-5.173,0.642-7.632-0.931
			c-0.645-0.412-1.891,0.037-2.84,0.206c-0.913,0.162-1.854,0.801-2.688,0.663c-3.983-0.655-7.18,1.537-10.099,3.373
			c-2.737,1.723-3.873,5.221-4.419,8.537c-0.209,1.267-0.034,2.596-0.034,4.067c15.029,0,29.814,0,44.799,0
			c0,20.743,0,41.312,0,62.055c-14.217,0-28.335,0-42.799,0c0,44.458,0,88.74,0,133.023C1645.667,271.2,1618.333,271.2,1591,271.2z"
			/>
		<path fill-rule="evenodd" clip-rule="evenodd" fill="#FE0101" d="M151,270.2c-0.52-0.354-1.28-0.588-1.523-1.078
			c-2.426-4.906-5.79-9.238-8.484-13.977c-0.617-1.085-1.276-2.153-2.004-3.166c-1.188-1.65-2.679-3.117-2.989-5.263
			c2.229-1.424,0.05-4.063,1.655-5.86c0.682-0.764,0.164-2.525,0.374-3.804c0.2-1.217,0.739-2.377,0.95-3.593
			c0.407-2.349,0.028-5.136,1.19-6.973c1.415-2.237,0.361-4.617,1.63-6.887c1.227-2.195,0.684-5.317,1.252-7.961
			c0.557-2.589,0.685-5.259,1.715-7.776c0.767-1.875-0.341-4.217,1.234-5.987c-0.036-4.658,2.461-8.946,2-13.666
			c2.135-5.422,2.028-11.354,3.901-16.871c0.905-2.667,0.327-5.831,1.201-8.516c1.316-4.039,1.149-8.333,2.777-12.335
			c0.987-2.429,0.692-5.356,1.143-8.03c0.679-4.03,1.032-8.215,2.464-11.977c0.75-1.971,0.057-3.953,1.301-5.994
			c1.288-2.111,0.967-5.252,1.185-7.955c0.18-2.228,0.764-4.437,1.219-6.54c1.027-4.748,1.75-9.564,2.888-14.274
			c1.471-6.09,2.368-12.292,3.696-18.404c0.963-4.431,2.191-8.932,2.341-13.614c0.098-3.043,1.324-6.049,2.14-9.473
			c-5.607,0-10.853,0-16.119,0c0.311-3.022,0.076-5.896,1.029-8.296c0.712-1.791,0.741-3.421,0.809-5.151
			c0.063-1.607,0.795-3.056,1.166-4.548c1.213-4.892,1.139-9.983,2.739-14.827c0.718-2.173,0.27-4.687,1.014-7.076
			c0.886-2.847,0.984-5.938,1.438-9.027c31.742,0,63.519,0,95.699,0c-0.362,3.522-0.718,6.981-1.074,10.44
			c-1.789,1.386-0.168,3.683-1.152,4.989c-1.195,1.587-0.491,3.158-0.819,4.693c-0.793,3.701-2.044,7.318-1.987,11.17
			c-2.261,2.141-0.529,5.156-1.796,7.768c-1.325,2.729-1.032,6.245-1.496,9.793c-5.037,0-10.282,0-15.321,0
			c-10.495,57.163-20.921,113.951-31.379,170.91c11.002,0,21.785,0,32.99,0c3.696-8.05,7.491-16.313,11.356-24.731
			c7.996,0,16.112,0,24.252,0c1.722,3.528-1.328,6.838-0.605,10.359c-1.75,1.219-0.693,3.05-1.01,4.581
			c-0.284,1.372-0.738,2.712-0.972,4.09c-0.399,2.35,0.005,5.188-1.197,6.959c-1.426,2.1-0.252,4.32-1.572,6.434
			c-1.231,1.971-1.003,4.911-1.22,7.442c-0.245,2.845-0.991,5.558-1.802,8.262c-0.59,1.963,0.432,4.251-1.227,5.988
			c0.082,4.665-2.384,8.957-2,13.667c-1.548,2.19-0.869,4.694-1,7.085c-0.667,0-1.333,0-2,0c-0.995-2.183-2.892-0.933-4.28-0.937
			C221.48,270.183,186.24,270.2,151,270.2z"/>
		<path fill-rule="evenodd" clip-rule="evenodd" fill="#FE0101" d="M1,266.2c0.285-0.118,0.794-0.199,0.82-0.358
			c0.429-2.667,0.419-5.475,1.286-7.98c0.879-2.542,0.329-5.384,1.894-7.706c-0.42-5.037,1.56-9.746,2.22-14.638
			c0.636-4.714,1.453-9.569,3.171-14.321c5.053,0,10.172,0,15.341,0c0.576-5.81,2.069-11.282,3.082-16.828
			c0.764-4.184,1.408-8.486,2.366-12.592c1.424-6.103,2.14-12.329,3.601-18.432c0.977-4.079,1.578-8.413,2.4-12.579
			c0.808-4.092,1.267-8.304,2.679-12.338c0.748-2.138,0.266-4.692,1.053-7.063c0.739-2.227,0.089-5.118,1.257-6.946
			c1.429-2.236-0.331-5.003,1.83-6.778c-0.189-4.196,1.232-8.149,2.104-12.145c1-4.586,1.005-9.339,2.745-13.835
			c0.69-1.782,0.5-4.015,1.069-6.048c0.681-2.431,0.09-5.407,1.259-7.459c1.281-2.249-0.233-4.964,1.823-6.771
			c-0.192-4.682,1.595-9.065,2.211-13.639c0.53-3.936,1.171-8.013,2.512-11.891c0.551-1.593,0.091-3.536,0.091-5.496
			c-4.76,0-9.547,0-14.751,0c0.344-2.328-0.648-4.319,0.723-6.672c1.031-1.769-0.403-4.491,1.214-6.471
			c-0.18-4.356,1.615-8.387,2.149-12.648c0.36-2.878,0.994-5.848,1.869-8.682c0.831-2.689,0.558-5.6,1.899-8.217
			c0.474-0.924-0.101-2.33,0.135-3.446c0.217-1.025,0.88-1.957,1.333-2.901c31.464,0,62.909,0,94.582,0
			c-0.337,2.294-0.319,4.564-1.036,6.571c-1.659,4.644-1.186,9.657-2.854,14.306c-0.789,2.197-0.745,4.694-1.078,7.055
			c-0.333,2.361-0.614,4.731-1.021,7.08c-0.211,1.216-0.714,2.38-0.959,3.593c-0.248,1.226,0.195,2.442-0.767,3.724
			c-0.647,0.862-0.173,2.544-0.261,3.854c-0.118,1.775-0.917,2.647-2.673,2.678c-3.665,0.064-7.331,0.02-10.997,0.02
			c-0.649,0-1.298,0-1.92,0c-1.169,5.32-1.761,10.615-3.284,15.757c-0.654,2.207-0.247,4.707-1.031,7.078
			c-0.737,2.228-0.088,5.118-1.256,6.946c-1.429,2.236,0.331,5.003-1.83,6.777c0.276,2.608-0.375,5.08-0.957,7.594
			c-0.536,2.314-0.021,5.178-1.222,6.953c-1.421,2.102-0.261,4.321-1.562,6.435c-1.223,1.985-1.028,4.911-1.226,7.441
			c-0.223,2.854-0.952,5.577-1.822,8.258c-0.586,1.807-0.108,3.646-1.029,5.58c-1.107,2.325-0.638,5.349-1.232,7.984
			c-0.928,4.122-1.284,8.38-2.694,12.374c-0.637,1.804-0.097,3.636-1.066,5.57c-1.146,2.287-0.764,5.309-1.213,7.983
			c-0.677,4.031-1.219,8.121-2.372,12.021c-0.669,2.264-0.741,4.597-1.491,6.858c-0.838,2.527-0.168,5.646-1.285,7.963
			c-1.161,2.406,0.162,5.231-1.831,7.251c0.189,4.681-2.293,8.971-2,13.667c-1.523,2.151-0.35,5.004-1.928,7.221
			c-0.466,0.653-0.072,1.92-0.072,3.094c4.885,0,9.667,0,14.789,0c0.09,2.019,0.512,3.65-0.541,5.637
			c-0.904,1.705-0.626,3.965-1.103,6.001c-1.424,6.086-2.527,12.245-3.929,18.353c-0.941,4.098-1.702,8.372-2.38,12.592
			c-0.409,2.544-0.813,5.042-0.835,7.611c-0.667,0-1.333,0-2,0c-0.781-2.143-2.577-0.926-3.779-0.93
			C61.147,270.181,31.074,270.2,1,270.2C1,268.867,1,267.533,1,266.2z"/>
		<path fill-rule="evenodd" clip-rule="evenodd" fill="#FE0101" d="M1323,270.2c0.354-2.52,0.218-5.264,1.23-7.481
			c0.682-1.491,0.504-2.807,0.782-4.186c0.276-1.374,0.731-2.713,0.972-4.091c0.509-2.932,0.93-5.847,1.862-8.723
			c0.717-2.211,0.414-4.664,1.017-7.064c1.412-5.632,2.104-11.444,3.111-17.318c5.327,0,10.446,0,15.934,0
			c-0.188-5.274,2.438-9.971,2.092-15.155c2.18-5.412,2.456-11.278,3.777-16.894c0.962-4.088,1.572-8.416,2.383-12.586
			c1.191-6.13,2.219-12.313,3.627-18.421c0.943-4.098,1.453-8.469,2.397-12.578c1.405-6.106,2.136-12.332,3.596-18.436
			c0.977-4.08,1.602-8.408,2.401-12.582c0.785-4.094,1.076-8.367,2.745-12.321c0.478-1.132-0.054-2.652,0.113-3.964
			c0.135-1.054,0.749-2.04,0.936-3.095c0.413-2.348,0.085-5.064,1.184-6.99c1.271-2.227-0.209-4.952,1.841-6.761
			c-0.252-4.368,1.322-8.479,2.178-12.634c0.91-4.422,0.791-9.068,2.725-13.336c0.623-1.377,0.098-3.275,0.098-5.287
			c-4.941,0-9.854,0-15.282,0c0.521-3.865,0.877-7.336,1.489-10.76c0.408-2.282,1.329-4.473,1.755-6.754
			c0.497-2.665,0.328-5.501,1.126-8.051c1.22-3.9,1.393-7.987,2.614-11.894c0.638-2.036,0.73-4.331,1.279-6.479
			c0.423-1.65,0.679-3.344,1.018-5.06c31.746,0,63.194,0,94.878,0c-0.314,2.854,0.045,5.982-1.124,8.358
			c-1.118,2.274,0.271,4.957-1.753,6.788c0.071,4.827-1.503,9.42-2.098,14.157c-0.232,1.848-0.998,3.641-0.926,5.599
			c0.076,2.074-1.438,3.842-1.055,6.097c0.313,1.844-1.268,3.516-1.009,5.583c0.166,1.324-0.854,2.336-2.464,2.324
			c-3.5-0.025-7.001,0.063-10.498-0.04c-1.563-0.046-2.585,0.559-2.917,1.968c-0.469,1.996-0.864,4.039-0.987,6.08
			c-0.115,1.927-1.287,3.513-1.164,5.589c0.136,2.313-0.373,4.764-1.079,7.003c-0.856,2.714-1.21,5.497-1.833,8.238
			c-0.534,2.346-1.238,4.646-0.971,7.092c-2.143,1.781,0.161,4.896-2,6.671c0.264,4.37-1.793,8.357-2.079,12.664
			c-0.134,2.017-0.788,4.016-1.072,6.069c-0.297,2.136-0.253,4.629-1.308,6.391c-1.166,1.949-0.111,3.97-1.331,6.012
			c-1.274,2.133-0.785,5.279-1.231,7.956c-0.673,4.033-1.181,8.137-2.36,12.028c-0.686,2.263-0.714,4.598-1.496,6.857
			c-0.868,2.51-0.208,5.613-1.284,7.969c-1.098,2.4,0.101,5.209-1.838,7.244c0.198,4.684-1.594,9.067-2.21,13.642
			c-0.53,3.938-1.267,7.992-2.483,11.899c-0.636,2.044-0.813,4.314-1.264,6.479c-0.519,2.489-0.234,5.243-1.174,7.521
			c-0.98,2.381-0.521,4.901-1.702,7.307c-1.126,2.293-0.868,5.266-1.247,8.156c4.957,0,9.738,0,14.857,0
			c0.113,2.02,0.523,3.651-0.527,5.633c-0.907,1.711-0.188,3.985-1.144,6.018c-0.842,1.789-0.763,4.009-1.109,6.034
			c-0.319,1.864-0.725,3.716-0.98,5.588c-0.279,2.039-0.888,4.016-1.206,6.053c-0.399,2.545-1.188,5.137-1.891,7.679
			c-0.705,2.552-0.617,5.231-1.791,7.753c-0.701,1.507-0.129,3.606-0.129,5.44c-0.667,0-1.333,0-2,0
			c-0.781-2.143-2.576-0.926-3.779-0.93C1383.147,270.181,1353.073,270.2,1323,270.2z"/>
		<path fill-rule="evenodd" clip-rule="evenodd" fill="#0166CB" d="M1730,271.2c0-65.488,0-130.977,0-196.465
			c4.171-0.779,66.159-1.056,82-0.349c0,65.594,0,131.204,0,196.813C1784.667,271.2,1757.333,271.2,1730,271.2z"/>
		<path fill-rule="evenodd" clip-rule="evenodd" fill="#0166CB" d="M1476,271.2c0-27.49,0-54.981,0-82.472
			c4.225-0.773,67.813-1.048,84-0.348c0,27.597,0,55.208,0,82.819C1532,271.2,1504,271.2,1476,271.2z"/>
		<path fill-rule="evenodd" clip-rule="evenodd" fill="#0367CC" d="M1813,61.2c-26.313,0-52.626,0-78.939,0
			c-1.165,0-2.332-0.025-3.497,0.006c-1.611,0.044-2.296-0.938-2.544-2.321c-0.115-0.646-0.02-1.329-0.02-1.995
			c0-15.654-0.001-31.309,0.005-46.964c0-0.475,0.069-0.949,0.13-1.726c28.326,0,56.596,0,84.865,0
			C1813,25.867,1813,43.533,1813,61.2z"/>
		<path fill-rule="evenodd" clip-rule="evenodd" fill="#FEFCFC" fill-opacity="0.0" d="M1007,271.2c-0.146-3.549,0.823-6.898,1.727-10.278
			c0.33-1.233,0.095-2.607,0.303-3.888c0.197-1.217,0.787-2.375,0.945-3.594c0.793-6.121,2.696-12.057,3.025-18.253
			c2.156-2.168,0.395-5.186,1.817-7.771c1.216-2.21,0.275-5.545,1.33-7.92c1.279-2.881,0.759-5.894,1.619-8.806
			c0.771-2.612,1.996-5.526,1.233-8.516c1.837-3.705,1.293-7.97,2.87-11.811c0.793-1.932,0.14-4.353,1.03-6.571
			c0.805-2.006,0.767-4.351,1.1-6.546c0.333-2.194,0.57-4.41,1.024-6.58c0.571-2.732,1.321-5.428,2.031-8.291
			c10.873,0,21.658,0,32.807,0c-0.239,1.978,0.72,3.971-0.64,6.315c-1.037,1.788,0.428,4.501-1.223,6.471
			c0.181,4.357-1.229,8.524-2.188,12.626c-1.427,6.105-2.102,12.338-3.589,18.44c-0.992,4.071-1.56,8.421-2.389,12.583
			c-1.219,6.127-1.561,12.467-3.834,18.375c0.69,2.351-0.965,4.324-1.054,6.583c-0.087,2.205-0.346,4.477-1.003,6.57
			c-1.271,4.039-1.272,8.322-2.788,12.335c-0.877,2.322-0.802,5.004-1.155,7.524c0,0.333,0,0.667,0,1
			C1029,271.2,1018,271.2,1007,271.2z"/>
		<path fill-rule="evenodd" clip-rule="evenodd" fill="#FEFCFC" fill-opacity="0.0" d="M486,270.2c0.333-2.361,0.223-4.908,1.115-7.035
			c1.063-2.53,0.942-5.206,1.776-7.752c0.829-2.532,0.302-5.528,1.218-8.007c1.426-3.856,1.375-7.964,2.692-11.86
			c0.76-2.246,0.61-5.013,1.168-7.522c0.479-2.161,0.312-4.541,1.133-6.534c0.917-2.223,0.037-4.938,1.095-6.491
			c1.426-2.094,0.269-4.307,1.592-6.435c1.301-2.093,1.036-5.25,1.162-7.953c0.105-2.255,1.587-4.182,1.163-6.602
			c-0.16-0.914,1.05-1.88,2.435-1.824c1.664,0.066,3.332,0.016,4.998,0.016c9.326,0,18.652,0,28.135,0
			c1.256,3.742-0.469,7.271-1.131,10.761c-0.426,2.247-0.682,4.597-1.435,6.858c-0.841,2.524-0.161,5.653-1.287,7.96
			c-1.176,2.408,0.175,5.235-1.829,7.252c0.177,4.355-1.381,8.46-2.185,12.632c-0.787,4.092-1.818,8.255-2.576,12.332
			c-0.834,4.489-2.085,8.961-2.429,13.608c-0.157,2.134-0.793,4.354-0.811,6.597c0,0.333,0,0.667,0,1c-12,0-24,0-36,0
			C486,270.867,486,270.533,486,270.2z"/>
		<path fill-rule="evenodd" clip-rule="evenodd" fill="#FE4040" d="M907,270.2c0,0.333,0,0.667,0,1c-40,0-80,0-120,0
			c0-0.333,0-0.667,0-1C827,270.2,867,270.2,907,270.2z"/>
		<path fill-rule="evenodd" clip-rule="evenodd" fill="#FE4040" d="M748,270.2c0,0.333,0,0.667,0,1c-37.333,0-74.667,0-112,0
			c0-0.333,0-0.667,0-1C673.333,270.2,710.667,270.2,748,270.2z"/>
		<path fill-rule="evenodd" clip-rule="evenodd" fill="#FE4040" d="M151,270.2c35.24,0,70.48-0.018,105.72,0.063
			c1.388,0.004,3.285-1.246,4.28,0.937c-36.667,0-73.333,0-110,0C151,270.867,151,270.533,151,270.2z"/>
		<path fill-rule="evenodd" clip-rule="evenodd" fill="#FEBEBE" d="M1274,270.2c0,0.333,0,0.667,0,1c-35,0-70,0-105,0
			c0.333-0.333,0.667-0.667,1-1C1204.667,270.2,1239.333,270.2,1274,270.2z"/>
		<path fill-rule="evenodd" clip-rule="evenodd" fill="#FE4040" d="M1,270.2c30.074,0,60.147-0.02,90.221,0.07
			c1.203,0.004,2.999-1.213,3.779,0.93c-30.833,0-61.667,0.003-92.5-0.021C1.893,271.178,0.658,271.796,1,270.2z"/>
		<path fill-rule="evenodd" clip-rule="evenodd" fill="#FE4040" d="M1323,270.2c30.073,0,60.147-0.02,90.221,0.07
			c1.203,0.004,2.998-1.213,3.779,0.93c-31.333,0-62.667,0-94,0C1323,270.867,1323,270.533,1323,270.2z"/>
		<path fill-rule="evenodd" clip-rule="evenodd" fill="#FE4040" d="M1040,271.2c0-0.333,0-0.667,0-1c27,0,54,0,81,0
			c0,0.333,0,0.667,0,1C1094,271.2,1067,271.2,1040,271.2z"/>
		<path fill-rule="evenodd" clip-rule="evenodd" fill="#FE4242" d="M929,270.2c24.241,0,48.481-0.016,72.723,0.052
			c1.072,0.003,2.674-0.988,3.277,0.948c-25.667,0-51.333,0-77,0C928.333,270.867,928.667,270.533,929,270.2z"/>
		<path fill-rule="evenodd" clip-rule="evenodd" fill="#FE4040" d="M486,270.2c0,0.333,0,0.667,0,1c-25,0-50,0-75,0
			c0-0.333,0-0.667,0-1C436,270.2,461,270.2,486,270.2z"/>
		<path fill-rule="evenodd" clip-rule="evenodd" fill="#FE8080" d="M522,271.2c0-0.333,0-0.667,0-1
			c17.075,0,34.15-0.018,51.226,0.048c0.91,0.004,2.43-0.989,2.774,0.952C558,271.2,540,271.2,522,271.2z"/>
		<path fill-rule="evenodd" clip-rule="evenodd" fill="#FE0101" d="M907,270.2c-40,0-80,0-120,0
			c-3.935-4.991-6.92-10.603-10.389-15.897c-0.511-0.779-0.836-1.704-1.438-2.394c-2.604-2.977-3.021-6.339-1.479-9.815
			c0.795-1.792,0.026-3.624,1.102-5.571c1.218-2.206,0.833-5.281,1.216-7.969c0.333-2.346,0.271-4.925,1.283-6.951
			c1.119-2.238,0.482-4.615,1.552-6.875c1.039-2.193,0.185-5.33,1.326-7.416c1.228-2.243-0.21-4.951,1.827-6.763
			c-0.283-2.448,0.355-4.745,0.946-7.097c0.578-2.3,0.06-5.128,1.223-6.962c1.419-2.238,0.359-4.618,1.629-6.889
			c1.227-2.194,0.686-5.316,1.253-7.96c0.556-2.589,0.645-5.273,1.726-7.772c0.744-1.718,0.24-3.643,1.058-5.562
			c1.023-2.399,0.289-5.551,1.319-7.945c1.029-2.395,0.113-5.143,1.847-7.235c-0.402-4.712,1.706-9.04,2.186-13.646
			c0.188-1.803,0.045-4.232,0.98-5.479c1.478-1.969-0.072-4.221,1.44-5.972c1.296-1.5-0.655-3.993,1.394-5.405
			c-0.299-2.611,0.398-5.079,0.961-7.592c0.519-2.32,0.016-5.182,1.218-6.953c1.426-2.1,0.253-4.32,1.571-6.434
			c1.229-1.973,1.006-4.911,1.221-7.442c0.241-2.846,0.945-5.573,1.819-8.256c0.588-1.804,0.132-3.647,1.03-5.577
			c1.09-2.342,0.263-5.572,1.342-7.925c1.102-2.4,0.225-5.021,1.721-7.319c0.687-1.053,0.117-2.923,0.117-4.868
			c-2.737-0.119-5.515-0.042-8.285-0.056c-2.807-0.014-5.612-0.003-8.648-0.003c-0.369-3.895,0.778-7.451,1.564-10.927
			c0.438-1.939,0.101-3.954,1.176-6.001c1.182-2.248,0.626-5.342,1.247-7.968c0.972-4.108,1.505-8.3,2.641-12.383
			c0.76-2.731,0.958-5.63,1.287-8.468c0.323-2.785,0.694-3.187,3.639-3.254c0.167-0.003,0.333,0,0.5,0c50.809,0,101.617,0,152.599,0
			c1.077,3.436-0.643,6.592-1.134,9.795c-0.611,3.993-1.772,7.918-2.585,11.897c-0.752,3.688-1.187,7.48-2.368,11.023
			c-0.755,2.261-0.587,4.617-1.527,6.856c-0.833,1.984-0.167,4.73-1.259,6.441c-1.332,2.087,0.203,4.632-1.69,6.331
			c0.236,4.205-1.954,7.945-2.254,12.096c-0.223,3.074-1.351,6.083-2.13,9.351c-7.418,0-14.985,0-22.765,0
			c-0.781-8.214-1.557-16.375-2.345-24.667c-14.027,0-28.142,0-42.35,0c-0.942,4.092-1.744,8.25-2.498,12.436
			c-0.709,3.938-1.178,8.013-2.626,11.86c-0.702,1.864-0.227,4.016-1.08,6.055c-0.832,1.985-0.725,4.353-1.122,6.535
			c-0.397,2.18-1.376,4.262-1.054,6.558c-2.139,1.6-0.404,4.198-1.74,6.318c-1.235,1.959-0.786,4.946-1.222,7.457
			c-0.237,1.369-0.77,2.688-1.129,3.895c0.26,0.318,0.345,0.464,0.468,0.562c0.117,0.093,0.274,0.193,0.414,0.193
			c13.976,0.009,27.95,0.008,42.396,0.008c-0.53,1.979,0.395,3.699-0.987,5.679c-0.983,1.408,0.174,3.666-0.786,5.642
			c-0.93,1.91-1.002,4.26-1.33,6.435c-0.404,2.684-0.489,5.43-1.091,8.063c-0.349,1.528-0.602,3.132-1.049,4.563
			c-1.361,4.364-0.866,9.06-2.786,13.331c-0.798,1.773-0.591,3.999-0.874,6.288c-5.346,0-10.303,0-15.259,0
			c-8.497,0-16.994-0.018-25.491,0.01c-2.834,0.01-2.992,0.514-3.525,3.389c-0.8,4.303-1.378,8.659-2.658,12.876
			c-0.368,1.212-0.104,2.603-0.313,3.881c-0.198,1.217-0.738,2.377-0.949,3.593c-0.407,2.349-0.033,5.13-1.189,6.974
			c-1.402,2.235-0.068,4.713-1.693,6.878c-1.009,1.346-0.358,3.698-0.676,5.631c-0.82,5-2.771,9.838-2.457,15.015
			c0.009,0.146,0.11,0.286,0.234,0.592c13.046,0,26.161,0,39.492,0c3.766-8.029,7.627-16.262,11.573-24.676
			c8.651,0,17.435,0,26.459,0c1.069,3.249-0.646,6.431-1.218,9.598c-0.405,2.244-0.688,4.596-1.433,6.856
			c-0.833,2.529-0.162,5.651-1.285,7.962c-1.169,2.407,0.171,5.234-1.829,7.252c0.176,4.355-1.346,8.468-2.161,12.635
			c-1.199,6.127-1.752,12.402-3.763,18.393c-0.797,2.373-0.689,5.039-1.1,7.554C907.778,267.828,907.333,269.005,907,270.2z"/>
		<path fill-rule="evenodd" clip-rule="evenodd" fill="#FE0101" d="M340,50.331c-6.354,0-12.47,0-19.119,0
			c-3.861,8.122-7.838,16.489-11.776,24.773c-7.861,0-15.311,0-23.221,0c0.403-3.23,0.155-6.636,1.38-9.383
			c1.016-2.277-0.279-4.948,1.735-6.784c-0.075-4.664,2.405-8.954,2-13.666c2.081-5.435,2.519-11.27,3.771-16.888
			c0.95-4.264,1.617-8.744,2.429-13.077c0.856-4.572,1.434-9.273,3.136-13.921c54.015,0,108.236,0,162.592,0
			c-4.971,24.661-9.916,49.192-14.861,73.727c-7.51,0-14.626,0-21.685,0c-1.782-8.152-0.98-16.472-2.728-24.912
			c-5.24,0-10.692,0.006-16.143-0.003c-1.603-0.003-2.278,0.96-2.505,2.37c-0.354,2.191-0.672,4.388-1.005,6.582
			s-0.371,4.487-1.062,6.563c-1.443,4.339-0.972,9.05-2.864,13.306c-0.495,1.113,0.053,2.648-0.115,3.96
			c-0.135,1.054-0.738,2.041-0.937,3.095c-0.411,2.18-0.895,4.377-0.967,6.58c-0.074,2.265-1.786,4.226-1.057,6.581
			c-2.076,2.378-0.518,5.509-1.824,8.252c-1.171,2.463-0.501,5.73-1.249,8.479c-1.456,5.354-2.287,10.787-2.927,16.271
			c-2.076,2.377-0.518,5.508-1.823,8.252c-1.172,2.462-0.349,5.814-1.294,8.456c-1.384,3.866-0.852,8.141-2.883,11.794
			c0.462,2.793-0.375,5.457-1.052,8.069c-1.182,4.561-0.988,9.378-2.792,13.829c-0.464,1.145-0.007,2.631-0.19,3.93
			c-0.172,1.218-0.685,2.383-0.956,3.592c-1.098,4.896-1.357,9.933-2.905,14.782c-0.907,2.844-0.362,6.146-1.231,9.011
			c-0.726,2.396-0.981,4.622-0.732,7.186c7.902,0,15.686,0,23.875,0c-0.246,2.205,0.596,4.249-0.675,6.238
			c-1.185,1.855,0.424,4.092-0.983,6.112c-1.139,1.636,0.333,4.191-1.357,5.911c0.091,4.667-1.642,9.047-2.194,13.644
			c-0.611,5.095-2.309,10.087-2.861,15.268c-0.073,0.687-0.898,1.292-1.225,1.732c-35.989,0-71.764,0-107.565,0
			c0.634-3.69,0.99-7.288,1.91-10.735c1.128-4.229,1.326-8.624,2.822-12.81c0.944-2.643,0.416-5.785,1.2-8.518
			c1.163-4.058,0.937-8.427,2.886-12.291c0.201-0.398-0.032-0.994,0.039-1.483c0.366-2.535,0.812-2.965,3.364-2.993
			c3.665-0.042,7.331,0.015,10.996-0.019c2.952-0.027,3.521-0.451,3.593-3.239c0.066-2.582,1.756-4.916,1.037-7.582
			c2.111-1.79,0.54-4.509,1.805-6.777c1.226-2.196,0.824-5.285,1.208-7.972c0.267-1.871,0.644-3.727,0.99-5.585
			c0.377-2.021,1.154-3.907,1.099-6.087c-0.055-2.15,0.158-4.695,1.28-6.385c1.287-1.938-0.607-4.444,1.618-5.865
			c0.029-2.404,0.26-4.715,0.889-7.113c1.312-4.998,1.5-10.234,3.024-15.248c0.824-2.712,0.322-5.834,1.186-8.524
			c1.401-4.361,1.84-8.915,2.659-13.328c0.833-4.488,2.299-8.931,2.335-13.62c0.018-2.275,0.75-4.649,1.63-6.785
			c0.875-2.124-0.891-4.683,1.278-6.468c-0.272-4.692,2.135-8.98,2.053-13.667c-0.021-1.188,0.691-2.373,0.925-3.588
			c0.237-1.229,0.202-2.38,0.804-3.678c0.886-1.911-0.36-4.495,1.218-6.485c-0.187-4.68,2.35-8.962,2-13.666
			c1.968-2.026,0.027-5.114,1.956-7.209C340.271,51.977,340,51.092,340,50.331z"/>
		<path fill-rule="evenodd" clip-rule="evenodd" fill="#FE0101" d="M1274,270.2c-34.667,0-69.333,0-104,0
			c0.038-2.076-0.023-4.076,0.898-6.129c0.741-1.651-0.57-3.916,1.102-5.537c-0.236-4.365,1.751-8.361,2.096-12.659
			c0.161-2.009,1.239-3.953,0.904-6.091c2.175-1.783-0.041-4.597,1.403-6.396c1.448-1.804-0.048-4.007,1.438-5.976
			c1.063-1.406,0.657-3.92,0.922-6.064c6.525,0,12.644,0,18.899,0c0.462-2.441,0.942-4.744,1.325-7.062
			c0.388-2.353,0.38-4.812,1.072-7.063c1.587-5.161,2.134-10.481,2.939-15.769c2.099-2.372,0.445-5.521,1.831-8.254
			c1.155-2.277,0.191-5.624,1.335-7.914c1.365-2.731,0.356-5.591,1.658-8.334c1.169-2.464,0.35-5.813,1.292-8.457
			c1.38-3.867,1.209-7.999,2.741-11.851c0.83-2.088,0.397-4.657,1.029-7.056c1.318-4.996,1.5-10.234,3.025-15.247
			c0.825-2.711,0.322-5.834,1.187-8.524c1.4-4.361,1.841-8.915,2.658-13.328c0.831-4.488,2.297-8.931,2.335-13.619
			c0.019-2.276,0.74-4.655,1.627-6.786c0.885-2.124-0.903-4.686,1.281-6.467c-0.27-4.692,2.014-8.984,2.086-13.664
			c0.034-2.287,1.039-4.548,1.477-6.846c0.293-1.541,0.362-3.124,0.544-4.805c-6.514,0-12.63,0-18.808,0
			c-3.928,8.206-7.853,16.406-11.867,24.795c-7.512,0-15.295,0-23.524,0c4.798-24.58,9.572-49.036,14.388-73.709
			c54.376,0,108.93,0,163.61,0c0.495,4.45-1.276,8.479-1.823,12.672c-0.532,4.091-1.466,8.127-2.3,12.11
			c-0.855,4.084-1.371,8.283-2.66,12.336c-1.232,3.876-1.058,8.191-2.231,12.095c-1.22,4.058-1.612,8.26-2.661,12.344
			c-1.002,3.899-1.604,8.006-2.447,12.128c-7.147,0-14.263,0-21.392,0c-0.84-1.679-1.416-3.367-1.481-5.387
			c-0.104-3.229,0.515-6.424-0.474-9.747c-0.861-2.901-0.43-6.188-0.579-9.523c-6.353,0-12.793,0-19.612,0
			c-0.796,3.83-2.116,7.815-2.322,12.114c-0.109,2.293-0.766,4.652-1.645,6.788c-0.873,2.124,0.212,4.297-1.082,6.578
			c-1.237,2.182-0.822,5.283-1.207,7.97c-0.336,2.345-0.58,4.729-1.216,6.997c-0.81,2.886-1.349,5.794-1.833,8.745
			c-0.429,2.611-0.668,5.285-1.633,7.805c-0.854,2.228-0.117,4.64-1.152,7.023c-1.037,2.389-0.433,5.448-1.264,7.979
			c-0.836,2.545-0.337,5.379-1.891,7.704c0.44,5.039-1.84,9.676-2.165,14.654c-0.196,3.021-1.273,6.102-1.821,9.181
			c-0.521,2.928-0.926,5.846-1.858,8.721c-0.718,2.211-0.336,4.659-1.028,7.063c-1.428,4.961-1.158,10.321-3.127,15.214
			c0.577,2.648-0.67,5.055-1.008,7.582c-0.295,2.199-0.601,4.4-1.009,6.581c-0.408,2.185-1.402,4.276-0.986,6.585
			c-2.388,1.785-0.199,4.589-1.612,6.86c-1.16,1.863-0.992,4.56-1.369,6.895c-0.074,0.459,0.054,0.95,0.102,1.596
			c5.842,0,11.627,0,17.775,0c-0.049,2.837,0.49,5.371-0.76,8.122c-0.793,1.746-0.48,4.001-0.937,6.066
			c-0.672,3.049-1.472,6.139-1.855,9.234c-0.394,3.167-0.902,6.401-1.576,9.419c-0.875,3.918-0.893,8.075-2.673,11.848
			C1273.512,266.97,1274,268.7,1274,270.2z"/>
		<path fill-rule="evenodd" clip-rule="evenodd" fill="#FE0101" d="M748,270.2c-37.333,0-74.667,0-112,0
			c-3.333-5.285-6.668-10.57-9.999-15.856c-0.915-1.453-1.561-3.204-2.792-4.297c-1.567-1.391-1.774-3.446-1.069-4.446
			c1.532-2.173,0.279-4.673,1.629-6.893c1.068-1.76-0.43-4.496,1.231-6.463c-0.181-4.356,1.222-8.527,2.189-12.625
			c1.441-6.104,2.089-12.34,3.587-18.441c0.998-4.067,1.559-8.421,2.389-12.583c1.222-6.126,2.242-12.313,3.606-18.425
			c0.987-4.42,1.839-9.014,2.453-13.59c0.525-3.916,1.149-7.997,2.612-11.851c0.88-2.319,0.921-4.992,1.133-7.523
			c0.239-2.847,0.995-5.558,1.803-8.264c0.587-1.965-0.433-4.252,1.228-5.989c-0.082-4.667,1.406-9.144,2.247-13.624
			c1.057-5.629,1.766-11.408,3.663-16.919c0.864-2.513,0.541-5.408,1.14-8.043c0.937-4.119,1.472-8.317,2.629-12.396
			c0.642-2.262,1.034-4.619,1.284-6.961c0.29-2.703,1.648-5.27,1.037-8.081c1.873-1.973,0.539-4.316,1.188-6.658
			c-5.221,0-10.008,0-15.225,0c0.365-3.67,0.709-7.13,1.054-10.59c1.697-1.237,0.686-3.055,0.994-4.59
			c0.276-1.373,0.931-2.725,0.938-4.088c0.029-4.831,2.517-9.287,2.05-14.17c2.262-2.142,0.317-5.206,1.832-7.771
			c1.196-2.023,0.892-4.934,1.283-7.657c32.537,0,65.104,0,97.915,0c-3.038,16.307-6.054,32.492-9.092,48.8
			c-5.719,0-11.172,0-16.742,0c-1.099,6.029-2.421,11.847-3.373,17.771c-0.871,5.423-2.183,10.8-2.823,16.285
			c-2.087,2.375-0.508,5.51-1.822,8.256c-1.177,2.457-0.503,5.73-1.25,8.479c-1.457,5.356-1.899,10.878-3.097,16.238
			c-0.569,2.546-0.886,5.198-1.722,7.744c-0.832,2.531-0.131,5.678-1.276,7.966c-1.368,2.733-0.351,5.594-1.656,8.339
			c-1.172,2.463-0.562,5.709-1.252,8.481c-0.759,3.048-1.366,6.111-1.911,9.192c-0.519,2.93-0.909,5.851-1.872,8.72
			c-0.796,2.372-0.879,5.004-1.118,7.536c-0.27,2.836-1.268,5.509-1.719,8.274c-0.433,2.656-0.937,5.321-1.224,7.988
			c-0.273,2.545-1.807,4.908-1.081,7.576c-2.128,1.785-0.222,4.61-1.864,6.774c-1.015,1.337-0.041,3.646-0.727,5.642
			c-1.012,2.941-1.123,6.193-1.655,9.549c11.164,0,21.948,0,32.729,0c2.783-5.668,5.667-11.467,8.473-17.303
			c0.799-1.66,1.57-3.383,1.992-5.163c0.493-2.075,1.754-2.389,3.565-2.376c7.331,0.054,14.663,0.022,22.122,0.022
			c1.404,2.744-1.354,5.204-0.635,7.889c-2.021,2.393,0.021,5.778-2,8.171c-0.169,6.059-2.736,11.713-3,17.756
			c-2.076,2.378-0.465,5.521-1.833,8.254c-1.146,2.288-0.361,5.486-1.298,7.952c-0.967,2.549-0.922,5.21-1.76,7.757
			c-0.832,2.53-0.63,5.384-1.17,8.036c-0.276,1.361-1.001,2.584-1.008,4.098C748.924,267.477,748.333,268.838,748,270.2z"/>
		<path fill-rule="evenodd" clip-rule="evenodd" fill="#FEFCFC" fill-opacity="0.0" d="M510.734,143.2c0.304-2.607,0.141-4.998,0.936-7.01
			c0.847-2.143-0.331-4.349,1.106-6.575c0.935-1.448,0.66-3.932,1.127-5.966c1.083-4.725,2.081-9.5,2.905-14.253
			c0.728-4.196,1.382-8.49,2.366-12.584c1.465-6.094,2.088-12.326,3.598-18.422c1.006-4.059,1.493-8.435,2.405-12.563
			c1.001-4.529,0.916-9.384,3.166-13.482c11.896,0,23.673,0,35.461,0c-0.719,5.404-1.866,10.614-3,15.758
			c-1.237,5.616-2.28,11.309-3.582,16.919c-0.95,4.091-1.461,8.449-2.39,12.569c-1.304,5.778-2.302,11.636-3.615,17.412
			c-0.933,4.1-1.525,8.425-2.39,12.573c-0.886,4.253-1.125,8.678-2.787,12.796c-1.088,2.694-0.913,2.813-3.57,2.818
			C532.147,143.213,521.824,143.2,510.734,143.2z"/>
	</g>
</g>
</svg>
