<?xml version="1.0" encoding="UTF-8" standalone="no"?>
<!-- Created with Inkscape (http://www.inkscape.org/) -->
<svg xmlns:svg="http://www.w3.org/2000/svg" xmlns="http://www.w3.org/2000/svg" version="1.0" width="800" height="108.591" viewBox="0 0 800 108.591" id="Layer_1" xml:space="preserve"><defs id="defs30"/>
<path d="M 800,5.707 C 800,9.209 797.276,23.732 794.812,32.557 C 793.838,36.049 792.216,37.49 789.364,37.49 C 786.38,37.49 785.402,35.428 785.34,29.967 C 785.212,18.94 784.82,12.322 777.163,12.322 C 775.611,12.322 774.727,12.976 774.443,14.528 C 771.979,28.023 768.739,48.89 762.894,90.04 C 762.766,90.946 762.633,92.116 762.633,92.894 C 762.633,97.174 762.72,98.165 765.23,99.509 C 766.914,100.417 767.698,101.583 767.698,103.531 C 767.698,106.648 764.45,107.552 761.858,107.552 C 758.481,107.552 754.853,106.91 747.457,106.91 C 740.32,106.91 737.208,107.552 733.311,107.552 C 728.511,107.552 727.347,105.866 727.347,103.406 C 727.347,101.332 728.35,100.083 730.071,99.382 C 732.924,98.216 734.566,97.566 735.647,91.727 C 740.663,64.737 745.95,21.16 746.548,17.127 C 746.989,14.139 746.548,12.323 744.728,12.323 C 734.868,12.323 733.959,20.107 731.239,29.71 C 729.419,36.106 726.955,37.365 724.619,37.365 C 721.247,37.365 720.598,35.417 720.598,31.654 C 720.598,28.67 724.363,8.822 725.138,5.314 C 725.827,2.212 726.567,0.516 731.363,0.516 C 735.387,0.516 736.168,1.814 739.932,1.814 L 785.727,1.814 C 789.488,1.814 791.829,0.39 794.812,0.39 C 799.224,0.388 800,2.722 800,5.707" style="fill:#ff0000" id="path3"/>
<path d="M 655.335,5.962 C 655.335,8.43 653.911,9.337 651.447,10.37 C 649.842,11.047 648.223,11.551 647.423,15.955 C 640.831,52.131 636.002,91.853 636.002,94.575 C 636.002,97.431 636.658,98.593 638.986,99.642 C 640.418,100.282 641.322,101.33 641.322,103.404 C 641.322,106.126 639.118,107.55 635.097,107.55 C 631.783,107.55 627.825,107.034 621.6,107.034 C 614.591,107.034 610.576,107.55 606.939,107.55 C 601.358,107.55 600.842,105.474 600.842,103.529 C 600.842,101.581 601.874,100.149 604.607,98.859 C 606.546,97.942 608,97.177 609.143,91.594 C 610.852,83.293 615.112,55.523 617.707,35.933 L 617.451,35.933 C 599.802,74.986 594.745,88.867 594.745,88.867 C 594.196,90.151 593.189,91.981 591.497,91.981 L 586.049,91.981 C 584.885,91.981 584.06,91.207 583.717,89.125 L 575.024,36.71 L 574.632,36.71 C 569.831,72.001 568.667,81.474 568.667,81.474 C 568.144,85.41 567.606,94.078 567.606,94.573 C 567.606,97.953 568.613,98.845 570.095,99.378 C 571.519,99.894 572.947,100.938 572.947,103.528 C 572.947,106.255 570.739,107.549 567.367,107.549 C 565.588,107.549 563.087,107.093 559.454,107.093 C 555.17,107.093 553.874,107.549 551.802,107.549 C 547.646,107.549 546.09,105.997 546.09,103.787 C 546.09,100.677 548.017,99.701 549.854,99.117 C 552.707,98.213 553.899,95.361 554.783,91.075 C 558.312,73.966 564.904,19.065 565.292,15.955 C 565.808,11.805 564.821,10.917 562.308,9.852 C 559.844,8.82 558.936,7.26 558.936,5.574 C 558.936,3.11 560.88,1.55 564.516,1.55 C 568.062,1.55 571.781,2.328 578.009,2.328 C 582.678,2.328 585.451,1.55 587.87,1.55 C 592.538,1.55 594.325,2.869 595.002,7.261 L 600.971,46.058 L 601.236,46.058 C 610.705,25.558 617.841,7.65 617.841,7.65 C 619.57,3.65 620.952,1.549 626.013,1.549 C 628.758,1.549 632.762,2.319 638.338,2.319 C 643.53,2.319 646.791,1.549 649.107,1.549 C 653.912,1.55 655.335,3.11 655.335,5.962" style="fill:#ff0000" id="path5"/>
<path d="M 483.166,5.574 C 483.166,8.297 481.866,9.328 478.886,10.507 C 476.285,11.531 475.902,12.822 474.862,18.678 C 470.582,42.803 462.017,101.845 462.017,101.845 C 461.257,106.765 460.329,107.552 457.088,107.552 L 451.508,107.552 C 449.692,107.552 447.933,106.411 446.451,102.236 L 423.225,36.849 L 422.704,36.849 C 419.072,62.661 416.996,78.495 416.996,78.495 C 416.278,83.706 415.7,93.28 415.7,94.324 C 415.7,97.434 416.868,98.474 418.42,99.252 C 420.034,100.059 421.536,100.68 421.536,103.407 C 421.536,106.391 419.072,107.553 415.7,107.553 C 413.735,107.553 411.42,107.101 407.783,107.101 C 403.111,107.101 401.315,107.553 399.219,107.553 C 395.715,107.553 394.031,106.129 394.031,103.532 C 394.031,101.2 395.199,99.772 397.923,98.862 C 400.301,98.071 401.382,96.132 402.336,91.855 C 404.887,80.421 411.541,33.468 413.105,19.719 C 413.356,17.509 413.493,14.79 413.493,13.492 C 413.493,11.678 412.581,10.786 411.157,10.246 C 407.784,8.964 407.009,7.39 407.009,5.45 C 407.009,2.723 409.081,1.551 411.809,1.551 C 415.049,1.551 419.185,2.249 423.482,2.245 C 427.358,2.241 430.102,1.551 433.73,1.551 C 436.591,1.551 437.578,2.346 439.183,6.87 L 456.441,55.526 L 456.833,55.526 C 457.63,50.586 460.04,32.82 460.04,32.82 C 460.779,27.605 461.501,18.151 461.501,15.569 C 461.501,12.065 460.396,10.905 459.165,10.372 C 457.345,9.6 455.665,8.69 455.665,6.226 C 455.665,3.374 457.737,1.551 461.757,1.551 C 463.627,1.551 467.585,2.265 470.067,2.269 C 472.671,2.273 476.11,1.551 477.715,1.551 C 481.217,1.55 483.166,2.59 483.166,5.574" style="fill:#ff0000" id="path7"/>
<path d="M 328.771,9.853 C 328.478,13.355 326.433,22.444 324.358,29.573 C 323.656,32 322.282,33.214 319.818,33.214 C 317.091,33.214 315.279,31.524 315.38,28.407 C 315.465,25.947 315.793,23.489 315.793,19.202 C 315.793,15.44 311.254,10.507 303.21,10.507 C 295.813,10.507 290.625,14.4 290.625,21.014 C 290.625,26.721 293.075,29.705 296.461,33.601 C 301.651,39.57 304.25,42.422 310.476,49.294 C 316.335,55.766 322.023,64.482 322.023,77.847 C 322.023,94.448 307.882,108.591 285.044,108.591 C 272.719,108.591 264.03,104.183 259.744,102.103 C 257.864,101.195 256.797,99.876 257.152,97.044 C 257.41,94.968 260.006,84.199 262.596,76.024 C 263.729,72.466 265.064,70.575 268.307,70.575 C 270.645,70.575 272.069,72.003 272.069,75.245 C 272.069,77.212 271.751,79.831 271.553,83.678 C 271.351,87.579 270.645,97.305 286.342,97.305 C 293.477,97.305 298.409,92.635 298.409,86.536 C 298.409,81.864 297.585,77.121 291.92,71.091 C 287.902,66.815 285.035,63.711 280.505,58.64 C 271.81,48.905 268.306,41.907 268.306,30.744 C 268.308,10.895 284.009,0 303.859,0 C 314.24,0 320.209,2.328 324.359,4.014 C 327.691,5.372 329.029,6.741 328.771,9.853" style="fill:#ff0000" id="path9"/>
<path d="M 263.118,30.229 C 263.118,33.471 262.451,37.875 261.431,41.126 C 259.854,46.176 257.927,47.745 254.817,47.745 C 252.611,47.745 250.667,47.483 249.369,47.483 C 245.996,47.483 244.306,48.777 242.492,50.597 C 240.416,52.673 239.25,53.061 237.69,53.061 C 236.004,53.061 235.484,51.895 235.484,49.039 C 235.484,47.095 235.874,44.111 236.652,40.216 C 237.64,35.275 239.638,30.483 242.751,30.483 C 244.567,30.483 245.607,31.137 248.849,31.137 C 253.652,31.137 255.455,30.084 256.762,28.669 C 258.44,26.844 259.226,26.201 261.045,26.201 C 262.472,26.2 263.118,27.893 263.118,30.229" style="fill:#ff0000" id="path11"/>
<path d="M 261.951,57.469 C 261.951,60.715 261.283,65.119 260.265,68.37 C 258.688,73.424 256.761,74.989 253.651,74.989 C 251.445,74.989 249.499,74.727 248.202,74.727 C 244.824,74.727 243.138,76.025 241.326,77.848 C 239.25,79.914 238.08,80.308 236.524,80.308 C 234.838,80.308 234.317,79.146 234.317,76.287 C 234.317,74.339 234.705,71.355 235.484,67.467 C 236.474,62.522 238.468,57.728 241.585,57.728 C 243.401,57.728 244.437,58.38 247.683,58.38 C 252.484,58.38 254.289,57.34 255.596,55.916 C 257.274,54.094 258.06,53.452 259.876,53.452 C 261.305,53.45 261.951,55.137 261.951,57.469" style="fill:#ff0000" id="path13"/>
<path d="M 185.145,5.707 C 185.145,9.209 182.419,23.732 179.955,32.557 C 178.983,36.049 177.359,37.49 174.507,37.49 C 171.523,37.49 170.547,35.428 170.483,29.967 C 170.353,18.94 169.963,12.322 162.308,12.322 C 160.754,12.322 159.87,12.976 159.582,14.528 C 157.118,28.023 153.882,48.89 148.039,90.04 C 147.909,90.946 147.781,92.116 147.781,92.894 C 147.781,97.174 147.865,98.165 150.373,99.509 C 152.059,100.417 152.837,101.583 152.837,103.531 C 152.837,106.648 149.595,107.552 146.999,107.552 C 143.626,107.552 139.997,106.91 132.6,106.91 C 125.466,106.91 122.349,107.552 118.457,107.552 C 113.657,107.552 112.491,105.866 112.491,103.406 C 112.491,101.332 113.496,100.083 115.211,99.382 C 118.069,98.216 119.708,97.566 120.792,91.727 C 125.805,64.737 131.093,21.16 131.693,17.127 C 132.136,14.139 131.693,12.323 129.875,12.323 C 120.014,12.323 119.11,20.107 116.384,29.71 C 114.566,36.106 112.102,37.365 109.765,37.365 C 106.391,37.365 105.745,35.417 105.745,31.654 C 105.745,28.67 109.507,8.822 110.285,5.314 C 110.973,2.212 112.229,0.516 117.03,0.516 C 120.664,0.516 120.792,1.814 125.072,1.814 L 170.874,1.814 C 174.634,1.814 176.972,0.39 179.957,0.39 C 184.367,0.388 185.145,2.722 185.145,5.707" style="fill:#ff0000" id="path15"/>
<path d="M 113.135,77.452 C 113.135,80.956 109.893,95.362 107.04,103.662 C 105.69,107.583 104.182,108.462 98.471,108.462 C 94.321,108.462 83.172,106.912 67.339,106.912 C 58.095,106.912 52.098,107.55 50.86,107.55 C 46.053,107.55 44.892,106.256 44.892,103.404 C 44.892,101.33 45.897,100.081 47.614,99.38 C 50.47,98.214 52.022,97.568 53.192,91.725 C 58.249,66.57 63.73,22.054 64.093,18.032 C 64.634,12.075 63.961,11.289 62.017,10.245 C 60.327,9.341 59.29,8.297 59.29,6.224 C 59.29,3.497 60.851,1.549 66.945,1.549 C 70.319,1.549 75.51,2.201 79.79,2.201 C 86.02,2.201 88.353,1.549 91.599,1.549 C 98.213,1.549 99.512,3.11 99.512,5.706 C 99.512,7.91 98.214,9.462 96.008,10.245 C 93.922,10.986 92.768,11.805 91.989,15.435 C 89.397,27.49 85.889,48.78 80.442,90.04 C 80.318,90.95 80.18,92.116 80.18,92.894 C 80.18,95.358 81.35,96.787 84.461,96.787 C 95.62,96.787 101.436,86.794 104.315,76.413 C 105.07,73.689 106.651,72.263 109.243,72.263 C 111.317,72.262 113.135,73.172 113.135,77.452" style="fill:#ff0000" id="path17"/>
<path d="M 54.62,5.707 C 54.62,8.171 53.458,9.35 51.118,10.246 C 49.046,11.04 47.876,11.806 47.097,15.436 C 44.505,27.49 40.999,48.78 35.551,90.04 C 35.427,90.95 35.289,92.374 35.289,93.152 C 35.289,97.432 35.31,98.299 37.883,99.508 C 39.722,100.375 40.347,101.582 40.347,103.53 C 40.347,106.388 38.015,107.551 34.64,107.551 C 30.876,107.551 24.742,106.87 18.939,106.874 C 13.876,106.882 9.73,107.551 5.968,107.551 C 1.166,107.551 0,106.127 0,103.405 C 0,101.331 1.052,100.187 2.726,99.381 C 5.335,98.114 7.159,97.573 8.3,91.726 C 13.233,66.562 18.834,22.054 19.201,18.032 C 19.742,12.075 19.071,11.289 17.127,10.245 C 15.435,9.341 14.4,8.038 14.4,5.962 C 14.4,3.238 16.348,1.549 22.055,1.549 C 25.169,1.549 29.189,2.201 35.03,2.201 C 40.866,2.201 43.851,1.549 46.709,1.549 C 53.586,1.55 54.62,2.978 54.62,5.707" style="fill:#ff0000" id="path19"/>
<path d="M 690.107,61.623 C 690.107,61.623 689.979,41.514 689.718,29.836 L 689.33,29.836 L 677.913,58.899 C 677.162,60.812 676.225,62.791 676.225,63.832 C 676.225,64.87 676.872,65.128 677.781,65.128 L 687.902,65.128 C 689.851,65.127 690.144,64.558 690.107,61.623 M 721.118,103.405 C 721.118,106.257 718.525,107.551 714.889,107.551 C 711.256,107.551 707.492,106.909 702.564,106.909 C 696.467,106.909 692.959,107.551 688.939,107.551 C 684.659,107.551 682.714,106.003 682.714,103.405 C 682.714,100.941 684.014,99.118 687.122,98.084 C 689.458,97.306 690.279,95.75 690.37,91.726 L 690.626,79.913 C 690.668,77.973 690.106,77.711 688.938,77.711 L 672.72,77.711 C 670.776,77.711 670.31,78.384 669.736,79.659 C 667.532,84.591 664.42,91.596 664.42,95.746 C 664.42,96.912 664.944,98.452 666.757,99.25 C 668.453,100.001 669.609,101.324 669.609,103.405 C 669.609,105.739 668.185,107.551 664.161,107.551 C 661.697,107.551 659.36,107.099 655.464,107.099 C 651.836,107.099 650.276,107.551 648.332,107.551 C 644.827,107.551 643.14,106.131 643.14,103.53 C 643.14,101.582 644.321,99.927 645.996,99.38 C 649.896,98.109 651.63,93.696 652.484,91.725 C 670.703,49.582 681.543,22.574 681.543,22.574 C 682.665,19.911 684.271,15.823 684.271,14.527 C 684.271,12.054 683.483,11.196 681.675,10.37 C 680.246,9.724 679.471,9.078 679.471,6.74 C 679.471,3.756 681.543,2.464 687.387,2.464 C 699.58,2.464 702.952,0.514 708.661,0.514 C 712.425,0.514 713.56,2.396 713.721,7.91 C 713.721,7.91 714.464,57.858 716.318,96.133 C 716.413,98.083 717.486,98.601 718.782,99.249 C 720.036,99.875 721.118,101.066 721.118,103.405 z " style="fill:#ff0000" id="path21"/>
<path d="M 530.348,25.034 C 530.348,12.583 527.405,9.712 521.313,9.712 C 504.055,9.712 498.401,66.167 498.401,82.123 C 498.401,95.956 501.86,98.874 507.296,98.874 C 522.089,98.875 530.348,46.446 530.348,25.034 M 556.08,40.215 C 556.08,75.898 534.803,108.59 504.056,108.59 C 484.723,108.59 472.917,93.413 472.917,71.223 C 472.917,29.836 494.063,0.125 524.554,0.125 C 545.834,0.126 556.08,13.745 556.08,40.215 z " style="fill:#ff0000" id="path23"/>
<path d="M 360.815,61.623 C 360.815,61.623 360.691,41.514 360.427,29.836 L 360.039,29.836 L 348.622,58.899 C 347.871,60.812 346.936,62.791 346.936,63.832 C 346.936,64.87 347.582,65.128 348.492,65.128 L 358.611,65.128 C 360.56,65.127 360.853,64.558 360.815,61.623 M 391.822,103.405 C 391.822,106.257 389.23,107.551 385.598,107.551 C 381.962,107.551 378.202,106.909 373.273,106.909 C 367.172,106.909 363.672,107.551 359.652,107.551 C 355.368,107.551 353.422,106.003 353.422,103.405 C 353.422,100.941 354.718,99.118 357.832,98.084 C 360.172,97.306 360.99,95.75 361.077,91.726 L 361.337,79.913 C 361.382,77.973 360.817,77.711 359.653,77.711 L 343.434,77.711 C 341.486,77.711 341.021,78.384 340.45,79.659 C 338.24,84.591 335.13,91.596 335.13,95.746 C 335.13,96.912 335.658,98.452 337.468,99.25 C 339.166,100.001 340.32,101.324 340.32,103.405 C 340.32,105.739 338.892,107.551 334.872,107.551 C 332.408,107.551 330.071,107.099 326.177,107.099 C 322.543,107.099 320.987,107.551 319.042,107.551 C 315.538,107.551 313.852,106.131 313.852,103.53 C 313.852,101.582 315.028,99.927 316.706,99.38 C 320.606,98.109 322.34,93.696 323.192,91.725 C 341.409,49.582 352.255,22.574 352.255,22.574 C 353.376,19.911 354.981,15.823 354.981,14.527 C 354.981,12.054 354.187,11.196 352.387,10.37 C 350.959,9.724 350.181,9.078 350.181,6.74 C 350.181,3.756 352.255,2.464 358.094,2.464 C 370.291,2.464 373.663,0.514 379.372,0.514 C 383.136,0.514 384.267,2.396 384.433,7.91 C 384.433,7.91 385.176,57.858 387.029,96.133 C 387.124,98.083 388.197,98.601 389.493,99.249 C 390.745,99.875 391.822,101.066 391.822,103.405 z " style="fill:#ff0000" id="path25"/>
<path d="M 203.307,61.623 C 203.307,61.623 203.179,41.514 202.919,29.836 L 202.529,29.836 L 191.112,58.899 C 190.361,60.812 189.426,62.791 189.426,63.832 C 189.426,64.87 190.074,65.128 190.982,65.128 L 201.105,65.128 C 203.048,65.127 203.344,64.558 203.307,61.623 M 234.317,103.405 C 234.317,106.257 231.723,107.551 228.087,107.551 C 224.457,107.551 220.694,106.909 215.762,106.909 C 209.667,106.909 206.163,107.551 202.141,107.551 C 197.858,107.551 195.914,106.003 195.914,103.405 C 195.914,100.941 197.212,99.118 200.322,98.084 C 202.66,97.306 203.48,95.75 203.569,91.726 L 203.827,79.913 C 203.872,77.973 203.307,77.711 202.141,77.711 L 185.921,77.711 C 183.973,77.711 183.508,78.384 182.939,79.659 C 180.733,84.591 177.616,91.596 177.616,95.746 C 177.616,96.912 178.144,98.452 179.954,99.25 C 181.653,100.001 182.806,101.324 182.806,103.405 C 182.806,105.739 181.382,107.551 177.358,107.551 C 174.894,107.551 172.558,107.099 168.663,107.099 C 165.033,107.099 163.475,107.551 161.531,107.551 C 158.031,107.551 156.341,106.131 156.341,103.53 C 156.341,101.582 157.519,99.927 159.193,99.38 C 163.093,98.109 164.831,93.696 165.682,91.725 C 183.903,49.582 194.744,22.574 194.744,22.574 C 195.863,19.911 197.471,15.823 197.471,14.527 C 197.471,12.054 196.68,11.196 194.875,10.37 C 193.447,9.724 192.668,9.078 192.668,6.74 C 192.668,3.756 194.744,2.464 200.585,2.464 C 212.78,2.464 216.156,0.514 221.863,0.514 C 225.623,0.514 226.76,2.396 226.921,7.91 C 226.921,7.91 227.666,57.858 229.517,96.133 C 229.61,98.083 230.683,98.601 231.981,99.249 C 233.236,99.875 234.317,101.066 234.317,103.405 z " style="fill:#ff0000" id="path27"/>
</svg>