<?xml version="1.0" encoding="utf-8"?>
<!-- Generator: Adobe Illustrator 16.0.0, SVG Export Plug-In . SVG Version: 6.00 Build 0)  -->
<!DOCTYPE svg PUBLIC "-//W3C//DTD SVG 1.1//EN" "http://www.w3.org/Graphics/SVG/1.1/DTD/svg11.dtd">
<svg version="1.1" id="Layer_1" xmlns="http://www.w3.org/2000/svg" xmlns:xlink="http://www.w3.org/1999/xlink" x="0px" y="0px"
	 width="187.526px" height="52.508px" viewBox="0 0 187.526 52.508" enable-background="new 0 0 187.526 52.508"
	 xml:space="preserve">
<g>
	<g>
		<path fill-rule="evenodd" clip-rule="evenodd" fill="#2E2113" d="M101.853,29.353c3.209-3.632,6.52-7.181,9.598-10.92
			c3.021-3.67,3.614-3.996,9.088-2.842c-2.214,5.452-7.586,8.514-10.102,13.767c3.092,4.779,6.172,9.538,9.311,14.39
			c1.356-0.994,0.991-2.075,0.998-2.983c0.043-5.872-0.039-11.746,0.05-17.617c0.069-4.589,1.735-6.562,6.221-7.595
			c0.915,2.256,0.403,4.635,0.483,6.944c0.083,2.36,0.019,4.724,0.019,7.527c3.807-2.757,5.989-6.396,8.751-9.473
			c0.905-1.008,1.865-2.024,2.644-3.131c2.249-3.194,5.185-2.656,8.513-1.922c-0.545,2.13-2.196,3.238-3.211,4.716
			c-1.473,2.145-3.314,4.041-5.044,6.004c-2.147,2.437-2.223,2.817-0.496,5.5c2.834,4.405,5.7,8.79,8.545,13.189
			c0.474,0.733,0.905,1.494,1.356,2.243c-2.245,0.815-4.508,0.632-6.776,0.115c-2.578-2.392-4.043-5.594-6.105-8.36
			c-1.02-1.369-1.596-3.12-3.476-4.075c-2.75,2.277-5.399,4.547-4.733,8.791c0.189,1.208-0.021,2.478-0.047,3.718
			c-4.217,0.456-8.432,0.558-12.643-0.073c-2.891-4.107-5.78-8.217-8.758-12.448c-2.323,0.761-3.55,2.578-4.847,4.313
			c-0.94,2.735,0.461,5.703-0.831,8.404c-2.04-0.041-4.122,0.569-6.102-0.399c-0.041-8.703-0.506-17.409,0.248-26.102
			c0.448-3.605,2.829-5.237,6.093-5.969c0.64,3.826,0.074,7.684,0.327,11.516C100.987,27.523,100.141,28.912,101.853,29.353z"/>
		<path fill-rule="evenodd" clip-rule="evenodd" fill="#2E2113" d="M159.828,48.025c-8.313-0.646-12.85-4.805-12.814-13.55
			c-0.594-1.98-0.594-3.962,0-5.942c-0.204-7.046,4.668-13.628,13.069-13.817c4.034-0.091,7.925-0.315,11.604,1.52
			c4.869,2.43,6.739,6.885,7.405,11.883c0.409,3.071,0.425,6.201-0.367,9.303c-1.805,7.072-5.676,10.296-13.008,10.604
			C163.754,48.6,161.791,48.6,159.828,48.025z"/>
		<path fill-rule="evenodd" clip-rule="evenodd" fill="#2E2113" d="M74.7,15.778c-0.188,2.625-1.575,4.874-2.505,7.266
			c-2.847,7.318-5.767,14.609-8.514,21.965c-0.913,2.445-2.513,3.057-4.901,3.044c-2.306-0.011-4.081-0.327-5.038-2.824
			c-3.7-9.655-7.521-19.264-11.28-28.897c-0.076-0.194,0.057-0.47,0.092-0.708c5.306-1.496,6.571-0.863,8.41,4.063
			c2.004,5.373,4.048,10.729,6.104,16.083c0.345,0.899,0.532,1.937,1.753,2.582c2.059-2.123,2.333-5.094,3.421-7.646
			c1.611-3.781,3.03-7.644,4.479-11.492C68.453,14.609,69.582,14.082,74.7,15.778z"/>
		<path fill-rule="evenodd" clip-rule="evenodd" fill="#C32E1D" d="M28.524,47.885c-1.299-0.956-3.122-0.234-4.401-1.563
			c-1.412-1.467-2.748-2.834-2.482-5.064c-0.437-10.252-0.437-20.504,0-30.757c0.748-3.488,2.341-4.821,6.127-5.127
			c1.054,3.121-0.362,6.439,0.762,9.556c2.497,0.065,4.993,0.13,7.489,0.196c0.589,1.978,0.57,3.958,0.01,5.938l0.054-0.047
			c-2.455,1.035-5.165-0.363-7.606,0.798l0.091-0.084c-0.811,5.781-0.519,11.574-0.169,17.366c-0.197,1.919,1.034,2.257,2.538,2.291
			c1.655,0.698,3.509-0.283,5.141,0.607l-0.048-0.05c0.67,1.732,0.326,3.502,0.197,5.264C33.731,48.263,31.042,47.102,28.524,47.885
			z"/>
		<path fill-rule="evenodd" clip-rule="evenodd" fill="#C32E1D" d="M18.016,47.134c-2.009,0-4.019,0-6.028,0
			c-0.781-3.918-0.348-7.879-0.322-11.813c0.056-8.281-0.418-16.569,0.261-24.844c0.582-3.429,2.822-4.879,6.09-5.104
			c0.765,2.312,0.321,4.692,0.334,7.035c0.061,10.353,0.039,20.707,0.01,31.06C18.357,44.689,18.686,45.966,18.016,47.134z"/>
		<path fill-rule="evenodd" clip-rule="evenodd" fill="#2E2113" d="M74.341,47.336c-0.026-7.852-0.088-15.703-0.066-23.555
			c0.016-5.352,1.5-7.177,6.823-8.717c0.579,10.692,0.27,21.388,0.161,32.081C78.976,48.021,76.659,47.7,74.341,47.336z"/>
		<path fill-rule="evenodd" clip-rule="evenodd" fill="#2E2113" d="M84.092,47.336c-0.026-7.852-0.088-15.703-0.066-23.555
			c0.016-5.352,1.5-7.177,6.823-8.717c0.578,10.692,0.269,21.388,0.161,32.081C88.727,48.021,86.41,47.7,84.092,47.336z"/>
		<path fill-rule="evenodd" clip-rule="evenodd" fill="#2E2113" d="M35.868,26.466c2.972,1.44,5.483,2.968,8.354,5.011
			c-2.794,1.918-5.397,3.52-8.284,4.881C35.056,32.999,35.037,30.14,35.868,26.466z"/>
		<path fill-rule="evenodd" clip-rule="evenodd" fill="#D26256" d="M18.016,47.134c0-13.921,0-27.841,0-41.761
			c1.027,0.301,0.718,1.174,0.719,1.839c0.02,12.694,0.02,25.388,0,38.083C18.735,45.96,19.044,46.833,18.016,47.134z"/>
		<path fill-rule="evenodd" clip-rule="evenodd" fill="#D26256" d="M11.927,10.478c0.021,12.219,0.041,24.438,0.061,36.656
			c-1.028-0.301-0.718-1.174-0.719-1.84c-0.021-10.955-0.019-21.91-0.005-32.864C11.265,11.726,11.052,10.904,11.927,10.478z"/>
		<path fill-rule="evenodd" clip-rule="evenodd" fill="#958F88" d="M81.011,47.257c0.029-10.731,0.058-21.462,0.087-32.193
			c0.758,0.289,0.656,0.959,0.654,1.552c-0.026,10.193-0.063,20.386-0.096,30.578C81.474,47.554,81.257,47.558,81.011,47.257z"/>
		<path fill-rule="evenodd" clip-rule="evenodd" fill="#958F88" d="M90.762,47.257c0.029-10.731,0.058-21.462,0.087-32.193
			c0.758,0.289,0.656,0.959,0.654,1.552c-0.026,10.193-0.063,20.386-0.097,30.578C91.225,47.554,91.009,47.558,90.762,47.257z"/>
		<path fill-rule="evenodd" clip-rule="evenodd" fill="#E0958D" d="M21.641,10.5c0,10.252,0,20.505,0,30.757
			c-0.74-0.311-0.631-0.976-0.631-1.571c-0.006-9.204-0.006-18.409,0-27.614C21.01,11.476,20.901,10.811,21.641,10.5z"/>
		<path fill-rule="evenodd" clip-rule="evenodd" fill="#62594E" d="M94.506,21.032c0.012,8.715,0.024,17.431,0.036,26.146
			c0.552,0.258,0.542,0.493-0.029,0.704c-1.003-0.519-0.729-1.483-0.731-2.292c-0.024-7.414-0.023-14.827-0.001-22.241
			C93.783,22.528,93.554,21.58,94.506,21.032z"/>
		<path fill-rule="evenodd" clip-rule="evenodd" fill="#D26256" d="M28.398,39.097c-0.981-1.448-0.602-3.096-0.628-4.666
			c-0.054-3.074-0.035-6.15-0.004-9.225c0.012-1.206-0.219-2.492,0.802-3.475C28.512,27.52,28.455,33.308,28.398,39.097z"/>
		<path fill-rule="evenodd" clip-rule="evenodd" fill="#958E87" d="M101.853,29.353c-1.41,1.076-1.317-0.126-1.317-0.929
			c-0.004-4.454,0.037-8.907,0.063-13.361c1.341,1.053,0.5,2.504,0.642,3.76C101.637,22.318,100.569,25.902,101.853,29.353z"/>
		<path fill-rule="evenodd" clip-rule="evenodd" fill="#62594E" d="M114.795,47.264c4.214,0.024,8.429,0.05,12.643,0.073
			C123.218,48.356,119.002,48.523,114.795,47.264z"/>
		<path fill-rule="evenodd" clip-rule="evenodd" fill="#D26256" d="M28.53,14.929c-1.577-3.08-0.437-6.376-0.762-9.556
			c1.432,0.83,0.629,2.188,0.7,3.289C28.602,10.744,28.521,12.839,28.53,14.929z"/>
		<path fill-rule="evenodd" clip-rule="evenodd" fill="#948E87" d="M100.51,47.257c0.384-2.696-0.814-5.525,0.681-8.128
			c-0.01,2.688-0.021,5.378-0.03,8.066C100.974,47.538,100.758,47.574,100.51,47.257z"/>
		<path fill-rule="evenodd" clip-rule="evenodd" fill="#D26256" d="M28.524,47.885c2.383-1.22,4.948-0.364,7.412-0.654
			c0.252-0.551,0.483-0.542,0.694,0.026C34.03,48.779,31.229,47.721,28.524,47.885z"/>
		<path fill-rule="evenodd" clip-rule="evenodd" fill="#E0958D" d="M28.477,21.814c2.382-1.721,5.085-0.394,7.606-0.798
			c-0.973,1.418-2.419,0.557-3.638,0.706C31.137,21.881,29.8,21.794,28.477,21.814z"/>
		<path fill-rule="evenodd" clip-rule="evenodd" fill="#62594E" d="M81.011,47.257c0.214-0.028,0.429-0.05,0.645-0.063
			c-2.413,1.351-4.857,1.116-7.315,0.143C76.564,47.31,78.788,47.283,81.011,47.257z"/>
		<path fill-rule="evenodd" clip-rule="evenodd" fill="#62594E" d="M90.762,47.257c0.214-0.028,0.429-0.05,0.645-0.063
			c-2.413,1.351-4.856,1.116-7.314,0.143C86.316,47.31,88.539,47.283,90.762,47.257z"/>
		<path fill-rule="evenodd" clip-rule="evenodd" fill="#62594E" d="M141.799,47.264c2.259-0.039,4.518-0.076,6.776-0.115
			C146.62,48.324,144.744,48.355,141.799,47.264z"/>
		<path fill-rule="evenodd" clip-rule="evenodd" fill="#62594E" d="M100.51,47.257c0.216-0.026,0.433-0.047,0.65-0.062
			c-2.078,1.559-4.418,0.588-6.647,0.687c0.008-0.234,0.018-0.47,0.029-0.704C96.531,47.204,98.521,47.23,100.51,47.257z"/>
		<path fill-rule="evenodd" clip-rule="evenodd" fill="#62594E" d="M147.014,28.533c0,1.98,0,3.962,0,5.942
			C145.885,32.495,145.885,30.514,147.014,28.533z"/>
		<path fill-rule="evenodd" clip-rule="evenodd" fill="#D26256" d="M36.029,21.063c-0.003-1.979-0.006-3.958-0.01-5.938
			C37.2,17.102,37.105,19.082,36.029,21.063z"/>
		<path fill-rule="evenodd" clip-rule="evenodd" fill="#958F88" d="M159.828,48.025c1.963,0,3.926,0,5.89,0
			C163.754,49.157,161.791,49.157,159.828,48.025z"/>
		<path fill-rule="evenodd" clip-rule="evenodd" fill="#DE8F86" d="M36.077,41.995c-1.72-0.149-3.539,0.538-5.141-0.607
			C32.665,41.459,34.51,40.548,36.077,41.995z"/>
		<path fill-rule="evenodd" clip-rule="evenodd" fill="#D26256" d="M36.63,47.257c-0.231-0.006-0.463-0.015-0.694-0.026
			c0.031-1.762,0.062-3.523,0.093-5.285C37.421,43.581,36.575,45.47,36.63,47.257z"/>
		<path fill-rule="evenodd" fill="#FFFFFF" fill-opacity="0.85" clip-rule="evenodd" d="M171.913,35.034c-1.59,6.907-10.643,9.78-15.898,5.056
			c-1.712-1.538-2.286-3.512-2.327-5.716c-0.454-1.913-0.455-3.825,0-5.738c1.759-5.838,4.159-7.716,9.754-7.626
			c4.275,0.068,6.601,1.979,8.473,6.963C172.288,30.326,172.289,32.681,171.913,35.034z"/>
		<path fill-rule="evenodd" clip-rule="evenodd" fill="#8A837B" d="M171.913,35.034c-0.258-2.354-0.259-4.708,0.001-7.062
			C172.939,30.326,172.941,32.681,171.913,35.034z"/>
		<path fill-rule="evenodd" clip-rule="evenodd" fill="#797168" d="M153.688,28.636c0.218,1.913,0.218,3.825,0,5.738
			C152.539,32.461,152.539,30.549,153.688,28.636z"/>
	</g>
</g>
</svg>
