<?xml version="1.0" encoding="utf-8"?>
<!-- Generator: Adobe Illustrator 16.0.0, SVG Export Plug-In . SVG Version: 6.00 Build 0)  -->
<!DOCTYPE svg PUBLIC "-//W3C//DTD SVG 1.1//EN" "http://www.w3.org/Graphics/SVG/1.1/DTD/svg11.dtd">
<svg version="1.1"
	 id="svg2" xmlns:dc="http://purl.org/dc/elements/1.1/" xmlns:cc="http://web.resource.org/cc/" xmlns:rdf="http://www.w3.org/1999/02/22-rdf-syntax-ns#" xmlns:svg="http://www.w3.org/2000/svg" xmlns:sodipodi="http://inkscape.sourceforge.net/DTD/sodipodi-0.dtd" xmlns:inkscape="http://www.inkscape.org/namespaces/inkscape" sodipodi:docname="Kaleva.svg" sodipodi:docbase="F:\Wikipedia\Suomi" inkscape:version="0.43" sodipodi:version="0.32"
	 xmlns="http://www.w3.org/2000/svg" xmlns:xlink="http://www.w3.org/1999/xlink" x="0px" y="0px" width="600.01px" height="115px"
	 viewBox="0 0 600.01 115" enable-background="new 0 0 600.01 115" xml:space="preserve">
<g>
	<path stroke="#000000" stroke-width="1.0222" d="M200.855,98.566l-20.443-78.713l2.044-3.066c0,0,7.155-1.022,7.155-7.156
		c0-6.134-5.111-7.156-7.155-7.156c-3.066,0-10.733,1.022-21.465,1.022c-10.733,0-18.399-1.022-21.466-1.022
		c-2.044,0-7.155,1.022-7.155,7.156c0,6.133,7.155,7.156,7.155,7.156l2.044,3.066l-25.554,77.691h-13.288L80.24,41.32l20.443-23.512
		l4.089-1.022c0,0,7.155-3.067,7.155-7.156c0-6.134-5.111-7.156-7.155-7.156c-3.066,0-8.561,1.022-17.377,1.022
		c-8.816,0-14.31-1.022-17.888-1.022c-2.556,0-7.155,1.022-7.155,7.156c0,6.155,7.155,7.156,7.155,7.156l2.044,1.022L46.508,47.478
		V17.809l2.044-1.022c0,0,7.155-1.022,7.155-7.156c0-6.134-5.111-7.156-7.155-7.156c-3.066,0-10.222,1.022-20.443,1.022
		S10.732,2.475,7.666,2.475c-2.044,0-7.155,1.022-7.155,7.156c0,5.111,7.155,7.156,7.155,7.156l2.044,1.022v80.758l-2.044,1.021
		c0,0-7.155,1.023-7.155,7.156c0,7.156,5.111,7.156,7.155,7.156c3.067,0,10.222-1.023,20.443-1.023s17.377,1.023,20.443,1.023
		s7.155-1.023,7.155-7.156s-7.155-7.156-7.155-7.156l-2.044-1.021V72.918l7.155-6.041l13.288,31.689l-2.044,1.021
		c0,0-7.155,1.023-7.155,7.156s4.088,7.156,7.155,7.156c10.222,0,18.654-1.023,36.798-1.023s26.576,1.023,35.776,1.023
		c2.044,0,6.133-1.023,6.133-7.156c0-7.156-7.155-7.156-7.155-7.156l-3.066-1.021l5.111-18.4c0,0,5.877,3.066,11.244,3.066
		c5.367,0,10.222-3.066,10.222-3.066l5.111,18.4l-3.066,1.021c0,0-6.133,1.023-6.133,7.156s4.088,7.156,6.133,7.156
		c3.066,0,9.71-1.023,20.443-1.023s19.421,1.023,22.488,1.023c2.044,0,5.111-1.023,5.111-7.156s-5.111-7.156-5.111-7.156
		L200.855,98.566z"/>
	<path fill="#FFFFFF" stroke="#000000" stroke-width="1.0222" d="M149.747,45.409l-6.133,19.423c0,0,3.066,3.066,6.133,3.066
		c3.067,0,6.133-3.066,6.133-3.066L149.747,45.409z"/>
	<path stroke="#000000" stroke-width="1.0222" d="M261.163,17.297l2.044-1.022c0,0,7.155-1.022,7.155-7.156
		c0-6.134-5.111-7.156-7.155-7.156c-3.066,0-10.222,1.022-20.443,1.022s-17.376-1.022-20.443-1.022
		c-2.044,0-7.155,1.022-7.155,7.156c0,5.111,7.155,7.156,7.155,7.156l2.044,1.022v80.757l-2.044,1.022c0,0-7.155,1.022-7.155,7.155
		c0,7.156,5.111,7.156,7.155,7.156c3.067,0,18.399-0.512,28.621-0.512s18.399,1.023,28.621,1.023
		c15.332,0,23.404-15.123,25.554-19.424c2.045-4.088,4.088-10.222,1.021-13.289c-3.066-3.066-7.155-2.044-10.221,0
		c-2.689,1.793-14.311,17.379-20.443,17.379c-7.155,0-14.311-1.533-14.311-1.533V17.297z"/>
	<path stroke="#000000" stroke-width="1.0222" d="M316.36,2.475c-2.281,0.17-6.613,1.501-6.613,7.156
		c0,5.111,7.156,7.156,7.156,7.156l2.045,1.022v80.758l-2.045,1.021c0,0-7.156,1.023-7.156,7.156c0,7.156,5.111,7.156,7.156,7.156
		c3.066,0,7.635-1.01,17.855-1.01c10.223,0,17.377,1.035,20.443,1.022s18.248,0.195,25.555-1.022
		c6.133-1.021,13.287-8.178,15.332-15.334c2.178-7.621,2.857-13.341-1.021-14.311c-8.178-2.045-17.377,16.355-26.576,16.355
		c-7.104,0-15.158,0.024-15.238-0.014l-2.139-1.021V58.699l15.332,0.012c8.178,0,10.84,5.246,14.311,4.09
		c6.133-2.045,3.045-8.221,2.043-10.223c-3.066-6.133-10.221-10.223-15.332-10.223c-7.154,0-16.354-0.013-16.354-0.013V17.809
		l2.043-1.022c0,0,8.178,0.013,15.334,0.013c9.199,0,18.398,18.4,26.576,16.356c3.879-0.97,3.199-6.69,1.021-14.311
		c-2.045-7.156-9.199-14.312-15.332-15.334c-12.1-2.017-25.555,0-35.775,0c-10.223,0-25.012-1.035-28.078-1.035
		C316.743,2.475,316.554,2.46,316.36,2.475z"/>
	<path stroke="#000000" stroke-width="1.0222" d="M466.618,50.521l5.111-15.333l5.109-18.4l-3.066-1.022c0,0-7.154,0-7.154-7.156
		c0-6.133,4.1-6.952,6.133-7.156c5.111-0.511,12.266,1.022,16.355,1.022c3.725,0,10.221-1.022,13.287-1.022s7.156,0,7.156,7.156
		c0,6.645-7.156,7.156-7.156,7.156l-2.045,1.533l-29.35,95.253h-33l-28.621-95.764l-4.09-1.022c0,0-5.111-1.022-5.111-7.156
		s3.066-7.156,5.111-7.156c3.066,0,11.756,1.022,22.488,1.022s17.377-1.022,20.443-1.022c2.043,0,6.133,1.022,6.133,7.156
		s-6.133,7.156-6.133,7.156l-3.066,1.022l5.109,18.4l4.09,15.333l6.133,19.423L466.618,50.521z"/>
	<path stroke="#000000" stroke-width="1.0222" d="M590.3,98.566l-20.443-78.713l2.045-3.066c0,0,7.154-1.022,7.154-7.156
		c0-6.134-5.109-7.156-7.154-7.156c-3.066,0-10.732,1.022-21.465,1.022c-10.734,0-18.4-1.022-21.467-1.022
		c-2.043,0-7.154,1.022-7.154,7.156c0,6.133,7.154,7.156,7.154,7.156l2.045,3.066l-26.576,78.713l-3.066,1.021
		c0,0-5.111,0-5.111,7.156c0,6.133,3.348,7.156,6.133,7.156c3.066,0,8.689-1.023,11.244-1.023c6.133,0,10.221,1.023,13.289,1.023
		c2.043,0,6.133-1.023,6.133-7.156c0-7.156-7.156-7.156-7.156-7.156l-3.066-1.021l5.111-18.4c0,0,5.877,3.066,11.244,3.066
		c5.365,0,10.221-3.066,10.221-3.066l5.111,18.4l-3.066,1.021c0,0-6.133,1.023-6.133,7.156s4.088,7.156,6.133,7.156
		c3.066,0,9.711-1.023,20.443-1.023s19.42,1.023,22.488,1.023c2.043,0,5.109-1.023,5.109-7.156s-5.109-7.156-5.109-7.156
		L590.3,98.566z"/>
	<path fill="#FFFFFF" stroke="#000000" stroke-miterlimit="10" d="M539.192,45.409l-6.133,19.423c0,0,3.066,3.066,6.133,3.066
		s6.133-3.066,6.133-3.066L539.192,45.409z"/>
</g>
</svg>
