<?xml version="1.0" encoding="utf-8"?>
<!-- Generator: Adobe Illustrator 16.0.0, SVG Export Plug-In . SVG Version: 6.00 Build 0)  -->
<!DOCTYPE svg PUBLIC "-//W3C//DTD SVG 1.1//EN" "http://www.w3.org/Graphics/SVG/1.1/DTD/svg11.dtd">
<svg version="1.1" id="Layer_1" xmlns="http://www.w3.org/2000/svg" xmlns:xlink="http://www.w3.org/1999/xlink" x="0px" y="0px"
	 width="86px" height="86px" viewBox="0 0 86 86" enable-background="new 0 0 86 86" xml:space="preserve">
<g>
	<g>
		<path fill-rule="evenodd" clip-rule="evenodd" fill="none" d="M87,87.182c-28.613,0-57.225,0-85.919,0c0-28.886,0-57.79,0-86.838
			c28.585,0,57.252,0,85.919,0C87,29.246,87,58.204,87,87.182z M85.022,44.248c0.013-22.695-18.219-41.026-40.849-41.07
			C21.426,3.134,3.05,21.3,2.978,43.902c-0.074,22.984,18.185,41.341,41.099,41.32C66.731,85.202,85.009,66.91,85.022,44.248z"/>
		<path fill-rule="evenodd" clip-rule="evenodd" fill="#E82A38" d="M85.022,44.248C85.009,66.91,66.731,85.202,44.077,85.223
			C21.163,85.243,2.904,66.887,2.978,43.902C3.05,21.3,21.426,3.134,44.173,3.178C66.803,3.222,85.035,21.553,85.022,44.248z
			 M80.278,43.971C80.173,23.825,64.187,7.932,44.019,7.923C23.659,7.913,7.618,24.047,7.721,44.43
			c0.103,20.143,16.089,36.037,36.257,36.048C64.338,80.489,80.383,64.352,80.278,43.971z"/>
		<path fill-rule="evenodd" clip-rule="evenodd" fill="none" d="M80.278,43.971c0.105,20.381-15.94,36.519-36.299,36.507
			C23.811,80.467,7.824,64.572,7.721,44.43C7.618,24.047,23.659,7.913,44.019,7.923C64.187,7.932,80.173,23.825,80.278,43.971z
			 M20.994,53.226c0-2.816,0.039-5.47-0.012-8.122c-0.042-2.22,0.498-4.166,3.027-4.327c2.816-0.181,3.012,1.972,3.001,4.1
			c-0.014,2.791-0.003,5.583-0.003,8.334c1.973,0.703,3.511,0.956,5.041-0.198c0.156-3.187,0.201-6.335,0.503-9.459
			c0.184-1.895,1.469-2.97,3.436-2.816c1.977,0.153,2.267,1.672,2.281,3.256c0.026,3.1,0.008,6.199,0.008,9.073
			c2.248,0.861,3.817,0.999,5.434,0.163c0.095-0.506,0.258-0.979,0.262-1.453c0.024-2.825,0.093-5.654-0.005-8.476
			c-0.203-5.828-3.594-8.453-9.227-7.148c-1.252,0.29-2.429,0.907-3.69,1.394c-2.694-1.735-5.464-2.463-8.416-0.703
			c-0.561,0.334-1.035,0.239-1.734,0.049c-3.208-0.879-4.853-0.125-5.29,2.841c-0.669,4.539-0.501,9.134-0.09,13.504
			C17.527,53.892,18.97,53.956,20.994,53.226z M68.286,53.256c1.54-3.049,3.128-5.95,4.49-8.955c1.557-3.435,1.019-5.078-2.313-8.13
			c-2.301,2.935-2.274,7.088-4.96,9.956c-1.605-3.329-1.91-6.893-3.741-9.835c-1.985-0.038-3.756-0.468-5.625,0.41
			c2.45,5.698,4.247,11.524,6.994,16.778C64.924,53.844,66.386,53.957,68.286,53.256z M50.752,30.942
			c-4.121,0.629-5.276,2.988-5.366,6.084c-0.096,3.329-0.184,6.674,0.01,9.995c0.402,6.865,5.354,9.165,11.396,5.422
			c0.142-3.934-3.434-2.403-5.356-3.465c-0.783-2.646-0.398-5.273-0.338-7.664c0.951-1.596,2.761-0.318,3.867-1.813
			c-0.178-0.813,0.513-1.94-0.417-2.978c-0.937-0.799-2.338,0.169-3.407-1.027C51.035,34.258,50.911,32.806,50.752,30.942z"/>
		<path fill-rule="evenodd" clip-rule="evenodd" fill="#E82937" d="M20.994,53.226c-2.024,0.73-3.467,0.666-5.475,0.01
			c-0.412-4.37-0.579-8.965,0.09-13.504c0.437-2.966,2.082-3.72,5.29-2.841c0.699,0.19,1.173,0.285,1.734-0.049
			c2.952-1.76,5.722-1.032,8.416,0.703c1.261-0.486,2.438-1.104,3.69-1.394c5.633-1.305,9.023,1.32,9.227,7.148
			c0.098,2.821,0.029,5.65,0.005,8.476c-0.004,0.475-0.167,0.947-0.262,1.453c-1.617,0.836-3.186,0.698-5.434-0.163
			c0-2.874,0.019-5.974-0.008-9.073c-0.014-1.584-0.304-3.103-2.281-3.256c-1.967-0.153-3.252,0.922-3.436,2.816
			c-0.302,3.124-0.347,6.272-0.503,9.459c-1.529,1.154-3.067,0.901-5.041,0.198c0-2.751-0.01-5.543,0.003-8.334
			c0.011-2.128-0.185-4.28-3.001-4.1c-2.529,0.161-3.069,2.107-3.027,4.327C21.033,47.756,20.994,50.409,20.994,53.226z"/>
		<path fill-rule="evenodd" clip-rule="evenodd" fill="#E82937" d="M68.286,53.256c-1.9,0.701-3.362,0.588-5.154,0.225
			c-2.747-5.254-4.544-11.08-6.994-16.778c1.868-0.878,3.64-0.448,5.625-0.41c1.832,2.942,2.136,6.506,3.741,9.835
			c2.686-2.868,2.659-7.021,4.96-9.956c3.331,3.052,3.869,4.695,2.313,8.13C71.414,47.306,69.825,50.207,68.286,53.256z"/>
		<path fill-rule="evenodd" clip-rule="evenodd" fill="#E82A38" d="M50.752,30.942c0.159,1.863,0.283,3.315,0.389,4.555
			c1.068,1.196,2.47,0.229,3.407,1.03c0.93,1.034,0.239,2.161,0.417,2.975c-1.106,1.494-2.916,0.217-3.867,1.813
			c-0.06,2.391-0.444,5.019,0.338,7.664c1.923,1.062,5.498-0.469,5.356,3.465c-6.043,3.743-10.994,1.443-11.396-5.422
			c-0.194-3.321-0.106-6.666-0.01-9.995C45.476,33.931,46.631,31.571,50.752,30.942z"/>
	</g>
</g>
</svg>
