<?xml version="1.0" encoding="utf-8"?>
<!-- Generator: Adobe Illustrator 16.0.0, SVG Export Plug-In . SVG Version: 6.00 Build 0)  -->
<!DOCTYPE svg PUBLIC "-//W3C//DTD SVG 1.1//EN" "http://www.w3.org/Graphics/SVG/1.1/DTD/svg11.dtd">
<svg version="1.1" id="Layer_1" xmlns="http://www.w3.org/2000/svg" xmlns:xlink="http://www.w3.org/1999/xlink" x="0px" y="0px"
	 width="249.035px" height="58.508px" viewBox="0 0 249.035 58.508" enable-background="new 0 0 249.035 58.508"
	 xml:space="preserve">
<g>
	<g>
		<path fill-rule="evenodd" clip-rule="evenodd" fill="#19262B" d="M0.75,59.258c0-19.503,0-39.005,0-58.508
			c83.012,0,166.023,0,249.035,0c0,19.503,0,39.005,0,58.508C166.773,59.258,83.762,59.258,0.75,59.258z M77.047,41.357
			c0.728-3.771,1.377-7.134,2.026-10.498c0.113,0.013,0.226,0.026,0.338,0.039c0,3.087,0,6.174,0,9.133
			c0.479,0.479,0.832,0.833,1.114,1.115c1.161,0,2.25,0,3.221,0c0.375-0.375,0.639-0.64,0.952-0.953c0-6.532,0-13.111,0-20.01
			c-2.372-1.288-4.914-0.414-7.357-0.712c-0.672,3.599-1.28,6.859-1.968,10.545c0.019-0.019-0.331,0.338-0.696,0.678
			c-0.02,0.018-0.167-0.1-0.202-0.121c-0.81-3.691-0.672-7.565-2.409-10.886c-2.46,0-4.635,0-6.692,0c0,7.264,0,14.344,0,21.379
			c1.548,0,2.973,0,4.386,0c0-2.31-0.054-4.433,0.016-6.551c0.065-1.963-0.291-3.969,0.383-6.544
			c0.797,4.524,1.476,8.374,2.23,12.658C73.4,42.081,75.31,40.918,77.047,41.357z M57.709,30.094
			c0.707-5.544-1.6-10.497-4.519-15.11c-2.156-3.407-5.244-6.182-8.751-8.167C40.57,4.626,36.411,3.07,31.801,2.972
			c-8.023-0.171-14.94,2.362-20.654,8.02c-5.197,5.146-7.748,11.513-8.11,18.717c-0.28,5.578,1.765,10.61,4.488,15.346
			c1.997,3.473,5.022,6.022,8.33,8.185c4.418,2.89,9.431,4.325,14.603,4.409c4.324,0.07,8.779-0.858,12.554-2.992
			c4.377-2.476,8.504-5.605,10.953-10.203C56.299,40.07,58.196,35.474,57.709,30.094z M116.893,21.224
			c-2.051-0.685-3.552-1.994-5.625-1.767c-1.963,0.215-3.967,0.046-5.851,0.046c-0.448,0.433-0.807,0.779-1.029,0.995
			c0,6.722,0,13.303,0,19.756c0.388,0.388,0.652,0.652,0.919,0.914c1.337,0,2.675,0,4.268,0c0-2.759,0-5.443,0-8.95
			c3.373,2.642,2.557,6.602,4.676,8.962c1.37,0,2.707,0,4.237,0c0.288-3.362-1.906-6.05-2.296-9.344
			c2.327-0.832,1.534-3.234,2.187-4.925C119.091,25.065,117.469,23.159,116.893,21.224z M126.465,19.54
			c-3.001,0.719-4.031,2.444-4.89,4.156c0,4.847,0,9.574,0,14.013c0.706,0.982,1.255,1.746,1.988,2.764
			c4.101,1.662,4.101,1.662,9.05,0.562c3.155-3.155,3.155-3.155,3.155-7.681c0-3.244,0-6.489,0-9.271
			C133.816,18.625,129.558,19.444,126.465,19.54z M168.023,41.188c0-5.446-0.096-10.554,0.039-15.654
			c0.074-2.796-0.64-4.923-3.929-6.031c-0.834,0-2.208,0.086-3.567-0.019c-2.784-0.213-4.947,0.572-5.953,3.672
			c0,5.767,0,11.838,0,17.936c1.521,0,2.943,0,4.483,0c0-2.246,0-4.33,0-6.417c1.303,0,2.477,0,3.767,0c0,2.006,0,3.844,0,5.546
			c0.388,0.388,0.652,0.652,0.966,0.967C165.115,41.188,166.45,41.188,168.023,41.188z M176.141,41.189
			c0.143-3.163,0.271-5.993,0.398-8.824c0.088,0.015,0.177,0.029,0.241,0.04c1.323,2.967,2.638,5.915,3.973,8.91
			c1.947-0.181,3.638,0.16,5.399-0.28c-0.168-0.786-0.19-1.412-0.433-1.934c-0.924-1.989-1.726-4.076-2.945-5.875
			c-1.105-1.631-1.347-3.279-1.078-5.042c0.863-2.946,3.424-5.189,3.6-8.603c-1.827,0-3.413,0-4.943,0
			c-1.245,2.498-2.467,4.952-4.014,8.056c0-3.094,0-5.53,0-8.042c-1.592,0-2.93,0-4.25,0c-0.361,0.346-0.721,0.69-0.945,0.904
			c0,6.972,0,13.799,0,20.691C172.852,41.189,174.438,41.189,176.141,41.189z M87.762,19.574c0,6.309,0,12.3,0,18.323
			c0.816,1.13,1.657,2.296,2.233,3.093c1.831,0.405,3.212,0.956,4.591,0.947c1.371-0.007,2.74-0.575,4.302-0.942
			c1.749-1.411,2.55-3.377,2.415-5.9c-0.167-3.112-0.04-6.24-0.04-9.36c0-2.079,0-4.157,0-6.108c-1.703,0-3.045,0-4.249,0
			c-0.388,0.388-0.653,0.652-1.042,1.042c0,5.209,0,10.544,0,15.929c-1.052,0-1.979,0-3.025,0c0-5.492,0-10.826,0-16.034
			c-0.389-0.388-0.654-0.653-0.989-0.989C90.693,19.574,89.356,19.574,87.762,19.574z M138.874,19.568c0,7.398,0,14.461,0,21.604
			c1.435,0,2.769,0,4.064,0c0.38-0.36,0.741-0.701,1.21-1.145c0-1.999,0-4.081,0-6.229c2.571-0.211,5.296,0.595,7.592-2.274
			c0.209-2.292,0.469-5.135,0.729-7.979c-0.987-2.145-2.721-3.145-4.418-3.976C144.949,19.568,141.981,19.568,138.874,19.568z
			 M198.646,32.274c0-1.739,0-3.078,0-4.541c-1.719,0-3.308,0-4.967,0c0-1.313,0-2.488,0-3.79c1.99,0,3.83,0,5.677,0
			c0-1.565,0-2.989,0-4.328c-3.76,0-7.348,0-10.896,0c0,7.289,0,14.463,0,21.514c4.023,0,7.861,0,11.748,0c0-1.214,0-2.302,0-3.319
			c-0.335-0.334-0.6-0.6-1.128-1.128c-1.662,0-3.6,0-5.441,0c0-1.605,0-2.947,0-4.408C195.337,32.274,196.927,32.274,198.646,32.274
			z M205.661,23.981c0,5.738,0,11.078,0,16.281c0.397,0.397,0.663,0.662,0.894,0.894c1.376,0,2.716,0,4.313,0
			c0-5.777,0-11.459,0-17.263c1.607,0,2.951,0,4.346,0c0-1.221,0-2.309,0-3.333c-0.331-0.33-0.596-0.595-0.893-0.893
			c-4.147,0-8.324,0-12.432,0c0,1.508,0,2.849,0,4.313C203.082,23.981,204.174,23.981,205.661,23.981z M220.663,23.981
			c0,5.988,0,11.578,0,17.197c1.471,0,2.81,0,4.07,0c0.342-0.341,0.607-0.606,1.137-1.136c0-5.163,0-10.595,0-16.149
			c1.357,0,2.451,0,3.459,0c0-1.563,0-2.983,0-4.38c-4.2,0-8.197,0-12.184,0c-0.364,0.363-0.717,0.717-1.004,1.004
			c0,1.158,0,2.25,0,3.464C217.584,23.981,218.927,23.981,220.663,23.981z M232.781,41.129c1.469,0,2.808,0,4.085,0
			c0-7.281,0-14.434,0-21.521c-1.504,0-2.84,0-4.063,0c-0.369,0.369-0.632,0.632-0.958,0.958c0,6.504,0,13.071,0,19.627
			C232.118,40.467,232.382,40.73,232.781,41.129z"/>
		<path fill-rule="evenodd" clip-rule="evenodd" fill="#EFF0F0" d="M77.047,41.357c-1.738-0.439-3.647,0.724-4.659-0.728
			c-0.755-4.284-1.433-8.134-2.23-12.658c-0.674,2.575-0.318,4.581-0.383,6.544c-0.07,2.119-0.016,4.242-0.016,6.551
			c-1.414,0-2.838,0-4.386,0c0-7.035,0-14.115,0-21.379c2.057,0,4.232,0,6.692,0c1.737,3.32,1.6,7.195,2.409,10.886
			c0.035,0.021,0.182,0.139,0.202,0.121c0.365-0.34,0.714-0.697,0.696-0.678c0.688-3.686,1.296-6.946,1.968-10.545
			c2.444,0.298,4.985-0.576,7.357,0.712c0,6.899,0,13.479,0,20.01c-0.313,0.313-0.577,0.578-0.952,0.953c-0.971,0-2.061,0-3.221,0
			c-0.283-0.283-0.635-0.636-1.114-1.115c0-2.959,0-6.046,0-9.133c-0.113-0.013-0.226-0.026-0.338-0.039
			C78.424,34.223,77.775,37.586,77.047,41.357z"/>
		<path fill-rule="evenodd" clip-rule="evenodd" fill="#0E9AF2" d="M57.709,30.094c0.487,5.38-1.41,9.976-3.745,14.36
			c-2.449,4.597-6.576,7.727-10.953,10.203c-3.774,2.134-8.23,3.063-12.554,2.992c-5.172-0.084-10.184-1.519-14.603-4.409
			c-3.308-2.163-6.333-4.712-8.33-8.185c-2.723-4.735-4.768-9.768-4.488-15.346c0.362-7.205,2.913-13.571,8.11-18.717
			c5.714-5.658,12.63-8.191,20.654-8.02c4.609,0.098,8.769,1.654,12.638,3.845c3.507,1.985,6.595,4.76,8.751,8.167
			C56.109,19.597,58.417,24.55,57.709,30.094z M37.597,54.687c0.818-0.338,1.361-0.536,1.881-0.783
			c1.462-0.694,2.975-1.31,4.36-2.135c3.398-2.025,6.086-4.859,8.142-8.178c2.044-3.303,3.628-6.852,3.534-10.901
			c-0.038-1.624-0.155-3.266,0.024-4.87c0.388-3.475-1.523-7.015-3.458-10.576c-1.284-2.364-2.963-4.377-5.178-6.085
			c-3.362-2.593-5.887-4.025-10.251-5.185c-4.374-1.162-10.377-1.068-13.619,0.064c-5.645,1.97-10.302,5.267-13.659,10.389
			c-1.782,2.718-2.911,5.494-3.479,8.712c-0.7,3.963-1.152,9.825,0.271,12.827c2.437,5.14,4.953,10.345,10.244,13.305
			c4.114,2.301,8.36,4.121,13.234,4.307C32.495,55.685,35.133,54.567,37.597,54.687z"/>
		<path fill-rule="evenodd" clip-rule="evenodd" fill="#EFF0F0" d="M116.893,21.224c0.576,1.935,2.198,3.841,1.485,5.687
			c-0.653,1.691,0.14,4.093-2.187,4.925c0.39,3.294,2.584,5.982,2.296,9.344c-1.53,0-2.867,0-4.237,0
			c-2.119-2.36-1.303-6.32-4.676-8.962c0,3.507,0,6.191,0,8.95c-1.593,0-2.931,0-4.269,0.002c-0.266-0.264-0.53-0.528-0.918-0.916
			c0-6.454,0-13.034,0-19.756c0.223-0.215,0.581-0.562,1.029-0.995c1.883,0,3.888,0.168,5.851-0.046
			C113.341,19.229,114.842,20.539,116.893,21.224z M109.618,29.075c1.994,0.738,2.654-0.839,3.634-1.748c0-0.764,0-1.495,0-2.213
			c-0.36-0.36-0.707-0.707-1.026-1.026c-0.854,0-1.68,0-2.608,0C109.618,25.732,109.618,27.3,109.618,29.075z"/>
		<path fill-rule="evenodd" clip-rule="evenodd" fill="#F6F8F9" d="M126.465,19.54c3.093-0.096,7.351-0.915,9.304,4.543
			c0,2.782,0,6.027,0,9.271c0,4.526,0,4.526-3.155,7.681c-4.95,1.101-4.95,1.101-9.05-0.562c-0.733-1.019-1.282-1.782-1.988-2.764
			c0-4.439,0-9.167,0-14.013C122.435,21.984,123.464,20.259,126.465,19.54z M130.405,36.469c0-4.193,0-8.257,0-12.285
			c-1.291,0-2.461,0-3.546,0c0,4.248,0,8.315,0,12.271C128.042,37.847,129.151,37.971,130.405,36.469z"/>
		<path fill-rule="evenodd" clip-rule="evenodd" fill="#F6F8F9" d="M168.023,41.188c-1.574,0-2.908,0-4.193,0
			c-0.314-0.314-0.578-0.579-0.966-0.967c0-1.703,0-3.54,0-5.546c-1.29,0-2.464,0-3.767,0c0,2.087,0,4.171,0,6.417
			c-1.54,0-2.962,0-4.483,0c0-6.097,0-12.168,0-17.936c1.006-3.1,3.169-3.885,5.953-3.672c1.359,0.105,2.733,0.019,3.567,0.019
			c3.289,1.108,4.003,3.235,3.929,6.031C167.927,30.635,168.023,35.742,168.023,41.188z M162.772,24.175
			c-1.605-0.341-2.887-0.372-3.617,0.813c0,1.771,0,3.347,0,5.057c1.307-0.066,2.471-0.125,3.617-0.183
			C162.772,27.871,162.772,26.14,162.772,24.175z"/>
		<path fill-rule="evenodd" clip-rule="evenodd" fill="#EFF0F0" d="M176.141,41.189c-1.703,0-3.289,0-4.996,0
			c0-6.892,0-13.719,0-20.691c0.224-0.214,0.583-0.559,0.945-0.904c1.321,0,2.659,0,4.25,0c0,2.512,0,4.947,0,8.042
			c1.547-3.104,2.769-5.558,4.014-8.056c1.531,0,3.117,0,4.943,0c-0.176,3.414-2.737,5.657-3.6,8.603
			c-0.269,1.764-0.027,3.411,1.078,5.042c1.219,1.799,2.021,3.886,2.945,5.875c0.243,0.522,0.265,1.148,0.433,1.934
			c-1.761,0.44-3.452,0.099-5.399,0.28c-1.335-2.995-2.65-5.943-3.973-8.91c-0.064-0.01-0.153-0.025-0.241-0.04
			C176.411,35.196,176.283,38.026,176.141,41.189z"/>
		<path fill-rule="evenodd" clip-rule="evenodd" fill="#EFF0F0" d="M87.762,19.574c1.594,0,2.931,0,4.197,0
			c0.335,0.335,0.6,0.601,0.989,0.989c0,5.208,0,10.542,0,16.034c1.047,0,1.973,0,3.025,0c0-5.385,0-10.72,0-15.929
			c0.389-0.389,0.654-0.653,1.042-1.042c1.204,0,2.545,0,4.249,0c0,1.951,0,4.029,0,6.108c0,3.121-0.127,6.249,0.04,9.36
			c0.135,2.523-0.667,4.489-2.415,5.9c-1.563,0.367-2.931,0.935-4.302,0.942c-1.379,0.008-2.76-0.542-4.591-0.947
			c-0.576-0.797-1.417-1.963-2.233-3.093C87.762,31.874,87.762,25.882,87.762,19.574z"/>
		<path fill-rule="evenodd" clip-rule="evenodd" fill="#EFF0F0" d="M138.874,19.568c3.107,0,6.075,0,9.177,0
			c1.698,0.832,3.431,1.832,4.418,3.976c-0.26,2.845-0.52,5.688-0.729,7.979c-2.296,2.869-5.021,2.063-7.592,2.274
			c0,2.148,0,4.231,0,6.229c-0.469,0.444-0.83,0.785-1.21,1.145c-1.296,0-2.63,0-4.064,0
			C138.874,34.029,138.874,26.966,138.874,19.568z M147.021,29.38c0-1.788-0.08-3.031,0.023-4.258
			c0.097-1.151-0.548-1.18-1.351-1.117c-0.565,0.044-1.13,0.102-1.554,0.14c0,2.084,0,3.908,0,6.061
			C145.188,29.905,146.036,29.661,147.021,29.38z"/>
		<path fill-rule="evenodd" clip-rule="evenodd" fill="#EFF0F0" d="M198.646,32.274c-1.719,0-3.309,0-5.007,0
			c0,1.461,0,2.803,0,4.408c1.841,0,3.779,0,5.441,0c0.528,0.528,0.793,0.793,1.128,1.128c0,1.018,0,2.105,0,3.319
			c-3.886,0-7.725,0-11.748,0c0-7.051,0-14.225,0-21.514c3.548,0,7.136,0,10.896,0c0,1.338,0,2.762,0,4.328
			c-1.848,0-3.687,0-5.677,0c0,1.302,0,2.478,0,3.79c1.659,0,3.248,0,4.967,0C198.646,29.196,198.646,30.535,198.646,32.274z"/>
		<path fill-rule="evenodd" clip-rule="evenodd" fill="#F6F8F9" d="M205.661,23.981c-1.487,0-2.579,0-3.772,0
			c0-1.464,0-2.805,0-4.313c4.108,0,8.285,0,12.432,0c0.297,0.297,0.563,0.563,0.893,0.893c0,1.023,0,2.112,0,3.333
			c-1.395,0-2.739,0-4.346,0c0,5.804,0,11.486,0,17.263c-1.598,0-2.938,0-4.313,0c-0.231-0.231-0.496-0.497-0.894-0.894
			C205.661,35.06,205.661,29.719,205.661,23.981z"/>
		<path fill-rule="evenodd" clip-rule="evenodd" fill="#EFF0F0" d="M220.663,23.981c-1.736,0-3.078,0-4.522,0
			c0-1.215,0-2.306,0-3.464c0.287-0.287,0.641-0.641,1.004-1.004c3.987,0,7.984,0,12.184,0c0,1.397,0,2.818,0,4.38
			c-1.009,0-2.102,0-3.459,0c0,5.554,0,10.986,0,16.149c-0.529,0.53-0.794,0.795-1.137,1.136c-1.26,0-2.599,0-4.07,0
			C220.663,35.559,220.663,29.969,220.663,23.981z"/>
		<path fill-rule="evenodd" clip-rule="evenodd" fill="#EFF0F0" d="M232.781,41.129c-0.398-0.398-0.663-0.662-0.936-0.936
			c0-6.557,0-13.123,0-19.627c0.326-0.326,0.589-0.589,0.958-0.958c1.223,0,2.559,0,4.063,0c0,7.087,0,14.24,0,21.521
			C235.589,41.129,234.25,41.129,232.781,41.129z"/>
		<path fill-rule="evenodd" clip-rule="evenodd" fill="#F6F8F9" d="M37.597,54.687c-2.464-0.119-5.103,0.999-7.953,0.889
			c-4.875-0.186-9.121-2.006-13.234-4.307c-5.291-2.959-7.807-8.165-10.244-13.305C4.743,34.962,5.195,29.1,5.895,25.137
			c0.568-3.218,1.697-5.994,3.479-8.712c3.357-5.123,8.014-8.419,13.659-10.389c3.242-1.132,9.245-1.226,13.619-0.064
			c4.364,1.16,6.889,2.592,10.251,5.185c2.215,1.708,3.894,3.722,5.178,6.085c1.935,3.561,3.846,7.101,3.458,10.576
			c-0.179,1.604-0.062,3.246-0.024,4.87c0.094,4.049-1.489,7.598-3.534,10.901c-2.056,3.319-4.743,6.152-8.142,8.178
			c-1.386,0.826-2.898,1.441-4.36,2.135C38.958,54.15,38.415,54.348,37.597,54.687z M17.252,17.252
			c-2.07-0.371-2.004,1.704-3.083,2.745c0.266,2,0.549,4.128,0.832,6.257c0,0.446,0,0.891,0,1.345
			c0.865,0.12,1.523,0.211,2.591,0.359c-0.508,0.603-0.799,0.95-1.09,1.296c-1.249,0.13-0.47,1.164-0.774,1.694
			c-0.375,0.653-0.928,1.204-1.32,1.693c0.547,0.453,0.945,0.783,1.344,1.114c0,0.25,0,0.5,0,0.75c-0.443,0-0.886,0-1.508,0
			c0.056,0.624,0.092,1.031,0.168,1.892c0.652-0.556,0.996-0.849,1.34-1.142c1.494-0.063,2.028,0.625,2.314,2.136
			c0.535,2.831,1.451,5.59,2.168,8.235c2.066,0.343,2.667,1.804,3.417,3.005c0.385-0.252,0.772-0.506,1.331-0.873
			c0.968,1.162,1.847,2.216,2.78,3.336c1.185-1.182,2.708-0.678,4.116-0.873c1.372-0.19,2.704-0.672,4.056-1.027
			c0.07-0.334,0.142-0.675,0.211-1c0.896-0.376,1.808-0.174,2.674-0.988c1.447-1.358,2.577-3.126,4.188-4.143
			c1.1-0.694,1.286-1.549,1.912-2.388c-0.589-0.194-1-0.329-1.412-0.464c2.051,0.277,1.349-1.749,2.158-2.44
			c-0.526-0.224-1.017-0.433-1.54-0.656c0.129-0.22,1.423-2.44,1.434-2.458c-0.692-0.122-1.377-0.245-2.474-0.439
			c0.75-1.453,1.367-2.646,2.02-3.91c-0.576-0.207-1.008-0.363-1.522-0.548c0-1.053,0-2.141,0-3.25
			c0.438-0.172,0.867-0.339,1.458-0.57c-0.529-1.748-1.111-3.468-2.288-4.936c0.083-0.708-0.058-1.567,0.296-2.092
			c0.709-1.052,0.597-2.055,0.163-3.042c-0.556-1.262-1.279-2.45-1.864-3.547c-6.473-1.658-11.006-1.346-13.941-0.32
			c-0.265-0.245-0.53-0.49-0.801-0.74c-1.103,1.361-3.464,0.99-4.105,2.991C20.46,14.739,18.862,16.006,17.252,17.252z"/>
		<path fill-rule="evenodd" clip-rule="evenodd" fill="#19262B" d="M109.618,29.075c0-1.775,0-3.343,0-4.987
			c0.928,0,1.754,0,2.608,0c0.32,0.319,0.667,0.666,1.026,1.026c0,0.718,0,1.449,0,2.213
			C112.272,28.236,111.612,29.813,109.618,29.075z"/>
		<path fill-rule="evenodd" clip-rule="evenodd" fill="#070707" d="M130.405,36.469c-1.254,1.502-2.363,1.378-3.546-0.014
			c0-3.956,0-8.023,0-12.271c1.085,0,2.256,0,3.546,0C130.405,28.212,130.405,32.276,130.405,36.469z"/>
		<path fill-rule="evenodd" clip-rule="evenodd" fill="#070707" d="M162.772,24.175c0,1.965,0,3.696,0,5.687
			c-1.146,0.058-2.31,0.117-3.617,0.183c0-1.71,0-3.286,0-5.057C159.885,23.803,161.167,23.834,162.772,24.175z"/>
		<path fill-rule="evenodd" clip-rule="evenodd" fill="#070707" d="M147.021,29.38c-0.984,0.281-1.833,0.525-2.881,0.825
			c0-2.152,0-3.977,0-6.061c0.424-0.038,0.988-0.096,1.554-0.14c0.802-0.063,1.447-0.034,1.351,1.117
			C146.941,26.349,147.021,27.592,147.021,29.38z"/>
		<path fill-rule="evenodd" clip-rule="evenodd" fill="#F4DDAA" d="M16.502,29.254c0.292-0.346,0.583-0.693,1.09-1.296
			c-1.067-0.148-1.726-0.239-2.591-0.359c0-0.454,0-0.899,0-1.345c0.445-0.07,1.153,0.009,1.292-0.235
			c0.73-1.29,2.1-1.224,3.209-1.468c0-0.586,0-0.941,0-1.297c0.784-0.975,0.678-2.617,2.25-3c0.77,0.25,1.524,0.6,2.313,0.723
			c0.85,0.133,2.037-0.305,2.545,0.128c1.889,1.611,3.929-0.17,5.916,0.53c1.292,0.456,2.418,0.117,3.563,0.684
			c0.947-0.236,1.606-0.541,2.263-0.535c1.152,0.011,1.842-0.448,2.153-1.531c0.75,0.25,1.5,0.5,2.25,0.75
			c1.177,1.468,1.758,3.188,2.288,4.936c-0.591,0.231-1.02,0.398-1.458,0.57c0,1.109,0,2.197,0,3.25
			c0.514,0.185,0.946,0.341,1.522,0.548c-0.653,1.265-1.27,2.457-2.02,3.91c1.097,0.195,1.782,0.317,2.474,0.439
			c-0.011,0.019-1.305,2.238-1.434,2.458c0.522,0.223,1.014,0.432,1.54,0.656c-0.81,0.691-0.107,2.717-2.158,2.44
			c0.411,0.135,0.822,0.271,1.412,0.464c-0.626,0.839-0.812,1.694-1.912,2.388c-1.611,1.017-2.741,2.785-4.188,4.143
			c-0.867,0.814-1.779,0.612-2.674,0.988c-0.069,0.325-0.141,0.666-0.211,1c-1.352,0.354-2.684,0.837-4.056,1.027
			c-1.409,0.195-2.932-0.309-4.116,0.873c-0.933-1.12-1.812-2.175-2.78-3.336c-0.559,0.367-0.946,0.621-1.331,0.873
			c-0.75-1.201-1.352-2.662-3.417-3.005c-0.718-2.645-1.633-5.404-2.168-8.235c-0.286-1.511-0.82-2.199-2.314-2.136
			c0-0.25,0-0.5,0-0.75c0-0.25,0-0.5,0-0.75c0.448,0,0.896,0,1.937,0C15.811,32.26,16.771,30.671,16.502,29.254z"/>
		<path fill-rule="evenodd" clip-rule="evenodd" fill="#F3E00C" d="M42.756,21.003c-0.75-0.25-1.5-0.5-2.25-0.75
			c-0.5-0.388-1.089-0.705-1.478-1.184c-0.478-0.587-0.788-1.311-1.192-2.014c-1.026,0.315-1.729,0.53-2.56,0.785
			c-0.356-0.441-0.732-0.908-1.109-1.375c-0.259,0.259-0.434,0.434-0.727,0.727c-2.24-2.044-3.87,0.769-5.789,0.553
			c-2.124,0.582-2.376-2.381-4.398-1.992c-0.25-0.5-0.5-1-0.75-1.5c0.641-2,3.002-1.63,4.105-2.991
			c0.271,0.25,0.536,0.496,0.802,0.74c2.935-1.026,7.468-1.337,13.94,0.32c0.585,1.097,1.309,2.285,1.864,3.547
			c0.434,0.987,0.547,1.99-0.163,3.042C42.698,19.436,42.839,20.295,42.756,21.003z"/>
		<path fill-rule="evenodd" clip-rule="evenodd" fill="#070707" d="M19.503,23.253c0,0.356,0,0.711,0,1.297
			c-1.109,0.244-2.479,0.178-3.209,1.468c-0.139,0.244-0.847,0.165-1.292,0.235c-0.283-2.128-0.566-4.257-0.832-6.257
			c1.079-1.041,1.012-3.115,3.083-2.745c0,0.451,0,0.902,0,1.279c0.649,0.21,1.072,0.347,1.5,0.486c0,1.28-0.034,2.483,0.034,3.68
			C18.797,22.895,19.252,23.069,19.503,23.253z"/>
		<path fill-rule="evenodd" clip-rule="evenodd" fill="#EDD907" d="M19.503,23.253c-0.25-0.185-0.706-0.358-0.717-0.556
			c-0.067-1.197-0.034-2.4-0.034-3.68c-0.428-0.139-0.851-0.276-1.5-0.486c0-0.377,0-0.828,0-1.279c1.61-1.246,3.208-2.513,5.25-3
			c0.25,0.5,0.5,1,0.75,1.5c-0.166,0.542-0.164,1.318-0.53,1.579c-1.099,0.786-0.976,1.845-0.971,2.922
			C20.181,20.637,20.287,22.279,19.503,23.253z"/>
		<path fill-rule="evenodd" clip-rule="evenodd" fill="#B1AC9D" d="M16.502,29.254c0.269,1.417-0.692,3.006,1.187,4.501
			c-1.041,0-1.489,0-1.937,0c-0.399-0.331-0.797-0.661-1.344-1.114c0.392-0.49,0.945-1.041,1.32-1.693
			C16.032,30.418,15.253,29.384,16.502,29.254z"/>
		<path fill-rule="evenodd" clip-rule="evenodd" fill="#EFF0F0" d="M15.752,34.505c0,0.25,0,0.5,0,0.75
			c-0.344,0.293-0.688,0.586-1.34,1.142c-0.076-0.861-0.113-1.268-0.168-1.892C14.866,34.505,15.309,34.505,15.752,34.505z"/>
		<path fill-rule="evenodd" clip-rule="evenodd" fill="#070707" d="M21.753,20.253c-0.005-1.078-0.128-2.137,0.971-2.922
			c0.366-0.261,0.364-1.037,0.53-1.579c2.022-0.389,2.275,2.574,4.398,1.992c1.919,0.216,3.548-2.597,5.789-0.553
			c0.293-0.293,0.468-0.468,0.727-0.727c0.376,0.467,0.753,0.934,1.109,1.375c0.831-0.255,1.534-0.47,2.56-0.785
			c0.404,0.703,0.715,1.427,1.192,2.014c0.389,0.479,0.978,0.796,1.478,1.184c-0.312,1.083-1.001,1.542-2.153,1.531
			c-0.656-0.006-1.315,0.298-2.263,0.535c-1.145-0.567-2.27-0.229-3.563-0.684c-1.987-0.701-4.027,1.081-5.916-0.53
			c-0.508-0.434-1.696,0.004-2.545-0.128C23.277,20.853,22.522,20.502,21.753,20.253z"/>
	</g>
</g>
</svg>
