<?xml version="1.0" encoding="utf-8"?>
<!-- Generator: Adobe Illustrator 16.0.0, SVG Export Plug-In . SVG Version: 6.00 Build 0)  -->
<!DOCTYPE svg PUBLIC "-//W3C//DTD SVG 1.1//EN" "http://www.w3.org/Graphics/SVG/1.1/DTD/svg11.dtd">
<svg version="1.1" id="Layer_1" xmlns="http://www.w3.org/2000/svg" xmlns:xlink="http://www.w3.org/1999/xlink" x="0px" y="0px"
	 width="1079.865px" height="158.98px" viewBox="0 0 1079.865 158.98" enable-background="new 0 0 1079.865 158.98"
	 xml:space="preserve">
<g>
	<g>
		<path fill-rule="evenodd" clip-rule="evenodd" fill="none" d="M1081.865,160.979c-360.288,0-720.577,0-1080.865,0
			C1,107.653,1,54.326,1,1c360.289,0,720.577,0,1080.865,0C1081.865,54.326,1081.865,107.653,1081.865,160.979z M788.861,34.997
			c-2.128,0-3.294,0-4.429,0c-0.386,0.345-0.698,0.801-1.127,0.979c-6.101,2.538-11.301,6.257-15.987,10.966
			c-4.461,4.483-7.726,9.603-10.143,15.329c-0.957,2.268-2.174,4.708-2.141,7.053c0.08,5.69-0.672,11.359,0.742,17.11
			c1.924,7.822,5.084,14.793,10.678,20.579c5.258,5.439,11.47,9.195,18.914,11.061c3.38,0.847,6.81,1.264,10.203,1.808
			c4.133,0.663,8.211-0.731,12.132-1.952c6.041-1.881,11.607-4.678,16.132-9.334c4.707-4.846,7.984-10.53,9.776-16.94
			c1.038-3.715,2.192-7.631,0.694-12.237c-3.783,7.611-7.885,14.323-15.263,18.444c0-8.527,0-16.977,0-25.712
			c2.833-2.425,5.857-5.013,9.015-7.715c-3.16-2.48-6.043-4.743-9.039-7.094c0-6.193,0-12.643,0-18.968
			c0.475-0.475,0.828-0.828,1.357-1.357c1.274,0,2.726,0,4.098,0c2.766-1.767,5.63-3.175,7.96-5.197
			c2.448-2.125,2.346-5.724,3.667-8.413c1.723-3.507-1.317-6.115-0.136-9.009c-2.488-1.485-2.309-5.155-5.562-5.398
			c-1.845-2.301-4.713-2.265-7.138-3.276c-2.557-1.065-4.852-0.623-7.351-0.185c3.892,1.208,7.574,2.604,9.979,6.183
			c-0.083,4.026-3.302,6.377-7.174,6.373c-3.301-0.004-6.132-1.31-9.178-2.044c-4.38-1.056-8.62-2.532-12.938-3.752
			c-4.96-1.402-9.747-3.774-15.138-3.333c-0.554,0.045-1.133-0.47-1.728-0.606c-0.769-0.178-1.986-0.612-2.277-0.284
			c-1.524,1.715-3.479,0.475-4.873,1.158c-11.457,3.892-15.093,12.197-13.526,22.942c1.842,4.315,3.874,7.921,8.755,8.561
			c-3.344-2.682-3.197-5.901-1.854-8.779c1.396-1.573,2.489-2.806,3.375-3.805c2.507-0.437,4.729-1.927,6.952-0.153
			c4.987-0.117,9.486,2.132,14.151,3.324c4.304,1.099,8.704,2.273,13.004,3.418c4.339,1.156,8.709,3.014,13.301,2.318
			c0,6.843,0,13.292,0,19.309c-1.658,1.741-2.788,3.748-4.473,4.479c-1.972,0.857-2.794,2.594-4.584,3.688
			c3.256,2.783,6.327,5.405,9.109,7.782c0,9.433,0,18.402,0,27.119c-2.48,1.403-4.862,2.336-7.549,2.837
			c-4.318,0.805-13.333,1.317-16.719-0.355c-4.502-2.226-9.055-4.584-11.896-9.274c7.937-3.99,15.648-7.868,23.264-11.697
			c0-14.029,0.001-27.679-0.011-41.328c-0.001-0.13-0.149-0.279-0.262-0.384c-0.11-0.103-0.264-0.161-0.497-0.295
			c-2.87,1.333-5.797,2.712-8.741,4.052c-5.465,2.488-10.927,4.984-16.424,7.398c-0.9,0.396-1.975,0.397-2.871,0.563
			c2.433-6.935,7.1-11.646,12.703-16.047c0.064,0.065,0.13,0.131,0.195,0.195c0.272-0.232,0.544-0.465,0.816-0.697
			c-0.104-0.104-0.21-0.21-0.314-0.314C788.262,34.36,788.029,34.632,788.861,34.997z M36.187,35.198
			c-0.11-0.199-0.22-0.398-0.331-0.598c-2.044,0.722-4.14,1.322-6.121,2.188c-5.787,2.532-10.519,6.479-15.011,10.887
			C8.023,54.254,4.934,62.539,3.112,71.361c-0.693,3.356-0.249,6.981-0.063,10.47c0.117,2.202,0.589,4.504,1.156,6.528
			c0.771,2.754,1.204,5.966,3.033,8.169c2.052,2.471,3.289,5.39,5.417,7.856c4.464,5.171,10.011,10.023,16.458,12.137
			c3.395,1.112,6.767,2.233,10.455,2.683c3.677,0.447,7.013,0.538,10.725-0.018c5.268-0.79,9.867-2.676,14.407-5.179
			c4.604-2.536,8.146-6.096,11.358-10.225c3.176-4.085,4.197-8.931,6.002-13.536c1.354-3.453,0.891-6.752,0.64-10.642
			C78.71,87.151,74.416,93.68,67.121,98.16c0-8.861,0-17.311,0-25.893c2.922-2.506,5.93-5.084,9.057-7.765
			c-3.338-2.818-6.323-5.338-9.012-7.608c0-6.518,0-12.637,0-18.748c1.507-0.414,2.884-0.693,4.191-1.167
			c4.759-1.728,9.472-3.55,11.633-8.746c0.61-1.468,1.391-2.898,1-4.584c2.646-3.058,0.708-6.33-0.193-9.104
			c-1.016-3.125-3.593-5.585-6.817-7.088c-4.101-1.912-8.307-2.923-12.954-1.718c1.831,0.557,3.662,1.116,5.173,1.577
			c1.625,1.606,3.146,3.111,4.792,4.74c0,0.573,0,1.406,0,2.667c-1.448,1.042-3.096,2.229-4.646,3.343
			c-2.747-0.248-5.242-0.369-7.817-0.902c-5.666-1.173-10.988-3.371-16.563-4.769c-5.164-1.296-10.049-3.749-15.581-3.435
			c-0.541,0.03-1.092-0.562-1.678-0.724c-0.61-0.169-1.383-0.421-1.885-0.193c-2.302,1.043-4.938,1.052-7.15,2.042
			c-5.009,2.247-8.9,5.547-10.86,11.188c-0.991,2.852-0.646,5.459-0.748,8.151c-0.194,5.15,3.284,9.528,9.205,11.625
			c-0.974-1.17-1.627-1.955-2.204-2.646c0-2.415,0-4.73,0-6.4c1.418-1.616,2.505-2.853,3.305-3.765
			c1.753-0.488,3.571-1.599,4.36-1.096c1.99,1.268,4.155,0.351,6.052,1.154c3.865,1.638,8.279,1.488,11.963,3.701
			c8.575,1.055,16.547,4.885,25.081,5.224c0,7.038,0,13.822,0,20.22c-2.445,1.801-4.616,3.369-6.751,4.986
			c-0.779,0.59-1.472,1.294-2.277,2.012c3.261,2.79,6.334,5.42,9.107,7.793c0,9.481,0,18.456,0,27.398
			c-2.558,0.91-4.791,2.197-7.535,2.645c-4.444,0.728-13.283,1.329-16.713-0.358c-4.506-2.217-9.069-4.565-11.924-9.268
			c7.919-3.989,15.627-7.87,23.26-11.714c0-14.004,0-27.654-0.011-41.304c0-0.131-0.143-0.28-0.253-0.387
			c-0.109-0.105-0.262-0.167-0.395-0.247c-3.516,1.569-7.038,3.122-10.545,4.709c-4.911,2.223-9.796,4.506-14.729,6.681
			c-0.9,0.397-1.973,0.401-3.497,0.687c2.165-3.355,3.659-6.354,5.792-8.795c2.299-2.631,5.195-4.742,7.534-7.372
			c0.065,0.065,0.13,0.131,0.195,0.195c0.272-0.232,0.545-0.465,0.817-0.697c-0.105-0.104-0.21-0.21-0.315-0.314
			C36.355,34.36,36.123,34.632,36.187,35.198z M483.327,117.237c2.567-1.855,5.523-2.877,8.625-3.196
			c2.639-0.271,5.329-0.009,7.993-0.068c2.753-0.063,5.342,0.948,8.062,1.236c2.824,0.3,5.748,1.272,8.594,2.047
			c2.902,0.79,5.783,1.354,8.753,1.838c6.281,1.023,8.708,1.194,13.193-0.085c4.032-1.149,6.588-4.045,8.199-7.521
			c1.024-2.209,1.131-4.981,1.14-7.502c0.076-24.664,0.046-49.328,0.046-73.993c0-1.287,0-2.574,0-3.717
			c2.52-1.773,5.378-2.787,6.225-6.766c-2.908,2.334-4.535,5.155-7.489,5.505c-4.41-3.867-8.563-7.508-12.744-11.176
			c-5.964,4.745-11.799,9.386-18.051,14.359c0-4.526,0.003-8.645-0.015-12.764c-0.001-0.118-0.203-0.279-0.346-0.336
			c-0.08-0.032-0.229,0.107-0.699,0.357c0,33.044,0,66.277,0,99.726c-3.881-0.869-7.378-1.651-10.875-2.434
			c0-28.036-0.055-55.859,0.051-83.68c0.02-4.96-2.932-11.76-9.092-13.51c-2.799-0.795-5.731-2.63-8.692-1.166
			c-1.341,0.664-2.523,0.36-3.521,0.563c-5.637,4.17-11.389,8.056-11.667,16.489c1.983-2.48,3.58-4.477,5.373-6.72
			c2.165,0.411,4.303,0.818,5.974,1.135c0.971,1.897,1.675,3.272,2.431,4.748c0,8.613,0,17.397,0,26.203
			c-1.3,0.42-2.468,1.104-3.648,1.123c-3.024,0.05-5.712,1.454-7.608,3.235c-2.426,2.28-4.645,5.085-4.686,9.009
			c-0.028,2.65,0.792,5.019,1.309,7.531c1.388,1.389,2.802,2.802,3.965,3.965c1.737,0.513,3.164,0.935,4.894,1.445
			c-1.269-1.982-2.256-3.525-3.197-4.996c0.586-1.151,1.075-2.115,1.285-2.529c2.614-2.232,5.183-1.422,7.727-1.651
			c0,13.524,0,26.639,0,39.986c-4.911,2.237-9.112,5.474-11.599,10.34c-2.589,5.065-1.082,10.154,1.418,15.899
			c0.29,0.314,1.721,1.242,2.191,2.522c0.764,2.085,2.345,2.86,4.041,3.754c2.812,1.482,5.837,2.118,8.947,2.551
			c4.777,0.665,9.34-1.396,14.086-1.016c0.166,0.014,0.433,0.07,0.485-0.008c1.554-2.264,4.224-0.35,6.312-1.809
			c1.744-1.219,4.938-0.24,6.876-1.328c2.7-1.516,5.88,0.248,8.253-1.853c3.5,0.113,7.25-0.816,9.958,2.383c0,2.147,0,4.267,0,7.128
			c-1.052,0.826-2.446,1.923-4.364,3.431c3.238,0.213,5.498-0.97,7.645-2.005c3.343-1.609,6.03-4.204,7.788-7.456
			c2.045-3.78,0.721-8.009,1.089-11.903c-4.349-7.031-10.189-11.031-18.664-10.622c-3.885,0.188-7.635,1.716-11.583,1.047
			c-2.077,1.79-4.837,0.924-7.225,1.86c-2.449,0.962-5.485,0.381-7.987,1.262c-2.397,0.844-5.045,0.098-7.03,1.083
			c-2.486,1.237-4.937,1.017-7.156,0.637c-2.917-0.499-6.517-1.062-6.565-5.483c-0.008-0.682-0.661-1.356-0.979-1.966
			C481.624,120.661,482.379,119.142,483.327,117.237z M243.063,36.001c2.661,4.545,4.895,8.112,6.879,11.813
			c2.772,5.167,5.017,10.65,8.114,15.605c3.711,5.938,6.906,12.125,10.14,18.305c2.223,4.25,4.582,8.445,6.923,12.606
			c3.799,6.753,7.556,13.52,11.136,20.391c0.851,1.632,2.146,3.032,3.094,4.341c1.161-0.088,1.789-0.135,2.566-0.194
			c0-27.943,0-55.715,0-83.587c3.256-2.44,7.788-1.518,10.787-4.458c2.778-2.725,5.096-5.591,6.318-9.4
			c1.269-3.953,1.619-7.693-0.264-11.104c-1.641,2.104-3.055,4.452-4.983,6.248c-2.326,2.167-5.477,1.4-8.217,1.396
			c-2.825-1.572-5.549-3.088-8.621-4.797c-2.21,2.626-4.676,5.65-7.244,8.584c-3.012,3.44-6.139,6.78-9.142,10.226
			c-0.386,0.443-0.332,1.271-0.481,1.919c0.283,0.178,0.566,0.354,0.85,0.531c1.739-1.739,3.479-3.479,5.335-5.335
			c2.638,1.551,5.576,3.281,8.553,5.033c1.658,0,3.292,0,4.787,0c0.481,0.481,0.834,0.835,1.188,1.188
			c0.586,12.249,0.378,41.606-0.36,45.876c-2.708-3.458-4.298-7.446-6.292-11.099c-3.778-6.917-7.637-13.802-11.355-20.757
			c-4.524-8.463-9.094-16.906-13.858-25.235c-1.731-3.026-3.31-6.29-6.538-8.224c-2.013-1.207-3.905-2.615-5.758-3.871
			c-2.803,0-5.468,0-7.501,0c-10.441,4.183-13.434,11.842-11.649,21.951c0.55-2.847,1.747-5.284,4.087-6.898
			c1.401,0,2.718,0,4.035,0c3.433,0.824,4.105,4.352,6.248,6.364c0,5.778,0,11.56,0,17.424c-1.436,0.401-2.802,1.155-4.114,1.07
			c-2.572-0.167-4.657,0.857-6.655,2.106c-3.703,2.314-6.627,5.183-6.111,10.11c0.104,0.988-0.043,2,0.024,2.996
			c0.363,5.356,4.437,9.729,10.431,10.656c-0.972-1.468-1.707-2.578-2.589-3.91c0.446-1.149,0.947-2.442,1.635-4.218
			c2.266-0.273,4.737-0.57,7.286-0.877c0,8.701,0,16.934,0,25.212c-1.051,0-1.877-0.003-2.703,0.001
			c-3.554,0.015-7.619,1.788-11.463,3.714c-2.688,1.348-3.951,3.565-5.534,5.711c-4.106,5.564-3.864,11.479-0.989,17.348
			c0.966,1.971,2.837,3.525,4.401,5.169c1.134,1.191,5.605,3.164,8.877,3.851c1.474,0.309,3.066,0.052,5.124,0.052
			c-2.414-2.454-5.555-2.063-7.483-4.243c-2.197-2.482-2.078-5.263-1.958-8.149c4.582-4.581,4.582-4.581,12.1-4.283
			c2.313,1.694,4.954,3.63,7.734,5.668c2.808-3.206,5.645-6.58,8.631-9.816c2.899-3.143,6.313-5.841,8.473-10.141
			c-3.445,0.354-3.551,3.746-5.259,4.904c-2.88-2.321-5.406-5.009-8.488-6.656c-3.076-1.644-6.709-2.245-10.145-3.318
			C243.063,74.898,243.063,56.122,243.063,36.001z M366.287,32.263c-7.777,0.638-12.971,5.33-16.33,12.835
			c0,0.822,0.02,1.988-0.003,3.154c-0.109,5.433,2.667,9.455,6.601,12.695c3.023,2.49,5.377,6.113,5.388,9.737
			c0.034,11.644,0.012,23.288,0.012,34.671c-1.89,1.312-3.599,2.421-5.205,3.663c-0.443,0.343-0.578,1.082-1.239,2.413
			c3.06-1.894,5.272-3.264,7.363-4.558c2.7,2.185,5.262,4.137,7.682,6.252c2.384,2.082,4.199,5.032,7.55,4.872
			c5.02-4.109,9.752-7.982,14.479-11.852c5.292,4.198,10.651,8.447,15.84,12.563c10.303-6.366,20.526-12.685,30.567-18.889
			c0-12.122,0-23.771,0-35.523c3.748-3.367,7.542-6.733,11.265-10.177c0.441-0.408,0.487-1.243,0.716-1.88
			c-0.245-0.154-0.489-0.31-0.734-0.465c-1.671,1.674-3.34,3.349-5.03,5.042c-4.444-3.667-8.893-7.337-13.514-11.15
			c-4.192,5.068-10.056,8.07-13.683,12.973c1.895,1.895,3.633,3.633,4.775,4.775c0,15.502,0,29.949,0,44.381
			c-0.744,0.529-1.374,0.978-1.878,1.337c-4.152-3.296-8.053-6.391-11.823-9.384c0-12.635,0-25.082,0-38.271
			c1.276-1.276,2.856-2.855,4.416-4.416c-4.192-3.558-8.62-7.316-13.014-11.045c-4.861,4.181-9.685,8.329-14.521,12.489
			c2.125,2.125,4.009,4.009,5.94,5.94c0,13.27,0,26.584,0,40.165c-0.916,0.788-1.989,1.708-2.978,2.559
			c-3.488-2.798-6.704-5.38-10.045-8.061c0-13.474,0-27.116,0-40.649c-1.367-2.07-2.361-4.354-4.031-5.916
			c-2.283-2.138-4.963-3.934-7.7-5.471c-1.659-0.932-2.763-1.947-3.395-3.72c-0.409-1.148-1.213-2.157-1.789-3.14
			c0.467-1.418,0.901-2.734,1.335-4.051c-0.154-0.15-0.308-0.302-0.461-0.453C364.067,34.482,365.292,33.257,366.287,32.263z
			 M903.85,58.147c3.389,3.957,6.224,7.267,8.951,10.452c0,10.787,0,21.423,0,31.813c-1.205,1.38-2.242,2.567-3.168,3.629
			c1.639,1.841,2.958,3.299,4.249,4.783c1.273,1.464,2.461,3.006,3.789,4.417c1.325,1.408,2.779,2.697,4.016,3.884
			c4.492-4.49,8.706-8.703,12.92-12.915c-1.396-1.396-3.044-3.044-4.708-4.708c0-12.639,0-25.293,0-38.13
			c0.992-0.835,2.073-1.746,3.284-2.766c3.48,3.699,6.72,7.14,9.685,10.289c0,10.555,0,20.543,0,30.541
			c-1.084,1.158-2.18,2.328-3.527,3.768c4.672,5.1,9.107,9.941,13.781,15.042c2.918-2.918,5.861-5.799,8.733-8.751
			c2.801-2.879,6.879-4.465,9.09-9.121c-2.331,1.457-3.998,2.499-5.718,3.575c-1.146-1.271-2.299-2.448-3.332-3.723
			c-1.006-1.242-1.889-2.583-3.015-4.143c0-11.257,0-22.916,0-34.91c1.039-0.657,2.373-1.275,3.411-2.219
			c1.083-0.986,2.76-1.761,2.537-4.006c-2.359,1.791-4.446,3.375-6.506,4.939c-4.017-4.601-8.027-9.196-12.042-13.79
			c-5.702,4.563-11.405,9.127-17.216,13.776c-4.049-4.28-8.08-8.541-12.135-12.827c-6.144,3.35-10.868,8.976-17.195,12.383
			c-4.014-4.448-8.447-7.854-11.895-12.77c-3.041,2.667-6.108,5.267-9.069,7.982c-2.908,2.665-6.562,4.543-9.194,8.776
			c3.221-0.801,4.168-3.529,6.552-4.707c2.527,2.961,5.026,5.892,7.632,8.945c0,10.535,0,21.313,0,32.558
			c-1.09,1.07-2.35,2.308-3.588,3.524c4.277,4.711,8.667,9.547,13.068,14.395c2.344-2.343,4.525-4.405,6.565-6.599
			c2.098-2.257,4.728-4.059,6.309-6.826c-1.861-1.792-3.535-3.404-5.113-4.924c0-12.965,0-25.743,0-37.66
			C902.079,60.619,902.752,59.682,903.85,58.147z M88.986,27.578c2.983,0.354,4.403,1.441,4.002,3.838
			c1.667,1.236,0.97,3.028,0.973,4.582c0.041,21.483,0.027,42.967,0.027,63.988c-2.076,4.071-6.782,5.032-8.267,9.308
			c1.299-1.06,2.598-2.118,3.69-3.009c4.169,3.684,8.305,7.335,12.53,11.068c6.484-5.158,12.691-10.097,18.885-15.023
			c-0.379-0.38-0.851-0.852-1.288-1.289c-1.188,1.072-2.373,2.143-3.303,2.982c-1.862-1.862-3.467-3.468-5.131-5.132
			c0-12.385,0-25.01,0-37.008c2.064-1.806,3.753-3.285,5.396-4.723c0.627,1.976,2.509,3.114,3.827,4.709
			c1.31,1.585,2.471,3.292,3.657,4.893c0,15.067-0.063,30.056,0.057,45.043c0.022,2.793-1.054,5.28-1.41,7.953
			c-0.175,1.311-1.068,2.538-1.701,3.771c-2.499,4.873-6.933,7.266-11.827,9.227c3.833,0.229,7.621,0.241,11.409,0.212
			c0.449-0.003,0.902-0.216,1.344-0.358c6.332-2.05,11.761-5.243,15.289-11.213c1.677-2.835,3.372-5.748,3.731-8.922
			c0.696-6.149,0.972-12.366,1.062-18.56c0.158-10.817,0.044-21.639,0.044-32.459c0.704-2.546,4.941-1.899,5.024-5.8
			c-2.439,1.741-4.413,3.15-6.435,4.592c-1.248-3.34-4.127-4.922-6.108-7.275c-2.048-2.431-4.092-4.863-6.121-7.275
			c-3.878,1.63-5.674,5.215-8.686,6.871c-3.159,1.736-4.653,5.396-8.609,6.699c0-16.262,0-32.158,0-48.768
			C103.664,16.215,96.839,21.498,88.986,27.578z M667.374,25.069c4.744,2.08,5.548,5.785,5.546,9.927
			c-0.009,22.492-0.004,44.985-0.004,67.657c-2.393,2.014-4.906,4.061-7.32,6.221c-0.44,0.395-0.474,1.243-0.828,2.27
			c2.211-1.63,3.941-2.905,5.616-4.14c3.455,3.094,6.743,6.028,10.02,8.976c0.822,0.74,1.605,1.523,2.363,2.244
			c3.962-3.468,7.646-6.663,11.295-9.899c1.933-1.713,3.454-3.874,5.921-5.013c0.51-0.236,0.593-1.4,1.025-2.54
			c-2.262,1.611-4.008,2.854-5.902,4.203c-1.799-2.277-3.494-4.425-4.986-6.313c0-7.702,0-15.146,0-23.114
			c9.078,14.514,17.859,28.553,26.67,42.641c6.846-6.031,13.47-11.869,20.462-18.03c-3.841-0.309-5.155,3.058-7.7,3.998
			c-4.354-6.736-8.543-13.337-12.855-19.858c-4.766-7.204-9.664-14.321-14.451-21.513c-0.631-0.947-0.723-2.064,0.715-3.06
			c4.386,4.35,9.871,4.715,16.164,4.071c2.403-1.807,5.202-3.911,8.001-6.016c0.229-1.606,0.987-2.789,1.524-4.065
			c0.536-1.276,0.921-2.629,1.239-3.981c0.288-1.222,0.397-2.487,0.635-4.061c-2.577,1.552-4.842,2.915-6.765,4.073
			c-5.326,1.224-9.142-1.589-13.274-4.131c-0.78,1.275-1.389,2.343-2.068,3.362c-0.788,1.181-1.649,2.315-2.463,3.481
			c-0.719,1.031-1.406,2.085-2.126,3.117c-0.813,1.166-1.655,2.311-2.469,3.477c-0.719,1.031-1.406,2.085-2.124,3.117
			c-0.813,1.166-1.656,2.312-2.47,3.477c-0.719,1.031-1.406,2.086-2.126,3.117c-0.813,1.166-1.743,2.263-2.44,3.493
			c-0.554,0.979-0.498,2.414-2.283,2.367c0-21.638,0-43.278-0.009-64.918c0-0.138-0.109-0.294-0.206-0.407
			c-0.088-0.103-0.229-0.158-0.275-0.188C682.427,14.719,674.642,19.233,667.374,25.069z M615.574,57.884
			c-3.793,0.411-5.428,2.4-6.998,3.961c-6.374-5.467-12.512-10.731-18.412-15.791c-9.9,5.314-19.545,10.491-29.264,15.707
			c0,13.513,0,27.148,0,41.929c-0.763,0.763-2.083,2.084-3.295,3.296c2.2,0.455,2.409-3.269,4.777-2.998
			c5.437,4.608,10.873,9.218,16.521,14.005c0.301-0.017,1.118,0.188,1.584-0.127c9.405-6.366,19.871-10.929,29.458-17.114
			c0-12.566,0-25.002,0-37.966C611.466,61.462,613.185,59.966,615.574,57.884z M1064.68,68.638c1.203-1.549,2.366-2.857,3.316-4.303
			c4.001-6.085,8.113-12.154,6.66-20.08c-0.44-0.404-0.888-0.814-1.366-1.254c-0.548,2.062-1.064,4.008-1.537,5.786
			c-0.741,0.208-1.237,0.25-1.631,0.474c-1.5,0.853-2.936,2.264-4.765,1.674c-2.039-0.658-4.29-0.878-5.893-2.743
			c-0.874-1.017-2.305-1.555-3.702-2.448c-8.255,5.892-17.082,10.822-25.879,15.658c0,6.122,0,12.117,0,18.164
			c3.382,2.994,6.142,6.695,9.974,9.269c0.46,1.555-0.714,2.345-1.615,3.288c-2.93,3.069-6.081,5.896-8.569,9.423
			c-1.732,2.459-1.527,5.376-2.801,7.862c1.142,3.525,1.306,7.604,4.253,10.188c2.342,2.05,5.037,4.197,8.526,3.148
			c-1.666-1.42-3.249-2.77-4.763-4.061c0-1.158,0-2.153,0-3.461c1.387-1.009,2.931-2.132,4.218-3.069
			c2.1,0.648,4.187,0.944,5.888,1.914c1.781,1.016,3.193,2.681,4.565,3.885c8.831-5.517,17.443-10.897,26.192-16.364
			c0-7.989,0-16.106,0-24.141C1072.057,74.507,1068.409,71.605,1064.68,68.638z M1007.871,106.278
			c-4.644-4.125-8.91-7.916-12.955-11.509c0-2.057,0-3.708,0-5.363c8.693-6.346,17.361-12.673,25.963-18.953
			c-0.129-2.769-11.273-21.121-13.462-24.331c-9.755,5.783-19.2,12.069-29.497,16.876c0,13.065,0,25.833,0,38.057
			c-1.466,2.841-4.886,2.955-5.994,6.237c1.553-0.667,2.8-0.958,3.726-1.67c0.985-0.756,1.663-1.911,2.413-2.817
			c4.75,4.351,9.106,8.323,13.439,12.32c1.072,0.989,2.071,2.059,3.265,3.252c1.605-1.161,3.034-2.116,4.376-3.183
			c2.016-1.603,3.838-3.479,5.973-4.89c6.132-4.056,11.344-9.275,17.354-13.479c0.899-0.629,1.886-1.452,1.717-3.107
			C1018.814,97.856,1013.439,101.993,1007.871,106.278z M336.031,106.367c-4.634-4.423-8.656-8.262-12.943-12.354
			c0-1.221,0-3.004,0-4.4c9.185-6.767,18.104-13.337,26.788-19.735c-4.79-8.19-9.426-16.119-13.955-23.862
			c-9.944,6.168-19.556,12.157-29.861,16.926c0,13.066,0,25.833,0,38.656c-1.74,1.471-3.419,2.89-5.192,4.386
			c0.221,0.343,0.454,0.707,0.934,1.453c1.652-1.547,3.179-2.974,4.425-4.141c6.992,3.732,10.916,11.087,17.934,14.833
			c2.571-2.175,4.976-4.323,7.504-6.314c2.357-1.856,4.912-3.464,7.257-5.334c2.53-2.016,4.801-4.368,7.392-6.296
			c6.152-4.578,6.201-4.513,6.427-6.461C347,98.068,341.529,102.208,336.031,106.367z M185.821,46.122
			c-10.088,5.853-19.996,11.601-29.846,17.316c0,12.777,0,25.418,0,38.194c-1.968,1.566-3.991,3.178-6.014,4.787
			c0.193,0.262,0.386,0.522,0.58,0.783c2.026-1.342,4.052-2.684,5.993-3.97c5.338,4.849,10.789,9.801,16.305,14.811
			c2.637-0.639,4.143-2.854,6.112-4.465c1.937-1.582,4.19-2.771,6.184-4.292c2.176-1.661,4.209-3.51,6.311-5.268
			c1.975-1.652,3.965-3.286,5.937-4.943c1.84-1.547,4.465-2.262,5.547-5.805c-6.204,4.448-11.479,8.921-17.114,12.96
			c-4.449-3.962-8.713-7.76-12.67-11.284c0-2.235,0-4.024,0-5.66c8.705-6.39,17.239-12.653,25.802-18.937
			c0-0.563,0.265-1.401-0.04-1.86C194.087,61.232,190.075,53.497,185.821,46.122z M658.356,64.992
			c3.29-2.14,6.184-4.333,7.919-7.809c1.617-3.243,2.691-6.525,2.461-10.702c-2.14,1.369-3.845,2.461-5.188,3.32
			c-3.901,0.946-6.365-1.375-9.257-2.68c-3.526,3.527-7.178,7.178-10.814,10.815c-4.118-3.148-6.07-8.438-10.813-11.165
			c-5.996,5.306-11.867,10.501-18.369,16.255c3.739-0.215,5.331-2.274,7.018-3.924c1.854,2.522,3.721,5.059,5.551,7.548
			c0,11.673,0,23.313,0,35.867c-2.203,2.203-4.832,4.832-7.481,7.481c2.642-0.065,3.234-3.329,5.565-4.069
			c6.008,2.577,8.7,9.172,14.45,11.914c3.105-2.393,6.344-4.738,9.41-7.292c3.112-2.592,6.052-5.386,9.067-8.093
			c-0.187-0.239-0.373-0.479-0.56-0.718c-2.174,1.451-4.347,2.902-6.299,4.205c-2.331-2.331-4.547-4.548-6.937-6.938
			c0-12.617,0-25.727,0-38.982c2.282,1.743,4.395,3.355,6.506,4.967C653.084,64.992,655.582,64.992,658.356,64.992z
			 M847.132,104.682c4.128,4.563,8.129,8.985,12.027,13.297c5.794-5.308,11.301-10.352,16.808-15.395
			c-2.95-0.404-3.711,2.229-5.772,3.366c-2.285-2.736-4.666-5.586-7.193-8.613c0-11.167,0-22.615,0-33.752
			c1.83-2.749,5.039-4.008,5.423-7.624c-1.429,1.428-2.856,2.856-4.606,4.605c-2.935-1.823-5.054-4.04-6.995-6.693
			c-1.908-2.607-4.396-4.791-6.713-7.247c-5.584,4.932-10.88,9.609-16.403,14.487c0.375,0.351,0.77,0.72,1.187,1.108
			c1.543-1.293,2.871-2.405,4.138-3.466c2.429,2.859,4.619,5.437,6.786,7.986c0,12.289,0,24.596,0,36.902
			c-0.426,2.708-5.21,1.653-4.816,5.493C843.826,108.629,844.667,106.071,847.132,104.682z M852.47,43.17
			c3.518-0.315,4.751-3.465,6.963-5.26c2.321-1.882,4.485-3.959,6.749-5.98c-2.88-3.363-6.262-5.783-8.315-9.404
			c-0.661-1.165-1.788-1.976-3.166-1.566c-3.961,3.96-7.815,7.816-11.527,11.528C846.125,35.878,849.125,39.327,852.47,43.17z"/>
		<path fill-rule="evenodd" clip-rule="evenodd" d="M483.327,117.237c-0.948,1.904-1.704,3.424-2.557,5.14
			c0.318,0.609,0.972,1.284,0.979,1.966c0.049,4.422,3.649,4.984,6.565,5.483c2.22,0.38,4.67,0.601,7.156-0.637
			c1.984-0.985,4.632-0.239,7.03-1.083c2.502-0.881,5.538-0.3,7.987-1.262c2.387-0.937,5.147-0.07,7.225-1.86
			c3.948,0.669,7.697-0.859,11.583-1.047c8.474-0.409,14.314,3.591,18.664,10.622c-0.368,3.895,0.956,8.123-1.089,11.903
			c-1.758,3.252-4.445,5.847-7.788,7.456c-2.147,1.035-4.407,2.218-7.645,2.005c1.918-1.508,3.312-2.604,4.364-3.431
			c0-2.861,0-4.98,0-7.128c-2.708-3.199-6.459-2.27-9.958-2.383c-2.373,2.101-5.553,0.337-8.253,1.853
			c-1.938,1.088-5.132,0.109-6.876,1.328c-2.087,1.459-4.758-0.455-6.312,1.809c-0.053,0.078-0.319,0.021-0.485,0.008
			c-4.746-0.381-9.309,1.681-14.086,1.016c-3.11-0.433-6.135-1.068-8.947-2.551c-1.696-0.894-3.277-1.669-4.041-3.754
			c-0.47-1.28-1.901-2.208-2.191-2.522c-2.5-5.745-4.007-10.834-1.418-15.899c2.487-4.866,6.688-8.103,11.599-10.34
			c0-13.347,0-26.462,0-39.986c-2.543,0.229-5.113-0.581-7.727,1.651c-0.21,0.414-0.699,1.377-1.285,2.529
			c0.941,1.471,1.929,3.013,3.197,4.996c-1.73-0.511-3.157-0.933-4.894-1.445c-1.163-1.163-2.577-2.577-3.965-3.965
			c-0.517-2.512-1.337-4.881-1.309-7.531c0.041-3.923,2.26-6.729,4.686-9.009c1.896-1.781,4.584-3.185,7.608-3.235
			c1.18-0.019,2.348-0.702,3.648-1.123c0-8.806,0-17.59,0-26.203c-0.756-1.475-1.46-2.85-2.431-4.748
			c-1.671-0.317-3.809-0.724-5.974-1.135c-1.793,2.243-3.39,4.24-5.373,6.72c0.278-8.434,6.03-12.319,11.667-16.489
			c0.998-0.203,2.18,0.101,3.521-0.563c2.961-1.464,5.894,0.371,8.692,1.166c6.16,1.75,9.112,8.55,9.092,13.51
			c-0.105,27.821-0.051,55.644-0.051,83.68c3.498,0.782,6.994,1.564,10.875,2.434c0-33.449,0-66.682,0-99.726
			c0.471-0.25,0.619-0.39,0.699-0.357c0.143,0.057,0.345,0.218,0.346,0.336c0.018,4.12,0.015,8.238,0.015,12.764
			c6.252-4.973,12.086-9.614,18.051-14.359c4.182,3.668,8.334,7.309,12.744,11.176c2.954-0.351,4.581-3.171,7.489-5.505
			c-0.847,3.979-3.705,4.993-6.225,6.766c0,1.144,0,2.431,0,3.717c0,24.665,0.03,49.329-0.046,73.993
			c-0.009,2.521-0.115,5.293-1.14,7.502c-1.611,3.476-4.167,6.371-8.199,7.521c-4.485,1.279-6.912,1.108-13.193,0.085
			c-2.97-0.483-5.851-1.048-8.753-1.838c-2.846-0.774-5.77-1.747-8.594-2.047c-2.719-0.288-5.309-1.299-8.062-1.236
			c-2.665,0.06-5.354-0.202-7.993,0.068C488.85,114.36,485.895,115.382,483.327,117.237z M523.446,114.974
			c4.488-4.487,4.488-4.487,4.488-10.587c0-9.957,0-19.914,0-29.913c-0.811-0.787-1.642-1.595-2.502-2.43
			c-6.146-0.086-6.146-0.086-9.26,2.242c0,13.957,0,27.817,0,42.013C518.803,115.818,521.125,115.396,523.446,114.974z
			 M515.936,31.384c0,8.487,0,17.778,0,27.07c3.101,4.185,8.51,4.156,11.894,1.139c0-8.794,0-17.551,0-25.554
			c-2.878-2.674-5.335-4.957-7.547-7.012C518.964,28.349,517.818,29.497,515.936,31.384z M522.35,63.774
			c-0.77-1.185-2.225-0.506-3.391-0.85c-1.018-0.301-1.866-1.18-3.023-1.961c0,2.291-0.071,4.107,0.021,5.915
			c0.086,1.677-0.377,3.433,0.348,5.167c1.688-1.503,3.344-2.309,5.395-2.056c1.983,0.245,3.967,0.483,6.051,0.737
			c0-2.836,0-5.723,0-8.902C525.796,62.53,524.101,63.143,522.35,63.774z"/>
		<path fill-rule="evenodd" clip-rule="evenodd" d="M36.187,35.198c-2.636,2.337-5.532,4.448-7.831,7.079
			c-2.133,2.441-3.627,5.44-5.792,8.795c1.524-0.285,2.597-0.289,3.497-0.687c4.933-2.174,9.817-4.458,14.729-6.681
			c3.507-1.588,7.03-3.14,10.545-4.709c0.133,0.08,0.285,0.142,0.395,0.247c0.11,0.106,0.253,0.256,0.253,0.387
			c0.011,13.65,0.011,27.3,0.011,41.304c-7.633,3.844-15.34,7.726-23.26,11.714c2.855,4.703,7.417,7.051,11.924,9.268
			c3.431,1.688,12.269,1.086,16.713,0.358c2.744-0.448,4.978-1.735,7.535-2.645c0-8.942,0-17.917,0-27.398
			c-2.773-2.373-5.846-5.003-9.107-7.793c0.806-0.718,1.498-1.422,2.277-2.012c2.135-1.617,4.306-3.185,6.751-4.986
			c0-6.398,0-13.183,0-20.22c-8.534-0.338-16.506-4.169-25.081-5.224c-3.684-2.213-8.098-2.063-11.963-3.701
			c-1.897-0.804-4.062,0.113-6.052-1.154c-0.789-0.503-2.607,0.607-4.36,1.096c-0.8,0.912-1.887,2.149-3.305,3.765
			c0,1.67,0,3.986,0,6.4c0.576,0.691,1.229,1.477,2.204,2.646c-5.921-2.097-9.399-6.475-9.205-11.625
			c0.101-2.692-0.243-5.299,0.748-8.151c1.959-5.64,5.851-8.94,10.86-11.188c2.212-0.991,4.848-1,7.15-2.042
			c0.501-0.228,1.274,0.024,1.885,0.193c0.585,0.162,1.137,0.754,1.678,0.724c5.531-0.313,10.417,2.139,15.581,3.435
			c5.575,1.398,10.897,3.596,16.563,4.769c2.575,0.533,5.07,0.654,7.817,0.902c1.55-1.115,3.198-2.301,4.646-3.343
			c0-1.261,0-2.094,0-2.667c-1.647-1.629-3.168-3.133-4.792-4.74c-1.511-0.461-3.342-1.02-5.173-1.577
			c4.647-1.205,8.853-0.193,12.954,1.718c3.224,1.503,5.802,3.963,6.817,7.088c0.901,2.774,2.839,6.046,0.193,9.104
			c0.391,1.687-0.389,3.117-1,4.584c-2.161,5.196-6.874,7.019-11.633,8.746c-1.307,0.473-2.684,0.752-4.191,1.167
			c0,6.111,0,12.23,0,18.748c2.689,2.27,5.674,4.79,9.012,7.608c-3.127,2.68-6.135,5.259-9.057,7.765c0,8.583,0,17.032,0,25.893
			c7.295-4.48,11.589-11.008,15.578-18.554c0.251,3.89,0.714,7.189-0.64,10.642c-1.805,4.605-2.826,9.451-6.002,13.536
			c-3.212,4.129-6.754,7.688-11.358,10.225c-4.54,2.503-9.139,4.389-14.407,5.179c-3.711,0.556-7.047,0.465-10.725,0.018
			c-3.688-0.449-7.06-1.57-10.455-2.683c-6.447-2.113-11.994-6.966-16.458-12.137C10.527,101.919,9.29,99,7.238,96.529
			c-1.829-2.203-2.262-5.415-3.033-8.169c-0.567-2.024-1.039-4.327-1.156-6.528c-0.186-3.489-0.629-7.114,0.063-10.47
			c1.822-8.822,4.911-17.107,11.613-23.686c4.492-4.408,9.224-8.355,15.011-10.887c1.98-0.866,4.077-1.467,6.121-2.188
			C35.967,34.799,36.077,34.999,36.187,35.198z M32.695,49.152c-3.026,1.345-5.848,2.563-8.637,3.853
			c-1.65,0.762-2.597,1.877-3.185,3.843c-1.005,3.359-1.148,6.809-1.803,10.189c-0.42,2.168,0.391,4.372,0.803,6.573
			c0.983,5.25,4.224,13.925,7.542,18.288c1.896-1.052,3.785-2.102,5.581-3.099c0-13.233,0-26.189-0.01-39.145
			C32.986,49.52,32.836,49.387,32.695,49.152z"/>
		<path fill-rule="evenodd" clip-rule="evenodd" d="M788.861,34.997c-6.668,4.309-11.335,9.021-13.768,15.955
			c0.896-0.165,1.971-0.167,2.871-0.563c5.497-2.415,10.959-4.911,16.424-7.398c2.944-1.34,5.871-2.719,8.741-4.052
			c0.233,0.134,0.387,0.192,0.497,0.295c0.112,0.104,0.261,0.254,0.262,0.384c0.012,13.648,0.011,27.298,0.011,41.328
			c-7.615,3.829-15.327,7.707-23.264,11.697c2.842,4.69,7.395,7.049,11.896,9.274c3.386,1.673,12.4,1.16,16.719,0.355
			c2.687-0.501,5.068-1.435,7.549-2.837c0-8.717,0-17.686,0-27.119c-2.782-2.377-5.854-5-9.109-7.782
			c1.79-1.095,2.612-2.831,4.584-3.688c1.685-0.732,2.814-2.739,4.473-4.479c0-6.016,0-12.465,0-19.309
			c-4.592,0.696-8.962-1.162-13.301-2.318c-4.3-1.146-8.7-2.32-13.004-3.418c-4.665-1.191-9.164-3.441-14.151-3.324
			c-2.223-1.773-4.445-0.283-6.952,0.153c-0.886,0.999-1.979,2.232-3.375,3.805c-1.343,2.878-1.489,6.098,1.854,8.779
			c-4.881-0.64-6.913-4.246-8.755-8.561c-1.566-10.745,2.069-19.05,13.526-22.942c1.395-0.684,3.349,0.557,4.873-1.158
			c0.291-0.328,1.509,0.106,2.277,0.284c0.595,0.137,1.174,0.651,1.728,0.606c5.391-0.44,10.178,1.931,15.138,3.333
			c4.317,1.221,8.558,2.697,12.938,3.752c3.046,0.734,5.877,2.041,9.178,2.044c3.872,0.004,7.091-2.347,7.174-6.373
			c-2.404-3.579-6.087-4.974-9.979-6.183c2.499-0.438,4.794-0.881,7.351,0.185c2.425,1.011,5.293,0.975,7.138,3.276
			c3.253,0.243,3.073,3.914,5.562,5.398c-1.182,2.894,1.858,5.501,0.136,9.009c-1.321,2.689-1.219,6.288-3.667,8.413
			c-2.33,2.022-5.194,3.43-7.96,5.197c-1.372,0-2.823,0-4.098,0c-0.529,0.529-0.883,0.882-1.357,1.357c0,6.326,0,12.775,0,18.968
			c2.996,2.352,5.879,4.614,9.039,7.094c-3.157,2.702-6.182,5.29-9.015,7.715c0,8.736,0,17.185,0,25.712
			c7.378-4.121,11.479-10.833,15.263-18.444c1.498,4.605,0.344,8.521-0.694,12.237c-1.792,6.41-5.069,12.094-9.776,16.94
			c-4.524,4.656-10.091,7.453-16.132,9.334c-3.921,1.221-7.999,2.615-12.132,1.952c-3.394-0.544-6.823-0.961-10.203-1.808
			c-7.444-1.865-13.656-5.621-18.914-11.061c-5.594-5.786-8.754-12.757-10.678-20.579c-1.414-5.751-0.662-11.42-0.742-17.11
			c-0.033-2.345,1.184-4.785,2.141-7.053c2.417-5.727,5.682-10.846,10.143-15.329c4.687-4.709,9.887-8.429,15.987-10.966
			c0.429-0.179,0.741-0.635,1.127-0.979C785.567,34.997,786.733,34.997,788.861,34.997z M773.057,54.29
			c-0.652,6.587-3.143,12.733-1.368,19.756c2.553,10.103,3.484,12.043,7.608,17.836c1.883-1.028,3.766-2.056,5.605-3.061
			c0-13.212,0.001-26.171-0.009-39.132c0-0.137-0.112-0.292-0.212-0.404c-0.087-0.1-0.229-0.152-0.332-0.217
			C780.712,50.751,777.085,52.428,773.057,54.29z"/>
		<path fill-rule="evenodd" clip-rule="evenodd" d="M243.063,36.001c0,20.121,0,38.896,0,57.797
			c3.436,1.073,7.069,1.674,10.145,3.318c3.082,1.646,5.607,4.334,8.488,6.656c1.708-1.158,1.813-4.549,5.259-4.904
			c-2.161,4.3-5.574,6.999-8.473,10.141c-2.986,3.236-5.823,6.61-8.631,9.816c-2.781-2.038-5.421-3.974-7.734-5.668
			c-7.519-0.298-7.519-0.298-12.1,4.283c-0.12,2.887-0.239,5.667,1.958,8.149c1.929,2.181,5.07,1.789,7.483,4.243
			c-2.058,0-3.65,0.257-5.124-0.052c-3.271-0.687-7.743-2.659-8.877-3.851c-1.563-1.644-3.435-3.198-4.401-5.169
			c-2.875-5.869-3.117-11.783,0.989-17.348c1.583-2.146,2.846-4.364,5.534-5.711c3.844-1.926,7.91-3.7,11.463-3.714
			c0.826-0.004,1.652-0.001,2.703-0.001c0-8.278,0-16.511,0-25.212c-2.549,0.307-5.02,0.604-7.286,0.877
			c-0.688,1.776-1.189,3.069-1.635,4.218c0.882,1.332,1.617,2.442,2.589,3.91c-5.995-0.927-10.068-5.299-10.431-10.656
			c-0.067-0.995,0.079-2.008-0.024-2.996c-0.517-4.927,2.408-7.796,6.111-10.11c1.999-1.249,4.083-2.273,6.655-2.106
			c1.312,0.085,2.678-0.669,4.114-1.07c0-5.864,0-11.646,0-17.424c-2.143-2.012-2.815-5.54-6.248-6.364c-1.317,0-2.633,0-4.035,0
			c-2.34,1.614-3.537,4.051-4.087,6.898c-1.785-10.109,1.208-17.768,11.649-21.951c2.033,0,4.698,0,7.501,0
			c1.853,1.256,3.746,2.664,5.758,3.871c3.228,1.934,4.807,5.198,6.538,8.224c4.764,8.329,9.334,16.771,13.858,25.235
			c3.718,6.956,7.577,13.84,11.355,20.757c1.995,3.653,3.584,7.641,6.292,11.099c0.738-4.27,0.946-33.627,0.36-45.876
			c-0.354-0.354-0.707-0.707-1.188-1.188c-1.495,0-3.129,0-4.787,0c-2.977-1.752-5.915-3.482-8.553-5.033
			c-1.856,1.856-3.596,3.596-5.335,5.335c-0.283-0.177-0.566-0.354-0.85-0.531c0.149-0.649,0.095-1.476,0.481-1.919
			c3.003-3.446,6.13-6.785,9.142-10.226c2.568-2.934,5.034-5.958,7.244-8.584c3.072,1.708,5.795,3.225,8.621,4.797
			c2.741,0.004,5.892,0.771,8.217-1.396c1.928-1.796,3.342-4.143,4.983-6.248c1.882,3.411,1.532,7.151,0.264,11.104
			c-1.222,3.81-3.54,6.675-6.318,9.4c-2.999,2.941-7.531,2.019-10.787,4.458c0,27.873,0,55.645,0,83.587
			c-0.777,0.06-1.405,0.106-2.566,0.194c-0.948-1.309-2.243-2.709-3.094-4.341c-3.581-6.871-7.337-13.638-11.136-20.391
			c-2.341-4.161-4.7-8.356-6.923-12.606c-3.233-6.181-6.428-12.367-10.14-18.305c-3.097-4.956-5.342-10.438-8.114-15.605
			C247.957,44.114,245.723,40.547,243.063,36.001z"/>
		<path fill-rule="evenodd" clip-rule="evenodd" d="M366.287,32.263c-0.994,0.994-2.22,2.219-3.445,3.445
			c0.154,0.151,0.308,0.303,0.461,0.453c-0.434,1.317-0.868,2.633-1.335,4.051c0.576,0.983,1.379,1.992,1.789,3.14
			c0.632,1.773,1.735,2.789,3.395,3.72c2.737,1.537,5.417,3.333,7.7,5.471c1.67,1.562,2.665,3.846,4.031,5.916
			c0,13.534,0,27.175,0,40.649c3.341,2.681,6.557,5.263,10.045,8.061c0.989-0.851,2.062-1.771,2.978-2.559
			c0-13.581,0-26.896,0-40.165c-1.931-1.931-3.815-3.815-5.94-5.94c4.836-4.16,9.66-8.308,14.521-12.489
			c4.394,3.729,8.821,7.487,13.014,11.045c-1.56,1.561-3.139,3.14-4.416,4.416c0,13.189,0,25.636,0,38.271
			c3.771,2.993,7.671,6.088,11.823,9.384c0.504-0.359,1.135-0.808,1.878-1.337c0-14.432,0-28.879,0-44.381
			c-1.142-1.142-2.88-2.88-4.775-4.775c3.627-4.903,9.491-7.905,13.683-12.973c4.621,3.813,9.07,7.483,13.514,11.15
			c1.689-1.692,3.359-3.367,5.03-5.042c0.245,0.155,0.489,0.311,0.734,0.465c-0.229,0.637-0.274,1.472-0.716,1.88
			c-3.723,3.444-7.518,6.81-11.265,10.177c0,11.752,0,23.401,0,35.523c-10.041,6.204-20.264,12.522-30.567,18.889
			c-5.189-4.116-10.549-8.365-15.84-12.563c-4.726,3.869-9.458,7.742-14.479,11.852c-3.351,0.16-5.166-2.79-7.55-4.872
			c-2.42-2.115-4.982-4.067-7.682-6.252c-2.091,1.294-4.304,2.664-7.363,4.558c0.661-1.331,0.796-2.07,1.239-2.413
			c1.606-1.242,3.315-2.352,5.205-3.663c0-11.383,0.021-23.027-0.012-34.671c-0.011-3.625-2.365-7.247-5.388-9.737
			c-3.934-3.241-6.71-7.263-6.601-12.695c0.023-1.166,0.003-2.332,0.003-3.154C353.315,37.593,358.51,32.9,366.287,32.263z"/>
		<path fill-rule="evenodd" clip-rule="evenodd" d="M903.85,58.147c-1.098,1.535-1.771,2.472-2.849,3.978c0,11.917,0,24.695,0,37.66
			c1.578,1.52,3.252,3.132,5.113,4.924c-1.581,2.768-4.211,4.569-6.309,6.826c-2.04,2.193-4.222,4.256-6.565,6.599
			c-4.401-4.848-8.791-9.684-13.068-14.395c1.238-1.217,2.498-2.454,3.588-3.524c0-11.245,0-22.023,0-32.558
			c-2.605-3.053-5.104-5.984-7.632-8.945c-2.384,1.178-3.331,3.906-6.552,4.707c2.633-4.233,6.286-6.112,9.194-8.776
			c2.961-2.715,6.028-5.315,9.069-7.982c3.447,4.917,7.881,8.322,11.895,12.77c6.327-3.408,11.052-9.033,17.195-12.383
			c4.055,4.286,8.086,8.547,12.135,12.827c5.811-4.649,11.514-9.213,17.217-13.777c4.014,4.594,8.024,9.189,12.041,13.791
			c2.06-1.563,4.146-3.148,6.506-4.939c0.223,2.246-1.454,3.02-2.537,4.006c-1.038,0.944-2.372,1.563-3.411,2.219
			c0,11.994,0,23.652,0,34.91c1.126,1.56,2.009,2.901,3.015,4.143c1.033,1.274,2.186,2.451,3.332,3.723
			c1.72-1.076,3.387-2.118,5.718-3.575c-2.211,4.656-6.289,6.242-9.09,9.121c-2.872,2.952-5.815,5.833-8.733,8.751
			c-4.674-5.101-9.109-9.942-13.781-15.042c1.348-1.44,2.443-2.61,3.527-3.768c0-9.997,0-19.986,0-30.541
			c-2.965-3.149-6.204-6.59-9.685-10.289c-1.211,1.021-2.292,1.931-3.284,2.766c0,12.837,0,25.491,0,38.13
			c1.664,1.664,3.313,3.312,4.708,4.708c-4.214,4.212-8.428,8.425-12.92,12.915c-1.236-1.187-2.69-2.476-4.016-3.884
			c-1.328-1.411-2.516-2.953-3.789-4.417c-1.291-1.484-2.61-2.942-4.249-4.783c0.926-1.062,1.963-2.249,3.168-3.629
			c0-10.39,0-21.026,0-31.813C910.073,65.414,907.238,62.104,903.85,58.147z"/>
		<path fill-rule="evenodd" clip-rule="evenodd" d="M88.986,27.578c7.853-6.08,14.678-11.363,22.061-17.078
			c0,16.609,0,32.506,0,48.768c3.957-1.303,5.451-4.963,8.609-6.699c3.012-1.655,4.808-5.241,8.686-6.871
			c2.029,2.412,4.073,4.844,6.121,7.275c1.981,2.353,4.861,3.935,6.108,7.275c2.021-1.442,3.996-2.852,6.435-4.592
			c-0.083,3.901-4.32,3.253-5.024,5.8c0,10.82,0.114,21.642-0.044,32.459c-0.09,6.193-0.366,12.41-1.062,18.56
			c-0.359,3.174-2.054,6.087-3.731,8.922c-3.528,5.97-8.958,9.163-15.289,11.213c-0.442,0.143-0.895,0.355-1.344,0.358
			c-3.788,0.029-7.576,0.017-11.409-0.212c4.894-1.961,9.328-4.354,11.827-9.227c0.632-1.232,1.526-2.46,1.701-3.771
			c0.355-2.673,1.432-5.16,1.41-7.953c-0.12-14.988-0.057-29.976-0.057-45.043c-1.186-1.601-2.348-3.308-3.657-4.893
			c-1.317-1.595-3.199-2.734-3.827-4.709c-1.644,1.438-3.333,2.917-5.396,4.723c0,11.999,0,24.623,0,37.008
			c1.665,1.665,3.27,3.27,5.131,5.132c0.93-0.84,2.115-1.91,3.303-2.982c0.438,0.438,0.909,0.909,1.288,1.289
			c-6.194,4.927-12.401,9.865-18.885,15.023c-4.225-3.733-8.36-7.385-12.53-11.068c-1.092,0.891-2.391,1.949-3.69,3.009
			c1.485-4.275,6.19-5.236,8.267-9.308c0-21.021,0.013-42.504-0.027-63.988c-0.003-1.554,0.694-3.345-0.973-4.582
			C93.389,29.019,91.969,27.932,88.986,27.578z"/>
		<path fill-rule="evenodd" clip-rule="evenodd" d="M667.374,25.069c7.268-5.836,15.053-10.351,22.05-15.961
			c0.046,0.029,0.188,0.085,0.275,0.188c0.097,0.113,0.206,0.27,0.206,0.407c0.009,21.641,0.009,43.28,0.009,64.918
			c1.785,0.047,1.729-1.388,2.283-2.367c0.697-1.23,1.628-2.327,2.44-3.493c0.72-1.031,1.407-2.085,2.126-3.117
			c0.813-1.166,1.656-2.311,2.47-3.477c0.718-1.031,1.405-2.085,2.124-3.117c0.813-1.166,1.656-2.311,2.469-3.477
			c0.72-1.031,1.407-2.086,2.126-3.117c0.813-1.166,1.675-2.3,2.463-3.481c0.68-1.02,1.288-2.087,2.068-3.362
			c4.133,2.542,7.948,5.355,13.274,4.131c1.923-1.158,4.188-2.521,6.765-4.073c-0.237,1.574-0.347,2.839-0.635,4.061
			c-0.318,1.352-0.703,2.705-1.239,3.981c-0.537,1.276-1.296,2.459-1.524,4.065c-2.799,2.105-5.598,4.209-8.001,6.016
			c-6.293,0.645-11.778,0.279-16.164-4.071c-1.438,0.996-1.346,2.113-0.715,3.06c4.787,7.191,9.686,14.309,14.451,21.513
			c4.313,6.521,8.502,13.123,12.855,19.858c2.545-0.94,3.859-4.307,7.7-3.998c-6.992,6.161-13.616,11.999-20.462,18.03
			c-8.811-14.088-17.592-28.127-26.67-42.641c0,7.969,0,15.412,0,23.114c1.492,1.888,3.188,4.036,4.986,6.313
			c1.895-1.349,3.641-2.592,5.902-4.203c-0.433,1.14-0.516,2.304-1.025,2.54c-2.467,1.139-3.988,3.3-5.921,5.013
			c-3.648,3.236-7.333,6.432-11.295,9.899c-0.758-0.721-1.541-1.504-2.363-2.244c-3.276-2.947-6.564-5.882-10.02-8.976
			c-1.675,1.234-3.405,2.51-5.616,4.14c0.354-1.026,0.388-1.875,0.828-2.27c2.414-2.16,4.928-4.207,7.32-6.221
			c0-22.672-0.005-45.165,0.004-67.657C672.922,30.854,672.118,27.149,667.374,25.069z"/>
		<path fill-rule="evenodd" clip-rule="evenodd" d="M615.574,57.884c-2.39,2.082-4.108,3.578-5.629,4.902c0,12.963,0,25.4,0,37.966
			c-9.587,6.186-20.053,10.748-29.458,17.114c-0.466,0.315-1.283,0.11-1.584,0.127c-5.647-4.787-11.084-9.396-16.521-14.007
			c-2.368-0.269-2.577,3.455-4.777,3c1.212-1.212,2.532-2.533,3.295-3.296c0-14.781,0-28.416,0-41.929
			c9.719-5.216,19.363-10.393,29.264-15.707c5.9,5.06,12.038,10.324,18.412,15.791C610.146,60.285,611.781,58.295,615.574,57.884z
			 M578.071,54.915c0,13.703,0,27.119,0,40.733c3.563,3.235,7.315,6.618,11.037,10.035c1.153,1.059,2.223,2.208,3.674,3.659
			c0-13.981,0-27.397,0-41.187C588.184,64.017,583.319,59.638,578.071,54.915z"/>
		<path fill-rule="evenodd" clip-rule="evenodd" d="M1064.68,68.638c3.729,2.968,7.377,5.87,11.072,8.81c0,8.034,0,16.151,0,24.141
			c-8.749,5.467-17.361,10.848-26.192,16.364c-1.372-1.204-2.784-2.869-4.565-3.885c-1.701-0.97-3.788-1.266-5.888-1.914
			c-1.287,0.938-2.831,2.061-4.218,3.069c0,1.308,0,2.303,0,3.461c1.514,1.291,3.097,2.641,4.763,4.061
			c-3.489,1.049-6.185-1.099-8.526-3.148c-2.947-2.584-3.111-6.662-4.253-10.188c1.273-2.486,1.068-5.403,2.801-7.862
			c2.488-3.527,5.64-6.354,8.569-9.423c0.901-0.943,2.075-1.733,1.615-3.288c-3.832-2.574-6.592-6.275-9.974-9.269
			c0-6.047,0-12.042,0-18.164c8.797-4.836,17.624-9.766,25.879-15.658c1.397,0.894,2.828,1.432,3.702,2.448
			c1.603,1.865,3.854,2.084,5.893,2.743c1.829,0.59,3.265-0.821,4.765-1.674c0.394-0.225,0.89-0.266,1.631-0.474
			c0.473-1.777,0.989-3.724,1.537-5.786c0.479,0.439,0.926,0.85,1.366,1.254c1.453,7.926-2.659,13.994-6.66,20.08
			C1067.046,65.781,1065.883,67.088,1064.68,68.638z M1032.871,101.532c2.575-2.721,4.78-4.342,8.099-4.762
			c2.037-0.258,3.618-0.654,5.746,0.052c1.912,0.635,3.792,1.009,5.687,2.015c3.444,1.829,5.035,5.07,7.377,8.782
			c0-8.067,0-15.179,0-22.133c-2.214-2.241-4.315-4.366-6.536-6.611c-6.801,7.049-13.588,14.082-20.361,21.126
			C1032.799,100.086,1032.871,100.322,1032.871,101.532z M1067.828,60.909c-1.297,0.757-2.269,1.759-3.313,1.843
			c-2.169,0.174-3.968,2.042-6.407,1.034c-4.677-1.932-9.416-3.68-12.238-9.767c0,4.113,0,6.915,0,9.719c0,2.969,0,5.939,0,7.924
			c2.421,2.422,4.274,4.277,6.336,6.341c1.723-1.374,3.784-2.859,5.658-4.554c2.09-1.891,4.795-3.65,5.784-6.06
			C1064.643,64.962,1067.934,64.273,1067.828,60.909z"/>
		<path fill-rule="evenodd" clip-rule="evenodd" d="M1007.871,106.278c5.568-4.285,10.943-8.422,16.317-12.559
			c0.169,1.655-0.817,2.478-1.717,3.107c-6.011,4.204-11.223,9.423-17.354,13.479c-2.135,1.411-3.957,3.287-5.973,4.89
			c-1.342,1.066-2.771,2.021-4.376,3.183c-1.193-1.193-2.192-2.263-3.265-3.252c-4.333-3.997-8.689-7.97-13.439-12.32
			c-0.75,0.906-1.428,2.062-2.413,2.817c-0.926,0.712-2.173,1.003-3.726,1.67c1.108-3.282,4.528-3.396,5.994-6.237
			c0-12.224,0-24.992,0-38.057c10.297-4.807,19.742-11.093,29.497-16.876c2.188,3.21,13.333,21.562,13.462,24.331
			c-8.602,6.279-17.27,12.607-25.963,18.953c0,1.654,0,3.306,0,5.363C998.961,98.363,1003.228,102.153,1007.871,106.278z
			 M1007.41,78.351c-3.408-7.761-8.336-14.136-12.305-21.724c0,10.581,0,20.452,0,30.718
			C999.352,84.24,1003.26,81.383,1007.41,78.351z"/>
		<path fill-rule="evenodd" clip-rule="evenodd" d="M336.031,106.367c5.498-4.159,10.969-8.299,16.711-12.644
			c-0.226,1.948-0.275,1.883-6.427,6.461c-2.591,1.928-4.862,4.28-7.392,6.296c-2.345,1.87-4.899,3.478-7.257,5.334
			c-2.528,1.991-4.933,4.14-7.504,6.314c-7.018-3.746-10.942-11.101-17.934-14.833c-1.247,1.167-2.773,2.594-4.425,4.141
			c-0.48-0.746-0.713-1.11-0.934-1.453c1.773-1.496,3.452-2.915,5.192-4.386c0-12.824,0-25.59,0-38.656
			c10.305-4.769,19.917-10.757,29.861-16.926c4.529,7.743,9.166,15.672,13.955,23.862c-8.684,6.397-17.604,12.968-26.788,19.735
			c0,1.396,0,3.179,0,4.4C327.375,98.105,331.397,101.944,336.031,106.367z M323.335,56.352
			c-0.825,10.069-0.597,27.532,0.413,30.941c4.109-3.03,8.134-5.998,12.353-9.106C332.023,71.212,327.889,64.143,323.335,56.352z"/>
		<path fill-rule="evenodd" clip-rule="evenodd" d="M185.821,46.122c4.253,7.375,8.266,15.11,13.086,22.368
			c0.305,0.459,0.04,1.297,0.04,1.86c-8.563,6.284-17.097,12.547-25.802,18.937c0,1.636,0,3.424,0,5.66
			c3.957,3.524,8.221,7.322,12.67,11.284c5.635-4.039,10.91-8.512,17.114-12.96c-1.082,3.543-3.707,4.258-5.547,5.805
			c-1.971,1.657-3.961,3.291-5.937,4.943c-2.102,1.758-4.135,3.606-6.311,5.268c-1.993,1.521-4.247,2.71-6.184,4.292
			c-1.97,1.611-3.476,3.826-6.112,4.465c-5.517-5.01-10.967-9.962-16.305-14.811c-1.941,1.286-3.967,2.628-5.993,3.97
			c-0.193-0.261-0.386-0.521-0.58-0.783c2.022-1.609,4.045-3.221,6.014-4.787c0-12.776,0-25.417,0-38.194
			C165.826,57.723,175.733,51.975,185.821,46.122z M185.729,78.249c-4.375-7.509-8.339-14.31-12.557-21.548
			c0,10.434,0,20.306,0,30.618C177.421,84.25,181.333,81.424,185.729,78.249z"/>
		<path fill-rule="evenodd" clip-rule="evenodd" d="M658.356,64.992c-2.774,0-5.272,0-7.77,0c-2.112-1.612-4.225-3.224-6.507-4.967
			c0,13.256,0,26.366,0,38.982c2.39,2.39,4.605,4.607,6.937,6.938c1.952-1.303,4.125-2.754,6.299-4.205
			c0.187,0.239,0.373,0.479,0.56,0.718c-3.016,2.707-5.955,5.501-9.067,8.093c-3.066,2.554-6.305,4.899-9.41,7.292
			c-5.75-2.742-8.442-9.337-14.45-11.914c-2.331,0.74-2.924,4.004-5.565,4.069c2.649-2.649,5.278-5.278,7.481-7.481
			c0-12.553,0-24.193,0-35.867c-1.83-2.489-3.696-5.026-5.551-7.548c-1.687,1.65-3.278,3.709-7.018,3.924
			c6.502-5.753,12.373-10.949,18.369-16.255c4.742,2.727,6.694,8.017,10.813,11.165c3.637-3.637,7.288-7.288,10.814-10.815
			c2.892,1.306,5.355,3.626,9.257,2.68c1.344-0.859,3.049-1.951,5.188-3.32c0.23,4.176-0.844,7.459-2.461,10.702
			C664.54,60.659,661.646,62.852,658.356,64.992z"/>
		<path fill-rule="evenodd" clip-rule="evenodd" d="M847.132,104.682c-2.465,1.39-3.306,3.947-6.132,4.455
			c-0.394-3.84,4.391-2.785,4.816-5.493c0-12.306,0-24.613,0-36.902c-2.167-2.549-4.357-5.127-6.786-7.986
			c-1.267,1.062-2.595,2.173-4.138,3.466c-0.417-0.389-0.812-0.758-1.187-1.108c5.523-4.878,10.819-9.555,16.403-14.487
			c2.316,2.457,4.805,4.64,6.713,7.247c1.941,2.653,4.061,4.871,6.995,6.693c1.75-1.75,3.178-3.177,4.606-4.605
			c-0.384,3.616-3.593,4.875-5.423,7.624c0,11.137,0,22.585,0,33.752c2.527,3.027,4.908,5.876,7.193,8.613
			c2.062-1.138,2.822-3.771,5.772-3.366c-5.507,5.043-11.014,10.087-16.808,15.395C855.261,113.667,851.26,109.245,847.132,104.682z
			"/>
		<path fill-rule="evenodd" clip-rule="evenodd" d="M852.47,43.17c-3.345-3.843-6.345-7.292-9.297-10.683
			c3.712-3.711,7.566-7.567,11.527-11.528c1.378-0.41,2.505,0.401,3.166,1.566c2.054,3.622,5.436,6.042,8.315,9.404
			c-2.264,2.021-4.428,4.098-6.749,5.98C857.221,39.705,855.987,42.855,852.47,43.17z"/>
		<path fill-rule="evenodd" clip-rule="evenodd" d="M35.891,34.905c0.232-0.272,0.465-0.545,0.697-0.816
			c0.105,0.104,0.21,0.21,0.315,0.314c-0.272,0.232-0.545,0.465-0.817,0.697C36.021,35.036,35.956,34.97,35.891,34.905z"/>
		<path fill-rule="evenodd" clip-rule="evenodd" d="M787.797,34.905c0.232-0.272,0.465-0.545,0.697-0.816
			c0.104,0.104,0.21,0.21,0.314,0.314c-0.272,0.232-0.544,0.465-0.816,0.697C787.927,35.036,787.861,34.97,787.797,34.905z"/>
		<path fill-rule="evenodd" clip-rule="evenodd" fill="none" d="M523.446,114.973c-2.322,0.423-4.643,0.846-7.274,1.326
			c0-14.196,0-28.056,0-42.013c3.114-2.328,3.114-2.328,9.26-2.242c0.86,0.835,1.692,1.643,2.502,2.43c0,9.999,0,19.956,0,29.913
			C527.934,110.486,527.934,110.486,523.446,114.973z"/>
		<path fill-rule="evenodd" clip-rule="evenodd" fill="none" d="M515.936,31.384c1.883-1.887,3.029-3.035,4.347-4.357
			c2.211,2.055,4.668,4.337,7.547,7.012c0,8.003,0,16.76,0,25.554c-3.384,3.017-8.793,3.046-11.894-1.139
			C515.936,49.162,515.936,39.871,515.936,31.384z"/>
		<path fill-rule="evenodd" clip-rule="evenodd" fill="none" d="M522.35,63.774c1.751-0.632,3.446-1.244,5.4-1.949
			c0,3.179,0,6.066,0,8.902c-2.083-0.254-4.068-0.492-6.051-0.737c-2.051-0.253-3.708,0.553-5.395,2.056
			c-0.725-1.734-0.262-3.49-0.348-5.167c-0.092-1.808-0.021-3.624-0.021-5.915c1.157,0.781,2.005,1.66,3.023,1.961
			C520.125,63.269,521.58,62.59,522.35,63.774z"/>
		<path fill-rule="evenodd" clip-rule="evenodd" fill="none" d="M32.695,49.152c0.141,0.235,0.291,0.368,0.291,0.502
			c0.01,12.956,0.01,25.911,0.01,39.145c-1.796,0.997-3.686,2.047-5.581,3.099c-3.318-4.362-6.559-13.038-7.542-18.288
			c-0.412-2.202-1.224-4.405-0.803-6.573c0.655-3.38,0.798-6.83,1.803-10.189c0.588-1.966,1.535-3.081,3.185-3.843
			C26.848,51.715,29.669,50.497,32.695,49.152z"/>
		<path fill-rule="evenodd" clip-rule="evenodd" fill="none" d="M773.057,54.29c4.028-1.862,7.655-3.539,11.293-5.221
			c0.104,0.064,0.245,0.117,0.332,0.217c0.1,0.112,0.212,0.268,0.212,0.404c0.01,12.96,0.009,25.92,0.009,39.132
			c-1.84,1.005-3.723,2.033-5.605,3.061c-4.124-5.793-5.056-7.733-7.608-17.836C769.914,67.023,772.404,60.877,773.057,54.29z"/>
		<path fill-rule="evenodd" clip-rule="evenodd" fill="none" d="M578.071,54.915c5.248,4.723,10.112,9.102,14.711,13.241
			c0,13.79,0,27.206,0,41.187c-1.451-1.451-2.521-2.601-3.674-3.659c-3.722-3.417-7.474-6.8-11.037-10.035
			C578.071,82.034,578.071,68.618,578.071,54.915z"/>
		<path fill-rule="evenodd" clip-rule="evenodd" fill="none" d="M1032.871,101.532c0-1.21-0.072-1.446,0.011-1.532
			c6.773-7.044,13.561-14.077,20.361-21.126c2.221,2.246,4.322,4.371,6.536,6.611c0,6.954,0,14.066,0,22.133
			c-2.342-3.712-3.933-6.953-7.377-8.782c-1.895-1.006-3.774-1.38-5.687-2.015c-2.128-0.706-3.709-0.31-5.746-0.052
			C1037.651,97.19,1035.446,98.811,1032.871,101.532z"/>
		<path fill-rule="evenodd" clip-rule="evenodd" fill="none" d="M1067.828,60.909c0.105,3.364-3.186,4.053-4.181,6.48
			c-0.989,2.41-3.694,4.168-5.784,6.06c-1.874,1.695-3.936,3.18-5.658,4.554c-2.062-2.064-3.915-3.918-6.336-6.341
			c0-1.984,0-4.955,0-7.924c0-2.804,0-5.606,0-9.719c2.822,6.086,7.562,7.835,12.238,9.767c2.439,1.007,4.238-0.86,6.407-1.034
			C1065.56,62.668,1066.531,61.666,1067.828,60.909z"/>
		<path fill-rule="evenodd" clip-rule="evenodd" fill="none" d="M1007.41,78.351c-4.15,3.033-8.059,5.89-12.305,8.994
			c0-10.266,0-20.137,0-30.718C999.074,64.215,1004.002,70.59,1007.41,78.351z"/>
		<path fill-rule="evenodd" clip-rule="evenodd" fill="none" d="M323.335,56.352c4.554,7.791,8.688,14.86,12.765,21.835
			c-4.218,3.109-8.244,6.076-12.353,9.106C322.738,83.883,322.51,66.42,323.335,56.352z"/>
		<path fill-rule="evenodd" clip-rule="evenodd" fill="none" d="M185.729,78.249c-4.397,3.175-8.308,6.001-12.557,9.07
			c0-10.313,0-20.184,0-30.618C177.39,63.939,181.354,70.74,185.729,78.249z"/>
	</g>
</g>
</svg>
