<?xml version="1.0" encoding="utf-8"?>
<!-- Generator: Adobe Illustrator 16.0.0, SVG Export Plug-In . SVG Version: 6.00 Build 0)  -->
<!DOCTYPE svg PUBLIC "-//W3C//DTD SVG 1.1//EN" "http://www.w3.org/Graphics/SVG/1.1/DTD/svg11.dtd">
<svg version="1.1" id="Layer_1" xmlns="http://www.w3.org/2000/svg" xmlns:xlink="http://www.w3.org/1999/xlink" x="0px" y="0px"
	 width="480px" height="66.72px" viewBox="0 0 480 66.72" enable-background="new 0 0 480 66.72" xml:space="preserve">
<g>
	<g>
		<path fill-rule="evenodd" clip-rule="evenodd" fill="none" d="M480.24,66.96c-160,0-320,0-480,0c0-22.24,0-44.48,0-66.72
			c160,0,320,0,480,0C480.24,22.48,480.24,44.72,480.24,66.96z M354.313,17.04c0.428,0,0.862-0.012,1.295,0.005
			c0.185,0.007,0.377,0.049,0.549,0.118c0.898,0.362,1.213,1.048,1.211,1.998c-0.016,8.6,0,17.199-0.021,25.799
			c-0.002,1.092,0.502,2.082,0.493,3.161c0.853,1.734,1.906,3.245,3.682,4.229c1.411,0.782,2.924,0.971,4.442,1.138
			c0.908,0.1,1.851-0.126,2.777-0.209c0.032-0.003,0.057-0.057,0.091-0.068c1.777-0.546,3.138-1.833,3.754-3.284
			c0.412-0.971,0.864-2.953,0.862-3.727c-0.016-6.239-0.009-12.479-0.009-18.719c0-2.6-0.014-5.2,0.012-7.799
			c0.005-0.526,0.075-1.083,0.27-1.563c0.139-0.341,0.524-0.593,0.827-0.853c0.134-0.115,0.333-0.211,0.504-0.215
			c0.919-0.021,1.843-0.053,2.759,0.008c0.47,0.031,0.909,0.199,1.17,0.735c0.273,0.562,0.472,1.088,0.471,1.731
			c-0.018,7.88-0.012,15.759-0.012,23.639c0,2.2-0.016,4.4,0.01,6.6c0.008,0.618-0.287,1.167-0.623,1.522
			c-0.296,0.313-0.843,0.62-1.423,0.561c-0.347-0.036-0.701-0.007-1.061-0.007c0,0.51,0,0.938,0,1.393c3.76,0,7.497,0,11.257,0
			c0-0.405,0.003-0.762-0.003-1.118c-0.001-0.072-0.037-0.144-0.065-0.241c-0.103-0.011-0.216-0.029-0.328-0.031
			c-0.24-0.005-0.48,0-0.72-0.002c-1.275-0.013-2-0.722-2.002-1.988c-0.005-3.88-0.002-7.76-0.002-11.64c0-1.113,0-2.227,0-3.412
			c0.676,0,1.314-0.061,1.937,0.015c0.931,0.114,1.792,0.48,2.335,1.28c0.441,0.648,0.662,1.439,0.741,2.201
			c0.107,1.042,0.101,2.09,0.237,3.142c0.21,1.631-0.104,3.289,0.235,4.943c0.199,0.973,0.01,2.013,0.263,3.016
			c0.248,0.988,0.555,1.974,1.191,2.739c0.943,1.132,2.287,1.487,3.729,1.355c0.17-0.015,0.379-0.188,0.622-0.222
			c1.404-0.196,2.188-1.177,2.59-2.388c0.206-0.622,0.333-1.329,0.31-2.048c-0.024-0.769-0.242-1.571,0.126-2.336
			c0.037-0.077-0.164-0.384-0.275-0.396c-0.424-0.048-0.857-0.019-1.32-0.019c0,1.114-0.036,2.151,0.017,3.183
			c0.021,0.427-0.185,0.738-0.334,1.069c-0.207,0.458-0.683,0.296-1.062,0.299c-0.316,0.003-0.478-0.2-0.545-0.502
			c-0.065-0.29-0.213-0.572-0.227-0.862c-0.058-1.168,0.007-2.331-0.213-3.507c-0.181-0.966-0.067-1.994-0.028-2.993
			c0.04-1.021-0.38-1.991-0.259-3.022c0.086-0.736-0.488-1.328-0.562-2.042c-1.321-1.891-2.948-3.307-5.546-3.439
			c0.291-0.197,0.452-0.396,0.63-0.413c0.8-0.075,1.502-0.424,2.229-0.712c2.061-0.817,3.744-2.331,4.614-4.608
			c0.313-0.819,0.589-1.632,0.569-2.526c-0.02-0.839-0.027-1.68,0.003-2.519c0.02-0.55-0.066-1.07-0.248-1.581
			c-0.48-1.352-0.982-2.713-2.087-3.686c-0.674-0.594-1.437-1.137-2.247-1.515c-0.866-0.404-1.823-0.642-2.763-0.85
			c-0.748-0.166-1.528-0.21-2.297-0.249c-0.798-0.04-1.599-0.009-2.399-0.009c-4.84,0-9.68,0-14.519,0c-0.347,0-0.693,0-1.012,0
			c0,0.537,0,0.966,0,1.44c0.389,0,0.746-0.029,1.096,0.006c0.575,0.059,1.027,0.221,1.334,0.848
			c0.265,0.541,0.421,1.037,0.421,1.631c-0.01,8.56-0.007,17.119-0.007,25.679c0,0.44,0.031,0.883-0.008,1.319
			c-0.041,0.45-0.109,0.907-0.24,1.338c-0.279,0.924-0.483,1.892-1.169,2.634c-1.01,1.093-3.039,1.819-4.819,1
			c-0.642-0.295-1.326-0.603-1.639-1.21c-0.668-1.297-1.252-2.641-1.249-4.162c0.013-5.56,0.005-11.12,0.005-16.679
			c0-3.48-0.002-6.96,0.001-10.439c0.001-0.921,0.405-1.582,1.23-1.855c0.427-0.141,0.909-0.116,1.344-0.164
			c0-0.479,0-0.935,0-1.385c-3.264,0-6.464,0-9.664,0C354.205,15.601,354.205,15.602,354.313,17.04z M127.932,15.386
			c-0.163,0.716-0.352,1.439-0.485,2.172c-0.116,0.64-0.062,1.328-0.269,1.931c-0.455,1.322-0.439,2.744-0.938,4.048
			c0.096,1.131-0.499,2.161-0.48,3.281c-0.396,0.417-0.15,0.967-0.293,1.438c-0.197,0.648-0.371,1.301-0.433,1.982
			c-0.055,0.607,0.004,1.315-0.292,1.787c-0.318,0.507-0.036,1.04-0.378,1.544c-0.289,0.425-0.172,1.111-0.291,1.669
			c-0.129,0.604-0.311,1.194-0.232,1.822c-0.491,0.339-0.022,0.938-0.333,1.297c-0.365,0.421,0.011,0.962-0.347,1.434
			c-0.225,0.297-0.14,0.864-0.246,1.318c-0.291,1.246-0.425,2.525-0.716,3.781c-0.159,0.69-0.288,1.413-0.382,2.129
			c-0.094,0.712-0.36,1.391-0.391,2.122c-0.017,0.402-0.147,0.812-0.291,1.194c-0.362,0.961-1.213,1.292-2.113,1.491
			c-0.37,0.082-0.774,0.014-1.046,0.014c0.012,0.366,0.134,0.724,0.006,0.897c-0.271,0.369,0.107,0.435,0.215,0.505
			c0.141,0.092,0.381,0.037,0.579,0.037c2.08,0.001,4.159,0.004,6.239,0c0.938-0.002,0.976-0.047,0.982-1.024
			c0-0.142-0.041-0.283-0.061-0.415c-0.311,0-0.551,0.007-0.791-0.001c-0.499-0.017-0.993-0.147-1.366-0.449
			c-0.41-0.33-0.472-0.856-0.419-1.375c0.076-0.752,0.373-1.478,0.441-2.205c0.114-1.222,0.439-2.397,0.562-3.627
			c2.141,0,4.249,0,6.436,0c0.081,0.402,0.151,0.805,0.246,1.203c0.06,0.252,0.194,0.49,0.227,0.743
			c0.04,0.314-0.066,0.662,0.023,0.954c0.341,1.114,0.498,2.244,0.467,3.404c-0.018,0.67-0.226,0.812-0.907,1.137
			c-0.559,0.267-1.132,0.147-1.674,0.245c0,0.5,0,0.957,0,1.374c9.525,0,18.992,0,28.501,0c0-4.271,0-8.505-0.005-12.738
			c0-0.062-0.079-0.122-0.09-0.139c-0.381,0-0.73,0-1.033,0c-0.106,1.41-0.15,2.779-0.342,4.127
			c-0.073,0.511-0.142,1.047-0.299,1.548c-0.377,1.209-0.875,2.362-1.586,3.423c-0.844,1.258-2.104,1.881-3.504,2.102
			c-1.12,0.176-2.29,0.036-3.441,0.036c-0.009-0.209-0.019-0.326-0.019-0.442c-0.001-10.757-0.001-21.515-0.001-32.271
			c0-0.16-0.006-0.32,0.002-0.479c0.006-0.114-0.009-0.266,0.056-0.333c0.481-0.497,0.928-1.06,1.727-1.036
			c0.351,0.011,0.702,0.002,1.032,0.002c0-0.534,0-0.989,0-1.396c-3.69,0-7.317,0-10.952,0c0,0.472,0,0.9,0,1.396
			c0.414,0,0.818-0.062,1.194,0.014c0.6,0.121,1.255,0.246,1.503,0.924c0.115,0.315,0.15,0.675,0.151,1.015
			c0.009,5.398,0.006,10.797,0.006,16.196c0,5.196,0,10.392,0,15.63c-0.325,0.255-0.66,0.519-0.997,0.78
			c-0.521,0.404-1.129,0.191-1.7,0.239c-0.585,0.049-1.077-0.194-1.405-0.641c-0.44-0.599-0.843-1.226-0.947-2.006
			c-0.12-0.898-0.338-1.785-0.509-2.674c-0.22-1.142-0.45-2.287-0.705-3.423c-0.109-0.489-0.092-1.017-0.255-1.451
			c-0.363-0.964-0.449-1.978-0.647-2.963c-0.202-1-0.574-1.985-0.514-3.033c-0.492-0.336-0.03-0.93-0.339-1.296
			c-0.354-0.419,0.005-0.959-0.341-1.434c-0.223-0.305-0.142-0.866-0.246-1.319c-0.285-1.248-0.373-2.536-0.739-3.778
			c-0.171-0.58-0.035-1.279-0.293-1.796c-0.287-0.575-0.087-1.188-0.406-1.76c-0.26-0.467-0.183-1.115-0.281-1.679
			c-0.09-0.525-0.341-1.026-0.236-1.581c-0.503-0.431,0.014-1.167-0.48-1.601c-0.122-1.358-0.497-2.667-0.769-4.018
			C129.504,15.386,128.756,15.386,127.932,15.386z M428.486,15.362c-0.138,0.917-0.195,1.765-0.404,2.574
			c-0.254,0.984-0.399,1.987-0.63,2.974c-0.146,0.631-0.065,1.328-0.274,1.93c-0.457,1.322-0.431,2.747-0.938,4.049
			c0.107,1.132-0.494,2.162-0.48,3.281c-0.387,0.421-0.146,0.97-0.291,1.439c-0.212,0.687-0.424,1.377-0.423,2.102
			c0.002,0.583-0.406,1.097-0.254,1.697c-0.461,0.927-0.391,1.98-0.698,2.949c-0.16,0.502-0.227,1.048-0.24,1.576
			c-0.013,0.545-0.238,1.042-0.311,1.572c-0.06,0.436-0.045,0.936-0.214,1.335c-0.387,0.916-0.473,1.9-0.645,2.842
			c-0.236,1.302-0.504,2.597-0.745,3.897c-0.096,0.518-0.332,0.898-0.607,1.317c-0.291,0.443-0.688,0.543-1.119,0.749
			c-0.545,0.261-1.075,0.074-1.614,0.248c-0.012,0.103-0.038,0.214-0.037,0.326c0.001,1.053,0.002,1.058,1.068,1.06
			c2,0.003,4,0,5.999,0c0.2,0,0.418,0.052,0.596-0.012c0.237-0.085,0.755-0.103,0.28-0.584c-0.081-0.083-0.05-0.312-0.015-0.461
			c0.025-0.109,0.143-0.198,0.286-0.382c-0.457,0-0.79,0.065-1.083-0.015c-0.46-0.125-0.949-0.174-1.342-0.534
			c-0.399-0.366-0.248-0.801-0.265-1.214c-0.02-0.458,0.014-0.893,0.2-1.354c0.175-0.434-0.081-1.005,0.273-1.447
			c-0.042-1.084,0.324-2.089,0.546-3.077c2.159,0,4.267,0,6.347,0c0.148,0.637,0.215,1.267,0.366,1.828
			c0.153,0.569,0.084,1.139,0.249,1.688c0.265,0.881,0.481,1.774,0.412,2.709c-0.044,0.585-0.369,0.984-0.978,1.173
			c-0.284,0.088-0.569,0.197-0.861,0.232c-0.341,0.041-0.689,0.009-1.032,0.009c-0.006,1.438-0.006,1.439,1.269,1.44
			c8.759,0,17.518,0,26.276,0c0.24,0,0.509,0.068,0.712-0.019c0.211-0.091,0.392-0.31,0.521-0.515
			c0.072-0.114,0.014-0.312,0.014-0.471c0-3.88,0-7.759-0.004-11.639c0-0.107-0.053-0.213-0.069-0.277c-0.393,0-0.743,0-1.045,0
			c-0.111,0.845-0.312,1.646-0.302,2.444c0.018,1.477-0.36,2.872-0.76,4.256c-0.347,1.201-1.287,2.846-2.523,3.618
			c-0.673,0.419-1.382,0.823-2.142,0.893c-1.219,0.112-2.455,0.03-3.716,0.03c0-0.481,0-0.876,0-1.272c0-8.239,0-16.478,0-24.717
			c0-2.04,0.02-4.08-0.011-6.119c-0.01-0.677,0.326-1.23,0.512-1.835c0.051-0.166,0.344-0.269,0.54-0.375
			c0.637-0.346,1.352-0.213,2.026-0.249c0.072-1.433,0.072-1.434-1.288-1.434c-2.879,0-5.759,0-8.639,0
			c-1.343,0-1.343,0.001-1.219,1.44c0.43,0,0.864-0.012,1.298,0.006c0.184,0.007,0.374,0.057,0.546,0.125
			c0.904,0.361,1.205,1.058,1.203,2.001c-0.015,8.399-0.009,16.798-0.009,25.197c0,1.88-0.002,3.76,0.001,5.64
			c0.001,0.77-0.378,1.23-1.046,1.618c-0.545,0.316-1.067,0.142-1.596,0.21c-0.583,0.076-1.022-0.211-1.437-0.586
			c-0.497-0.451-0.735-1.04-0.964-1.643c-0.416-1.104-0.458-2.288-0.681-3.429c-0.196-1.001-0.346-2.037-0.57-3.021
			c-0.316-1.388-0.555-2.794-0.867-4.183c-0.224-0.99-0.395-2.015-0.566-3.024c-0.194-1.142-0.439-2.289-0.7-3.423
			c-0.112-0.488-0.104-1.002-0.257-1.451c-0.221-0.651-0.252-1.328-0.439-1.976c-0.199-0.686-0.245-1.4-0.46-2.087
			c-0.168-0.539-0.067-1.176-0.287-1.682c-0.247-0.569-0.133-1.18-0.417-1.75c-0.242-0.486-0.199-1.116-0.272-1.684
			c-0.067-0.529-0.375-1.021-0.241-1.58c-0.489-0.435-0.001-1.163-0.48-1.601c0.034-1.159-0.573-2.204-0.504-3.354
			C430.124,15.362,429.324,15.362,428.486,15.362z M101.792,17.04c0.193,0,0.312,0.005,0.43-0.001
			c0.766-0.041,1.309,0.271,1.613,0.99c0.086,0.204,0.273,0.378,0.315,0.586c0.112,0.561,0.136,1.139,0.258,1.697
			c0.267,1.215,0.615,2.415,0.713,3.663c0.485,0.574-0.005,1.387,0.48,1.96c-0.15,0.525,0.374,0.989,0.218,1.453
			c-0.271,0.803-0.29,1.636-0.461,2.447c-0.062,0.291-0.181,0.57-0.23,0.862c-0.052,0.306,0,0.635-0.085,0.928
			c-0.283,0.977-0.405,1.986-0.629,2.975c-0.144,0.632-0.071,1.325-0.274,1.93c-0.352,1.044-0.362,2.145-0.672,3.196
			c-0.214,0.727-0.18,1.527-0.274,2.292c-0.01,0.081-0.128,0.2-0.204,0.207c-0.084,0.008-0.261-0.105-0.255-0.146
			c0.092-0.634-0.152-1.217-0.248-1.823c-0.102-0.644,0.012-1.399-0.295-1.91c-0.307-0.509,0.117-1.143-0.43-1.511
			c-0.015-0.537,0.015-1.057-0.214-1.592c-0.203-0.474-0.17-1.045-0.27-1.568c-0.122-0.637-0.173-1.293-0.314-1.915
			c-0.141-0.62-0.256-1.248-0.389-1.87c-0.136-0.635,0.003-1.398-0.306-1.906c-0.311-0.51-0.042-1.041-0.379-1.544
			c-0.252-0.377-0.045-1.026-0.263-1.559c-0.196-0.479-0.148-1.052-0.274-1.568c-0.146-0.603-0.296-1.197-0.23-1.823
			c-0.542-0.37,0.061-1.111-0.48-1.481c0-0.56-0.008-1.12,0.002-1.68c0.012-0.637,0.603-1.25,1.237-1.29
			c0.224-0.014,0.449-0.002,0.642-0.002c0-0.542,0-0.972,0-1.396c-3.152-0.146-9.081-0.095-10.042,0.084c0,0.2,0,0.4,0,0.6
			c0,0.228,0,0.455,0,0.712c0.247,0,0.402-0.002,0.559,0c1.302,0.018,2.05,0.714,2.333,2.049c0.18,0.851,0.296,1.725,0.51,2.552
			c0.356,1.383,0.577,2.792,0.879,4.181c0.216,0.993,0.352,2.033,0.57,3.021c0.307,1.388,0.567,2.792,0.87,4.182
			c0.216,0.993,0.392,2.016,0.564,3.024c0.196,1.142,0.438,2.289,0.7,3.423c0.113,0.489,0.104,1.003,0.257,1.451
			c0.222,0.651,0.251,1.329,0.439,1.976c0.199,0.685,0.349,1.396,0.442,2.086c0.137,1.021,0.437,2.004,0.556,3.031
			c0.094,0.811,0.375,1.606,0.462,2.443c0.085,0.819,0.428,1.606,0.453,2.443c0.012,0.387,0.227,0.579,0.559,0.608
			c0.437,0.038,0.889,0.063,1.314-0.015c0.201-0.036,0.464-0.3,0.511-0.504c0.138-0.593,0.026-1.293,0.301-1.793
			c0.317-0.577-0.051-1.262,0.439-1.744c-0.174-0.565,0.232-1.037,0.254-1.58c0.02-0.487,0.014-1.079,0.279-1.427
			c0.372-0.49,0.043-1.039,0.384-1.543c0.288-0.426,0.194-1.106,0.285-1.671c0.086-0.526,0.35-1.025,0.238-1.581
			c0.519-0.426,0.112-1.085,0.436-1.627c0.289-0.482,0.049-1.272,0.324-1.772c0.317-0.577-0.053-1.262,0.439-1.743
			c0.07-1.485,0.591-2.884,0.793-4.427c0.173,0.216,0.391,0.362,0.391,0.508c-0.003,0.967,0.292,1.873,0.482,2.804
			c0.234,1.142,0.369,2.301,0.719,3.423c0.168,0.54,0.174,1.129,0.256,1.696c0.076,0.527,0.363,1.022,0.24,1.58
			c0.519,0.426-0.035,1.174,0.48,1.601c0.042,1.454,0.656,2.811,0.72,4.261c0.408,0.412,0.124,0.974,0.31,1.432
			c0.244,0.601,0.271,1.248,0.401,1.872c0.125,0.597,0.148,1.215,0.264,1.815c0.031,0.165,0.228,0.42,0.355,0.424
			c0.586,0.018,1.203,0.06,1.752-0.101c0.455-0.132,0.237-0.683,0.278-1.057c0.004-0.04-0.016-0.102,0.003-0.117
			c0.461-0.351,0.161-0.932,0.44-1.387c0.256-0.419,0.195-1.031,0.278-1.557c0.077-0.487,0.043-1.039,0.27-1.444
			c0.271-0.487,0.064-1.009,0.277-1.448c0.403-0.831,0.451-1.747,0.613-2.618c0.188-1.004,0.345-2.038,0.571-3.021
			c0.337-1.466,0.6-2.945,0.944-4.405c0.115-0.489,0.059-1.016,0.256-1.446c0.383-0.837,0.468-1.746,0.625-2.612
			c0.181-1.006,0.359-2.033,0.575-3.021c0.278-1.271,0.593-2.552,0.86-3.823c0.271-1.289,0.502-2.597,0.781-3.888
			c0.205-0.947,0.327-1.924,0.715-2.821c0.303-0.7,0.611-1.445,1.568-1.469c0.511-0.542,1.235,0.03,1.783-0.342
			c0-0.117,0.003-0.236,0-0.355c-0.022-0.879-0.09-0.961-0.924-0.964c-2.28-0.006-4.56-0.006-6.839,0
			c-0.774,0.002-0.855,0.093-0.874,0.892c-0.004,0.184,0.028,0.368,0.042,0.546c0.4,0,0.749-0.083,1.033,0.019
			c0.448,0.16,0.961,0.168,1.327,0.571c0.364,0.4,0.506,0.841,0.479,1.367c-0.025,0.498-0.095,0.973-0.208,1.468
			c-0.287,1.248-0.508,2.52-0.703,3.781c-0.162,1.052-0.466,2.083-0.541,3.152c-0.02,0.291-0.178,0.57-0.223,0.862
			c-0.047,0.309,0.005,0.636-0.058,0.939c-0.115,0.546-0.401,1.08-0.405,1.621c-0.009,1.204-0.61,2.311-0.504,3.52
			c-0.545,1.418-0.533,2.957-0.949,4.405c-0.146,0.508-0.164,1.052-0.252,1.577c-0.093,0.557-0.201,1.112-0.302,1.668
			c-0.246-0.604-0.277-1.246-0.479-1.829c-0.322-0.931-0.479-1.908-0.607-2.853c-0.148-1.098-0.577-2.15-0.531-3.274
			c-0.517-0.385,0.041-1.099-0.456-1.491c0.062-0.548-0.161-1.049-0.26-1.571c-0.099-0.523-0.082-1.083-0.267-1.571
			s-0.092-1.011-0.26-1.452c-0.395-1.039-0.358-2.151-0.663-3.202c-0.159-0.544-0.021-1.223-0.294-1.672
			c-0.327-0.536,0.069-1.196-0.44-1.625c0.019-0.975-0.384-1.908-0.251-2.901c0.091-0.687,0.386-0.938,0.992-1.303
			c0.479-0.288,0.999-0.041,1.373-0.265c0-0.502,0-0.931,0-1.353c-3.354,0-6.663,0-10.002,0
			C101.792,16.084,101.792,16.513,101.792,17.04z M47.982,51.84c-0.397,0-0.714,0.002-1.031,0c-1.336-0.008-2.07-0.725-2.07-2.04
			c-0.003-4.6-0.001-9.199-0.001-13.799c0-0.39,0-0.78,0-1.177c2.752,0,5.42,0,8.069,0c0.043,0.054,0.088,0.084,0.088,0.115
			c0.003,5.039,0.008,10.079-0.002,15.118c-0.002,1.004-0.808,1.758-1.844,1.782c-0.344,0.008-0.688,0.001-0.989,0.001
			c0,0.549,0,0.979,0,1.416c3.669,0,7.298,0,10.949,0c0-0.481,0-0.938,0-1.416c-0.405,0-0.763-0.009-1.119,0.002
			c-0.604,0.019-0.961-0.391-1.383-0.73c-0.384-0.309-0.328-0.685-0.328-1.071c-0.001-10.399,0.002-20.797-0.012-31.196
			c0-0.513,0.117-0.894,0.509-1.239c0.426-0.375,0.869-0.613,1.45-0.569c0.304,0.023,0.612,0.004,0.896,0.004
			c0-0.534,0-0.963,0-1.381c-3.691,0-7.348,0-10.963,0c0,0.489,0,0.919,0,1.381c0.356,0,0.672,0.018,0.986-0.003
			c0.956-0.065,1.879,0.951,1.871,1.903c-0.041,4.559-0.018,9.119-0.021,13.678c0,0.07-0.043,0.141-0.063,0.203
			c-2.7,0-5.397,0-8.094,0c0-4.658-0.003-9.257,0.002-13.856c0.001-1.163,0.769-1.91,1.946-1.924c0.387-0.004,0.775,0,1.172,0
			c0-0.302,0.009-0.501-0.002-0.698c-0.032-0.574-0.19-0.725-0.787-0.74c-0.399-0.01-0.8-0.002-1.2-0.002c-3.073,0-6.146,0-9.243,0
			c0,0.506,0,0.962,0,1.44c0.406,0,0.763,0.009,1.119-0.002c0.605-0.018,0.961,0.392,1.383,0.73
			c0.384,0.309,0.329,0.685,0.329,1.071c0.001,10.399-0.002,20.798,0.011,31.196c0,0.513-0.117,0.894-0.509,1.239
			c-0.426,0.375-0.869,0.613-1.45,0.568c-0.304-0.023-0.612-0.004-0.896-0.004c0,0.535,0,0.964,0,1.44c1.947,0,3.86,0,5.773,0
			c1.48,0,2.96,0.004,4.439-0.001c1.017-0.004,1.02-0.012,1.032-1.097C48,52.104,47.992,52.025,47.982,51.84z M234.519,34.8
			c0.648,0,1.282-0.029,1.912,0.006c1.297,0.072,2.541,1.151,2.854,2.397c0.291,1.158,0.293,2.353,0.443,3.526
			c0.219,1.71-0.013,3.443,0.217,5.183c0.186,1.406,0.152,2.843,0.531,4.234c0.22,0.807,0.544,1.569,1.106,2.178
			c1.155,1.25,3.05,1.537,4.721,0.768c0.371-0.171,0.808-0.314,1.059-0.604c0.748-0.87,1.328-1.836,1.285-3.063
			c-0.031-0.879-0.035-1.761,0.003-2.639c0.03-0.69,0.068-0.688-0.495-0.706c-0.802-0.025-0.945,0.11-0.953,0.936
			c-0.006,0.76-0.042,1.523,0.015,2.279c0.033,0.431-0.174,0.747-0.354,1.059c-0.256,0.446-1.33,0.411-1.527-0.034
			c-0.149-0.336-0.263-0.714-0.282-1.078c-0.042-0.798,0.019-1.601-0.021-2.398c-0.041-0.809-0.257-1.62-0.209-2.419
			c0.099-1.663-0.224-3.292-0.29-4.94c-0.024-0.605-0.287-1.241-0.582-1.786c-0.51-0.941-1.361-1.615-2.104-2.371
			c-0.467,0.034-0.628-0.47-1.092-0.569c-0.722-0.154-1.401-0.525-2.199-0.506c0.178-0.188,0.347-0.362,0.542-0.402
			c1.97-0.402,3.708-1.209,5.14-2.671c1.492-1.522,2.225-3.323,2.242-5.435c0.005-0.64,0.005-1.28,0-1.919
			c-0.005-0.616-0.063-1.21-0.207-1.828c-0.319-1.367-1.012-2.5-1.877-3.543c-0.615-0.742-1.49-1.17-2.31-1.65
			c-0.879-0.515-1.885-0.794-2.847-0.91c-1.072-0.128-2.144-0.347-3.254-0.318c-2.917,0.075-5.838,0.024-8.758,0.027
			c-0.304,0-0.607,0.025-0.862,0.036c0,0.516,0,0.945,0,1.402c0.519,0,0.996-0.023,1.47,0.005c0.698,0.042,1.091,0.453,1.383,1.153
			c0.187,0.449,0.226,0.883,0.225,1.347c-0.002,9.918-0.002,19.837-0.002,29.755c0,0.24,0.073,0.511-0.014,0.714
			c-0.275,0.646-0.172,1.632-1.299,1.585c-0.514,0.536-1.226,0.02-1.778,0.322c0,0.44,0,0.869,0,1.304c3.766,0,7.502,0,11.215,0
			c0-0.483,0-0.913,0-1.387c-0.468,0-0.902,0.012-1.335-0.005c-0.185-0.007-0.377-0.051-0.548-0.12
			c-0.842-0.339-1.208-0.971-1.206-1.878c0.011-4.879,0.005-9.758,0.007-14.638C234.481,35.086,234.502,34.973,234.519,34.8z
			 M334.8,34.442c0.121,1.149-0.177,2.524,0.214,3.892c0.186,0.649,0.127,1.37,0.215,2.06c0.165,1.286,0.456,2.524,0.747,3.78
			c0.45,1.947,1.215,3.742,2.243,5.434c0.618,1.018,1.491,1.84,2.388,2.596c0.522,0.44,1.227,0.688,1.879,0.943
			c0.483,0.189,1.01,0.314,1.527,0.356c0.528,0.042,1.098,0.157,1.579-0.223c1.054,0.094,1.885-0.449,2.72-0.962
			c0.733-0.451,2.166-1.927,2.568-2.606c0.738-1.248,1.41-2.521,1.854-3.913c0.373-1.17,0.595-2.382,1.025-3.534
			c-0.174-0.565,0.258-1.036,0.245-1.58c-0.014-0.577,0.046-1.134,0.203-1.709c0.152-0.559,0.002-1.193,0.042-1.791
			c0.038-0.569,0.229-1.136,0.215-1.7c-0.033-1.248,0.103-2.489-0.183-3.75c-0.218-0.965-0.125-2.005-0.234-3.016
			c-0.123-1.146-0.38-2.271-0.59-3.384c-0.199-1.055-0.633-2.109-1.085-3.137c-1.238-2.818-1.804-3.687-3.742-5.398
			c-0.991-0.875-2.185-1.179-3.377-1.404c-1.213-0.229-2.435,0.082-3.556,0.634c-1.132,0.558-2.104,1.266-2.885,2.327
			c-0.474,0.644-0.836,1.361-1.351,1.982c-0.492,0.595-0.691,1.408-0.931,2.122c-0.329,0.98-0.579,2.015-0.826,3.031
			c-0.258,1.061-0.263,2.171-0.664,3.195c0.116,1.537-0.412,3.039-0.245,4.581C334.829,33.583,334.8,33.907,334.8,34.442z
			 M80.433,40.351c-0.155,1.197-0.012,2.315-0.219,3.459c-0.277,1.53-0.669,2.978-1.31,4.389c-0.417,0.92-1.07,1.626-1.812,2.236
			c-0.717,0.59-1.618,0.929-2.515,1.138c-0.607,0.141-1.273,0.036-1.913,0.024c-0.623-0.012-1.252,0.049-1.824-0.028
			c0-5.72,0-11.346,0-17.067c0.583,0.067,1.178-0.002,1.637,0.216c0.914,0.433,1.605,1.125,1.934,2.156
			c0.431,1.354,0.589,2.743,0.706,4.144c0.019,0.229,0.003,0.461,0.003,0.683c0.448,0,0.825,0,1.161,0c0-5.366,0-10.672,0-16.029
			c-0.417,0.02-0.792,0.037-1.18,0.055c0.042,0.861-0.099,1.622-0.178,2.388c-0.092,0.882-0.317,1.712-0.529,2.554
			c-0.115,0.457-0.747,1.22-1.027,1.5c-0.735,0.735-1.594,0.843-2.538,0.642c0-5.176,0-10.323,0-15.45
			c0.061-0.039,0.092-0.077,0.124-0.077c1.04-0.003,2.079-0.013,3.119,0.002c0.415,0.006,0.871-0.139,1.22,0.235
			c1.823,0.175,2.81,1.456,3.649,2.857c0.375,0.625,0.696,1.286,0.804,2.076c0.088,0.648,0.343,1.29,0.438,1.971
			c0.101,0.727,0.264,1.438,0.224,2.183c-0.034,0.63-0.007,1.264-0.007,1.899c0.439,0,0.815,0,1.165,0c0-4.322,0-8.589,0-12.905
			c-0.228,0-0.421,0-0.614,0c-5.797,0-11.594-0.001-17.392,0c-1.152,0-1.153,0.005-1.156,1.21c0,0.067,0.057,0.134,0.101,0.229
			c0.423,0,0.86-0.014,1.295,0.006c0.182,0.008,0.368,0.069,0.54,0.138c0.85,0.34,1.188,0.981,1.187,1.887
			c-0.011,8.436-0.006,16.872-0.006,25.308c0,1.879,0.009,3.758-0.003,5.637c-0.007,1.016-0.795,1.798-1.804,1.823
			c-0.349,0.009-0.698,0.001-1.046,0.001c0,0.519,0,0.947,0,1.392c6.321,0,12.616,0,18.904,0c0-4.315,0-8.583,0-12.88
			C81.195,40.351,80.847,40.351,80.433,40.351z M277.707,17.28c1.163,0,2.242,0.029,3.319-0.007c1.186-0.04,2.237,0.36,3.192,0.981
			c0.922,0.6,1.625,1.484,2.026,2.479c0.385,0.958,0.871,1.933,0.796,3.029c0.532,0.578,0.126,1.329,0.375,2.002
			c0.247,0.668,0.087,1.486,0.104,2.238c0.003,0.12-0.013,0.242,0.005,0.359c0.011,0.069,0.071,0.129,0.089,0.16
			c0.37,0,0.718,0,1.063,0c0.153-3.403,0.097-11.937-0.076-12.878c-6.354,0-12.7,0-19.057,0c0,0.471,0,0.899,0,1.398
			c0.412,0,0.803,0.005,1.194-0.001c0.867-0.014,1.47,0.39,1.754,1.192c0.125,0.353,0.142,0.758,0.142,1.139
			c0.007,9.956,0.006,19.912,0.006,29.869c0,0.24,0.014,0.48-0.002,0.719c-0.085,1.208-0.786,1.869-1.987,1.881
			c-0.354,0.004-0.707,0-1.13,0c0,0.279-0.011,0.51,0.002,0.739c0.029,0.526,0.185,0.677,0.708,0.7
			c0.16,0.007,0.32,0.001,0.479,0.001c5.758,0,11.516,0,17.273,0c0.23,0,0.46,0,0.678,0c0-4.368,0-8.664,0-12.918
			c-0.41,0-0.76,0-1.059,0c-0.11,1.326-0.171,2.611-0.338,3.883c-0.101,0.772-0.269,1.565-0.577,2.275
			c-0.427,0.986-0.667,2.099-1.567,2.83c-0.498,1.2-2.581,2.122-3.746,2.226c-1.217,0.108-2.451,0.024-3.664,0.024
			c0-5.727,0-11.354,0-16.962c0.062-0.039,0.093-0.074,0.125-0.076c0.16-0.006,0.321,0.009,0.479-0.004
			c1.423-0.121,2.383,0.607,2.932,1.805c0.452,0.984,0.792,2.039,0.757,3.166c-0.023,0.745-0.004,1.491-0.004,2.19
			c0.548,0,0.979,0,1.401,0c0.167-4.158,0.102-15.035-0.084-15.992c-0.438,0-0.867,0-1.317,0c0,0.762,0.006,1.478-0.001,2.194
			c-0.013,1.231-0.346,2.375-0.957,3.442c-0.554,0.969-1.27,1.652-2.496,1.522c-0.268-0.029-0.542-0.004-0.839-0.004
			C277.707,27.667,277.707,22.521,277.707,17.28z M257.311,17.28c1.315,0,2.553,0,3.792,0c0.2,0,0.427-0.062,0.595,0.011
			c0.78,0.339,1.59,0.644,2.299,1.1c0.648,0.417,1.029,1.128,1.452,1.781c0.881,1.36,1.023,2.944,1.431,4.449
			c-0.181,1.264,0.295,2.485,0.245,3.74c-0.002,0.063,0.071,0.128,0.089,0.16c0.37,0,0.72,0,1.057,0
			c0.021-0.114,0.047-0.188,0.047-0.262c0.002-3.879,0.001-7.759,0.001-11.639c0-0.12,0.007-0.24-0.001-0.36
			c-0.03-0.434-0.214-0.632-0.629-0.658c-0.239-0.015-0.48-0.002-0.72-0.002c-5.6,0-11.199,0-16.798,0c-0.346,0-0.693,0-1.017,0
			c0,0.535,0,0.963,0,1.44c0.386,0,0.743,0.029,1.093-0.007c0.542-0.056,0.915,0.33,1.346,0.522c0.22,0.099,0.237,0.591,0.415,0.859
			c0.283,0.427,0.229,0.887,0.23,1.346c0.001,9.799,0.001,19.598,0.001,29.396c0,0.2,0.047,0.415-0.009,0.597
			c-0.163,0.53-0.227,1.207-0.592,1.527c-0.407,0.355-1.002,0.685-1.67,0.566c-0.261-0.046-0.538-0.008-0.819-0.008
			c-0.014,0.191-0.03,0.305-0.029,0.42c0.011,0.976,0.043,1.018,0.989,1.019c5.759,0.002,11.519,0.003,17.278,0
			c0.829-0.001,0.93-0.108,0.93-0.958c0.003-3.6,0.001-7.199,0.001-10.798c0-0.391,0-0.781,0-1.179c-0.432,0-0.78,0-1.125,0
			c-0.202,1.466-0.242,2.928-0.556,4.354c-0.121,0.549-0.225,1.104-0.385,1.641c-0.455,1.525-1.266,2.809-2.434,3.924
			c-0.823,0.787-1.794,1.173-2.822,1.301c-1.21,0.151-2.454,0.036-3.695,0.036c0-5.711,0-11.339,0-17.04
			c0.212,0,0.405,0.019,0.592-0.003c1.293-0.151,2.62,0.822,3.014,2.244c0.159,0.573,0.428,1.105,0.466,1.728
			c0.04,0.647,0.304,1.27,0.233,1.942c-0.045,0.423-0.008,0.854-0.008,1.253c0.456,0,0.805,0,1.14,0c0-5.372,0-10.708,0-16.002
			c-0.41,0-0.759,0-1.14,0c0,0.476-0.025,0.914,0.005,1.347c0.074,1.092-0.199,2.137-0.504,3.155
			c-0.325,1.084-0.822,2.05-2.052,2.497c-0.609,0.221-1.144,0.045-1.738,0.186C257.311,27.673,257.311,22.525,257.311,17.28z
			 M398.915,17.04c0.422,0,0.779-0.003,1.136,0c1.177,0.014,1.946,0.761,1.947,1.923c0.003,10.239,0.003,20.478,0,30.716
			c0,1.197-0.982,2.14-2.21,2.162c-0.305,0.005-0.608,0.024-0.865,0.035c0,0.516,0,0.946,0,1.404c2.398,0,4.753,0.005,7.108-0.003
			c0.576-0.002,0.737-0.177,0.767-0.759c0.011-0.224,0.001-0.448,0.001-0.678c-0.434,0-0.781,0.083-1.066-0.016
			c-0.688-0.24-1.511-0.386-1.73-1.24c-0.13-0.507-0.342-0.984-0.34-1.548c0.024-8.159,0.017-16.317,0.017-24.476
			c0-0.265,0-0.529,0-0.793c0.467,0.732,0.927,1.425,0.962,2.276c0.837,1.573,1.369,3.272,2.037,4.916
			c0.39,0.958,0.84,1.895,1.172,2.873c0.346,1.017,0.751,2.021,1.164,2.998c0.546,1.292,1.085,2.595,1.594,3.899
			c0.524,1.341,0.967,2.729,1.534,4.044c0.952,2.207,1.716,4.489,2.752,6.66c0.27,0.564,0.415,1.188,0.621,1.794
			c0.601,0,1.218,0,1.843,0c0-0.454,0-0.852,0-1.25c0-10.638,0-21.277,0-31.915c0-0.926,0.083-1.124,0.471-1.965
			c0.326-0.709,0.832-1.061,1.602-1.055c0.346,0.002,0.692,0,1.011,0c0-0.538,0-0.967,0-1.44c-2.27,0-4.502-0.002-6.736,0
			c-1.146,0.001-1.148,0.005-1.144,1.222c0,0.066,0.063,0.132,0.105,0.218c0.188,0,0.386-0.001,0.583,0
			c1.551,0.008,2.426,0.879,2.427,2.425c0.001,6.399,0,12.798,0,19.197c0,0.307,0,0.613,0,0.92
			c-0.565-1.036-1.006-2.081-1.439-3.128c-0.325-0.785-0.703-1.555-0.949-2.365c-0.668-2.201-1.688-4.263-2.47-6.417
			c-0.34-0.937-0.818-1.826-1.129-2.771c-0.579-1.76-1.365-3.436-2.006-5.169c-0.436-1.178-0.942-2.332-1.348-3.52
			c-0.134-0.391-0.256-0.617-0.69-0.615c-2.233,0.006-4.466,0.003-6.733,0.003C398.915,16.076,398.915,16.505,398.915,17.04z
			 M217.68,17.28c0.534,0,0.973-0.029,1.406,0.01c0.292,0.027,0.631,0.075,0.851,0.243c0.998,0.763,1.808,1.74,2.268,2.882
			c0.44,1.093,1.071,2.169,0.995,3.426c0.533,0.373-0.067,1.112,0.48,1.48c0,0.56,0,1.119,0,1.679c0,0.51,0,1.02,0,1.493
			c0.537,0,0.984,0,1.391,0c-0.075-0.226-0.193-0.403-0.181-0.572c0.057-0.808,0.207-1.612,0.219-2.42
			c0.032-2.198,0.021-4.397,0.003-6.596c-0.004-0.531,0.09-1.059-0.2-1.597c-0.161-0.296-0.125-0.842,0.05-1.143
			c0.259-0.446-0.113-0.495-0.274-0.544c-0.255-0.079-0.553-0.021-0.833-0.021c-5.797,0-11.593,0-17.39,0c-0.2,0-0.4-0.01-0.6,0.002
			c-0.438,0.025-0.637,0.21-0.663,0.623c-0.015,0.239-0.002,0.48-0.002,0.72c0,3.518,0,7.036,0,10.554c0,0.348,0,0.696,0,1.031
			c0.446,0,0.794,0,1.172,0c0.091-0.826,0.183-1.625,0.267-2.426c0.084-0.806,0.048-1.646,0.271-2.41
			c0.248-0.851,0.383-1.757,0.803-2.54c0.421-0.786,0.736-1.621,1.304-2.348c0.815-1.044,1.74-1.612,2.972-1.525
			c0.478,0.034,0.479,0.057,0.417,0.661c-0.033,0.316-0.006,0.639-0.006,0.959c0,10.354,0,20.708-0.001,31.063
			c0,0.424,0.078,0.838-0.355,1.181c-0.462,0.366-0.878,0.737-1.516,0.701c-0.392-0.021-0.786-0.004-1.162-0.004
			c-0.04,0.121-0.082,0.191-0.083,0.262c-0.015,1.174-0.014,1.177,1.189,1.177c2.958,0.002,5.917,0,8.875,0c0.471,0,0.942,0,1.391,0
			c0-0.533,0-0.988,0-1.44c-0.423,0-0.783,0.004-1.143,0c-1.157-0.015-1.913-0.776-1.913-1.956
			C217.679,39.052,217.68,28.22,217.68,17.28z M306,51.84c-0.46,0-0.82-0.023-1.175,0.005c-0.636,0.051-1.066-0.289-1.539-0.649
			c-0.48-0.366-0.404-0.818-0.405-1.283c-0.002-10.477-0.001-20.954-0.001-31.431c0-0.39,0-0.781,0-1.244
			c0.646,0.163,1.183-0.018,1.792,0.221c1.262,0.494,1.942,1.494,2.477,2.566c1.066,2.14,1.58,4.452,1.726,6.839
			c0.034,0.548,0.005,1.101,0.005,1.634c0.452,0,0.828,0,1.158,0c0-4.329,0-8.596,0-12.876c-6.549,0-13.056,0-19.591,0
			c0,4.318,0,8.614,0,12.909c0.395,0,0.743,0,1.13,0c0.084-0.784,0.014-1.546,0.227-2.313c0.19-0.686,0.13-1.443,0.239-2.175
			c0.233-1.583,0.791-3.05,1.513-4.418c0.799-1.514,1.991-2.673,4.005-2.293c0.013,0.102,0.038,0.212,0.038,0.323
			C297.6,28.413,297.6,39.17,297.6,49.927c0,0.04,0.001,0.08,0,0.12c-0.03,1.005-0.812,1.771-1.838,1.792
			c-0.427,0.009-0.854,0.001-1.282,0.001c0,0.231-0.002,0.35,0,0.468c0.021,0.889,0.084,0.966,0.918,0.97
			c1.599,0.007,3.199,0.002,4.798,0.002c1.912,0,3.824,0,5.698,0c0.061-0.084,0.102-0.115,0.102-0.146
			C306.001,52.737,306,52.339,306,51.84z M31.92,51.84c-0.459,0-0.818,0.02-1.174-0.004c-0.893-0.06-1.595-0.321-1.988-1.284
			c-0.18-0.44-0.189-0.828-0.19-1.238c-0.01-10.277-0.008-20.554-0.008-30.831c0-0.39,0-0.781,0-1.204
			c0.356,0,0.633,0.018,0.906-0.003c1.107-0.084,1.98,0.427,2.585,1.254c0.611,0.834,1.178,1.755,1.5,2.727
			c0.217,0.654,0.458,1.339,0.581,2.055c0.111,0.647,0.267,1.318,0.411,1.974c0.155,0.71,0.189,1.448,0.252,2.177
			c0.03,0.348,0.005,0.702,0.005,1.036c0.451,0,0.827,0,1.158,0c0-4.329,0-8.596,0-12.861c-4.421-0.174-18.629-0.104-19.592,0.086
			c0,4.275,0,8.542,0,12.808c0.394,0,0.743,0,1.127,0c0.092-1.144-0.044-2.271,0.232-3.39c0.123-0.5,0.111-1.061,0.28-1.57
			c0.176-0.53,0.307-1.086,0.424-1.615c0.193-0.87,0.652-1.592,1.039-2.334c0.814-1.562,2.038-2.598,4.052-2.303
			c0,0.155,0,0.305,0,0.455c0,10.597-0.008,21.194,0.019,31.791c0.002,0.665-0.338,1.147-0.552,1.699
			c-0.062,0.161-0.374,0.218-0.563,0.337c-0.625,0.391-1.358,0.147-1.986,0.28c0,0.5,0,0.929,0,1.398
			c3.591,0,7.144,0.003,10.696-0.003c0.594-0.001,0.752-0.167,0.785-0.741C31.929,52.339,31.92,52.141,31.92,51.84z M187.92,40.347
			c0,4.006,0,7.923,0,11.842c0,0.2-0.057,0.424,0.015,0.593c0.081,0.191,0.249,0.4,0.432,0.48c0.208,0.091,0.486,0.045,0.615-0.21
			c0.217-0.429,0.435-0.86,0.611-1.307c0.162-0.409,0.375-0.526,0.716-0.265c0.42,0.323,0.88,0.576,1.321,0.859
			c1.363,0.875,2.922,0.946,4.438,1.152c0.498,0.068,1.039,0.148,1.601-0.169c0.413-0.233,1.027-0.128,1.563-0.249
			c1.823-0.413,3.197-1.44,4.277-2.881c1.194-1.592,1.574-3.472,1.688-5.415c0.093-1.597-0.053-3.178-0.487-4.716
			c-0.291-1.032-0.543-2.111-1.053-3.037c-0.829-1.508-1.824-2.938-3.114-4.108c-1.063-0.966-2.143-1.922-3.292-2.781
			c-0.438-0.328-0.802-0.736-1.246-1.032c-1.291-0.859-2.276-2.009-3.195-3.225c-0.268-0.354-0.518-0.746-0.669-1.159
			c-0.165-0.451-0.387-0.888-0.396-1.402c-0.008-0.448-0.201-0.893-0.208-1.34c-0.005-0.366,0.2-0.732,0.208-1.101
			c0.01-0.468,0.089-0.904,0.25-1.341c0.393-1.073,1.143-1.827,2.169-2.238c0.981-0.393,2.022-0.414,3.033-0.015
			c0.882,0.348,1.809,0.725,2.358,1.49c0.467,0.65,0.908,1.347,1.252,2.109c0.601,1.332,0.873,2.743,0.979,4.136
			c0.094,1.24,0.465,2.458,0.271,3.783c0.225,0,0.377,0.012,0.526-0.002c0.531-0.048,0.677-0.197,0.696-0.711
			c0.009-0.239,0.001-0.479,0.001-0.719c0-3.439,0-6.878,0-10.317c0-0.391,0-0.782,0-1.189c-0.425,0-0.773,0-1.078,0
			c-0.313,0.584-0.608,1.134-0.9,1.677c-0.328-0.28-0.567-0.563-0.869-0.729c-1.602-0.886-3.279-1.503-5.157-1.466
			c-0.552,0.011-1.053,0.185-1.581,0.249c-1.821,0.221-3.249,1.175-4.31,2.565c-1.174,1.539-1.665,3.691-1.7,5.283
			c-0.018,0.813,0.083,1.615,0.188,2.426c0.148,1.145,0.485,2.195,0.944,3.221c0.498,1.114,1.156,2.131,2.028,2.999
			c0.822,0.818,1.567,1.735,2.479,2.436c1.126,0.865,2.275,1.705,3.322,2.663c1.259,1.153,2.402,2.403,3.252,3.922
			c0.654,1.169,1.002,2.412,1.201,3.699c0.115,0.742,0.091,1.524,0.001,2.273c-0.092,0.776-0.186,1.619-0.556,2.277
			c-0.494,0.879-1.145,1.674-2.213,2.071c-1.016,0.377-2.047,0.542-3.06,0.372c-0.776-0.131-1.56-0.528-2.212-0.987
			c-0.673-0.474-1.279-1.104-1.762-1.775c-1.135-1.576-1.693-3.429-1.885-5.315c-0.113-1.113-0.455-2.211-0.271-3.375
			C188.708,40.347,188.359,40.347,187.92,40.347z M158.675,17.04c0.502,0,0.94-0.014,1.376,0.007
			c0.181,0.009,0.365,0.077,0.537,0.145c0.86,0.337,1.181,0.984,1.179,1.891c-0.012,8.836-0.007,17.672-0.007,26.509
			c0,1.479,0.01,2.958-0.003,4.438c-0.009,1.009-0.803,1.789-1.817,1.809c-0.508,0.011-1.016,0.002-1.508,0.002
			c0,0.528,0,0.957,0,1.405c0.142,0.014,0.255,0.034,0.368,0.034c5.837,0.001,11.675,0.001,17.512,0.001
			c0.2,0,0.43,0.063,0.592-0.016c0.184-0.09,0.383-0.283,0.438-0.471c0.075-0.258,0.019-0.555,0.019-0.834c0-3.479,0-6.957,0-10.436
			c0-0.39,0-0.781,0-1.179c-0.431,0-0.779,0-1.124,0c-0.108,0.66-0.296,1.296-0.298,1.933c-0.005,1.241-0.217,2.437-0.484,3.643
			c-0.408,1.846-1.426,3.572-2.583,4.56c-0.825,0.705-1.784,0.991-2.784,1.096c-1.061,0.111-2.143,0.025-3.287,0.025
			c0-0.199,0-0.349,0-0.5c0-10.595,0-21.191,0-31.786c0-0.16-0.052-0.345,0.01-0.475c0.206-0.435,0.178-0.959,0.581-1.325
			c0.401-0.364,0.841-0.504,1.367-0.479c0.386,0.019,0.772,0.004,1.163,0.004c0-0.229,0.002-0.348,0-0.466
			c-0.021-0.893-0.082-0.964-0.916-0.972c-0.919-0.008-1.839-0.002-2.759-0.002c-2.512,0-5.024,0-7.57,0
			C158.675,16.077,158.675,16.506,158.675,17.04z M319.455,47.595c0.45-0.121,0.819-0.194,1.168-0.32
			c0.963-0.347,1.686-1.395,1.696-2.431c0.005-0.519,0.003-1.039,0-1.559c0-0.157,0.039-0.344-0.031-0.465
			c-0.499-0.858-1.637-1.787-3.085-1.341c-1.616,0.498-2.311,1.835-2.365,2.879c-0.06,1.156-0.094,2.317,0.167,3.504
			c0.722,3.278,3.474,5.646,6.763,5.679c0.527,0.005,0.955-0.274,1.459-0.265c1.297,0.023,2.402-0.452,3.483-1.162
			c0.51-0.334,0.867-0.777,1.312-1.148c0.444-0.371,0.697-0.868,0.967-1.391c0.626-1.214,0.904-2.504,0.91-3.815
			c0.039-8.754,0.02-17.508,0.02-26.262c0-0.24-0.009-0.48,0.002-0.719c0.041-0.949,0.809-1.705,1.77-1.737
			c0.351-0.012,0.704-0.002,1.051-0.002c0-0.524,0-0.98,0-1.403c-3.683,0-7.31,0-10.983,0c0,0.27-0.005,0.503,0.001,0.736
			c0.006,0.224,0.025,0.448,0.038,0.667c0.483,0,0.886-0.031,1.282,0.008c0.523,0.051,0.864,0.431,1.254,0.743
			c0.351,0.281,0.304,0.613,0.304,0.962c0.001,9.913,0.002,19.826-0.003,29.739c0,0.608-0.18,1.19-0.433,1.738
			c-0.683,1.48-1.994,1.901-3.59,1.514C320.707,51.282,319.24,49.332,319.455,47.595z M462.747,48.467
			c-0.282,0.017-0.672-0.076-0.895,0.076c-0.684,0.465-1.131,1.176-1.271,1.971c-0.212,1.194,0.539,2.378,1.649,2.885
			c0.343,0.156,0.637,0.156,0.979,0c1.187-0.541,1.904-1.757,1.656-3.006c-0.136-0.685-0.545-1.237-1.082-1.716
			C463.45,48.379,463.111,48.545,462.747,48.467z"/>
		<path fill-rule="evenodd" clip-rule="evenodd" d="M354.313,17.04c-0.108-1.438-0.108-1.439,1.239-1.44c3.2,0,6.399,0,9.664,0
			c0,0.451,0,0.906,0,1.385c-0.435,0.048-0.917,0.023-1.344,0.164c-0.826,0.273-1.229,0.934-1.23,1.855
			c-0.004,3.479-0.001,6.959-0.001,10.439c0,5.56,0.008,11.12-0.005,16.679c-0.003,1.521,0.581,2.865,1.249,4.162
			c0.313,0.607,0.997,0.915,1.639,1.21c1.78,0.819,3.81,0.092,4.819-1c0.686-0.742,0.89-1.71,1.169-2.634
			c0.131-0.431,0.199-0.888,0.24-1.338c0.04-0.437,0.008-0.879,0.008-1.319c0-8.56-0.003-17.119,0.007-25.679
			c0-0.594-0.156-1.09-0.421-1.631c-0.307-0.626-0.759-0.789-1.334-0.848c-0.35-0.036-0.707-0.006-1.096-0.006
			c0-0.474,0-0.903,0-1.44c0.319,0,0.666,0,1.012,0c4.839,0,9.679,0,14.519,0c0.8,0,1.602-0.031,2.399,0.009
			c0.769,0.039,1.549,0.083,2.297,0.249c0.94,0.208,1.896,0.446,2.763,0.85c0.81,0.378,1.572,0.921,2.247,1.515
			c1.104,0.973,1.606,2.333,2.087,3.686c0.181,0.511,0.268,1.031,0.248,1.581c-0.03,0.839-0.023,1.68-0.003,2.519
			c0.02,0.894-0.256,1.707-0.569,2.526c-0.87,2.278-2.553,3.792-4.614,4.608c-0.727,0.288-1.429,0.637-2.229,0.712
			c-0.179,0.017-0.34,0.216-0.63,0.413c2.599,0.132,4.226,1.548,5.546,3.439c0.074,0.714,0.648,1.305,0.562,2.042
			c-0.121,1.031,0.299,2.001,0.259,3.022c-0.039,0.999-0.152,2.027,0.028,2.993c0.22,1.176,0.155,2.338,0.213,3.507
			c0.014,0.29,0.162,0.572,0.227,0.862c0.067,0.302,0.229,0.505,0.545,0.502c0.379-0.003,0.855,0.159,1.062-0.299
			c0.149-0.332,0.355-0.643,0.334-1.069c-0.053-1.032-0.017-2.069-0.017-3.183c0.462,0,0.896-0.029,1.32,0.019
			c0.112,0.013,0.313,0.319,0.275,0.396c-0.368,0.765-0.15,1.567-0.126,2.336c0.023,0.719-0.104,1.426-0.31,2.048
			c-0.402,1.211-1.186,2.192-2.59,2.388c-0.242,0.034-0.451,0.207-0.622,0.222c-1.442,0.132-2.786-0.224-3.729-1.355
			c-0.636-0.765-0.943-1.751-1.191-2.739c-0.252-1.003-0.063-2.043-0.263-3.016c-0.339-1.654-0.025-3.313-0.235-4.943
			c-0.136-1.051-0.129-2.1-0.237-3.142c-0.079-0.762-0.3-1.553-0.741-2.201c-0.544-0.8-1.404-1.167-2.335-1.28
			c-0.622-0.076-1.26-0.015-1.937-0.015c0,1.185,0,2.299,0,3.412c0,3.88-0.003,7.76,0.002,11.64
			c0.002,1.266,0.727,1.975,2.002,1.988c0.24,0.003,0.48-0.003,0.72,0.002c0.112,0.002,0.225,0.021,0.328,0.031
			c0.028,0.098,0.064,0.169,0.065,0.241c0.006,0.356,0.003,0.713,0.003,1.118c-3.76,0-7.497,0-11.257,0c0-0.454,0-0.882,0-1.393
			c0.36,0,0.713-0.029,1.061,0.007c0.58,0.059,1.127-0.249,1.423-0.561c0.336-0.355,0.631-0.904,0.623-1.522
			c-0.026-2.2-0.01-4.4-0.01-6.6c0-7.88-0.006-15.759,0.012-23.639c0.001-0.644-0.197-1.169-0.471-1.731
			c-0.261-0.537-0.7-0.704-1.17-0.735c-0.916-0.061-1.839-0.029-2.759-0.008c-0.171,0.004-0.37,0.1-0.504,0.215
			c-0.302,0.26-0.688,0.512-0.827,0.853c-0.195,0.48-0.265,1.038-0.27,1.563c-0.025,2.6-0.012,5.2-0.012,7.799
			c0,6.24-0.007,12.479,0.009,18.719c0.002,0.773-0.45,2.756-0.862,3.727c-0.616,1.451-1.977,2.737-3.754,3.284
			c-0.034,0.011-0.059,0.065-0.091,0.068c-0.926,0.083-1.869,0.31-2.777,0.209c-1.518-0.167-3.031-0.356-4.442-1.138
			c-1.776-0.983-2.829-2.494-3.682-4.229c0.01-1.079-0.495-2.069-0.493-3.161c0.021-8.6,0.005-17.199,0.021-25.799
			c0.002-0.95-0.313-1.636-1.211-1.998c-0.172-0.069-0.364-0.111-0.549-0.118C355.176,17.028,354.742,17.04,354.313,17.04z
			 M384.5,33.12c0.608,0,1.125,0.009,1.643-0.002c1.926-0.038,3.513-1.145,4.311-3.018c0.197-0.462,0.396-0.981,0.471-1.472
			c0.087-0.563,0.251-1.146,0.242-1.691c-0.026-1.563,0.208-3.127-0.177-4.699c-0.299-1.22-0.482-2.417-1.42-3.378
			c-0.655-0.672-2.056-1.548-2.927-1.575c-0.708-0.022-1.417-0.005-2.143-0.005C384.5,22.582,384.5,27.803,384.5,33.12z"/>
		<path fill-rule="evenodd" clip-rule="evenodd" d="M127.932,15.386c0.824,0,1.572,0,2.339,0c0.271,1.351,0.646,2.66,0.769,4.018
			c0.494,0.434-0.023,1.17,0.48,1.601c-0.105,0.555,0.146,1.055,0.236,1.581c0.098,0.564,0.021,1.212,0.281,1.679
			c0.318,0.572,0.119,1.185,0.406,1.76c0.258,0.518,0.122,1.217,0.293,1.796c0.366,1.242,0.454,2.53,0.739,3.778
			c0.104,0.453,0.023,1.014,0.246,1.319c0.346,0.475-0.013,1.015,0.341,1.434c0.31,0.366-0.153,0.96,0.339,1.296
			c-0.06,1.048,0.313,2.034,0.514,3.033c0.199,0.985,0.284,1.999,0.647,2.963c0.164,0.434,0.146,0.962,0.255,1.451
			c0.254,1.136,0.484,2.281,0.705,3.423c0.171,0.889,0.39,1.775,0.509,2.674c0.104,0.78,0.506,1.408,0.947,2.006
			c0.329,0.447,0.82,0.69,1.405,0.641c0.571-0.048,1.18,0.165,1.7-0.239c0.337-0.261,0.672-0.525,0.997-0.78
			c0-5.238,0-10.435,0-15.63c0-5.399,0.002-10.797-0.006-16.196c0-0.34-0.036-0.7-0.151-1.015c-0.249-0.678-0.904-0.803-1.503-0.924
			c-0.376-0.076-0.78-0.014-1.194-0.014c0-0.497,0-0.925,0-1.396c3.634,0,7.262,0,10.952,0c0,0.408,0,0.863,0,1.396
			c-0.33,0-0.681,0.009-1.032-0.002c-0.799-0.024-1.246,0.54-1.727,1.036c-0.065,0.067-0.05,0.219-0.056,0.333
			c-0.009,0.159-0.002,0.32-0.002,0.479c0,10.757,0,21.514,0.001,32.271c0,0.116,0.01,0.233,0.019,0.442
			c1.152,0,2.321,0.141,3.441-0.036c1.399-0.22,2.66-0.844,3.504-2.102c0.711-1.061,1.208-2.214,1.586-3.423
			c0.157-0.501,0.226-1.038,0.299-1.548c0.192-1.348,0.235-2.717,0.342-4.127c0.303,0,0.652,0,1.033,0
			c0.011,0.017,0.09,0.077,0.09,0.139c0.006,4.233,0.005,8.466,0.005,12.738c-9.509,0-18.976,0-28.501,0c0-0.417,0-0.873,0-1.374
			c0.542-0.098,1.115,0.022,1.674-0.245c0.681-0.325,0.889-0.467,0.907-1.137c0.031-1.161-0.126-2.291-0.467-3.404
			c-0.089-0.292,0.017-0.64-0.023-0.954c-0.032-0.253-0.167-0.491-0.227-0.743c-0.095-0.397-0.165-0.801-0.246-1.203
			c-2.187,0-4.294,0-6.436,0c-0.123,1.23-0.447,2.405-0.562,3.627c-0.068,0.727-0.365,1.453-0.441,2.205
			c-0.053,0.519,0.009,1.045,0.419,1.375c0.373,0.301,0.868,0.432,1.366,0.449c0.24,0.008,0.48,0.001,0.791,0.001
			c0.021,0.132,0.062,0.273,0.061,0.415c-0.006,0.977-0.045,1.021-0.982,1.024c-2.08,0.004-4.159,0.001-6.239,0
			c-0.197,0-0.438,0.055-0.579-0.037c-0.107-0.07-0.486-0.137-0.215-0.505c0.128-0.173,0.005-0.531-0.006-0.897
			c0.272,0,0.676,0.068,1.046-0.014c0.9-0.198,1.75-0.529,2.113-1.491c0.144-0.382,0.273-0.792,0.291-1.194
			c0.031-0.731,0.297-1.41,0.391-2.122c0.094-0.716,0.223-1.439,0.382-2.129c0.291-1.256,0.425-2.535,0.716-3.781
			c0.105-0.454,0.021-1.021,0.246-1.318c0.357-0.472-0.019-1.013,0.347-1.434c0.312-0.358-0.158-0.958,0.333-1.297
			c-0.079-0.628,0.103-1.219,0.232-1.822c0.119-0.558,0.002-1.244,0.291-1.669c0.343-0.504,0.06-1.037,0.378-1.544
			c0.297-0.472,0.238-1.179,0.292-1.787c0.062-0.682,0.236-1.334,0.433-1.982c0.143-0.471-0.103-1.02,0.293-1.438
			c-0.018-1.12,0.576-2.15,0.48-3.281c0.499-1.304,0.483-2.726,0.938-4.048c0.208-0.603,0.153-1.291,0.269-1.931
			C127.58,16.825,127.77,16.103,127.932,15.386z M124.753,42.48c1.645,0,3.123,0,4.601,0c0.24,0,0.495,0.051,0.715-0.014
			c0.249-0.073,0.744-0.13,0.262-0.575c0.146-0.599-0.239-1.114-0.264-1.693c-0.026-0.608-0.135-1.215-0.233-1.818
			c-0.048-0.292-0.184-0.569-0.226-0.861c-0.045-0.311,0.092-0.721-0.063-0.925c-0.232-0.306-0.131-0.596-0.19-0.891
			c-0.057-0.291-0.188-0.569-0.229-0.861c-0.1-0.723-0.062-1.484-0.28-2.166c-0.173-0.54-0.192-1.053-0.207-1.589
			c-0.587-0.454,0.102-1.263-0.48-1.718c0.093-0.629-0.197-1.218-0.211-1.819c-0.014-0.592-0.292-1.075-0.345-1.757
			c-0.401,0.984-0.436,1.905-0.589,2.782c-0.109,0.628-0.304,1.268-0.308,1.928c-0.002,0.287-0.176,0.569-0.219,0.86
			c-0.045,0.311,0.046,0.654-0.049,0.941c-0.385,1.157-0.438,2.374-0.642,3.559c-0.115,0.67-0.459,1.335-0.276,2.052
			c-0.371,0.479-0.042,1.139-0.29,1.55c-0.311,0.516,0.036,1.069-0.236,1.461C124.646,41.429,124.907,41.913,124.753,42.48z"/>
		<path fill-rule="evenodd" clip-rule="evenodd" d="M428.486,15.362c0.838,0,1.638,0,2.529,0c-0.069,1.15,0.538,2.195,0.504,3.354
			c0.479,0.438-0.009,1.166,0.48,1.601c-0.134,0.56,0.174,1.051,0.241,1.58c0.073,0.568,0.03,1.198,0.272,1.684
			c0.284,0.57,0.17,1.181,0.417,1.75c0.22,0.506,0.119,1.143,0.287,1.682c0.215,0.688,0.261,1.402,0.46,2.087
			c0.188,0.647,0.219,1.324,0.439,1.976c0.152,0.449,0.145,0.962,0.257,1.451c0.261,1.135,0.506,2.281,0.7,3.423
			c0.172,1.009,0.343,2.034,0.566,3.024c0.313,1.388,0.551,2.795,0.867,4.183c0.225,0.984,0.374,2.02,0.57,3.021
			c0.223,1.142,0.265,2.325,0.681,3.429c0.229,0.603,0.467,1.192,0.964,1.643c0.414,0.375,0.854,0.662,1.437,0.586
			c0.528-0.069,1.051,0.105,1.596-0.21c0.668-0.388,1.047-0.848,1.046-1.618c-0.003-1.88-0.001-3.76-0.001-5.64
			c0-8.398-0.006-16.798,0.009-25.197c0.002-0.943-0.299-1.64-1.203-2.001c-0.172-0.068-0.362-0.118-0.546-0.125
			c-0.434-0.018-0.868-0.006-1.298-0.006c-0.124-1.438-0.124-1.439,1.219-1.44c2.88,0,5.76,0,8.639,0c1.36,0,1.36,0.001,1.288,1.434
			c-0.675,0.036-1.39-0.097-2.026,0.249c-0.196,0.106-0.489,0.209-0.54,0.375c-0.186,0.605-0.521,1.158-0.512,1.835
			c0.03,2.039,0.011,4.079,0.011,6.119c0,8.239,0,16.478,0,24.717c0,0.396,0,0.791,0,1.272c1.261,0,2.497,0.082,3.716-0.03
			c0.76-0.07,1.469-0.473,2.142-0.893c1.236-0.772,2.177-2.417,2.523-3.618c0.399-1.384,0.777-2.779,0.76-4.256
			c-0.01-0.798,0.19-1.599,0.302-2.444c0.302,0,0.652,0,1.045,0c0.017,0.063,0.069,0.17,0.069,0.277
			c0.004,3.879,0.004,7.759,0.004,11.639c0,0.16,0.059,0.357-0.014,0.471c-0.129,0.205-0.31,0.424-0.521,0.515
			c-0.203,0.087-0.472,0.019-0.712,0.019c-8.759,0-17.518,0-26.276,0c-1.274,0-1.274-0.002-1.269-1.44
			c0.343,0,0.691,0.031,1.032-0.009c0.292-0.035,0.577-0.144,0.861-0.232c0.608-0.189,0.934-0.588,0.978-1.173
			c0.069-0.935-0.147-1.829-0.412-2.709c-0.165-0.549-0.096-1.118-0.249-1.688c-0.151-0.562-0.218-1.191-0.366-1.828
			c-2.08,0-4.188,0-6.347,0c-0.222,0.987-0.588,1.993-0.546,3.077c-0.354,0.442-0.098,1.013-0.273,1.447
			c-0.187,0.461-0.22,0.896-0.2,1.354c0.018,0.413-0.134,0.848,0.265,1.214c0.393,0.36,0.881,0.41,1.342,0.534
			c0.293,0.08,0.626,0.015,1.083,0.015c-0.144,0.185-0.261,0.273-0.286,0.382c-0.035,0.149-0.066,0.378,0.015,0.461
			c0.475,0.482-0.043,0.499-0.28,0.584c-0.178,0.064-0.396,0.012-0.596,0.012c-2,0-4,0.003-5.999,0
			c-1.066-0.002-1.067-0.007-1.068-1.06c0-0.111,0.025-0.223,0.037-0.326c0.539-0.174,1.069,0.013,1.614-0.248
			c0.432-0.206,0.829-0.306,1.119-0.749c0.275-0.418,0.511-0.799,0.607-1.317c0.241-1.3,0.509-2.595,0.745-3.897
			c0.171-0.942,0.257-1.927,0.645-2.842c0.169-0.4,0.154-0.899,0.214-1.335c0.073-0.531,0.298-1.027,0.311-1.572
			c0.013-0.528,0.08-1.074,0.24-1.576c0.307-0.968,0.236-2.021,0.698-2.949c-0.152-0.6,0.256-1.115,0.254-1.697
			c-0.001-0.725,0.21-1.415,0.423-2.102c0.145-0.469-0.096-1.018,0.291-1.439c-0.014-1.119,0.588-2.148,0.48-3.281
			c0.507-1.303,0.48-2.727,0.938-4.049c0.209-0.603,0.128-1.299,0.274-1.93c0.23-0.987,0.376-1.99,0.63-2.974
			C428.291,17.127,428.349,16.278,428.486,15.362z M431.057,42.48c-0.091-0.862-0.042-1.701-0.287-2.443
			c-0.371-1.125-0.3-2.315-0.669-3.434c-0.139-0.417-0.057-0.885-0.227-1.345c-0.163-0.44-0.134-0.96-0.24-1.453
			c-0.294-1.365-0.481-2.756-0.712-4.135c-0.099-0.595-0.265-1.192-0.298-1.81c-0.034-0.639-0.193-1.271-0.311-1.984
			c-0.156,0.176-0.386,0.319-0.375,0.441c0.063,0.749-0.19,1.454-0.241,2.18c-0.05,0.693-0.421,1.342-0.257,2.057
			c-0.563,0.462,0.1,1.262-0.476,1.721c0.096,0.667-0.139,1.293-0.245,1.936c-0.105,0.641-0.158,1.306-0.304,1.919
			c-0.175,0.737-0.205,1.492-0.411,2.218c-0.215,0.76-0.159,1.572-0.461,2.326c-0.181,0.452,0.217,1.032-0.262,1.448
			c0.085,0.084,0.156,0.198,0.258,0.247c0.131,0.063,0.287,0.105,0.433,0.106C427.642,42.482,429.312,42.48,431.057,42.48z"/>
		<path fill-rule="evenodd" clip-rule="evenodd" d="M101.792,17.04c0-0.527,0-0.956,0-1.412c3.339,0,6.647,0,10.002,0
			c0,0.421,0,0.85,0,1.353c-0.374,0.224-0.893-0.023-1.373,0.265c-0.606,0.364-0.901,0.616-0.992,1.303
			c-0.133,0.994,0.27,1.927,0.251,2.901c0.509,0.429,0.113,1.089,0.44,1.625c0.273,0.449,0.135,1.128,0.294,1.672
			c0.305,1.051,0.269,2.163,0.663,3.202c0.167,0.441,0.075,0.965,0.26,1.452s0.168,1.048,0.267,1.571
			c0.099,0.522,0.321,1.023,0.26,1.571c0.497,0.392-0.061,1.106,0.456,1.491c-0.046,1.124,0.383,2.176,0.531,3.274
			c0.127,0.945,0.285,1.922,0.607,2.853c0.202,0.583,0.233,1.225,0.479,1.829c0.101-0.556,0.208-1.111,0.302-1.668
			c0.088-0.525,0.106-1.069,0.252-1.577c0.417-1.448,0.404-2.986,0.949-4.405c-0.106-1.209,0.495-2.316,0.504-3.52
			c0.004-0.541,0.291-1.074,0.405-1.621c0.063-0.304,0.011-0.63,0.058-0.939c0.045-0.292,0.203-0.571,0.223-0.862
			c0.075-1.068,0.378-2.1,0.541-3.152c0.195-1.261,0.417-2.534,0.703-3.781c0.114-0.495,0.183-0.971,0.208-1.468
			c0.027-0.526-0.114-0.966-0.479-1.367c-0.366-0.403-0.879-0.411-1.327-0.571c-0.284-0.102-0.633-0.019-1.033-0.019
			c-0.014-0.178-0.046-0.362-0.042-0.546c0.019-0.799,0.1-0.89,0.874-0.892c2.279-0.007,4.559-0.006,6.839,0
			c0.833,0.002,0.902,0.085,0.924,0.964c0.003,0.12,0,0.239,0,0.355c-0.548,0.373-1.272-0.2-1.783,0.342
			c-0.957,0.024-1.265,0.769-1.568,1.469c-0.389,0.896-0.511,1.874-0.715,2.821c-0.279,1.292-0.51,2.599-0.781,3.888
			c-0.267,1.271-0.582,2.553-0.86,3.823c-0.216,0.989-0.394,2.015-0.575,3.021c-0.156,0.866-0.241,1.774-0.625,2.612
			c-0.197,0.431-0.141,0.958-0.256,1.446c-0.344,1.46-0.607,2.939-0.944,4.405c-0.226,0.983-0.384,2.018-0.571,3.021
			c-0.163,0.871-0.21,1.787-0.613,2.618c-0.213,0.439-0.006,0.96-0.277,1.448c-0.226,0.406-0.192,0.957-0.27,1.444
			c-0.083,0.526-0.021,1.138-0.278,1.557c-0.279,0.455,0.021,1.037-0.44,1.387c-0.02,0.015,0.001,0.077-0.003,0.117
			c-0.041,0.375,0.177,0.925-0.278,1.057c-0.549,0.161-1.167,0.118-1.752,0.101c-0.127-0.004-0.324-0.259-0.355-0.424
			c-0.115-0.6-0.139-1.218-0.264-1.815c-0.13-0.624-0.157-1.271-0.401-1.872c-0.186-0.458,0.098-1.02-0.31-1.432
			c-0.064-1.45-0.678-2.808-0.72-4.261c-0.515-0.427,0.039-1.175-0.48-1.601c0.124-0.558-0.164-1.053-0.24-1.58
			c-0.082-0.567-0.087-1.156-0.256-1.696c-0.35-1.122-0.485-2.281-0.719-3.423c-0.19-0.931-0.485-1.837-0.482-2.804
			c0-0.146-0.217-0.292-0.391-0.508c-0.202,1.543-0.723,2.942-0.793,4.427c-0.493,0.481-0.122,1.167-0.439,1.743
			c-0.275,0.5-0.036,1.29-0.324,1.772c-0.324,0.542,0.083,1.201-0.436,1.627c0.112,0.556-0.152,1.055-0.238,1.581
			c-0.091,0.565,0.003,1.245-0.285,1.671c-0.341,0.505-0.012,1.054-0.384,1.543c-0.265,0.349-0.259,0.94-0.279,1.427
			c-0.022,0.542-0.428,1.015-0.254,1.58c-0.49,0.482-0.123,1.167-0.439,1.744c-0.275,0.5-0.164,1.2-0.301,1.793
			c-0.047,0.205-0.31,0.468-0.511,0.504c-0.426,0.078-0.878,0.053-1.314,0.015c-0.333-0.03-0.547-0.222-0.559-0.608
			c-0.025-0.837-0.368-1.624-0.453-2.443c-0.087-0.836-0.369-1.632-0.462-2.443c-0.119-1.027-0.418-2.011-0.556-3.031
			c-0.093-0.69-0.243-1.401-0.442-2.086c-0.188-0.647-0.218-1.324-0.439-1.976c-0.153-0.448-0.144-0.962-0.257-1.451
			c-0.262-1.134-0.504-2.281-0.7-3.423c-0.173-1.009-0.348-2.032-0.564-3.024c-0.303-1.389-0.563-2.793-0.87-4.182
			c-0.219-0.987-0.354-2.028-0.57-3.021c-0.302-1.39-0.522-2.798-0.879-4.181c-0.214-0.828-0.33-1.701-0.51-2.552
			c-0.283-1.335-1.031-2.031-2.333-2.049c-0.156-0.002-0.312,0-0.559,0c0-0.257,0-0.484,0-0.712c0-0.2,0-0.4,0-0.6
			c0.96-0.179,6.89-0.23,10.042-0.084c0,0.423,0,0.853,0,1.396c-0.193,0-0.418-0.012-0.642,0.002
			c-0.634,0.04-1.226,0.653-1.237,1.29c-0.01,0.56-0.002,1.12-0.002,1.68c0.541,0.37-0.062,1.111,0.48,1.481
			c-0.065,0.626,0.084,1.22,0.23,1.823c0.125,0.516,0.078,1.088,0.274,1.568c0.218,0.533,0.01,1.182,0.263,1.559
			c0.337,0.503,0.069,1.034,0.379,1.544c0.309,0.508,0.17,1.271,0.306,1.906c0.133,0.622,0.248,1.25,0.389,1.87
			c0.142,0.622,0.193,1.277,0.314,1.915c0.1,0.523,0.067,1.095,0.27,1.568c0.229,0.535,0.199,1.055,0.214,1.592
			c0.547,0.368,0.124,1.001,0.43,1.511c0.307,0.51,0.193,1.266,0.295,1.91c0.095,0.605,0.34,1.188,0.248,1.823
			c-0.006,0.04,0.171,0.153,0.255,0.146c0.076-0.007,0.194-0.126,0.204-0.207c0.094-0.765,0.06-1.565,0.274-2.292
			c0.31-1.051,0.32-2.152,0.672-3.196c0.204-0.605,0.131-1.298,0.274-1.93c0.224-0.989,0.346-1.998,0.629-2.975
			c0.085-0.292,0.033-0.622,0.085-0.928c0.05-0.292,0.169-0.571,0.23-0.862c0.171-0.811,0.19-1.644,0.461-2.447
			c0.156-0.464-0.368-0.928-0.218-1.453c-0.485-0.574,0.005-1.387-0.48-1.96c-0.098-1.249-0.446-2.448-0.713-3.663
			c-0.123-0.558-0.146-1.136-0.258-1.697c-0.042-0.208-0.229-0.382-0.315-0.586c-0.304-0.719-0.847-1.031-1.613-0.99
			C102.103,17.045,101.985,17.04,101.792,17.04z"/>
		<path fill-rule="evenodd" clip-rule="evenodd" d="M47.982,51.84C47.992,52.025,48,52.104,48,52.182
			c-0.012,1.085-0.015,1.093-1.032,1.097c-1.479,0.005-2.959,0.001-4.439,0.001c-1.913,0-3.826,0-5.773,0c0-0.476,0-0.905,0-1.44
			c0.285,0,0.592-0.019,0.896,0.004c0.581,0.044,1.024-0.193,1.45-0.568c0.392-0.345,0.509-0.727,0.509-1.239
			c-0.014-10.398-0.01-20.797-0.011-31.196c0-0.387,0.055-0.763-0.329-1.071c-0.422-0.339-0.778-0.749-1.383-0.73
			c-0.356,0.011-0.713,0.002-1.119,0.002c0-0.478,0-0.934,0-1.44c3.097,0,6.169,0,9.243,0c0.4,0,0.8-0.008,1.2,0.002
			c0.597,0.015,0.755,0.166,0.787,0.74C48.009,16.539,48,16.738,48,17.04c-0.397,0-0.785-0.004-1.172,0
			c-1.177,0.014-1.945,0.761-1.946,1.924c-0.005,4.599-0.002,9.198-0.002,13.856c2.697,0,5.394,0,8.094,0
			c0.02-0.062,0.063-0.132,0.063-0.203c0.003-4.56-0.02-9.119,0.021-13.678c0.008-0.952-0.915-1.969-1.871-1.903
			c-0.313,0.021-0.63,0.003-0.986,0.003c0-0.462,0-0.892,0-1.381c3.616,0,7.272,0,10.963,0c0,0.417,0,0.847,0,1.381
			c-0.285,0-0.592,0.019-0.896-0.004c-0.581-0.044-1.024,0.193-1.45,0.569c-0.392,0.345-0.509,0.726-0.509,1.239
			c0.014,10.399,0.01,20.797,0.012,31.196c0,0.387-0.056,0.763,0.328,1.071c0.422,0.339,0.778,0.749,1.383,0.73
			c0.356-0.011,0.714-0.002,1.119-0.002c0,0.478,0,0.935,0,1.416c-3.651,0-7.28,0-10.949,0c0-0.437,0-0.867,0-1.416
			c0.301,0,0.646,0.007,0.989-0.001c1.036-0.024,1.842-0.778,1.844-1.782c0.01-5.039,0.005-10.079,0.002-15.118
			c0-0.03-0.045-0.061-0.088-0.115c-2.649,0-5.317,0-8.069,0c0,0.397,0,0.787,0,1.177c0,4.6-0.001,9.199,0.001,13.799
			c0,1.315,0.734,2.032,2.07,2.04C47.269,51.842,47.585,51.84,47.982,51.84z"/>
		<path fill-rule="evenodd" clip-rule="evenodd" d="M234.519,34.8c-0.017,0.173-0.037,0.286-0.037,0.399
			c-0.001,4.879,0.004,9.759-0.007,14.638c-0.002,0.907,0.364,1.539,1.206,1.878c0.171,0.069,0.364,0.112,0.548,0.12
			c0.433,0.017,0.867,0.005,1.335,0.005c0,0.474,0,0.903,0,1.387c-3.713,0-7.449,0-11.215,0c0-0.435,0-0.864,0-1.304
			c0.553-0.303,1.264,0.214,1.778-0.322c1.127,0.047,1.024-0.938,1.299-1.585c0.087-0.203,0.014-0.474,0.014-0.714
			c0-9.918,0-19.836,0.002-29.755c0-0.464-0.038-0.898-0.225-1.347c-0.292-0.7-0.685-1.111-1.383-1.153
			c-0.474-0.029-0.951-0.005-1.47-0.005c0-0.457,0-0.886,0-1.402c0.255-0.011,0.559-0.036,0.862-0.036
			c2.919-0.003,5.84,0.048,8.758-0.027c1.11-0.029,2.182,0.189,3.254,0.318c0.962,0.115,1.968,0.395,2.847,0.91
			c0.82,0.48,1.695,0.908,2.31,1.65c0.865,1.044,1.559,2.176,1.877,3.543c0.144,0.618,0.201,1.212,0.207,1.828
			c0.005,0.64,0.005,1.279,0,1.919c-0.017,2.112-0.75,3.913-2.242,5.435c-1.432,1.462-3.169,2.27-5.14,2.671
			c-0.195,0.04-0.364,0.213-0.542,0.402c0.798-0.02,1.477,0.352,2.199,0.506c0.464,0.099,0.625,0.603,1.092,0.569
			c0.742,0.756,1.593,1.43,2.104,2.371c0.295,0.545,0.558,1.181,0.582,1.786c0.066,1.648,0.389,3.277,0.29,4.94
			c-0.048,0.799,0.168,1.61,0.209,2.419c0.04,0.798-0.02,1.601,0.021,2.398c0.019,0.364,0.133,0.742,0.282,1.078
			c0.198,0.445,1.271,0.48,1.527,0.034c0.179-0.312,0.386-0.627,0.354-1.059c-0.057-0.756-0.021-1.519-0.015-2.279
			c0.008-0.826,0.151-0.961,0.953-0.936c0.563,0.018,0.525,0.016,0.495,0.706c-0.039,0.878-0.035,1.76-0.003,2.639
			c0.043,1.227-0.537,2.192-1.285,3.063c-0.25,0.291-0.688,0.434-1.059,0.604c-1.671,0.77-3.566,0.482-4.721-0.768
			c-0.562-0.608-0.886-1.371-1.106-2.178c-0.379-1.391-0.346-2.829-0.531-4.234c-0.23-1.739,0.002-3.473-0.217-5.183
			c-0.15-1.173-0.153-2.368-0.443-3.526c-0.313-1.246-1.557-2.326-2.854-2.397C235.801,34.771,235.167,34.8,234.519,34.8z
			 M234.502,33.12c0.75,0,1.397,0.066,2.024-0.019c0.659-0.089,1.42-0.161,1.917-0.533c0.726-0.544,1.371-1.223,1.823-2.09
			c0.554-1.063,0.57-2.236,0.933-3.33c-0.122-1.722,0.194-3.45-0.207-5.178c-0.18-0.777-0.423-1.491-0.732-2.219
			c-0.523-1.229-1.503-1.811-2.667-2.236c-1.023-0.374-2.06-0.182-3.092-0.246C234.502,22.602,234.502,27.823,234.502,33.12z"/>
		<path fill-rule="evenodd" clip-rule="evenodd" d="M334.8,34.442c0-0.535,0.029-0.858-0.005-1.175
			c-0.167-1.542,0.361-3.044,0.245-4.581c0.4-1.024,0.405-2.135,0.664-3.195c0.247-1.017,0.497-2.051,0.826-3.031
			c0.239-0.714,0.438-1.527,0.931-2.122c0.515-0.622,0.876-1.338,1.351-1.982c0.781-1.061,1.753-1.769,2.885-2.327
			c1.122-0.553,2.343-0.863,3.556-0.634c1.192,0.226,2.386,0.529,3.377,1.404c1.938,1.711,2.504,2.58,3.742,5.398
			c0.452,1.028,0.887,2.083,1.085,3.137c0.21,1.113,0.467,2.238,0.59,3.384c0.108,1.011,0.016,2.051,0.234,3.016
			c0.286,1.261,0.15,2.502,0.183,3.75c0.015,0.564-0.177,1.131-0.215,1.7c-0.04,0.597,0.11,1.232-0.042,1.791
			c-0.157,0.576-0.216,1.133-0.203,1.709c0.013,0.544-0.418,1.015-0.245,1.58c-0.43,1.152-0.653,2.364-1.025,3.534
			c-0.444,1.392-1.116,2.665-1.854,3.913c-0.402,0.68-1.835,2.156-2.568,2.606c-0.835,0.513-1.667,1.057-2.72,0.962
			c-0.481,0.38-1.051,0.266-1.579,0.223c-0.517-0.042-1.044-0.167-1.527-0.356c-0.652-0.256-1.356-0.503-1.879-0.943
			c-0.897-0.756-1.77-1.579-2.388-2.596c-1.028-1.691-1.793-3.486-2.243-5.434c-0.291-1.256-0.582-2.495-0.747-3.78
			c-0.088-0.689-0.03-1.411-0.215-2.06C334.623,36.966,334.921,35.591,334.8,34.442z M340.56,34.33c0,2.238-0.044,4.478,0.013,6.714
			c0.053,2.085-0.199,4.173,0.194,6.262c0.162,0.861,0.438,1.655,0.716,2.468c0.527,1.542,1.706,2.043,3.187,2.06
			c1.08,0.012,2.222-0.75,2.759-1.691c0.565-0.989,0.94-2.078,1.004-3.166c0.069-1.168,0.292-2.327,0.279-3.495
			c-0.083-7.121,0.25-14.247-0.24-21.362c-0.038-0.561-0.182-1.118-0.307-1.669c-0.082-0.36-0.195-0.717-0.337-1.058
			c-0.673-1.625-1.843-2.473-3.657-2.36c-1.042,0.064-1.843,0.562-2.392,1.379c-0.493,0.735-0.856,1.605-0.941,2.471
			c-0.098,1.002-0.321,1.985-0.302,3.015C340.601,27.375,340.56,30.853,340.56,34.33z"/>
		<path fill-rule="evenodd" clip-rule="evenodd" d="M80.433,40.351c0.414,0,0.762,0,1.138,0c0,4.298,0,8.565,0,12.88
			c-6.289,0-12.583,0-18.904,0c0-0.445,0-0.873,0-1.392c0.348,0,0.697,0.007,1.046-0.001c1.008-0.024,1.797-0.807,1.804-1.823
			c0.012-1.879,0.003-3.758,0.003-5.637c0-8.436-0.004-16.872,0.006-25.308c0.001-0.906-0.337-1.547-1.187-1.887
			c-0.172-0.069-0.358-0.129-0.54-0.138c-0.436-0.02-0.872-0.006-1.295-0.006c-0.043-0.095-0.101-0.163-0.101-0.229
			c0.002-1.205,0.004-1.209,1.156-1.21c5.797-0.001,11.594,0,17.392,0c0.193,0,0.386,0,0.614,0c0,4.316,0,8.583,0,12.905
			c-0.35,0-0.726,0-1.165,0c0-0.635-0.027-1.269,0.007-1.899c0.04-0.745-0.123-1.456-0.224-2.183
			c-0.095-0.681-0.35-1.322-0.438-1.971c-0.108-0.79-0.43-1.45-0.804-2.076c-0.839-1.401-1.827-2.682-3.649-2.857
			c-0.349-0.374-0.805-0.229-1.22-0.235c-1.04-0.016-2.079-0.006-3.119-0.002c-0.032,0-0.063,0.038-0.124,0.077
			c0,5.127,0,10.274,0,15.45c0.944,0.201,1.803,0.093,2.538-0.642c0.28-0.28,0.912-1.043,1.027-1.5
			c0.212-0.842,0.438-1.672,0.529-2.554c0.079-0.766,0.22-1.526,0.178-2.388c0.387-0.018,0.762-0.035,1.18-0.055
			c0,5.357,0,10.664,0,16.029c-0.336,0-0.713,0-1.161,0c0-0.222,0.016-0.454-0.003-0.683c-0.116-1.401-0.275-2.79-0.706-4.144
			c-0.328-1.031-1.02-1.723-1.934-2.156c-0.459-0.218-1.055-0.149-1.637-0.216c0,5.721,0,11.347,0,17.067
			c0.572,0.078,1.201,0.017,1.824,0.028c0.64,0.012,1.306,0.117,1.913-0.024c0.896-0.209,1.798-0.548,2.515-1.138
			c0.741-0.61,1.394-1.315,1.812-2.236c0.641-1.412,1.032-2.859,1.31-4.389C80.421,42.666,80.278,41.548,80.433,40.351z"/>
		<path fill-rule="evenodd" clip-rule="evenodd" d="M277.707,17.28c0,5.241,0,10.388,0,15.6c0.297,0,0.571-0.024,0.839,0.004
			c1.226,0.13,1.941-0.553,2.496-1.522c0.611-1.067,0.944-2.21,0.957-3.442c0.008-0.716,0.001-1.432,0.001-2.194
			c0.451,0,0.879,0,1.317,0c0.186,0.957,0.25,11.834,0.084,15.992c-0.423,0-0.853,0-1.401,0c0-0.699-0.019-1.445,0.004-2.19
			c0.035-1.126-0.305-2.182-0.757-3.166c-0.549-1.197-1.509-1.925-2.932-1.805c-0.159,0.014-0.32-0.001-0.479,0.004
			c-0.032,0.001-0.063,0.037-0.125,0.076c0,5.608,0,11.235,0,16.962c1.213,0,2.447,0.084,3.664-0.024
			c1.165-0.104,3.248-1.025,3.746-2.226c0.9-0.731,1.14-1.844,1.567-2.83c0.308-0.71,0.476-1.502,0.577-2.275
			c0.167-1.272,0.228-2.558,0.338-3.883c0.299,0,0.649,0,1.059,0c0,4.254,0,8.55,0,12.918c-0.218,0-0.448,0-0.678,0
			c-5.758,0-11.516,0-17.273,0c-0.16,0-0.32,0.006-0.479-0.001c-0.523-0.023-0.679-0.174-0.708-0.7
			c-0.013-0.229-0.002-0.46-0.002-0.739c0.423,0,0.777,0.003,1.13,0c1.202-0.013,1.902-0.673,1.987-1.881
			c0.017-0.239,0.002-0.479,0.002-0.719c0-9.957,0.001-19.913-0.006-29.869c0-0.381-0.017-0.786-0.142-1.139
			c-0.284-0.802-0.887-1.206-1.754-1.192c-0.391,0.006-0.783,0.001-1.194,0.001c0-0.499,0-0.927,0-1.398c6.357,0,12.703,0,19.057,0
			c0.172,0.942,0.229,9.475,0.076,12.878c-0.344,0-0.693,0-1.063,0c-0.019-0.031-0.079-0.091-0.089-0.16
			c-0.018-0.117-0.002-0.239-0.005-0.359c-0.018-0.752,0.142-1.57-0.104-2.238c-0.249-0.673,0.157-1.424-0.375-2.002
			c0.075-1.097-0.411-2.072-0.796-3.029c-0.4-0.995-1.104-1.879-2.026-2.479c-0.955-0.621-2.006-1.021-3.192-0.981
			C279.949,17.309,278.87,17.28,277.707,17.28z"/>
		<path fill-rule="evenodd" clip-rule="evenodd" d="M257.311,17.28c0,5.246,0,10.394,0,15.626c0.594-0.14,1.128,0.036,1.738-0.186
			c1.23-0.447,1.727-1.412,2.052-2.497c0.305-1.018,0.579-2.063,0.504-3.155c-0.03-0.433-0.005-0.871-0.005-1.347
			c0.381,0,0.73,0,1.14,0c0,5.294,0,10.63,0,16.002c-0.335,0-0.685,0-1.14,0c0-0.399-0.037-0.831,0.008-1.253
			c0.071-0.672-0.193-1.294-0.233-1.942c-0.038-0.623-0.307-1.155-0.466-1.728c-0.394-1.422-1.721-2.395-3.014-2.244
			c-0.188,0.021-0.38,0.003-0.592,0.003c0,5.701,0,11.329,0,17.04c1.241,0,2.484,0.115,3.695-0.036
			c1.028-0.128,1.999-0.515,2.822-1.301c1.168-1.115,1.979-2.399,2.434-3.924c0.16-0.538,0.264-1.092,0.385-1.641
			c0.314-1.427,0.354-2.889,0.556-4.354c0.345,0,0.693,0,1.125,0c0,0.397,0,0.788,0,1.179c0,3.6,0.002,7.199-0.001,10.798
			c0,0.85-0.101,0.957-0.93,0.958c-5.759,0.003-11.519,0.003-17.278,0c-0.945-0.001-0.978-0.043-0.989-1.019
			c-0.001-0.115,0.015-0.229,0.029-0.42c0.281,0,0.558-0.039,0.819,0.008c0.667,0.119,1.263-0.211,1.67-0.566
			c0.365-0.32,0.429-0.997,0.592-1.527c0.056-0.183,0.009-0.397,0.009-0.597c0-9.799,0-19.598-0.001-29.396
			c0-0.459,0.053-0.919-0.23-1.346c-0.178-0.269-0.195-0.761-0.415-0.859c-0.431-0.192-0.804-0.578-1.346-0.522
			c-0.35,0.036-0.707,0.007-1.093,0.007c0-0.477,0-0.905,0-1.44c0.324,0,0.67,0,1.017,0c5.6,0,11.199,0,16.798,0
			c0.24,0,0.48-0.012,0.72,0.002c0.415,0.025,0.6,0.224,0.629,0.658c0.008,0.12,0.001,0.24,0.001,0.36c0,3.879,0,7.759-0.001,11.639
			c0,0.074-0.026,0.148-0.047,0.262c-0.337,0-0.688,0-1.057,0c-0.019-0.032-0.092-0.097-0.089-0.16
			c0.05-1.255-0.426-2.477-0.245-3.74c-0.408-1.504-0.55-3.088-1.431-4.449c-0.423-0.652-0.804-1.363-1.452-1.781
			c-0.709-0.457-1.52-0.761-2.299-1.1c-0.168-0.073-0.396-0.011-0.595-0.011C259.864,17.28,258.626,17.28,257.311,17.28z"/>
		<path fill-rule="evenodd" clip-rule="evenodd" d="M398.915,17.04c0-0.535,0-0.964,0-1.44c2.267,0,4.5,0.003,6.733-0.003
			c0.435-0.001,0.557,0.224,0.69,0.615c0.406,1.188,0.913,2.341,1.348,3.52c0.641,1.734,1.428,3.409,2.006,5.169
			c0.311,0.945,0.789,1.833,1.129,2.771c0.783,2.154,1.802,4.216,2.47,6.417c0.246,0.81,0.624,1.58,0.949,2.365
			c0.434,1.048,0.874,2.093,1.439,3.128c0-0.307,0-0.613,0-0.92c0-6.399,0-12.798,0-19.197c0-1.546-0.875-2.417-2.427-2.425
			c-0.197-0.001-0.395,0-0.583,0c-0.043-0.085-0.105-0.151-0.105-0.218c-0.004-1.217-0.003-1.22,1.144-1.222
			c2.233-0.002,4.466,0,6.736,0c0,0.473,0,0.902,0,1.44c-0.319,0-0.666,0.002-1.011,0c-0.771-0.006-1.276,0.346-1.602,1.055
			c-0.387,0.842-0.471,1.04-0.471,1.965c0,10.638,0,21.277,0,31.915c0,0.398,0,0.797,0,1.25c-0.625,0-1.242,0-1.843,0
			c-0.206-0.607-0.352-1.23-0.621-1.794c-1.036-2.171-1.801-4.454-2.752-6.66c-0.567-1.315-1.01-2.703-1.534-4.044
			c-0.509-1.304-1.048-2.607-1.594-3.899c-0.413-0.977-0.818-1.981-1.164-2.998c-0.332-0.978-0.783-1.914-1.172-2.873
			c-0.668-1.643-1.2-3.342-2.037-4.916c-0.035-0.851-0.495-1.544-0.962-2.276c0,0.264,0,0.529,0,0.793
			c0,8.159,0.007,16.317-0.017,24.476c-0.001,0.564,0.21,1.042,0.34,1.548c0.219,0.854,1.042,1,1.73,1.24
			c0.285,0.099,0.633,0.016,1.066,0.016c0,0.229,0.01,0.454-0.001,0.678c-0.03,0.583-0.191,0.757-0.767,0.759
			c-2.355,0.008-4.71,0.003-7.108,0.003c0-0.458,0-0.888,0-1.404c0.256-0.011,0.56-0.03,0.865-0.035
			c1.228-0.021,2.209-0.965,2.21-2.162c0.003-10.239,0.003-20.478,0-30.716c0-1.162-0.77-1.909-1.947-1.923
			C399.694,17.037,399.337,17.04,398.915,17.04z"/>
		<path fill-rule="evenodd" clip-rule="evenodd" d="M217.68,17.28c0,10.94-0.001,21.772,0.001,32.604c0,1.18,0.756,1.94,1.913,1.956
			c0.36,0.004,0.72,0,1.143,0c0,0.452,0,0.907,0,1.44c-0.449,0-0.92,0-1.391,0c-2.958,0-5.917,0.001-8.875,0
			c-1.203,0-1.204-0.003-1.189-1.177c0.001-0.071,0.043-0.141,0.083-0.262c0.376,0,0.77-0.018,1.162,0.004
			c0.638,0.036,1.054-0.334,1.516-0.701c0.433-0.343,0.355-0.757,0.355-1.181c0.002-10.354,0.001-20.708,0.001-31.063
			c0-0.32-0.027-0.643,0.006-0.959c0.063-0.604,0.061-0.626-0.417-0.661c-1.232-0.087-2.156,0.48-2.972,1.525
			c-0.568,0.728-0.883,1.563-1.304,2.348c-0.42,0.783-0.556,1.689-0.803,2.54c-0.223,0.765-0.187,1.604-0.271,2.41
			c-0.084,0.801-0.176,1.6-0.267,2.426c-0.378,0-0.726,0-1.172,0c0-0.335,0-0.684,0-1.031c0-3.518,0-7.036,0-10.554
			c0-0.24-0.012-0.48,0.002-0.72c0.026-0.413,0.225-0.597,0.663-0.623c0.199-0.012,0.4-0.002,0.6-0.002c5.797,0,11.593,0,17.39,0
			c0.28,0,0.578-0.058,0.833,0.021c0.161,0.049,0.533,0.098,0.274,0.544c-0.175,0.301-0.211,0.847-0.05,1.143
			c0.291,0.538,0.196,1.066,0.2,1.597c0.018,2.199,0.029,4.397-0.003,6.596c-0.012,0.808-0.162,1.612-0.219,2.42
			c-0.012,0.169,0.106,0.347,0.181,0.572c-0.407,0-0.854,0-1.391,0c0-0.474,0-0.983,0-1.493c0-0.56,0-1.119,0-1.679
			c-0.547-0.368,0.053-1.108-0.48-1.48c0.077-1.257-0.554-2.333-0.995-3.426c-0.46-1.142-1.27-2.119-2.268-2.882
			c-0.22-0.167-0.56-0.216-0.851-0.243C218.653,17.251,218.214,17.28,217.68,17.28z"/>
		<path fill-rule="evenodd" clip-rule="evenodd" d="M306,51.84c0,0.5,0.001,0.897-0.003,1.294c0,0.031-0.042,0.062-0.102,0.146
			c-1.874,0-3.786,0-5.698,0c-1.6,0-3.199,0.005-4.798-0.002c-0.834-0.004-0.897-0.081-0.918-0.97c-0.003-0.119,0-0.237,0-0.468
			c0.428,0,0.855,0.008,1.282-0.001c1.026-0.021,1.808-0.787,1.838-1.792c0.001-0.04,0-0.08,0-0.12c0-10.757,0-21.514-0.002-32.271
			c0-0.111-0.025-0.222-0.038-0.323c-2.014-0.38-3.206,0.779-4.005,2.293c-0.723,1.368-1.28,2.835-1.513,4.418
			c-0.108,0.732-0.049,1.49-0.239,2.175c-0.212,0.766-0.143,1.529-0.227,2.313c-0.388,0-0.736,0-1.13,0c0-4.295,0-8.591,0-12.909
			c6.535,0,13.042,0,19.591,0c0,4.28,0,8.547,0,12.876c-0.33,0-0.706,0-1.158,0c0-0.533,0.029-1.086-0.005-1.634
			c-0.146-2.387-0.66-4.7-1.726-6.839c-0.535-1.073-1.214-2.073-2.477-2.566c-0.61-0.239-1.147-0.058-1.792-0.221
			c0,0.463,0,0.854,0,1.244c0,10.477,0,20.954,0.001,31.431c0,0.464-0.075,0.917,0.405,1.283c0.473,0.361,0.903,0.7,1.539,0.649
			C305.18,51.817,305.54,51.84,306,51.84z"/>
		<path fill-rule="evenodd" clip-rule="evenodd" d="M31.92,51.84c0,0.301,0.009,0.499-0.001,0.696
			c-0.032,0.574-0.191,0.74-0.785,0.741c-3.553,0.006-7.105,0.003-10.696,0.003c0-0.47,0-0.899,0-1.398
			c0.628-0.132,1.361,0.111,1.986-0.28c0.189-0.119,0.501-0.176,0.563-0.337c0.213-0.552,0.554-1.035,0.552-1.699
			c-0.026-10.597-0.019-21.194-0.019-31.791c0-0.15,0-0.3,0-0.455c-2.015-0.295-3.238,0.741-4.052,2.303
			c-0.387,0.742-0.846,1.465-1.039,2.334c-0.117,0.529-0.248,1.085-0.424,1.615c-0.169,0.509-0.157,1.069-0.28,1.57
			c-0.276,1.119-0.14,2.246-0.232,3.39c-0.385,0-0.733,0-1.127,0c0-4.267,0-8.533,0-12.808c0.963-0.19,15.171-0.26,19.592-0.086
			c0,4.265,0,8.532,0,12.861c-0.331,0-0.708,0-1.158,0c0-0.334,0.025-0.688-0.005-1.036c-0.063-0.729-0.097-1.467-0.252-2.177
			c-0.144-0.656-0.3-1.326-0.411-1.974c-0.122-0.716-0.363-1.401-0.581-2.055c-0.322-0.971-0.889-1.892-1.5-2.727
			c-0.605-0.827-1.478-1.338-2.585-1.254c-0.273,0.021-0.55,0.003-0.906,0.003c0,0.423,0,0.813,0,1.204
			c0,10.277-0.002,20.554,0.008,30.831c0,0.41,0.01,0.797,0.19,1.238c0.394,0.963,1.095,1.224,1.988,1.284
			C31.102,51.86,31.461,51.84,31.92,51.84z"/>
		<path fill-rule="evenodd" clip-rule="evenodd" d="M187.92,40.347c0.439,0,0.788,0,1.222,0c-0.185,1.163,0.157,2.261,0.271,3.375
			c0.192,1.887,0.75,3.739,1.885,5.315c0.483,0.671,1.088,1.302,1.762,1.775c0.653,0.459,1.437,0.856,2.212,0.987
			c1.013,0.17,2.044,0.005,3.06-0.372c1.068-0.397,1.719-1.192,2.213-2.071c0.37-0.658,0.464-1.501,0.556-2.277
			c0.089-0.749,0.113-1.532-0.001-2.273c-0.199-1.287-0.547-2.529-1.201-3.699c-0.85-1.519-1.993-2.769-3.252-3.922
			c-1.046-0.958-2.195-1.798-3.322-2.663c-0.912-0.701-1.657-1.617-2.479-2.436c-0.872-0.868-1.53-1.885-2.028-2.999
			c-0.459-1.026-0.796-2.076-0.944-3.221c-0.105-0.811-0.206-1.613-0.188-2.426c0.035-1.592,0.525-3.744,1.7-5.283
			c1.061-1.39,2.489-2.345,4.31-2.565c0.528-0.064,1.029-0.238,1.581-0.249c1.878-0.037,3.555,0.581,5.157,1.466
			c0.302,0.167,0.541,0.449,0.869,0.729c0.292-0.543,0.587-1.093,0.9-1.677c0.304,0,0.653,0,1.078,0c0,0.408,0,0.798,0,1.189
			c0,3.439,0,6.878,0,10.317c0,0.24,0.008,0.48-0.001,0.719c-0.02,0.514-0.166,0.663-0.696,0.711
			c-0.149,0.014-0.301,0.002-0.526,0.002c0.195-1.325-0.176-2.542-0.271-3.783c-0.106-1.394-0.378-2.805-0.979-4.136
			c-0.344-0.763-0.785-1.459-1.252-2.109c-0.549-0.765-1.477-1.142-2.358-1.49c-1.011-0.399-2.051-0.377-3.033,0.015
			c-1.026,0.411-1.776,1.165-2.169,2.238c-0.16,0.438-0.239,0.873-0.25,1.341c-0.008,0.369-0.214,0.735-0.208,1.101
			c0.007,0.447,0.2,0.893,0.208,1.34c0.009,0.514,0.231,0.952,0.396,1.402c0.151,0.414,0.401,0.805,0.669,1.159
			c0.919,1.216,1.905,2.365,3.195,3.225c0.444,0.296,0.808,0.705,1.246,1.032c1.148,0.859,2.229,1.815,3.292,2.781
			c1.29,1.171,2.285,2.601,3.114,4.108c0.51,0.926,0.762,2.005,1.053,3.037c0.434,1.539,0.58,3.12,0.487,4.716
			c-0.113,1.943-0.494,3.823-1.688,5.415c-1.081,1.441-2.454,2.468-4.277,2.881c-0.537,0.121-1.15,0.016-1.563,0.249
			c-0.562,0.318-1.103,0.237-1.601,0.169c-1.516-0.207-3.074-0.277-4.438-1.152c-0.441-0.284-0.901-0.537-1.321-0.859
			c-0.341-0.261-0.554-0.144-0.716,0.265c-0.177,0.447-0.395,0.878-0.611,1.307c-0.129,0.255-0.407,0.301-0.615,0.21
			c-0.183-0.081-0.351-0.289-0.432-0.48c-0.072-0.169-0.015-0.394-0.015-0.593C187.92,48.271,187.92,44.353,187.92,40.347z"/>
		<path fill-rule="evenodd" clip-rule="evenodd" d="M158.675,17.04c0-0.534,0-0.963,0-1.44c2.546,0,5.058,0,7.57,0
			c0.92,0,1.839-0.006,2.759,0.002c0.834,0.007,0.895,0.079,0.916,0.972c0.003,0.119,0,0.237,0,0.466
			c-0.391,0-0.777,0.015-1.163-0.004c-0.525-0.026-0.966,0.115-1.367,0.479c-0.402,0.366-0.375,0.89-0.581,1.325
			c-0.062,0.13-0.01,0.315-0.01,0.475c0,10.595,0,21.191,0,31.786c0,0.15,0,0.3,0,0.5c1.144,0,2.226,0.086,3.287-0.025
			c1-0.104,1.959-0.391,2.784-1.096c1.157-0.988,2.175-2.713,2.583-4.56c0.267-1.206,0.479-2.401,0.484-3.643
			c0.002-0.637,0.19-1.273,0.298-1.933c0.345,0,0.693,0,1.124,0c0,0.398,0,0.789,0,1.179c0,3.479,0,6.957,0,10.436
			c0,0.28,0.056,0.576-0.019,0.834c-0.054,0.188-0.253,0.381-0.438,0.471c-0.162,0.079-0.392,0.016-0.592,0.016
			c-5.837,0-11.675,0-17.512-0.001c-0.113,0-0.226-0.021-0.368-0.034c0-0.448,0-0.876,0-1.405c0.492,0,1,0.009,1.508-0.002
			c1.014-0.02,1.808-0.8,1.817-1.809c0.014-1.479,0.003-2.959,0.003-4.438c0-8.836-0.004-17.672,0.007-26.509
			c0.001-0.907-0.319-1.554-1.179-1.891c-0.172-0.067-0.356-0.136-0.537-0.145C159.615,17.026,159.177,17.04,158.675,17.04z"/>
		<path fill-rule="evenodd" clip-rule="evenodd" d="M319.455,47.595c-0.215,1.737,1.252,3.687,3.159,4.149
			c1.597,0.387,2.908-0.034,3.59-1.514c0.253-0.548,0.432-1.13,0.433-1.738c0.005-9.913,0.004-19.826,0.003-29.739
			c0-0.349,0.047-0.681-0.304-0.962c-0.39-0.312-0.731-0.691-1.254-0.743c-0.396-0.039-0.799-0.008-1.282-0.008
			c-0.013-0.219-0.032-0.443-0.038-0.667c-0.006-0.233-0.001-0.467-0.001-0.736c3.674,0,7.3,0,10.983,0c0,0.423,0,0.879,0,1.403
			c-0.348,0-0.7-0.01-1.051,0.002c-0.961,0.032-1.729,0.788-1.77,1.737c-0.011,0.239-0.002,0.479-0.002,0.719
			c0,8.754,0.019,17.508-0.02,26.262c-0.006,1.311-0.284,2.601-0.91,3.815c-0.27,0.523-0.523,1.021-0.967,1.391
			c-0.445,0.371-0.802,0.814-1.312,1.148c-1.082,0.71-2.186,1.186-3.483,1.162c-0.504-0.009-0.933,0.27-1.459,0.265
			c-3.289-0.032-6.042-2.4-6.763-5.679c-0.261-1.187-0.227-2.348-0.167-3.504c0.054-1.044,0.749-2.382,2.365-2.879
			c1.448-0.445,2.587,0.483,3.085,1.341c0.07,0.121,0.031,0.308,0.031,0.465c0.003,0.52,0.005,1.04,0,1.559
			c-0.01,1.036-0.732,2.084-1.696,2.431C320.273,47.401,319.905,47.474,319.455,47.595z"/>
		<path fill-rule="evenodd" clip-rule="evenodd" d="M462.747,48.467c0.364,0.079,0.703-0.088,1.037,0.21
			c0.537,0.479,0.946,1.031,1.082,1.716c0.248,1.25-0.47,2.466-1.656,3.006c-0.343,0.156-0.637,0.157-0.979,0
			c-1.11-0.507-1.861-1.691-1.649-2.885c0.141-0.795,0.588-1.506,1.271-1.971C462.075,48.391,462.465,48.484,462.747,48.467z"/>
		<path fill-rule="evenodd" clip-rule="evenodd" fill="none" d="M384.5,33.12c0-5.317,0-10.538,0-15.84
			c0.726,0,1.435-0.018,2.143,0.005c0.871,0.027,2.272,0.903,2.927,1.575c0.938,0.961,1.121,2.158,1.42,3.378
			c0.385,1.572,0.15,3.136,0.177,4.699c0.009,0.545-0.154,1.129-0.242,1.691c-0.076,0.491-0.274,1.01-0.471,1.472
			c-0.797,1.873-2.385,2.98-4.311,3.018C385.625,33.129,385.107,33.12,384.5,33.12z"/>
		<path fill-rule="evenodd" clip-rule="evenodd" fill="none" d="M124.753,42.48c0.154-0.567-0.107-1.051,0.241-1.553
			c0.272-0.392-0.075-0.945,0.236-1.461c0.248-0.411-0.081-1.071,0.29-1.55c-0.183-0.717,0.161-1.381,0.276-2.052
			c0.204-1.185,0.257-2.402,0.642-3.559c0.095-0.287,0.004-0.631,0.049-0.941c0.043-0.292,0.217-0.573,0.219-0.86
			c0.004-0.66,0.199-1.3,0.308-1.928c0.153-0.876,0.188-1.798,0.589-2.782c0.053,0.682,0.331,1.165,0.345,1.757
			c0.014,0.601,0.304,1.19,0.211,1.819c0.582,0.455-0.107,1.265,0.48,1.718c0.015,0.536,0.034,1.049,0.207,1.589
			c0.218,0.681,0.18,1.442,0.28,2.166c0.041,0.292,0.171,0.57,0.229,0.861c0.059,0.294-0.042,0.585,0.19,0.891
			c0.156,0.205,0.018,0.615,0.063,0.925c0.042,0.292,0.178,0.57,0.226,0.861c0.099,0.603,0.208,1.209,0.233,1.818
			c0.024,0.579,0.41,1.094,0.264,1.693c0.482,0.445-0.013,0.501-0.262,0.575c-0.221,0.065-0.476,0.014-0.715,0.014
			C127.876,42.48,126.398,42.48,124.753,42.48z"/>
		<path fill-rule="evenodd" clip-rule="evenodd" fill="none" d="M431.057,42.48c-1.745,0-3.415,0.002-5.084-0.004
			c-0.146-0.001-0.301-0.043-0.433-0.106c-0.102-0.049-0.173-0.163-0.258-0.247c0.479-0.417,0.081-0.996,0.262-1.448
			c0.302-0.754,0.246-1.566,0.461-2.326c0.206-0.726,0.236-1.481,0.411-2.218c0.146-0.613,0.198-1.278,0.304-1.919
			c0.106-0.642,0.341-1.268,0.245-1.936c0.575-0.458-0.087-1.259,0.476-1.721c-0.164-0.714,0.207-1.363,0.257-2.057
			c0.051-0.726,0.304-1.432,0.241-2.18c-0.011-0.123,0.219-0.265,0.375-0.441c0.117,0.713,0.276,1.345,0.311,1.984
			c0.033,0.618,0.199,1.215,0.298,1.81c0.23,1.379,0.418,2.77,0.712,4.135c0.106,0.493,0.077,1.013,0.24,1.453
			c0.17,0.459,0.088,0.928,0.227,1.345c0.369,1.119,0.298,2.309,0.669,3.434C431.015,40.779,430.966,41.618,431.057,42.48z"/>
		<path fill-rule="evenodd" clip-rule="evenodd" fill="none" d="M234.502,33.12c0-5.297,0-10.519,0-15.85
			c1.033,0.063,2.069-0.128,3.092,0.246c1.164,0.425,2.143,1.006,2.667,2.236c0.31,0.728,0.552,1.441,0.732,2.219
			c0.4,1.729,0.084,3.457,0.207,5.178c-0.363,1.093-0.379,2.266-0.933,3.33c-0.452,0.868-1.097,1.546-1.823,2.09
			c-0.497,0.373-1.258,0.444-1.917,0.533C235.899,33.187,235.252,33.12,234.502,33.12z"/>
		<path fill-rule="evenodd" clip-rule="evenodd" fill="none" d="M340.56,34.33c0-3.477,0.041-6.955-0.025-10.431
			c-0.02-1.03,0.204-2.013,0.302-3.015c0.085-0.866,0.448-1.736,0.941-2.471c0.549-0.818,1.35-1.315,2.392-1.379
			c1.814-0.113,2.984,0.735,3.657,2.36c0.142,0.341,0.255,0.698,0.337,1.058c0.125,0.552,0.269,1.108,0.307,1.669
			c0.489,7.116,0.157,14.242,0.24,21.362c0.014,1.167-0.21,2.326-0.279,3.495c-0.063,1.088-0.439,2.176-1.004,3.166
			c-0.537,0.94-1.679,1.703-2.759,1.691c-1.481-0.017-2.66-0.518-3.187-2.06c-0.278-0.813-0.554-1.607-0.716-2.468
			c-0.393-2.088-0.141-4.176-0.194-6.262C340.516,38.807,340.56,36.568,340.56,34.33z"/>
	</g>
</g>
</svg>
