<?xml version="1.0" encoding="utf-8"?>
<!-- Generator: Adobe Illustrator 16.0.0, SVG Export Plug-In . SVG Version: 6.00 Build 0)  -->
<!DOCTYPE svg PUBLIC "-//W3C//DTD SVG 1.1//EN" "http://www.w3.org/Graphics/SVG/1.1/DTD/svg11.dtd">
<svg version="1.1" id="Layer_1" xmlns="http://www.w3.org/2000/svg" xmlns:xlink="http://www.w3.org/1999/xlink" x="0px" y="0px"
	 width="204.095px" height="204.095px" viewBox="0 0 204.095 204.095" enable-background="new 0 0 204.095 204.095"
	 xml:space="preserve">
<g>
	<path fill="#00B4C8" d="M149.359,81.03c-8.688,0.003-12.644,4.455-13.028,14.857l25.25-0.023
		C161.331,86.091,157.919,81.026,149.359,81.03z"/>
	<path fill="#00B4C8" d="M194.928,0H9.583C4.376,0,0,4.21,0,9.463v185.162c0,5.054,4.376,9.47,9.583,9.47h185.345
		c4.796,0,9.167-4.416,9.167-9.47V9.463C204.095,4.21,199.724,0,194.928,0z M82.373,84.319
		c-0.103,0.431-10.612,44.564-14.526,59.095c-2.159,8.012-8.768,12.783-17.677,12.783c-8.882,0-11.835-0.575-14.188-1.644
		c-1.379-0.588-2.745-1.397-2.745-4.056v-2.322c0-2.393,1.298-3.765,3.569-3.765c0.839,0,1.756,0.109,2.906,0.24
		c1.913,0.226,4.531,0.532,8.521,0.532c4.833,0,7.643-1.185,9.455-6.823c0.557-1.733,1.454-6.29,1.871-8.502h-3.96
		c-6.68,0-10.287-2.843-12.059-9.496l-9.881-35.239c-0.949-3.596-1.39-6.017-1.39-7.646c0-2.674,1.542-4.146,4.347-4.146h3.485
		c3.211,0,3.881,2.541,4.591,5.234l0.101,0.387l9.3,35.254c1.111,4.43,2.423,5.218,5.564,5.218h2.072l9.305-40.439
		c0.963-4.233,2.245-5.653,5.095-5.653h3.289c2.519,0,4.151,1.627,4.151,4.146C83.569,79.65,82.373,84.319,82.373,84.319z
		 M109.917,124.74c0,3.424-0.774,5.699-4.542,5.699h-2.715c-3.975,0-4.729-2.001-4.729-5.699V55.48h-2.048
		c-5.124,0-5.887-2.598-5.887-4.146v-3.685c0-3.957,4.001-3.957,5.503-3.957h8.325c5.624,0,6.094,4.442,6.094,8.996V124.74z
		 M163.801,105.643h-27.697c0.422,12.107,2.257,14.752,16.918,14.752c5.886,0,8.916-0.599,10.925-0.994
		c1.026-0.202,1.84-0.36,2.637-0.36c2.269,0,3.567,1.367,3.567,3.761v2.126c0,2.671-1.364,3.473-2.768,4.069
		c-2.234,1.022-7.962,2.217-16.681,2.217c-19.544,0-26.812-7.738-26.812-28.555c0-21.354,7.79-30.881,25.26-30.881
		c20.85,0,23.452,15.289,23.452,26.6C172.603,102.74,170.475,105.643,163.801,105.643z"/>
</g>
</svg>
